<?xml version="1.0" encoding="UTF-8"?>
<svg version="1.1" xmlns="http://www.w3.org/2000/svg" width="16" height="16">
<path d="M0 0 C0.99 0.66 1.98 1.32 3 2 C2.608125 2.556875 2.21625 3.11375 1.8125 3.6875 C1.544375 4.450625 1.27625 5.21375 1 6 C2.28184562 8.74832154 2.28184562 8.74832154 4 11 C3.0625 13.5 3.0625 13.5 1 16 C-2.12563764 16.76956987 -4.8653204 16.70162504 -8 16 C-11.06018871 13.46228253 -11.83450185 11.88265681 -12.5625 8 C-11.24010087 0.94720464 -6.65626285 -0.86284889 0 0 Z " fill="#FBAE16" transform="translate(12,0)"/>
<path d="M0 0 C2 0.875 2 0.875 2.6875 2.625 C3 4.875 3 4.875 2.125 7.125 C-0.84063726 9.5672895 -3.19936363 9.31473832 -6.94140625 9.30859375 C-9 8.875 -9 8.875 -11 5.875 C-3.9452954 -0.16438731 -3.9452954 -0.16438731 0 0 Z " fill="#E94E88" transform="translate(13,7.125)"/>
<path d="M0 0 C3.39914975 1.13304992 4.05254451 2.12518475 6 5 C4.9024777 7.99324263 4.32317108 8.84610901 1.375 10.25 C0.59125 10.4975 -0.1925 10.745 -1 11 C-2.38550197 8.22899606 -2.1877467 6.0665294 -2 3 C-1.34 2.01 -0.68 1.02 0 0 Z " fill="#F25D23" transform="translate(2,2)"/>
<path d="M0 0 C0.4125 0.61875 0.825 1.2375 1.25 1.875 C3.07610938 4.09241854 4.43617863 4.82403235 7 6 C5.54257537 6.08096803 4.08387193 6.13917774 2.625 6.1875 C1.81289062 6.22230469 1.00078125 6.25710937 0.1640625 6.29296875 C-0.55007813 6.19628906 -1.26421875 6.09960938 -2 6 C-2.66 5.01 -3.32 4.02 -4 3 C-2.68 2.01 -1.36 1.02 0 0 Z " fill="#EF75A8" transform="translate(6,10)"/>
<path d="M0 0 C4.875 4.75 4.875 4.75 6 7 C3.625 7.125 3.625 7.125 1 7 C0.34 6.34 -0.32 5.68 -1 5 C-0.625 2.375 -0.625 2.375 0 0 Z " fill="#EA5F9A" transform="translate(8,8)"/>
</svg>
