<?xml version="1.0" encoding="UTF-8"?>
<svg version="1.1" xmlns="http://www.w3.org/2000/svg" width="32" height="32">
<path d="M0 0 C1.640625 1.37890625 1.640625 1.37890625 4.015625 3.81640625 C-0.734375 9.69140625 -0.734375 9.69140625 -2.984375 10.81640625 C-1.56125 11.68265625 -1.56125 11.68265625 -0.109375 12.56640625 C4.1784157 15.65361555 4.1784157 15.65361555 5.015625 18.81640625 C5.015625 22.80035176 4.24938301 24.50918144 1.828125 27.69140625 C-2.43441205 30.91430012 -7.53090073 30.32957432 -12.64453125 30.28515625 C-17.75216467 29.56829542 -20.17612646 27.8649449 -23.296875 23.81640625 C-25.78246673 19.03798296 -25.76848593 14.05965307 -24.984375 8.81640625 C-22.80648593 4.37996555 -20.07002074 1.57421712 -15.984375 -1.18359375 C-10.91220084 -2.86361768 -4.64675674 -2.77158916 0 0 Z " fill="#FAAE16" transform="translate(25.984375,2.18359375)"/>
<path d="M0 0 C2.85027985 3.06405084 3.95365446 4.86453435 4.125 9.0625 C2.97266612 12.07137179 1.81056496 14.12036552 -0.7890625 16.0859375 C-5.82784623 18.16910957 -11.68996988 17.74526739 -17 17 C-19.93359375 15.46875 -19.93359375 15.46875 -22 14 C-21.13181258 9.02092513 -18.18135983 7.1927266 -14.375 4.1875 C-13.77042969 3.67251953 -13.16585938 3.15753906 -12.54296875 2.62695312 C-8.18623395 -0.84264271 -5.60054754 -1.73904532 0 0 Z " fill="#E85796" transform="translate(27,15)"/>
<path d="M0 0 C4.23473064 3.98562883 7.57360692 8.29866997 11 13 C5.06 17.95 5.06 17.95 -1 23 C-4 21 -4 21 -5 18 C-5.98391321 7.72536532 -5.98391321 7.72536532 -3.0625 3.375 C-1 1 -1 1 0 0 Z " fill="#F25D23" transform="translate(6,4)"/>
<path d="M0 0 C0.28875 1.11375 0.5775 2.2275 0.875 3.375 C1.69241329 7.00291092 1.69241329 7.00291092 4 9 C6.65537372 9.56520003 9.29144713 9.73788198 12 10 C9.15586999 12.84413001 7.14992841 12.30005258 3.1875 12.3125 C1.96417969 12.32925781 0.74085937 12.34601562 -0.51953125 12.36328125 C-4.17403276 11.98183496 -6.05315674 11.12734018 -9 9 C-8.82701599 6.66471585 -8.29774631 5.30822418 -6.66796875 3.62109375 C-2.42788462 0 -2.42788462 0 0 0 Z " fill="#EF75A9" transform="translate(14,20)"/>
</svg>
