<svg width="512" height="512" version="1.1" xmlns="http://www.w3.org/2000/svg" desc="Created with imagetracer.js version 1.2.6" ><path fill="rgb(238,178,37)" stroke="rgb(238,178,37)" stroke-width="1" opacity="0.996078431372549" d="M 68.5 241 L 72 243.5 L 78.5 261 L 92.5 265 L 96 267.5 Q 96.8 271.3 94.5 272 L 80.5 276 L 77 278.5 L 70.5 296 Q 66.8 296.8 66 294.5 L 62 280.5 L 59.5 277 L 42 270.5 Q 41.3 266.8 43.5 266 L 61 259.5 L 66 243.5 L 68.5 241 Z " /><path fill="rgb(238,178,37)" stroke="rgb(238,178,37)" stroke-width="1" opacity="0.996078431372549" d="M 398.5 242 L 410.5 242 L 424.5 246 L 460.5 267 L 470 276.5 Q 480.5 287.5 479 310.5 L 474 325.5 L 457 351.5 Q 435.3 381.3 408.5 406 L 369.5 437 L 350.5 448 L 341.5 450 L 333.5 448 L 327 444 L 322 434.5 L 322 401.5 L 323 400.5 L 323 392.5 L 324 391.5 L 326 373.5 L 331.5 351 L 333 356 L 337 354.5 L 340 344 L 350.5 341 L 353 338.5 Q 348.5 333.3 340 333 L 339 323.5 Q 348.6 295.1 362 270.5 Q 367.6 258.6 377.5 251 Q 385.6 244.1 398.5 242 Z M 395 292 L 386 295 L 380 301 L 369 326 L 361 354 L 359 373 L 358 374 L 358 388 L 360 397 L 375 392 L 397 376 Q 420 356 436 329 Q 438 317 432 312 Q 424 302 412 297 Q 405 292 395 292 Z " /><path fill="rgb(238,178,37)" stroke="rgb(238,178,37)" stroke-width="1" opacity="0.996078431372549" d="M 131.5 357 L 134.5 357 L 153.5 364 L 196 370 L 197 372.5 L 197 408.5 L 192.5 411 L 191.5 410 L 180.5 410 L 179.5 409 L 172.5 409 L 149.5 405 L 133.5 401 L 129 397.5 L 129 359.5 L 131.5 357 Z " /><path fill="rgb(238,178,37)" stroke="rgb(238,178,37)" stroke-width="1" opacity="0.996078431372549" d="M 219.5 456 Q 222.1 455.2 221 458.5 Q 224.2 467.8 231.5 473 L 242 478.5 L 210.5 508 L 207.5 508 L 180 501 L 181 497.5 L 219.5 456 Z " /><path fill="rgb(238,208,178)" stroke="rgb(238,208,178)" stroke-width="1" opacity="0.996078431372549" d="M 256.5 205 Q 283.1 205.4 294 221.5 L 302 236.5 Q 304.7 244.8 303 257.5 Q 299.6 271.6 290.5 280 Q 283.1 287.6 271.5 291 L 253.5 292 Q 234.5 288 225 274.5 Q 219 267.4 217 256.5 L 217 240.5 Q 221.1 224.1 232.5 215 L 246.5 207 L 256.5 205 Z " /><path fill="rgb(238,208,178)" stroke="rgb(238,208,178)" stroke-width="1" opacity="0.996078431372549" d="M 333 321 L 337 322.5 L 340 333 Q 348.5 333.3 353 338.5 L 350.5 341 L 340 344 L 335.5 356 Q 332.2 357.1 333 354.5 L 330 345.5 L 327.5 343 L 317 340 L 318.5 336 Q 326 335.5 330 331.5 L 333 321 Z " /><path fill="rgb(238,208,178)" stroke="rgb(238,208,178)" stroke-width="1" opacity="0.996078431372549" d="M 243.5 418 L 259.5 419 Q 269.5 422.5 275 430.5 L 280 441.5 L 280 455.5 Q 276.6 466.6 268.5 473 Q 260.8 479.8 245.5 479 Q 231.9 476.1 225 466.5 Q 219 459 219 445.5 L 221 437.5 L 228 426 Q 233.9 420.7 243.5 418 Z " /><path fill="rgb(0,0,0)" stroke="rgb(0,0,0)" stroke-width="1" opacity="0" d="M 0 0 L 191 0.5 Q 172.1 4.1 163 17.5 Q 157.9 23.6 156 32 L 153.5 32 L 138.5 40 L 135.5 40 L 90.5 14 L 82.5 11 L 69.5 11 L 61.5 14 L 51 23.5 Q 44.2 31.2 45 46.5 L 47 54.5 L 47 56.5 L 44 63.5 L 43 74.5 L 44 75.5 L 46 97.5 L 49 112.5 L 49 119.5 Q 26.2 151.2 14 193.5 L 8 220.5 L 7 234.5 L 6 235.5 L 5 274.5 L 6 275.5 L 6 287.5 L 7 288.5 L 7 295.5 L 10 308.5 L 10 313.5 L 16 336.5 L 28 367.5 Q 50.5 415 87.5 448 Q 116.7 474.8 155.5 492 L 170.5 498 L 197.5 506 L 217.5 510 L 234 511.5 L 0 512 L 0 0 Z " /><path fill="rgb(0,0,0)" stroke="rgb(0,0,0)" stroke-width="1" opacity="0" d="M 207.5 0 L 512 0 L 512 512 L 278 511.5 L 287.5 511 L 310.5 507 Q 334.1 501.6 354.5 493 Q 407.3 469.8 443 429.5 Q 474 395.5 492 348.5 Q 499.7 327.2 504 302.5 L 505 288.5 L 506 287.5 L 506 275.5 L 507 274.5 L 507 248.5 L 506 247.5 L 506 235.5 L 505 234.5 L 505 227.5 L 504 226.5 L 502 209.5 L 496 186.5 L 484 155.5 Q 461.6 108.9 425.5 76 Q 388.4 41.6 335.5 23 L 309.5 16 L 286.5 13 L 285.5 12 L 276.5 12 L 275.5 11 L 239.5 11 L 214.5 2 L 207.5 1 L 207.5 0 Z " /><path fill="rgb(227,56,79)" stroke="rgb(227,56,79)" stroke-width="1" opacity="0.996078431372549" d="M 257.5 17 L 261 18.5 L 258.5 19 L 256.5 19 L 252.5 19 L 245 24.5 L 242 30.5 L 242 37.5 Q 243.5 44 248.5 47 L 252 48.5 L 250.5 49 L 245.5 46 L 244 46.5 L 244 44.5 Q 240 40 241 30.5 Q 242.8 23.3 248.5 20 L 257.5 17 Z " /><path fill="rgb(227,56,79)" stroke="rgb(227,56,79)" stroke-width="1" opacity="0.996078431372549" d="M 194.5 38 L 193.5 40 L 194.5 38 Z " /><path fill="rgb(227,56,79)" stroke="rgb(227,56,79)" stroke-width="1" opacity="0.996078431372549" d="M 72.5 40 L 82.5 41 L 188.5 77 L 193.5 77 L 198 73.5 L 199.5 66 L 200 71.5 L 198 76 L 194.5 78 L 188.5 78 L 85.5 43 L 72.5 41 Q 59.2 43.2 52 51.5 L 48 59 L 46 58.5 L 47 56.5 L 46.5 55 Q 47.8 57.2 49 54.5 L 56.5 46 L 61.5 43 L 72.5 40 Z " /><path fill="rgb(227,56,79)" stroke="rgb(227,56,79)" stroke-width="1" opacity="0.996078431372549" d="M 44.5 63 L 45 65.5 L 44 65.5 L 44.5 63 Z " /><path fill="rgb(227,56,79)" stroke="rgb(227,56,79)" stroke-width="1" opacity="0.996078431372549" d="M 43.5 72 L 44 74.5 L 43 74.5 L 43.5 72 Z " /><path fill="rgb(227,56,79)" stroke="rgb(227,56,79)" stroke-width="1" opacity="0.996078431372549" d="M 44.5 79 L 45 81.5 L 44 81.5 L 44.5 79 Z " /><path fill="rgb(227,56,79)" stroke="rgb(227,56,79)" stroke-width="1" opacity="0.996078431372549" d="M 45.5 85 L 46 89.5 L 45 89.5 L 45.5 85 Z " /><path fill="rgb(227,56,79)" stroke="rgb(227,56,79)" stroke-width="1" opacity="0.996078431372549" d="M 46.5 94 L 47 97.5 L 46 97.5 L 46.5 94 Z " /><path fill="rgb(227,56,79)" stroke="rgb(227,56,79)" stroke-width="1" opacity="0.996078431372549" d="M 47.5 100 L 48 104.5 L 47 104.5 L 47.5 100 Z " /><path fill="rgb(227,56,79)" stroke="rgb(227,56,79)" stroke-width="1" opacity="0.996078431372549" d="M 315.5 103 L 317 103.5 L 302 114.5 L 382.5 141 Q 391.9 144.6 397 152.5 L 398.5 155 L 400 155.5 Q 398.5 158.5 397 155.5 L 390.5 147 L 382.5 142 L 300 115 Q 298.9 112.3 301.5 113 Q 310.2 109.7 315.5 103 Z " /><path fill="rgb(227,56,79)" stroke="rgb(227,56,79)" stroke-width="1" opacity="0.996078431372549" d="M 48.5 107 L 49 111.5 L 48 111.5 L 48.5 107 Z " /><path fill="rgb(227,56,79)" stroke="rgb(227,56,79)" stroke-width="1" opacity="0.996078431372549" d="M 117.5 111 Q 126.6 111.4 130 117.5 Q 132.5 121 131 128.5 L 119.5 168 L 119 164.5 L 128 135.5 L 130 127.5 L 130 120.5 L 126.5 115 Q 123.5 112 117.5 112 L 117.5 111 Z " /><path fill="rgb(227,56,79)" stroke="rgb(227,56,79)" stroke-width="1" opacity="0.996078431372549" d="M 113.5 112 L 115 112.5 L 110 115 L 107.5 120 L 107 118.5 L 110.5 114 L 113.5 112 Z " /><path fill="rgb(227,56,79)" stroke="rgb(227,56,79)" stroke-width="1" opacity="0.996078431372549" d="M 49.5 116 L 50 118.5 L 49 118.5 L 49.5 116 Z " /><path fill="rgb(227,56,79)" stroke="rgb(227,56,79)" stroke-width="1" opacity="0.996078431372549" d="M 392.5 117 L 395.5 121 L 392.5 117 Z " /><path fill="rgb(227,56,79)" stroke="rgb(227,56,79)" stroke-width="1" opacity="0.996078431372549" d="M 106.5 121 L 107 122.5 L 105.5 125 L 105 123.5 L 106.5 121 Z " /><path fill="rgb(227,56,79)" stroke="rgb(227,56,79)" stroke-width="1" opacity="0.996078431372549" d="M 103.5 129 L 104 130.5 L 100.5 138 L 100 136.5 L 103.5 129 Z " /><path fill="rgb(227,56,79)" stroke="rgb(227,56,79)" stroke-width="1" opacity="0.996078431372549" d="M 177.5 132 Q 187.9 130.6 191 136.5 Q 194.3 140.2 193 148.5 L 181.5 188 L 181 185.5 L 192 148.5 L 192 140.5 L 187.5 135 Q 184.5 132 177.5 133 L 171 137.5 L 168.5 143 L 168 141.5 L 173.5 134 L 177.5 132 Z " /><path fill="rgb(227,56,79)" stroke="rgb(227,56,79)" stroke-width="1" opacity="0.996078431372549" d="M 99.5 139 L 100 140.5 L 98.5 143 L 98 141.5 L 99.5 139 Z " /><path fill="rgb(227,56,79)" stroke="rgb(227,56,79)" stroke-width="1" opacity="0.996078431372549" d="M 97.5 144 L 98 145.5 L 96.5 148 L 96 146.5 L 97.5 144 Z " /><path fill="rgb(227,56,79)" stroke="rgb(227,56,79)" stroke-width="1" opacity="0.996078431372549" d="M 167.5 144 L 168 145.5 L 166.5 148 L 166 146.5 L 167.5 144 Z " /><path fill="rgb(227,56,79)" stroke="rgb(227,56,79)" stroke-width="1" opacity="0.996078431372549" d="M 165.5 149 L 166 150.5 L 163.5 156 L 163 154.5 L 165.5 149 Z " /><path fill="rgb(227,56,79)" stroke="rgb(227,56,79)" stroke-width="1" opacity="0.996078431372549" d="M 94.5 152 L 95 153.5 L 91.5 161 L 91 159.5 L 94.5 152 Z " /><path fill="rgb(227,56,79)" stroke="rgb(227,56,79)" stroke-width="1" opacity="0.996078431372549" d="M 245.5 153 Q 251.1 153.5 253 157.5 Q 256.2 160.8 255 168.5 L 246 201.5 L 242.5 209 L 243 207.5 L 254 168.5 L 254 161.5 L 248.5 155 Q 244.7 154.7 245.5 153 Z " /><path fill="rgb(227,56,79)" stroke="rgb(227,56,79)" stroke-width="1" opacity="0.996078431372549" d="M 236.5 154 L 232 159.5 L 231.5 161 L 231 159.5 L 234.5 155 L 236.5 154 Z " /><path fill="rgb(227,56,79)" stroke="rgb(227,56,79)" stroke-width="1" opacity="0.996078431372549" d="M 162.5 157 L 163 158.5 L 161.5 161 L 161 159.5 L 162.5 157 Z " /><path fill="rgb(227,56,79)" stroke="rgb(227,56,79)" stroke-width="1" opacity="0.996078431372549" d="M 90.5 162 L 91 163.5 L 89.5 166 L 89 164.5 L 90.5 162 Z " /><path fill="rgb(227,56,79)" stroke="rgb(227,56,79)" stroke-width="1" opacity="0.996078431372549" d="M 160.5 162 L 161 163.5 L 159.5 166 L 159 164.5 L 160.5 162 Z " /><path fill="rgb(227,56,79)" stroke="rgb(227,56,79)" stroke-width="1" opacity="0.996078431372549" d="M 230.5 162 L 231 163.5 L 229.5 166 L 229 164.5 L 230.5 162 Z " /><path fill="rgb(227,56,79)" stroke="rgb(227,56,79)" stroke-width="1" opacity="0.996078431372549" d="M 88.5 167 L 89 168.5 L 87.5 171 L 87 169.5 L 88.5 167 Z " /><path fill="rgb(227,56,79)" stroke="rgb(227,56,79)" stroke-width="1" opacity="0.996078431372549" d="M 158.5 167 L 159 168.5 L 156.5 174 L 156 172.5 L 158.5 167 Z " /><path fill="rgb(227,56,79)" stroke="rgb(227,56,79)" stroke-width="1" opacity="0.996078431372549" d="M 228.5 167 L 229 168.5 L 227.5 171 L 227 169.5 L 228.5 167 Z " /><path fill="rgb(227,56,79)" stroke="rgb(227,56,79)" stroke-width="1" opacity="0.996078431372549" d="M 118.5 169 L 119 171.5 L 117.5 175 L 117 172.5 L 118.5 169 Z " /><path fill="rgb(227,56,79)" stroke="rgb(227,56,79)" stroke-width="1" opacity="0.996078431372549" d="M 86.5 172 L 87 173.5 L 84.5 178 L 84 176.5 L 86.5 172 Z " /><path fill="rgb(227,56,79)" stroke="rgb(227,56,79)" stroke-width="1" opacity="0.996078431372549" d="M 226.5 172 L 227 173.5 L 224.5 179 L 224 177.5 L 226.5 172 Z " /><path fill="rgb(227,56,79)" stroke="rgb(227,56,79)" stroke-width="1" opacity="0.996078431372549" d="M 302.5 173 L 307 173.5 L 302.5 174 L 302.5 173 Z " /><path fill="rgb(227,56,79)" stroke="rgb(227,56,79)" stroke-width="1" opacity="0.996078431372549" d="M 299.5 174 L 301 174.5 L 295 178.5 L 292.5 184 L 292 182.5 L 297.5 175 L 299.5 174 Z " /><path fill="rgb(227,56,79)" stroke="rgb(227,56,79)" stroke-width="1" opacity="0.996078431372549" d="M 308.5 174 L 316 179.5 L 317 189.5 L 304.5 233 L 304 230.5 L 314 196.5 L 316 188.5 L 316 182.5 L 312.5 177 Q 307.8 176.2 308.5 174 Z " /><path fill="rgb(227,56,79)" stroke="rgb(227,56,79)" stroke-width="1" opacity="0.996078431372549" d="M 155.5 175 L 156 176.5 L 154.5 179 L 154 177.5 L 155.5 175 Z " /><path fill="rgb(227,56,79)" stroke="rgb(227,56,79)" stroke-width="1" opacity="0.996078431372549" d="M 116.5 176 L 117 178.5 L 116 178.5 L 116.5 176 Z " /><path fill="rgb(227,56,79)" stroke="rgb(227,56,79)" stroke-width="1" opacity="0.996078431372549" d="M 115.5 180 L 116 182.5 L 115 182.5 L 115.5 180 Z " /><path fill="rgb(227,56,79)" stroke="rgb(227,56,79)" stroke-width="1" opacity="0.996078431372549" d="M 153.5 180 L 154 181.5 L 152.5 184 L 152 182.5 L 153.5 180 Z " /><path fill="rgb(227,56,79)" stroke="rgb(227,56,79)" stroke-width="1" opacity="0.996078431372549" d="M 223.5 180 L 224 181.5 L 222.5 184 L 222 182.5 L 223.5 180 Z " /><path fill="rgb(227,56,79)" stroke="rgb(227,56,79)" stroke-width="1" opacity="0.996078431372549" d="M 221.5 185 L 222 186.5 L 220.5 189 L 220 187.5 L 221.5 185 Z " /><path fill="rgb(227,56,79)" stroke="rgb(227,56,79)" stroke-width="1" opacity="0.996078431372549" d="M 291.5 185 L 292 186.5 L 290.5 189 L 290 187.5 L 291.5 185 Z " /><path fill="rgb(227,56,79)" stroke="rgb(227,56,79)" stroke-width="1" opacity="0.996078431372549" d="M 150.5 188 L 151 189.5 L 149.5 192 L 149 190.5 L 150.5 188 Z " /><path fill="rgb(227,56,79)" stroke="rgb(227,56,79)" stroke-width="1" opacity="0.996078431372549" d="M 180.5 189 L 181 191.5 L 180 191.5 L 180.5 189 Z " /><path fill="rgb(227,56,79)" stroke="rgb(227,56,79)" stroke-width="1" opacity="0.996078431372549" d="M 219.5 190 L 220 191.5 L 217.5 197 L 217 195.5 L 219.5 190 Z " /><path fill="rgb(227,56,79)" stroke="rgb(227,56,79)" stroke-width="1" opacity="0.996078431372549" d="M 289.5 190 L 290 191.5 L 288.5 194 L 288 192.5 L 289.5 190 Z " /><path fill="rgb(227,56,79)" stroke="rgb(227,56,79)" stroke-width="1" opacity="0.996078431372549" d="M 179.5 193 L 180 195.5 L 178.5 199 L 178 196.5 L 179.5 193 Z " /><path fill="rgb(227,56,79)" stroke="rgb(227,56,79)" stroke-width="1" opacity="0.996078431372549" d="M 287.5 195 L 288 196.5 L 285.5 202 L 285 200.5 L 287.5 195 Z " /><path fill="rgb(227,56,79)" stroke="rgb(227,56,79)" stroke-width="1" opacity="0.996078431372549" d="M 216.5 198 L 217 199.5 L 215.5 202 L 215 200.5 L 216.5 198 Z " /><path fill="rgb(227,56,79)" stroke="rgb(227,56,79)" stroke-width="1" opacity="0.996078431372549" d="M 177.5 200 L 178 202.5 L 177 202.5 L 177.5 200 Z " /><path fill="rgb(227,56,79)" stroke="rgb(227,56,79)" stroke-width="1" opacity="0.996078431372549" d="M 214.5 203 L 215 204.5 L 213.5 207 L 213 205.5 L 214.5 203 Z " /><path fill="rgb(227,56,79)" stroke="rgb(227,56,79)" stroke-width="1" opacity="0.996078431372549" d="M 284.5 203 L 285 204.5 L 283.5 207 L 283 205.5 L 284.5 203 Z " /><path fill="rgb(227,56,79)" stroke="rgb(227,56,79)" stroke-width="1" opacity="0.996078431372549" d="M 211.5 211 L 212 212.5 L 209.5 217 L 209 215.5 L 211.5 211 Z " /><path fill="rgb(227,56,79)" stroke="rgb(227,56,79)" stroke-width="1" opacity="0.996078431372549" d="M 288.5 215 L 289.5 217 L 288.5 215 Z " /><path fill="rgb(227,56,79)" stroke="rgb(227,56,79)" stroke-width="1" opacity="0.996078431372549" d="M 230.5 216 L 227.5 220 L 230.5 216 Z " /><path fill="rgb(227,56,79)" stroke="rgb(227,56,79)" stroke-width="1" opacity="0.996078431372549" d="M 292.5 219 L 293.5 221 L 292.5 219 Z " /><path fill="rgb(227,56,79)" stroke="rgb(227,56,79)" stroke-width="1" opacity="0.996078431372549" d="M 303.5 234 L 304 236.5 L 302 237.5 L 303.5 234 Z " /><path fill="rgb(227,56,79)" stroke="rgb(227,56,79)" stroke-width="1" opacity="0.996078431372549" d="M 129.5 398 L 130.5 400 L 129.5 398 Z " /><path fill="rgb(227,56,79)" stroke="rgb(227,56,79)" stroke-width="1" opacity="0.996078431372549" d="M 203.5 473 L 202.5 475 L 203.5 473 Z " /><path fill="rgb(227,56,79)" stroke="rgb(227,56,79)" stroke-width="1" opacity="0.996078431372549" d="M 231.5 488 L 230.5 490 L 231.5 488 Z " /><path fill="rgb(227,56,79)" stroke="rgb(227,56,79)" stroke-width="1" opacity="0.996078431372549" d="M 180.5 498 L 179.5 500 L 180.5 498 Z " /><path fill="rgb(227,56,79)" stroke="rgb(227,56,79)" stroke-width="1" opacity="0.996078431372549" d="M 219.5 499 L 218.5 501 L 219.5 499 Z " /><path fill="rgb(77,85,155)" stroke="rgb(77,85,155)" stroke-width="1" opacity="0.8" d="M 113.5 235 L 116 235.5 L 113.5 236 L 113.5 235 Z " /><path fill="rgb(77,85,155)" stroke="rgb(77,85,155)" stroke-width="1" opacity="0.8" d="M 126.5 235 L 129 235.5 L 126.5 236 L 126.5 235 Z " /><path fill="rgb(77,85,155)" stroke="rgb(77,85,155)" stroke-width="1" opacity="0.8" d="M 87.5 244 L 86.5 246 L 87.5 244 Z " /><path fill="rgb(77,85,155)" stroke="rgb(77,85,155)" stroke-width="1" opacity="0.8" d="M 82.5 248 L 79.5 252 L 82.5 248 Z " /><path fill="rgb(77,85,155)" stroke="rgb(77,85,155)" stroke-width="1" opacity="0.8" d="M 119.5 265 L 122 265.5 L 119.5 266 L 119.5 265 Z " /><path fill="rgb(77,85,155)" stroke="rgb(77,85,155)" stroke-width="1" opacity="0.8" d="M 105.5 269 L 104.5 271 L 105.5 269 Z " /><path fill="rgb(77,85,155)" stroke="rgb(77,85,155)" stroke-width="1" opacity="0.8" d="M 143.5 272 L 147.5 277 L 143.5 272 Z " /><path fill="rgb(77,85,155)" stroke="rgb(77,85,155)" stroke-width="1" opacity="0.8" d="M 96.5 288 L 97 299.5 L 96 299.5 L 96.5 288 Z " /><path fill="rgb(77,85,155)" stroke="rgb(77,85,155)" stroke-width="1" opacity="0.8" d="M 65.5 294 L 66 296.5 L 65 296.5 L 65.5 294 Z " /><path fill="rgb(77,85,155)" stroke="rgb(77,85,155)" stroke-width="1" opacity="0.8" d="M 191.5 303 L 193.5 306 L 191.5 303 Z " /><path fill="rgb(77,85,155)" stroke="rgb(77,85,155)" stroke-width="1" opacity="0.8" d="M 66.5 305 L 67 307.5 L 66 307.5 L 66.5 305 Z " /><path fill="rgb(77,85,155)" stroke="rgb(77,85,155)" stroke-width="1" opacity="0.8" d="M 196.5 308 L 197.5 310 L 196.5 308 Z " /><path fill="rgb(77,85,155)" stroke="rgb(77,85,155)" stroke-width="1" opacity="0.8" d="M 168.5 323 L 169.5 325 L 168.5 323 Z " /><path fill="rgb(77,85,155)" stroke="rgb(77,85,155)" stroke-width="1" opacity="0.8" d="M 176.5 331 L 177.5 333 L 176.5 331 Z " /><path fill="rgb(77,85,155)" stroke="rgb(77,85,155)" stroke-width="1" opacity="0.8" d="M 111.5 341 L 112.5 343 L 111.5 341 Z " /><path fill="rgb(77,85,155)" stroke="rgb(77,85,155)" stroke-width="1" opacity="0.8" d="M 114.5 345 L 115.5 347 L 114.5 345 Z " /><path fill="rgb(77,85,155)" stroke="rgb(77,85,155)" stroke-width="1" opacity="0.8" d="M 118.5 350 L 123.5 356 L 118.5 350 Z " /><path fill="rgb(77,85,155)" stroke="rgb(77,85,155)" stroke-width="1" opacity="0.8" d="M 239.5 354 L 240 360.5 L 239 360.5 L 239.5 354 Z " /><path fill="rgb(77,85,155)" stroke="rgb(77,85,155)" stroke-width="1" opacity="0.8" d="M 86.5 359 L 87.5 361 L 86.5 359 Z " /><path fill="rgb(77,85,155)" stroke="rgb(77,85,155)" stroke-width="1" opacity="0.8" d="M 92.5 367 L 94.5 370 L 92.5 367 Z " /><path fill="rgb(77,85,155)" stroke="rgb(77,85,155)" stroke-width="1" opacity="0.8" d="M 104.5 379 L 105.5 381 L 104.5 379 Z " /><path fill="rgb(77,85,155)" stroke="rgb(77,85,155)" stroke-width="1" opacity="0.8" d="M 112.5 385 L 113.5 387 L 112.5 385 Z " /><path fill="rgb(77,85,155)" stroke="rgb(77,85,155)" stroke-width="1" opacity="0.8" d="M 227.5 390 L 223.5 395 L 227.5 390 Z " /><path fill="rgb(77,85,155)" stroke="rgb(77,85,155)" stroke-width="1" opacity="0.8" d="M 219.5 397 L 218.5 399 L 219.5 397 Z " /><path fill="rgb(77,85,155)" stroke="rgb(77,85,155)" stroke-width="1" opacity="0.8" d="M 199.5 405 L 202 405.5 L 199.5 406 L 199.5 405 Z " /><path fill="rgb(77,85,155)" stroke="rgb(77,85,155)" stroke-width="1" opacity="0.8" d="M 449.5 421 L 448.5 423 L 449.5 421 Z " /><path fill="rgb(77,85,155)" stroke="rgb(77,85,155)" stroke-width="1" opacity="0.8" d="M 69.5 429 L 70.5 431 L 69.5 429 Z " /><path fill="rgb(77,85,155)" stroke="rgb(77,85,155)" stroke-width="1" opacity="0.8" d="M 424.5 447 L 423.5 449 L 424.5 447 Z " /><path fill="rgb(228,57,80)" stroke="rgb(228,57,80)" stroke-width="1" opacity="1" d="M 258.5 17 L 258.5 19 L 261.5 18 L 265.5 20 L 302.5 31 Q 313.1 36.4 320 45.5 L 327 58.5 L 329 67.5 L 329 78.5 Q 326.5 94 317 102.5 L 319 103.5 L 317.5 104 L 315.5 103 Q 309.7 110.5 300 113 Q 298.9 115.7 301.5 115 L 382.5 142 L 395 151.5 L 401 162.5 L 402 174.5 Q 400.4 184.4 395 190.5 L 325.5 261 Q 321.7 264.7 314.5 265 Q 306.7 263.8 303 258.5 L 303 240.5 L 302 238.5 L 304 236.5 L 313 200.5 L 317 189.5 L 317 182.5 L 311.5 175 Q 308.6 172.4 302.5 173 Q 296.8 174.3 294 178.5 L 282 210.5 L 282.5 212 Q 273.4 204.1 255.5 205 L 246.5 207 L 243.5 209 L 244 207.5 L 255 168.5 L 255 161.5 L 249.5 154 L 238.5 153 L 233 156.5 L 225 174.5 L 212 210.5 L 206.5 220 Q 202.3 224.3 192.5 223 L 182.5 219 L 180 216.5 L 177 211.5 L 176 206.5 L 193 148.5 L 193 140.5 L 188.5 134 Q 185.2 130.8 177.5 132 L 170 137.5 L 149 192.5 L 143.5 200 Q 140 203.5 132.5 203 L 121.5 199 L 117 194.5 L 114 184.5 L 116 182.5 L 125 146.5 L 131 128.5 L 131 119.5 L 125.5 113 L 117.5 111 L 113.5 112 L 109 115.5 L 87 171.5 Q 84.8 178.3 79.5 182 L 71.5 184 L 64.5 182 L 59 176.5 L 56 166.5 L 54 145.5 L 53 144.5 L 49 114.5 L 49 112.5 L 48 100.5 L 46 93.5 L 46 91.5 Q 47.2 84.8 44 82.5 L 45 79.5 L 44 76.5 L 43 71.5 L 46 59 Q 48.7 60.1 48 57.5 L 55.5 48 Q 63 41.5 76.5 41 L 85.5 43 L 188.5 78 L 194.5 78 L 198 76 Q 200.6 72.8 200.5 66 L 202.5 68 L 203.5 67 L 205.5 69 L 206.5 68 L 208.5 70 L 209.5 69 L 211.5 71 L 212.5 70 L 214.5 72 L 215.5 71 L 217.5 73 L 218.5 72 L 220.5 74 L 221.5 73 L 223.5 75 L 224.5 74 L 226.5 76 L 227.5 75 L 229.5 77 L 230.5 76 L 232.5 78 L 233.5 77 L 235.5 79 L 236.5 78 L 238.5 80 L 239.5 79 L 247.5 83 L 248.5 82 L 250.5 84 L 251.5 83 L 253.5 85 L 254.5 84 L 256.5 86 L 257.5 85 L 259.5 87 L 260.5 86 L 268.5 90 L 269.5 89 L 272.5 91 L 280.5 89 L 285 85.5 Q 290.2 80.7 290 70.5 Q 288.5 64 283.5 61 L 258.5 52 L 256.5 50 L 255.5 51 Q 253.8 47.9 252 49.5 Q 252.8 47.3 250.5 48 L 249 48.5 L 249.5 47 L 244 42.5 Q 241 38.5 242 30.5 L 247.5 22 Q 249.7 18.2 256.5 19 L 258.5 17 Z " /><path fill="rgb(228,57,80)" stroke="rgb(228,57,80)" stroke-width="1" opacity="1" d="M 234.5 213 L 233.5 215 L 234.5 213 Z " /><path fill="rgb(228,57,80)" stroke="rgb(228,57,80)" stroke-width="1" opacity="1" d="M 290.5 217 L 291.5 219 L 290.5 217 Z " /><path fill="rgb(228,57,80)" stroke="rgb(228,57,80)" stroke-width="1" opacity="1" d="M 225.5 222 L 224.5 224 L 225.5 222 Z " /><path fill="rgb(228,57,80)" stroke="rgb(228,57,80)" stroke-width="1" opacity="1" d="M 321.5 419 L 322 429.5 L 321 429.5 L 321.5 419 Z " /><path fill="rgb(228,57,80)" stroke="rgb(228,57,80)" stroke-width="1" opacity="1" d="M 213.5 462 L 212.5 464 L 213.5 462 Z " /><path fill="rgb(228,57,80)" stroke="rgb(228,57,80)" stroke-width="1" opacity="1" d="M 190.5 487 L 189.5 489 L 190.5 487 Z " /><path fill="rgb(98,41,73)" stroke="rgb(98,41,73)" stroke-width="1" opacity="0.996078431372549" d="M 191.5 0 L 206.5 0 L 214.5 2 L 257 17.5 Q 247 18.5 243 25.5 Q 240 29.5 241 37.5 L 246 46.5 L 244.5 46 L 211.5 35 L 203.5 34 Q 196.8 35.3 193 39.5 L 189 46.5 L 189 55.5 L 193 63 L 199 66 Q 200.3 73.5 195.5 76 L 188.5 77 L 82.5 41 L 72.5 40 L 59.5 44 L 49 53.5 L 47.5 56 L 46 53.5 L 45 38.5 Q 47.3 24.8 56.5 18 L 70.5 11 L 81.5 11 Q 117.2 27.3 148.5 48 L 155 50 L 155 35.5 L 157 32.5 L 157 30.5 Q 160.9 16.4 171.5 9 Q 179.4 2.4 191.5 0 Z " /><path fill="rgb(98,41,73)" stroke="rgb(98,41,73)" stroke-width="1" opacity="0.996078431372549" d="M 316.5 104 L 323.5 104 L 324.5 105 L 331.5 105 L 332.5 106 L 339.5 106 L 340.5 107 L 347.5 107 L 348.5 108 L 355.5 108 L 356.5 109 L 383.5 112 Q 392.9 115.6 398 123.5 L 403 135.5 L 403 146.5 L 400 155 L 397 153.5 L 388.5 144 L 382.5 141 L 302 114.5 L 316.5 104 Z " /><path fill="rgb(98,41,73)" stroke="rgb(98,41,73)" stroke-width="1" opacity="0.996078431372549" d="M 115.5 112 Q 124.5 111.5 128 116.5 Q 131.2 119.8 130 127.5 L 119 164.5 L 115 183.5 L 111.5 187 Q 107.5 190 100.5 190 Q 90.5 188.5 86 181.5 L 85 176.5 L 110 115 L 115.5 112 Z " /><path fill="rgb(98,41,73)" stroke="rgb(98,41,73)" stroke-width="1" opacity="0.996078431372549" d="M 177.5 133 L 183.5 133 L 191 138.5 Q 193.3 141.7 192 148.5 L 183 177.5 L 177 203.5 L 174.5 208 Q 169.4 211.4 159.5 210 Q 152.8 207.8 149 202.5 Q 146.4 201.1 147 196.5 L 151 189.5 L 168 143.5 L 173.5 135 L 177.5 133 Z " /><path fill="rgb(98,41,73)" stroke="rgb(98,41,73)" stroke-width="1" opacity="0.996078431372549" d="M 240.5 153 Q 249.6 153.4 253 159.5 L 254 168.5 L 244 204.5 L 241.5 209 Q 232.6 212.6 227 219.5 L 221 230 Q 214.2 229 211 222.5 L 209 217.5 L 212 212.5 L 231 161.5 L 237.5 154 L 240.5 153 Z " /><path fill="rgb(98,41,73)" stroke="rgb(98,41,73)" stroke-width="1" opacity="0.996078431372549" d="M 301.5 174 L 307.5 174 L 314 178.5 Q 317 181.5 316 188.5 L 302.5 237 Q 298.5 223 288.5 215 L 282 210.5 L 292 184.5 L 297.5 176 L 301.5 174 Z " /><path fill="rgb(98,41,73)" stroke="rgb(98,41,73)" stroke-width="1" opacity="0.996078431372549" d="M 116.5 235 L 133.5 236 L 145.5 239 Q 161.3 244.7 171 256.5 L 180 273.5 L 186 295.5 Q 190.3 304.3 197.5 310 Q 208 318 221.5 323 L 232 332.5 Q 241.7 343.3 239 366.5 Q 234.4 386.4 220.5 397 L 207.5 404 L 197 406 L 197 375.5 L 198.5 374 L 200.5 374 L 206 368.5 Q 210.2 363.7 209 353.5 L 204.5 348 Q 183.5 340.5 170 325.5 Q 162 316.5 157 304.5 L 150 280.5 L 143.5 272 L 129.5 266 L 119.5 265 L 109.5 267 L 101 273.5 L 97 282.5 L 96 299.5 L 97 300.5 L 98 311.5 L 103 326.5 Q 110.4 344.1 123.5 356 L 129 359 L 128.5 395 Q 108.7 385.8 95 370.5 Q 81.1 354.9 73 333.5 L 67 311.5 L 66 295.5 L 67.5 296 Q 71.3 296.8 72 294.5 L 76 280.5 L 78.5 277 L 96 270.5 Q 96.8 266.8 94.5 266 L 77 259.5 L 76 256.5 L 85.5 246 L 100.5 238 L 116.5 235 Z " /><path fill="rgb(149,140,201)" stroke="rgb(149,140,201)" stroke-width="1" opacity="0.996078431372549" d="M 245.5 11 L 273 11.5 L 246.5 12 L 244.5 13 L 245.5 11 Z " /><path fill="rgb(149,140,201)" stroke="rgb(149,140,201)" stroke-width="1" opacity="0.996078431372549" d="M 274.5 11 L 299.5 14 Q 307.5 17.5 318.5 18 L 351.5 29 L 383.5 45 L 418 69 L 418 71 L 420 71 Q 418.9 73.7 421.5 73 L 428 78.5 Q 427.3 80.8 429.5 80 L 434 86 L 442 92.5 L 464 120.5 L 478 143.5 L 493 177.5 L 502 209.5 L 500 210 L 498 197.5 L 491 175.5 Q 483.2 153.8 472 135.5 Q 452.1 101.4 423.5 76 Q 394.3 49.2 355.5 32 L 317.5 19 L 292.5 14 L 276.5 13 L 274.5 11 Z " /><path fill="rgb(149,140,201)" stroke="rgb(149,140,201)" stroke-width="1" opacity="0.996078431372549" d="M 307.5 33 L 308.5 35 L 307.5 33 Z " /><path fill="rgb(149,140,201)" stroke="rgb(149,140,201)" stroke-width="1" opacity="0.996078431372549" d="M 310.5 35 L 312.5 38 L 310.5 35 Z " /><path fill="rgb(149,140,201)" stroke="rgb(149,140,201)" stroke-width="1" opacity="0.996078431372549" d="M 195.5 38 L 193.5 41 L 195.5 38 Z " /><path fill="rgb(149,140,201)" stroke="rgb(149,140,201)" stroke-width="1" opacity="0.996078431372549" d="M 317.5 42 L 320.5 46 L 317.5 42 Z " /><path fill="rgb(149,140,201)" stroke="rgb(149,140,201)" stroke-width="1" opacity="0.996078431372549" d="M 321.5 47 L 322.5 49 L 321.5 47 Z " /><path fill="rgb(149,140,201)" stroke="rgb(149,140,201)" stroke-width="1" opacity="0.996078431372549" d="M 193.5 61 L 195.5 64 L 193.5 61 Z " /><path fill="rgb(149,140,201)" stroke="rgb(149,140,201)" stroke-width="1" opacity="0.996078431372549" d="M 283.5 61 L 286.5 65 L 283.5 61 Z " /><path fill="rgb(149,140,201)" stroke="rgb(149,140,201)" stroke-width="1" opacity="0.996078431372549" d="M 328.5 63 L 329 65.5 L 328 65.5 L 328.5 63 Z " /><path fill="rgb(149,140,201)" stroke="rgb(149,140,201)" stroke-width="1" opacity="0.996078431372549" d="M 289.5 71 L 290 74.5 L 289 74.5 L 289.5 71 Z " /><path fill="rgb(149,140,201)" stroke="rgb(149,140,201)" stroke-width="1" opacity="0.996078431372549" d="M 328.5 80 L 329 82.5 L 328 82.5 L 328.5 80 Z " /><path fill="rgb(149,140,201)" stroke="rgb(149,140,201)" stroke-width="1" opacity="0.996078431372549" d="M 286.5 82 L 285.5 84 L 286.5 82 Z " /><path fill="rgb(149,140,201)" stroke="rgb(149,140,201)" stroke-width="1" opacity="0.996078431372549" d="M 282.5 86 L 281.5 88 L 282.5 86 Z " /><path fill="rgb(149,140,201)" stroke="rgb(149,140,201)" stroke-width="1" opacity="0.996078431372549" d="M 325.5 90 L 326 91.5 L 323.5 95 L 324 93.5 L 325.5 90 Z " /><path fill="rgb(149,140,201)" stroke="rgb(149,140,201)" stroke-width="1" opacity="0.996078431372549" d="M 322.5 96 L 321.5 98 L 322.5 96 Z " /><path fill="rgb(149,140,201)" stroke="rgb(149,140,201)" stroke-width="1" opacity="0.996078431372549" d="M 320.5 99 L 317.5 103 L 320.5 99 Z " /><path fill="rgb(149,140,201)" stroke="rgb(149,140,201)" stroke-width="1" opacity="0.996078431372549" d="M 329.5 104 L 332 104.5 L 329.5 105 L 329.5 104 Z " /><path fill="rgb(149,140,201)" stroke="rgb(149,140,201)" stroke-width="1" opacity="0.996078431372549" d="M 337.5 105 L 340 105.5 L 337.5 106 L 337.5 105 Z " /><path fill="rgb(149,140,201)" stroke="rgb(149,140,201)" stroke-width="1" opacity="0.996078431372549" d="M 345.5 106 L 348 106.5 L 345.5 107 L 345.5 106 Z " /><path fill="rgb(149,140,201)" stroke="rgb(149,140,201)" stroke-width="1" opacity="0.996078431372549" d="M 353.5 107 L 356 107.5 L 353.5 108 L 353.5 107 Z " /><path fill="rgb(149,140,201)" stroke="rgb(149,140,201)" stroke-width="1" opacity="0.996078431372549" d="M 386.5 112 L 387.5 114 L 386.5 112 Z " /><path fill="rgb(149,140,201)" stroke="rgb(149,140,201)" stroke-width="1" opacity="0.996078431372549" d="M 392.5 116 L 397.5 122 L 392.5 116 Z " /><path fill="rgb(149,140,201)" stroke="rgb(149,140,201)" stroke-width="1" opacity="0.996078431372549" d="M 398.5 123 L 399.5 125 L 398.5 123 Z " /><path fill="rgb(149,140,201)" stroke="rgb(149,140,201)" stroke-width="1" opacity="0.996078431372549" d="M 403.5 137 L 404 139.5 L 403 139.5 L 403.5 137 Z " /><path fill="rgb(149,140,201)" stroke="rgb(149,140,201)" stroke-width="1" opacity="0.996078431372549" d="M 403.5 142 L 404 144.5 L 403 144.5 L 403.5 142 Z " /><path fill="rgb(149,140,201)" stroke="rgb(149,140,201)" stroke-width="1" opacity="0.996078431372549" d="M 114.5 186 L 115 189.5 L 114 189.5 L 114.5 186 Z " /><path fill="rgb(149,140,201)" stroke="rgb(149,140,201)" stroke-width="1" opacity="0.996078431372549" d="M 397.5 187 L 396.5 189 L 397.5 187 Z " /><path fill="rgb(149,140,201)" stroke="rgb(149,140,201)" stroke-width="1" opacity="0.996078431372549" d="M 109.5 189 L 110 195.5 L 109 195.5 L 109.5 189 Z " /><path fill="rgb(149,140,201)" stroke="rgb(149,140,201)" stroke-width="1" opacity="0.996078431372549" d="M 115.5 191 L 117 193.5 L 115 192.5 L 115.5 191 Z " /><path fill="rgb(149,140,201)" stroke="rgb(149,140,201)" stroke-width="1" opacity="0.996078431372549" d="M 394.5 191 L 356.5 230 L 394.5 191 Z " /><path fill="rgb(149,140,201)" stroke="rgb(149,140,201)" stroke-width="1" opacity="0.996078431372549" d="M 117.5 195 L 120.5 199 L 117.5 195 Z " /><path fill="rgb(149,140,201)" stroke="rgb(149,140,201)" stroke-width="1" opacity="0.996078431372549" d="M 145.5 198 L 147 198.5 L 143.5 201 L 145.5 198 Z " /><path fill="rgb(149,140,201)" stroke="rgb(149,140,201)" stroke-width="1" opacity="0.996078431372549" d="M 148.5 202 L 153.5 208 L 148.5 202 Z " /><path fill="rgb(149,140,201)" stroke="rgb(149,140,201)" stroke-width="1" opacity="0.996078431372549" d="M 175.5 207 L 177 210.5 L 176 210.5 L 175.5 207 Z " /><path fill="rgb(149,140,201)" stroke="rgb(149,140,201)" stroke-width="1" opacity="0.996078431372549" d="M 501.5 211 L 505 227.5 L 506 247.5 L 505 247.5 L 505 236.5 L 504 235.5 L 504 227.5 L 501 214.5 L 501.5 211 Z " /><path fill="rgb(149,140,201)" stroke="rgb(149,140,201)" stroke-width="1" opacity="0.996078431372549" d="M 109.5 212 L 110 219.5 L 109 219.5 L 109.5 212 Z " /><path fill="rgb(149,140,201)" stroke="rgb(149,140,201)" stroke-width="1" opacity="0.996078431372549" d="M 179.5 216 L 181.5 219 L 179.5 216 Z " /><path fill="rgb(149,140,201)" stroke="rgb(149,140,201)" stroke-width="1" opacity="0.996078431372549" d="M 208.5 218 L 211 221.5 L 209 220.5 L 208.5 219 L 206 220.5 L 208.5 218 Z " /><path fill="rgb(149,140,201)" stroke="rgb(149,140,201)" stroke-width="1" opacity="0.996078431372549" d="M 183.5 219 L 186 220.5 L 184.5 221 L 183.5 219 Z " /><path fill="rgb(149,140,201)" stroke="rgb(149,140,201)" stroke-width="1" opacity="0.996078431372549" d="M 193.5 223 L 200 223.5 L 193.5 224 L 193.5 223 Z " /><path fill="rgb(149,140,201)" stroke="rgb(149,140,201)" stroke-width="1" opacity="0.996078431372549" d="M 211.5 223 L 212.5 225 L 211.5 223 Z " /><path fill="rgb(149,140,201)" stroke="rgb(149,140,201)" stroke-width="1" opacity="0.996078431372549" d="M 110.5 226 L 111 229.5 L 110 229.5 L 110.5 226 Z " /><path fill="rgb(149,140,201)" stroke="rgb(149,140,201)" stroke-width="1" opacity="0.996078431372549" d="M 215.5 227 L 216.5 229 L 215.5 227 Z " /><path fill="rgb(149,140,201)" stroke="rgb(149,140,201)" stroke-width="1" opacity="0.996078431372549" d="M 67.5 241 L 66.5 243 L 67.5 241 Z " /><path fill="rgb(149,140,201)" stroke="rgb(149,140,201)" stroke-width="1" opacity="0.996078431372549" d="M 70.5 241 L 71.5 243 L 70.5 241 Z " /><path fill="rgb(149,140,201)" stroke="rgb(149,140,201)" stroke-width="1" opacity="0.996078431372549" d="M 341.5 245 L 325.5 262 L 341.5 245 Z " /><path fill="rgb(149,140,201)" stroke="rgb(149,140,201)" stroke-width="1" opacity="0.996078431372549" d="M 163.5 248 L 164.5 250 L 163.5 248 Z " /><path fill="rgb(149,140,201)" stroke="rgb(149,140,201)" stroke-width="1" opacity="0.996078431372549" d="M 506.5 250 L 507 271.5 L 505.5 274 L 505 272.5 L 506 271.5 L 506.5 250 Z " /><path fill="rgb(149,140,201)" stroke="rgb(149,140,201)" stroke-width="1" opacity="0.996078431372549" d="M 170.5 255 L 171.5 257 L 170.5 255 Z " /><path fill="rgb(149,140,201)" stroke="rgb(149,140,201)" stroke-width="1" opacity="0.996078431372549" d="M 303.5 259 L 306.5 263 L 303.5 259 Z " /><path fill="rgb(149,140,201)" stroke="rgb(149,140,201)" stroke-width="1" opacity="0.996078431372549" d="M 323.5 262 L 322.5 264 L 323.5 262 Z " /><path fill="rgb(149,140,201)" stroke="rgb(149,140,201)" stroke-width="1" opacity="0.996078431372549" d="M 504.5 275 L 505 276.5 L 503.5 279 L 503 277.5 L 504.5 275 Z " /><path fill="rgb(149,140,201)" stroke="rgb(149,140,201)" stroke-width="1" opacity="0.996078431372549" d="M 126.5 286 L 128 289.5 L 127 289.5 L 126.5 286 Z " /><path fill="rgb(149,140,201)" stroke="rgb(149,140,201)" stroke-width="1" opacity="0.996078431372549" d="M 499.5 287 L 500 288.5 L 497.5 293 L 497 291.5 L 499.5 287 Z " /><path fill="rgb(149,140,201)" stroke="rgb(149,140,201)" stroke-width="1" opacity="0.996078431372549" d="M 130.5 295 L 133 299.5 L 132 299.5 L 130.5 295 Z " /><path fill="rgb(149,140,201)" stroke="rgb(149,140,201)" stroke-width="1" opacity="0.996078431372549" d="M 495.5 296 L 495 297.5 L 494.5 299 L 494 297.5 L 495.5 296 Z " /><path fill="rgb(149,140,201)" stroke="rgb(149,140,201)" stroke-width="1" opacity="0.996078431372549" d="M 493.5 300 L 493 301.5 L 491.5 304 L 492 302.5 L 493.5 300 Z " /><path fill="rgb(149,140,201)" stroke="rgb(149,140,201)" stroke-width="1" opacity="0.996078431372549" d="M 133.5 301 L 136 304.5 L 134 303.5 L 133.5 301 Z " /><path fill="rgb(149,140,201)" stroke="rgb(149,140,201)" stroke-width="1" opacity="0.996078431372549" d="M 191.5 302 L 192.5 304 L 191.5 302 Z " /><path fill="rgb(149,140,201)" stroke="rgb(149,140,201)" stroke-width="1" opacity="0.996078431372549" d="M 136.5 306 L 139 309.5 L 137 308.5 L 136.5 306 Z " /><path fill="rgb(149,140,201)" stroke="rgb(149,140,201)" stroke-width="1" opacity="0.996078431372549" d="M 489.5 307 L 489 308.5 L 487.5 311 L 488 309.5 L 489.5 307 Z " /><path fill="rgb(149,140,201)" stroke="rgb(149,140,201)" stroke-width="1" opacity="0.996078431372549" d="M 197.5 308 L 199.5 311 L 197.5 308 Z " /><path fill="rgb(149,140,201)" stroke="rgb(149,140,201)" stroke-width="1" opacity="0.996078431372549" d="M 139.5 311 L 142 314.5 L 140 313.5 L 139.5 311 Z " /><path fill="rgb(149,140,201)" stroke="rgb(149,140,201)" stroke-width="1" opacity="0.996078431372549" d="M 201.5 311 L 202.5 313 L 201.5 311 Z " /><path fill="rgb(149,140,201)" stroke="rgb(149,140,201)" stroke-width="1" opacity="0.996078431372549" d="M 486.5 312 L 485.5 314 L 486.5 312 Z " /><path fill="rgb(149,140,201)" stroke="rgb(149,140,201)" stroke-width="1" opacity="0.996078431372549" d="M 484.5 315 L 483.5 317 L 484.5 315 Z " /><path fill="rgb(149,140,201)" stroke="rgb(149,140,201)" stroke-width="1" opacity="0.996078431372549" d="M 142.5 316 L 143.5 318 L 142.5 316 Z " /><path fill="rgb(149,140,201)" stroke="rgb(149,140,201)" stroke-width="1" opacity="0.996078431372549" d="M 482.5 318 L 481.5 320 L 482.5 318 Z " /><path fill="rgb(149,140,201)" stroke="rgb(149,140,201)" stroke-width="1" opacity="0.996078431372549" d="M 144.5 319 L 149 324.5 L 146 322.5 L 144.5 319 Z " /><path fill="rgb(149,140,201)" stroke="rgb(149,140,201)" stroke-width="1" opacity="0.996078431372549" d="M 480.5 321 L 479 323.5 L 476.5 327 L 478 324.5 L 480.5 321 Z " /><path fill="rgb(149,140,201)" stroke="rgb(149,140,201)" stroke-width="1" opacity="0.996078431372549" d="M 168.5 324 L 176.5 333 L 168.5 324 Z " /><path fill="rgb(149,140,201)" stroke="rgb(149,140,201)" stroke-width="1" opacity="0.996078431372549" d="M 224.5 324 L 225.5 326 L 224.5 324 Z " /><path fill="rgb(149,140,201)" stroke="rgb(149,140,201)" stroke-width="1" opacity="0.996078431372549" d="M 149.5 326 L 151.5 329 L 149.5 326 Z " /><path fill="rgb(149,140,201)" stroke="rgb(149,140,201)" stroke-width="1" opacity="0.996078431372549" d="M 475.5 328 L 472.5 332 L 475.5 328 Z " /><path fill="rgb(149,140,201)" stroke="rgb(149,140,201)" stroke-width="1" opacity="0.996078431372549" d="M 152.5 330 L 155.5 334 L 152.5 330 Z " /><path fill="rgb(149,140,201)" stroke="rgb(149,140,201)" stroke-width="1" opacity="0.996078431372549" d="M 471.5 333 L 468.5 337 L 471.5 333 Z " /><path fill="rgb(149,140,201)" stroke="rgb(149,140,201)" stroke-width="1" opacity="0.996078431372549" d="M 156.5 335 L 161.5 341 L 156.5 335 Z " /><path fill="rgb(149,140,201)" stroke="rgb(149,140,201)" stroke-width="1" opacity="0.996078431372549" d="M 180.5 335 L 181.5 337 L 180.5 335 Z " /><path fill="rgb(149,140,201)" stroke="rgb(149,140,201)" stroke-width="1" opacity="0.996078431372549" d="M 466.5 339 L 463.5 343 L 466.5 339 Z " /><path fill="rgb(149,140,201)" stroke="rgb(149,140,201)" stroke-width="1" opacity="0.996078431372549" d="M 164.5 344 L 172.5 353 L 164.5 344 Z " /><path fill="rgb(149,140,201)" stroke="rgb(149,140,201)" stroke-width="1" opacity="0.996078431372549" d="M 176.5 355 L 181.5 361 L 176.5 355 Z " /><path fill="rgb(149,140,201)" stroke="rgb(149,140,201)" stroke-width="1" opacity="0.996078431372549" d="M 208.5 355 L 209 358.5 L 208 358.5 L 208.5 355 Z " /><path fill="rgb(149,140,201)" stroke="rgb(149,140,201)" stroke-width="1" opacity="0.996078431372549" d="M 184.5 362 L 186.5 365 L 184.5 362 Z " /><path fill="rgb(149,140,201)" stroke="rgb(149,140,201)" stroke-width="1" opacity="0.996078431372549" d="M 188.5 365 L 193 368.5 L 191.5 369 L 188.5 365 Z " /><path fill="rgb(149,140,201)" stroke="rgb(149,140,201)" stroke-width="1" opacity="0.996078431372549" d="M 203.5 370 L 202.5 372 L 203.5 370 Z " /><path fill="rgb(149,140,201)" stroke="rgb(149,140,201)" stroke-width="1" opacity="0.996078431372549" d="M 197.5 372 L 200 373.5 L 198.5 374 L 197.5 372 Z " /><path fill="rgb(149,140,201)" stroke="rgb(149,140,201)" stroke-width="1" opacity="0.996078431372549" d="M 433.5 380 L 432.5 382 L 433.5 380 Z " /><path fill="rgb(149,140,201)" stroke="rgb(149,140,201)" stroke-width="1" opacity="0.996078431372549" d="M 229.5 388 L 229.5 391 Q 226.5 389.5 229.5 388 Z " /><path fill="rgb(149,140,201)" stroke="rgb(149,140,201)" stroke-width="1" opacity="0.996078431372549" d="M 231.5 391 L 235 392.5 L 233.5 393 L 231.5 391 Z " /><path fill="rgb(149,140,201)" stroke="rgb(149,140,201)" stroke-width="1" opacity="0.996078431372549" d="M 267.5 403 L 270 403.5 L 267.5 404 L 267.5 403 Z " /><path fill="rgb(149,140,201)" stroke="rgb(149,140,201)" stroke-width="1" opacity="0.996078431372549" d="M 271.5 404 L 274 404.5 L 271.5 405 L 271.5 404 Z " /><path fill="rgb(149,140,201)" stroke="rgb(149,140,201)" stroke-width="1" opacity="0.996078431372549" d="M 277.5 405 L 280 405.5 L 277.5 406 L 277.5 405 Z " /><path fill="rgb(149,140,201)" stroke="rgb(149,140,201)" stroke-width="1" opacity="0.996078431372549" d="M 283.5 406 L 287 406.5 L 283.5 407 L 283.5 406 Z " /><path fill="rgb(149,140,201)" stroke="rgb(149,140,201)" stroke-width="1" opacity="0.996078431372549" d="M 291.5 407 L 296 407.5 L 291.5 408 L 291.5 407 Z " /><path fill="rgb(149,140,201)" stroke="rgb(149,140,201)" stroke-width="1" opacity="0.996078431372549" d="M 302.5 408 L 322 408.5 L 302.5 409 L 302.5 408 Z " /><path fill="rgb(149,140,201)" stroke="rgb(149,140,201)" stroke-width="1" opacity="0.996078431372549" d="M 405.5 408 L 404.5 410 L 405.5 408 Z " /><path fill="rgb(149,140,201)" stroke="rgb(149,140,201)" stroke-width="1" opacity="0.996078431372549" d="M 321.5 412 L 322 418.5 L 321 418.5 L 321.5 412 Z " /><path fill="rgb(149,140,201)" stroke="rgb(149,140,201)" stroke-width="1" opacity="0.996078431372549" d="M 247.5 417 L 252 417.5 L 247.5 418 L 247.5 417 Z " /><path fill="rgb(149,140,201)" stroke="rgb(149,140,201)" stroke-width="1" opacity="0.996078431372549" d="M 269.5 424 L 273.5 429 L 269.5 424 Z " /><path fill="rgb(149,140,201)" stroke="rgb(149,140,201)" stroke-width="1" opacity="0.996078431372549" d="M 321.5 430 L 322 432.5 L 321 432.5 L 321.5 430 Z " /><path fill="rgb(150,141,202)" stroke="rgb(150,141,202)" stroke-width="1" opacity="1" d="M 246.5 12 L 275.5 12 L 276.5 13 L 292.5 14 L 317.5 19 L 348.5 29 Q 404.7 52.3 442 94.5 Q 473 128.5 491 175.5 L 498 197.5 L 504 227.5 L 505 247.5 L 506 248.5 L 506 271.5 Q 491.4 312.4 464.5 341 L 466 338.5 L 474 325.5 L 478 315.5 L 479 297.5 Q 475 277 460.5 267 L 424.5 246 L 410.5 242 L 398.5 242 Q 378 246 368 260.5 Q 349.8 289.8 338.5 326 L 335.5 321 Q 332.2 319.9 333 322.5 L 328.5 333 L 317 337.5 Q 315.9 340.8 318.5 340 L 327.5 343 L 330 345.5 L 331 353.5 L 326 373.5 L 322 408 L 296.5 408 L 295.5 407 L 274.5 405 L 242.5 396 L 229 389.5 L 238 373.5 L 240 364.5 L 240 349.5 Q 236.6 332.4 224.5 324 Q 206.1 316.9 193 304.5 L 186 293.5 L 182 277.5 L 177 264.5 Q 172 254.5 163.5 248 L 141.5 237 L 132.5 235 L 112.5 235 L 111 233.5 L 110 212.5 L 109 211.5 L 109 196.5 L 110 195.5 L 110 188 L 113.5 186 Q 114.3 195.2 120.5 199 L 130.5 203 L 139.5 203 L 147 199 Q 147.8 205.1 153.5 208 Q 158.3 212.2 168.5 211 L 176 208 Q 176.6 215.3 181.5 219 L 193.5 224 L 199.5 224 L 208.5 219 L 216.5 229 L 221 230.5 Q 214.7 239.2 217 256.5 Q 220.9 275.1 234.5 284 Q 242.3 289.7 253.5 292 L 266.5 292 Q 282.8 288.8 292 278.5 Q 299.8 270.8 302.5 258 L 306.5 263 Q 310.9 266.1 319.5 265 L 325.5 262 L 342 245.5 L 395 191.5 Q 402.9 182.9 402 165.5 L 399 157.5 Q 404.7 150.7 404 137.5 L 400 124.5 L 392.5 116 L 386.5 112 L 378.5 110 L 371.5 110 L 370.5 109 L 363.5 109 L 362.5 108 L 318 102.5 Q 326.1 95.1 329 82.5 L 329 63.5 Q 324.3 44.7 310.5 35 L 301.5 30 L 246.5 13 L 246.5 12 Z " /><path fill="rgb(150,141,202)" stroke="rgb(150,141,202)" stroke-width="1" opacity="1" d="M 203.5 35 L 207.5 35 L 278.5 59 L 287 65.5 Q 290.3 69.2 289 77.5 L 283.5 86 Q 280 89.5 273.5 90 L 200.5 66 L 192 59.5 Q 189 55.5 190 47.5 Q 191.5 41 196.5 38 L 203.5 35 Z " /><path fill="rgb(150,141,202)" stroke="rgb(150,141,202)" stroke-width="1" opacity="1" d="M 119 266 L 130.5 267 L 143.5 273 L 147 276.5 L 152 288.5 L 156 304.5 L 161 314.5 Q 167.3 325.3 176.5 333 Q 188.3 343.2 204.5 349 L 208 352.5 L 208 362.5 Q 205.8 369.3 200.5 373 L 197 371.5 Q 197.8 369.3 195.5 370 L 183.5 362 L 162 341.5 Q 145.4 323.1 133 300.5 L 125 283.5 L 119 266 Z " /><path fill="rgb(150,141,202)" stroke="rgb(150,141,202)" stroke-width="1" opacity="1" d="M 394.5 292 Q 405.2 292.3 411.5 297 L 427.5 307 L 432 311.5 Q 437.5 316.5 436 328.5 Q 420.3 355.3 397.5 375 L 379.5 389 L 370.5 394 L 360 397 L 358 387.5 L 358 373.5 L 359 372.5 L 361 353.5 L 369 325.5 L 380 300.5 L 385.5 295 L 394.5 292 Z " /><path fill="rgb(150,141,202)" stroke="rgb(150,141,202)" stroke-width="1" opacity="1" d="M 431.5 382 L 430.5 384 L 431.5 382 Z " /><path fill="rgb(150,141,202)" stroke="rgb(150,141,202)" stroke-width="1" opacity="1" d="M 407.5 406 L 406.5 408 L 407.5 406 Z " /><path fill="rgb(150,141,202)" stroke="rgb(150,141,202)" stroke-width="1" opacity="1" d="M 230.5 424 L 229.5 426 L 230.5 424 Z " /><path fill="rgb(150,141,202)" stroke="rgb(150,141,202)" stroke-width="1" opacity="1" d="M 227.5 427 L 226.5 429 L 227.5 427 Z " /><path fill="rgb(150,141,202)" stroke="rgb(150,141,202)" stroke-width="1" opacity="1" d="M 280.5 446 L 281 450.5 L 280 450.5 L 280.5 446 Z " /><path fill="rgb(110,97,180)" stroke="rgb(110,97,180)" stroke-width="1" opacity="0.9882352941176471" d="M 242.5 11 L 245 11.5 L 242.5 12 L 242.5 11 Z " /><path fill="rgb(110,97,180)" stroke="rgb(110,97,180)" stroke-width="1" opacity="0.9882352941176471" d="M 154.5 32 L 156 32.5 L 138.5 41 L 139.5 39 L 154.5 32 Z " /><path fill="rgb(110,97,180)" stroke="rgb(110,97,180)" stroke-width="1" opacity="0.9882352941176471" d="M 48 120 L 50 120.5 Q 24.1 155.6 12.5 205 L 12 201.5 L 17 183.5 L 25 162.5 L 48 120 Z " /><path fill="rgb(110,97,180)" stroke="rgb(110,97,180)" stroke-width="1" opacity="0.9882352941176471" d="M 11.5 206 L 12 209.5 L 10 215.5 L 7.5 235 L 7 227.5 L 11.5 206 Z " /><path fill="rgb(110,97,180)" stroke="rgb(110,97,180)" stroke-width="1" opacity="0.9882352941176471" d="M 6.5 236 L 7 247.5 L 6 248.5 L 6 274.5 L 7 275.5 L 8 294.5 L 7 294.5 L 6 275.5 L 5 274.5 L 5 248.5 L 6 247.5 L 6.5 236 Z " /><path fill="rgb(110,97,180)" stroke="rgb(110,97,180)" stroke-width="1" opacity="0.9882352941176471" d="M 506.5 272 L 507 274.5 L 506 275.5 L 505 295.5 L 501 317.5 L 495 339.5 L 488 358.5 L 471 391.5 L 459 409.5 L 442 431 Q 439.3 429.9 440 432.5 Q 406.6 469.1 358.5 491 L 341.5 498 L 310.5 507 L 287.5 511 L 278.5 511 L 277.5 512 L 258.5 512 L 258.5 511 L 277.5 511 L 278.5 510 L 287.5 510 L 288.5 509 L 305.5 507 L 325.5 502 L 362.5 488 Q 410.6 464.6 444 426.5 Q 471.1 396.1 488 355.5 L 500 317.5 L 504 295.5 L 504 288.5 L 505 287.5 L 505 275.5 L 506.5 272 Z " /><path fill="rgb(110,97,180)" stroke="rgb(110,97,180)" stroke-width="1" opacity="0.9882352941176471" d="M 8.5 296 L 12 316.5 L 11 316.5 L 8 302.5 L 8.5 296 Z " /><path fill="rgb(110,97,180)" stroke="rgb(110,97,180)" stroke-width="1" opacity="0.9882352941176471" d="M 12.5 318 L 22 350.5 L 41 389.5 Q 61.6 423.4 90.5 449 Q 126.9 482.1 179 499.5 L 176.5 500 Q 144.3 489.2 118.5 472 Q 92 454.6 71 431.5 Q 48.2 406.8 32 375.5 L 18 342.5 L 12 321.5 L 12.5 318 Z " /><path fill="rgb(110,97,180)" stroke="rgb(110,97,180)" stroke-width="1" opacity="0.9882352941176471" d="M 211.5 507 L 234.5 511 L 255 511.5 L 234.5 512 L 233.5 511 L 225.5 511 L 224.5 510 L 211 509 L 211.5 507 Z " /><path fill="rgb(110,97,181)" stroke="rgb(110,97,181)" stroke-width="1" opacity="1" d="M 154.5 33 Q 156.8 32.3 156 34.5 L 155 35.5 L 155 50 L 138 41.5 L 154.5 33 Z " /><path fill="rgb(110,97,181)" stroke="rgb(110,97,181)" stroke-width="1" opacity="1" d="M 313.5 38 L 316.5 42 L 313.5 38 Z " /><path fill="rgb(110,97,181)" stroke="rgb(110,97,181)" stroke-width="1" opacity="1" d="M 189.5 51 L 190 53.5 L 189 53.5 L 189.5 51 Z " /><path fill="rgb(110,97,181)" stroke="rgb(110,97,181)" stroke-width="1" opacity="1" d="M 284.5 85 L 283.5 87 L 284.5 85 Z " /><path fill="rgb(110,97,181)" stroke="rgb(110,97,181)" stroke-width="1" opacity="1" d="M 319.5 103 L 322 103.5 L 319.5 104 L 319.5 103 Z " /><path fill="rgb(110,97,181)" stroke="rgb(110,97,181)" stroke-width="1" opacity="1" d="M 374.5 110 L 377 110.5 L 374.5 111 L 374.5 110 Z " /><path fill="rgb(110,97,181)" stroke="rgb(110,97,181)" stroke-width="1" opacity="1" d="M 49.5 121 L 51 123.5 L 51 130.5 L 52 131.5 L 57 172.5 L 64.5 182 L 72.5 184 L 77.5 183 L 85 178 Q 85.7 183.4 90.5 186 L 95.5 189 L 103.5 190 L 110.5 187 L 109 189.5 L 109 219.5 L 110 220.5 L 110 229.5 L 111 235 L 113 235.5 Q 90.2 237.7 79 251.5 L 76.5 255 L 70.5 241 Q 66.8 240.3 66 242.5 L 61 258.5 L 58.5 261 L 42 266 L 41 269.5 L 45.5 273 L 59.5 277 L 61 278.5 L 66 293.5 L 65 296.5 L 66 297.5 L 66 307.5 L 68 318.5 L 75 339.5 Q 85.9 364.6 105.5 381 Q 115.2 389.7 128 394 L 130.5 400 L 158.5 407 L 194.5 411 L 198.5 406 Q 218.4 402.9 228.5 390 L 243.5 397 L 271.5 405 L 290.5 407 L 291.5 408 L 301.5 408 L 302.5 409 L 322 409 L 321 412.5 L 321 432.5 Q 322.9 441.6 329.5 446 L 338.5 450 L 345.5 450 L 360.5 443 L 386.5 425 Q 412.3 404.8 434 380.5 L 479 324.5 Q 494.6 303.6 504.5 277 L 505 287.5 L 504 288.5 L 502 307.5 L 496 332.5 Q 487.9 359.9 475 382.5 Q 453.3 420.8 421.5 449 Q 388.6 478.6 343.5 496 L 318.5 504 L 300.5 508 L 288.5 509 L 287.5 510 L 278.5 510 L 277.5 511 L 258.5 511 L 255.5 512 L 254.5 511 L 234.5 511 L 233.5 510 L 225.5 510 L 224.5 509 L 212 508 L 215.5 503 L 240.5 480 L 242.5 479 L 256.5 479 L 262.5 477 L 276 465.5 L 281 452.5 L 281 444.5 Q 278.7 430.8 269.5 424 Q 262 417 247.5 417 L 236.5 420 L 225 429.5 L 219 442.5 L 219 453.5 L 220 455.5 L 179.5 499 L 151.5 489 L 125.5 475 Q 92.8 454.7 68 426.5 Q 39.2 394.3 22 350.5 L 14 325.5 L 9 302.5 L 8 287.5 L 7 286.5 L 7 275.5 L 6 274.5 L 6 248.5 L 7 247.5 L 8 227.5 L 12 205.5 L 21 175.5 Q 32.2 145.2 49.5 121 Z " /><path fill="rgb(110,97,181)" stroke="rgb(110,97,181)" stroke-width="1" opacity="1" d="M 113.5 185 L 115 185.5 L 112.5 187 L 113.5 185 Z " /><path fill="rgb(110,97,181)" stroke="rgb(110,97,181)" stroke-width="1" opacity="1" d="M 162.5 210 L 167 210.5 L 162.5 211 L 162.5 210 Z " /><path fill="rgb(110,97,181)" stroke="rgb(110,97,181)" stroke-width="1" opacity="1" d="M 213.5 225 L 214.5 227 L 213.5 225 Z " /><path fill="rgb(110,97,181)" stroke="rgb(110,97,181)" stroke-width="1" opacity="1" d="M 355.5 230 L 343.5 243 L 355.5 230 Z " /><path fill="rgb(110,97,181)" stroke="rgb(110,97,181)" stroke-width="1" opacity="1" d="M 129.5 235 L 132 235.5 L 129.5 236 L 129.5 235 Z " /><path fill="rgb(110,97,181)" stroke="rgb(110,97,181)" stroke-width="1" opacity="1" d="M 165.5 250 L 169.5 255 L 165.5 250 Z " /><path fill="rgb(110,97,181)" stroke="rgb(110,97,181)" stroke-width="1" opacity="1" d="M 115.5 266 L 119 267.5 Q 136.2 319.8 172.5 353 L 191 368.5 L 184.5 369 L 183.5 368 L 177.5 368 L 159.5 364 L 154.5 364 L 131.5 357 L 128.5 359 L 116 347.5 L 109 337.5 L 100 317.5 L 97 304.5 L 97 284.5 Q 98.4 275.9 103.5 271 L 115.5 266 Z " /><path fill="rgb(110,97,181)" stroke="rgb(110,97,181)" stroke-width="1" opacity="1" d="M 189.5 300 L 190.5 302 L 189.5 300 Z " /><path fill="rgb(110,97,181)" stroke="rgb(110,97,181)" stroke-width="1" opacity="1" d="M 194.5 306 L 195.5 308 L 194.5 306 Z " /><path fill="rgb(110,97,181)" stroke="rgb(110,97,181)" stroke-width="1" opacity="1" d="M 166.5 321 L 167.5 323 L 166.5 321 Z " /><path fill="rgb(110,97,181)" stroke="rgb(110,97,181)" stroke-width="1" opacity="1" d="M 226.5 326 L 231.5 332 L 226.5 326 Z " /><path fill="rgb(110,97,181)" stroke="rgb(110,97,181)" stroke-width="1" opacity="1" d="M 178.5 333 L 179.5 335 L 178.5 333 Z " /><path fill="rgb(110,97,181)" stroke="rgb(110,97,181)" stroke-width="1" opacity="1" d="M 182.5 336 L 183.5 338 L 182.5 336 Z " /><path fill="rgb(110,97,181)" stroke="rgb(110,97,181)" stroke-width="1" opacity="1" d="M 185.5 338 L 186.5 340 L 185.5 338 Z " /><path fill="rgb(110,97,181)" stroke="rgb(110,97,181)" stroke-width="1" opacity="1" d="M 239.5 351 L 240 353.5 L 239 353.5 L 239.5 351 Z " /><path fill="rgb(110,97,181)" stroke="rgb(110,97,181)" stroke-width="1" opacity="1" d="M 239.5 361 L 240 363.5 L 239 363.5 L 239.5 361 Z " /></svg>