<svg width="512" height="512" version="1.1" xmlns="http://www.w3.org/2000/svg" desc="Created with imagetracer.js version 1.2.6" ><path fill="rgb(252,158,24)" stroke="rgb(252,158,24)" stroke-width="1" opacity="0.9882352941176471" d="M 4 0 L 248 0 L 248 148 L 4 148 L 4 0 Z M 39 34 L 39 113 L 143 113 L 143 53 L 144 52 L 144 36 L 143 34 L 39 34 Z " /><path fill="rgb(225,87,74)" stroke="rgb(225,87,74)" stroke-width="1" opacity="0.996078431372549" d="M 334 52 L 351.5 52 L 352 52.5 L 352 156 L 507.5 156 L 508 156.5 L 508 174 L 282.5 174 L 282 173.5 L 282 156 L 315.5 156 L 316 155.5 L 316 139 L 334 139 L 334 52 Z " /><path fill="rgb(225,87,74)" stroke="rgb(225,87,74)" stroke-width="1" opacity="0.996078431372549" d="M 335.5 190 L 350.5 190 L 352 191.5 L 352 329.5 L 351.5 330 L 316 330 L 316 313 L 333.5 313 L 334 312.5 L 334 191.5 L 335.5 190 Z " /><path fill="rgb(225,87,74)" stroke="rgb(225,87,74)" stroke-width="1" opacity="0.996078431372549" d="M 290.5 485 L 308 485.5 L 290.5 486 L 290.5 485 Z " /><path fill="rgb(225,87,74)" stroke="rgb(225,87,74)" stroke-width="1" opacity="0.996078431372549" d="M 481.5 485 L 499 485.5 L 481.5 486 L 481.5 485 Z " /><path fill="rgb(0,0,0)" stroke="rgb(0,0,0)" stroke-width="1" opacity="0" d="M 0 0 L 4 0.5 L 4 148 L 248 148 L 248 0.5 L 248.5 0 L 282 0 L 282 485.5 L 282.5 486 L 291 486 L 291 512 L 239 512 L 239 486 L 247.5 486 L 248 485.5 L 248 182 L 4 182 L 4 486 L 13 486 L 13 512 L 0.5 512 L 0 511.5 L 0 0 Z " /><path fill="rgb(0,0,0)" stroke="rgb(0,0,0)" stroke-width="1" opacity="0" d="M 508 0 L 512 0.5 L 512 512 L 499 512 L 499 486 L 507.5 486 L 508 485.5 L 508 0 Z " /><path fill="rgb(0,0,0)" stroke="rgb(0,0,0)" stroke-width="1" opacity="0" d="M 31 486 L 220.5 486 L 221 486.5 L 221 512 L 31.5 512 L 31 511.5 L 31 486 Z " /><path fill="rgb(0,0,0)" stroke="rgb(0,0,0)" stroke-width="1" opacity="0" d="M 308 486 L 480.5 486 L 481 486.5 L 481 512 L 308.5 512 L 308 511.5 L 308 486 Z " /><path fill="rgb(212,216,218)" stroke="rgb(212,216,218)" stroke-width="1" opacity="1" d="M 39.5 34 L 143 34.5 L 39.5 35 L 39.5 34 Z " /><path fill="rgb(212,216,218)" stroke="rgb(212,216,218)" stroke-width="1" opacity="1" d="M 317 52 L 333.5 52 L 334 52.5 L 334 139 L 317.5 139 L 317 138.5 L 317 52 Z " /><path fill="rgb(212,216,218)" stroke="rgb(212,216,218)" stroke-width="1" opacity="1" d="M 317 191 L 333.5 191 L 334 191.5 L 334 312 L 317.5 312 L 317 311.5 L 317 191 Z " /><path fill="rgb(212,216,218)" stroke="rgb(212,216,218)" stroke-width="1" opacity="1" d="M 116.5 278 L 135.5 278 L 153.5 282 L 170.5 290 L 188 303 L 201 320.5 L 208 335.5 L 212 351.5 L 213 367.5 L 209 390.5 L 201 408.5 Q 192.7 422.2 180.5 432 Q 167.6 442.6 149.5 448 L 134.5 451 L 117.5 451 L 101.5 448 L 88.5 443 Q 74.4 436.1 64 425.5 Q 52.1 413.4 45 396.5 L 40 378.5 L 39 359.5 L 40 358.5 L 41 345.5 L 45 332.5 Q 53 313 67.5 300 Q 77.6 291.1 90.5 285 L 101.5 281 L 116.5 278 Z M 117 304 Q 99 307 88 317 Q 69 330 65 358 L 65 372 L 67 382 Q 71 394 78 403 Q 91 420 117 425 L 136 425 L 144 423 Q 157 419 167 410 L 169 408 L 152 391 L 152 339 L 169 322 Q 158 310 141 305 L 136 304 L 117 304 Z " /><path fill="rgb(66,151,208)" stroke="rgb(66,151,208)" stroke-width="1" opacity="0.6509803921568628" d="M 4 182 L 248 182 L 248 485.5 L 247 485.5 L 247 183 L 5 183 L 4.5 243 L 4 182 Z " /><path fill="rgb(66,151,208)" stroke="rgb(66,151,208)" stroke-width="1" opacity="0.6509803921568628" d="M 4.5 260 L 5 485.5 L 4 485.5 L 4.5 260 Z " /><path fill="rgb(67,152,208)" stroke="rgb(67,152,208)" stroke-width="1" opacity="1" d="M 5 183 L 246.5 183 L 247 183.5 L 247 243 L 5.5 243 L 5 242.5 L 5 183 Z M 30 208 L 30 226 L 48 226 L 48 208 L 30 208 Z M 65 208 L 65 226 L 83 226 L 83 208 L 65 208 Z M 100 208 L 100 226 L 117 226 L 117 208 L 100 208 Z M 169 208 L 169 226 L 221 226 L 222 225 L 222 210 L 221 208 L 169 208 Z " /><path fill="rgb(67,152,208)" stroke="rgb(67,152,208)" stroke-width="1" opacity="1" d="M 5 261 L 247 261 L 247 486 L 5 486 L 5 261 Z M 124 277 L 123 278 L 108 279 L 95 283 Q 81 288 71 297 Q 45 316 39 355 L 39 375 L 40 376 L 39 382 L 41 381 L 40 383 L 40 390 L 45 408 Q 51 423 61 435 Q 76 452 99 462 L 121 468 L 131 468 L 133 468 L 136 469 L 138 469 L 139 468 L 149 468 L 159 466 L 171 462 Q 185 456 196 447 Q 211 434 221 415 L 226 402 L 230 382 L 230 365 L 225 342 Q 218 323 206 310 Q 185 285 147 278 Q 141 277 140 279 L 139 278 L 124 277 Z " /><path fill="rgb(67,152,208)" stroke="rgb(67,152,208)" stroke-width="1" opacity="1" d="M 181.5 297 L 182.5 299 L 181.5 297 Z " /><path fill="rgb(67,152,208)" stroke="rgb(67,152,208)" stroke-width="1" opacity="1" d="M 57.5 418 L 58.5 420 L 57.5 418 Z " /><path fill="rgb(67,152,208)" stroke="rgb(67,152,208)" stroke-width="1" opacity="1" d="M 193.5 419 L 192.5 421 L 193.5 419 Z " /><path fill="rgb(67,152,208)" stroke="rgb(67,152,208)" stroke-width="1" opacity="1" d="M 183.5 429 L 181.5 432 L 183.5 429 Z " /><path fill="rgb(67,152,208)" stroke="rgb(67,152,208)" stroke-width="1" opacity="1" d="M 121.5 451 L 131 451.5 L 121.5 452 L 121.5 451 Z " /><path fill="rgb(227,88,75)" stroke="rgb(227,88,75)" stroke-width="1" opacity="1" d="M 282 0 L 508 0 L 508 156 L 352 156 L 352 52 L 317 52 L 317 138.5 L 316 139.5 L 316 156 L 282.5 156 L 282 155.5 L 282 0 Z " /><path fill="rgb(227,88,75)" stroke="rgb(227,88,75)" stroke-width="1" opacity="1" d="M 143.5 35 L 144 51.5 L 143 51.5 L 143.5 35 Z " /><path fill="rgb(227,88,75)" stroke="rgb(227,88,75)" stroke-width="1" opacity="1" d="M 282 174 L 508 174 L 508 486 L 499.5 486 L 498.5 485 L 481.5 485 L 480.5 486 L 308.5 486 L 307.5 485 L 290.5 485 L 289.5 486 L 282 486 L 282 174 Z M 336 190 L 335 191 L 317 191 L 317 312 L 318 312 L 334 312 L 334 313 L 316 313 L 316 330 L 352 330 L 352 330 L 352 192 L 351 190 L 336 190 Z " /><path fill="rgb(62,141,194)" stroke="rgb(62,141,194)" stroke-width="1" opacity="0.996078431372549" d="M 30 208 L 48 208 L 48 226 L 30 226 L 30 208 Z M 31 209 L 31 225 L 47 225 L 47 209 L 31 209 Z " /><path fill="rgb(62,141,194)" stroke="rgb(62,141,194)" stroke-width="1" opacity="0.996078431372549" d="M 65 208 L 83 208 L 83 226 L 65 226 L 65 208 Z M 66 209 L 66 225 L 82 225 L 82 209 L 66 209 Z " /><path fill="rgb(62,141,194)" stroke="rgb(62,141,194)" stroke-width="1" opacity="0.996078431372549" d="M 100.5 208 L 117 208.5 L 100.5 209 L 100.5 208 Z " /><path fill="rgb(62,141,194)" stroke="rgb(62,141,194)" stroke-width="1" opacity="0.996078431372549" d="M 169 208 L 220.5 208 L 222 209.5 L 222 224.5 L 220.5 226 L 169 226 L 169 208 Z M 170 209 L 170 225 L 171 225 L 221 225 L 221 210 L 221 209 L 170 209 Z " /><path fill="rgb(62,141,194)" stroke="rgb(62,141,194)" stroke-width="1" opacity="0.996078431372549" d="M 100.5 225 L 117 225.5 L 100.5 226 L 100.5 225 Z " /><path fill="rgb(62,141,194)" stroke="rgb(62,141,194)" stroke-width="1" opacity="0.996078431372549" d="M 4.5 243 L 5 260 L 247 260.5 L 5.5 261 L 4 259.5 L 4.5 243 Z " /><path fill="rgb(62,141,194)" stroke="rgb(62,141,194)" stroke-width="1" opacity="0.996078431372549" d="M 140.5 278 L 157.5 280 L 174.5 286 Q 193.2 294.8 206 309.5 Q 218.1 322.9 225 341.5 L 230 364.5 L 230 381.5 L 226 401.5 L 221 414.5 Q 211.3 433.8 195.5 447 Q 184.5 456 170.5 462 L 158.5 466 L 148.5 468 L 138.5 468 L 137.5 469 L 135.5 469 L 132.5 468 L 130.5 468 L 120.5 468 L 98.5 462 Q 75.6 452.4 61 434.5 Q 51 423 45 407.5 L 40 389.5 L 39 377.5 L 40 377.5 L 41 386.5 L 49 406.5 Q 57.8 422.2 71.5 433 Q 83.3 442.7 99.5 448 L 112.5 451 L 130.5 452 L 131.5 451 L 139.5 451 L 148.5 449 L 166.5 442 Q 182.8 433.3 194 419.5 Q 204.6 406.6 210 388.5 L 213 373.5 L 213 355.5 L 212 354.5 L 211 343.5 L 201 319.5 Q 193.1 306.4 181.5 297 L 160.5 284 Q 152.1 279.9 140.5 279 L 140.5 278 Z " /><path fill="rgb(127,202,213)" stroke="rgb(127,202,213)" stroke-width="1" opacity="1" d="M 39 35 L 143 35 L 143 113 L 39 113 L 39 35 Z " /><path fill="rgb(127,202,213)" stroke="rgb(127,202,213)" stroke-width="1" opacity="1" d="M 123.5 277 L 128 277.5 L 123.5 278 L 123.5 277 Z " /><path fill="rgb(127,202,213)" stroke="rgb(127,202,213)" stroke-width="1" opacity="1" d="M 112.5 278 L 116 278.5 L 112.5 279 L 112.5 278 Z " /><path fill="rgb(127,202,213)" stroke="rgb(127,202,213)" stroke-width="1" opacity="1" d="M 136.5 278 L 139 278.5 L 136.5 279 L 136.5 278 Z " /><path fill="rgb(127,202,213)" stroke="rgb(127,202,213)" stroke-width="1" opacity="1" d="M 83.5 288 L 82.5 290 L 83.5 288 Z " /><path fill="rgb(127,202,213)" stroke="rgb(127,202,213)" stroke-width="1" opacity="1" d="M 174.5 292 L 175.5 294 L 174.5 292 Z " /><path fill="rgb(127,202,213)" stroke="rgb(127,202,213)" stroke-width="1" opacity="1" d="M 178.5 295 L 179.5 297 L 178.5 295 Z " /><path fill="rgb(127,202,213)" stroke="rgb(127,202,213)" stroke-width="1" opacity="1" d="M 70.5 297 L 68.5 300 L 70.5 297 Z " /><path fill="rgb(127,202,213)" stroke="rgb(127,202,213)" stroke-width="1" opacity="1" d="M 183.5 299 L 186.5 303 L 183.5 299 Z " /><path fill="rgb(127,202,213)" stroke="rgb(127,202,213)" stroke-width="1" opacity="1" d="M 116.5 304 L 135.5 304 L 140.5 305 Q 158.2 309.8 169 321.5 L 152 338.5 L 152 390.5 L 169 407.5 L 166.5 410 Q 157.3 418.8 143.5 423 L 135.5 425 L 116.5 425 Q 91.1 419.9 78 402.5 Q 70.8 393.7 67 381.5 L 65 371.5 L 65 357.5 Q 69.5 330.5 87.5 317 Q 98.8 307.3 116.5 304 Z " /><path fill="rgb(127,202,213)" stroke="rgb(127,202,213)" stroke-width="1" opacity="1" d="M 188.5 304 L 192.5 309 L 188.5 304 Z " /><path fill="rgb(127,202,213)" stroke="rgb(127,202,213)" stroke-width="1" opacity="1" d="M 61.5 306 L 58.5 310 L 61.5 306 Z " /><path fill="rgb(127,202,213)" stroke="rgb(127,202,213)" stroke-width="1" opacity="1" d="M 56.5 312 L 55.5 314 L 56.5 312 Z " /><path fill="rgb(127,202,213)" stroke="rgb(127,202,213)" stroke-width="1" opacity="1" d="M 40.5 347 L 41 349.5 L 40 349.5 L 40.5 347 Z " /><path fill="rgb(127,202,213)" stroke="rgb(127,202,213)" stroke-width="1" opacity="1" d="M 39.5 354 L 40 358.5 L 39 358.5 L 39.5 354 Z " /><path fill="rgb(127,202,213)" stroke="rgb(127,202,213)" stroke-width="1" opacity="1" d="M 212.5 356 L 213 360.5 L 212 360.5 L 212.5 356 Z " /><path fill="rgb(127,202,213)" stroke="rgb(127,202,213)" stroke-width="1" opacity="1" d="M 212.5 368 L 213 372.5 L 212 372.5 L 212.5 368 Z " /><path fill="rgb(127,202,213)" stroke="rgb(127,202,213)" stroke-width="1" opacity="1" d="M 39.5 370 L 40 374.5 L 39 374.5 L 39.5 370 Z " /><path fill="rgb(127,202,213)" stroke="rgb(127,202,213)" stroke-width="1" opacity="1" d="M 51.5 409 L 52.5 411 L 51.5 409 Z " /><path fill="rgb(127,202,213)" stroke="rgb(127,202,213)" stroke-width="1" opacity="1" d="M 53.5 412 L 54.5 414 L 53.5 412 Z " /><path fill="rgb(127,202,213)" stroke="rgb(127,202,213)" stroke-width="1" opacity="1" d="M 55.5 415 L 56.5 417 L 55.5 415 Z " /><path fill="rgb(127,202,213)" stroke="rgb(127,202,213)" stroke-width="1" opacity="1" d="M 195.5 416 L 194.5 418 L 195.5 416 Z " /><path fill="rgb(127,202,213)" stroke="rgb(127,202,213)" stroke-width="1" opacity="1" d="M 59.5 420 L 63.5 425 L 59.5 420 Z " /><path fill="rgb(127,202,213)" stroke="rgb(127,202,213)" stroke-width="1" opacity="1" d="M 191.5 421 L 184.5 429 L 191.5 421 Z " /><path fill="rgb(127,202,213)" stroke="rgb(127,202,213)" stroke-width="1" opacity="1" d="M 66.5 427 L 70.5 432 L 66.5 427 Z " /><path fill="rgb(127,202,213)" stroke="rgb(127,202,213)" stroke-width="1" opacity="1" d="M 179.5 432 L 178.5 434 L 179.5 432 Z " /><path fill="rgb(127,202,213)" stroke="rgb(127,202,213)" stroke-width="1" opacity="1" d="M 73.5 433 L 74.5 435 L 73.5 433 Z " /><path fill="rgb(127,202,213)" stroke="rgb(127,202,213)" stroke-width="1" opacity="1" d="M 113.5 450 L 117 450.5 L 113.5 451 L 113.5 450 Z " /><path fill="rgb(127,202,213)" stroke="rgb(127,202,213)" stroke-width="1" opacity="1" d="M 135.5 450 L 138 450.5 L 135.5 451 L 135.5 450 Z " /><path fill="rgb(37,116,171)" stroke="rgb(37,116,171)" stroke-width="1" opacity="0.996078431372549" d="M 31 209 L 47 209 L 47 225 L 31 225 L 31 209 Z " /><path fill="rgb(37,116,171)" stroke="rgb(37,116,171)" stroke-width="1" opacity="0.996078431372549" d="M 66 209 L 82 209 L 82 225 L 66 225 L 66 209 Z " /><path fill="rgb(37,116,171)" stroke="rgb(37,116,171)" stroke-width="1" opacity="0.996078431372549" d="M 100 209 L 117 209 L 117 225 L 100 225 L 100 209 Z " /><path fill="rgb(37,116,171)" stroke="rgb(37,116,171)" stroke-width="1" opacity="0.996078431372549" d="M 170 209 L 220.5 209 L 221 209.5 L 221 225 L 170.5 225 L 170 224.5 L 170 209 Z " /><path fill="rgb(37,116,171)" stroke="rgb(37,116,171)" stroke-width="1" opacity="0.996078431372549" d="M 5 243 L 246.5 243 L 247 243.5 L 247 260 L 5.5 260 L 5 259.5 L 5 243 Z " /><path fill="rgb(37,116,171)" stroke="rgb(37,116,171)" stroke-width="1" opacity="0.996078431372549" d="M 13 486 L 31 486 L 31 512 L 13 512 L 13 486 Z " /><path fill="rgb(37,116,171)" stroke="rgb(37,116,171)" stroke-width="1" opacity="0.996078431372549" d="M 221 486 L 239 486 L 239 512 L 221 512 L 221 486 Z " /><path fill="rgb(37,116,171)" stroke="rgb(37,116,171)" stroke-width="1" opacity="0.996078431372549" d="M 291 486 L 308 486 L 308 512 L 291 512 L 291 486 Z " /><path fill="rgb(37,116,171)" stroke="rgb(37,116,171)" stroke-width="1" opacity="0.996078431372549" d="M 481 486 L 499 486 L 499 512 L 481 512 L 481 486 Z " /></svg>