<svg width="512" height="512" version="1.1" xmlns="http://www.w3.org/2000/svg" desc="Created with imagetracer.js version 1.2.6" ><path fill="rgb(255,160,0)" stroke="rgb(255,160,0)" stroke-width="1" opacity="0.9725490196078431" d="M 250.5 0 L 262.5 0 L 272 5 L 278 16.5 L 278 44 L 272.5 43 L 240.5 43 L 235 44 L 235 15.5 Q 237.1 8.1 242.5 4 L 250.5 0 Z " /><path fill="rgb(255,160,0)" stroke="rgb(255,160,0)" stroke-width="1" opacity="0.9725490196078431" d="M 171 427 L 341.5 427 L 342 427.5 L 342 436.5 Q 336 473 312.5 492 Q 298.9 504.4 278.5 510 L 269.5 512 L 243.5 512 Q 207.5 505 189 480.5 Q 180.2 469.8 175 455.5 L 171 439.5 L 171 427 Z " /><path fill="rgb(0,0,0)" stroke="rgb(0,0,0)" stroke-width="1" opacity="0" d="M 0 0 L 249 0.5 Q 241.7 2.7 238 8.5 L 235 14.5 L 235 44 L 216.5 47 L 184.5 60 Q 159.8 73.8 142 94.5 Q 119.7 119.7 110 157.5 L 108 167.5 L 108 174.5 L 107 175.5 L 107 250.5 L 106 251.5 L 106 267.5 L 102 288.5 Q 88 335 54.5 362 L 52 363.5 Q 45.8 370.3 43 380.5 L 43 397.5 Q 46.9 412.1 57.5 420 Q 63.9 425.1 73.5 427 L 171 427 L 171 439.5 L 177 460.5 Q 186.1 480.9 202.5 494 Q 218 507.5 243 511.5 L 0 512 L 0 0 Z " /><path fill="rgb(0,0,0)" stroke="rgb(0,0,0)" stroke-width="1" opacity="0" d="M 263.5 0 L 512 0 L 512 512 L 270 511.5 Q 305 505 323 481.5 Q 331.8 471.3 337 457.5 L 341 443.5 L 342 427 L 438.5 427 Q 454 424 462 413.5 L 469 400.5 Q 471.4 393.4 470 382.5 Q 465.7 364.8 452.5 356 L 445 349.5 Q 419.3 323.2 409 281.5 L 408 270.5 L 407 269.5 L 407 261.5 L 406 260.5 L 406 178.5 L 400 147.5 Q 386 106 356.5 80 Q 340.7 65.7 320.5 56 L 299.5 48 L 278 44 L 278 16.5 L 271.5 5 L 263.5 1 L 263.5 0 Z " /><path fill="rgb(255,193,6)" stroke="rgb(255,193,6)" stroke-width="1" opacity="0.9921568627450981" d="M 230.5 44 L 235 44.5 L 210.5 50 L 183.5 62 Q 159.3 75.8 142 96.5 Q 125.7 115.7 116 141.5 L 110 162.5 L 109 174.5 L 108 175.5 L 107.5 192 L 107 175.5 L 113 146.5 L 122 124.5 Q 136.2 97.2 158.5 78 Q 174.2 64.2 194.5 55 L 216.5 47 L 230.5 44 Z " /><path fill="rgb(255,193,6)" stroke="rgb(255,193,6)" stroke-width="1" opacity="0.9921568627450981" d="M 277.5 44 L 282.5 44 L 299.5 48 L 324.5 58 Q 348.6 70.4 366 89.5 L 368 92.5 L 377 102.5 L 394 131.5 L 403 159.5 L 405 169.5 L 405 177.5 L 404 177.5 L 403 164.5 L 399 148.5 Q 394 132 386 118.5 Q 373.1 96.4 354.5 80 Q 338.4 65.6 317.5 56 L 295.5 48 L 277.5 45 L 277.5 44 Z " /><path fill="rgb(255,193,6)" stroke="rgb(255,193,6)" stroke-width="1" opacity="0.9921568627450981" d="M 405.5 179 L 406 260.5 L 411 289.5 Q 423.4 330.6 451.5 356 L 463 366.5 Q 468.1 372.9 470 382.5 L 470 396.5 Q 466.6 411.1 456.5 419 L 446.5 425 L 438.5 427 L 341.5 427 L 341.5 426 L 438.5 426 Q 454 422.5 462 411.5 Q 470.3 402.3 469 383.5 Q 467.1 373.9 462 367.5 Q 441.7 350.8 427 328.5 Q 416.2 311.8 410 290.5 L 406 270.5 L 406 261.5 L 405 260.5 L 405.5 179 Z " /><path fill="rgb(255,193,6)" stroke="rgb(255,193,6)" stroke-width="1" opacity="0.9921568627450981" d="M 106.5 253 L 107 267.5 L 102 292.5 L 92 317.5 Q 78.4 342.9 57.5 361 L 52 365.5 L 44 381.5 L 44 396.5 Q 47.4 411.6 58.5 419 Q 64.9 424.1 74.5 426 L 172 426.5 L 73.5 427 Q 58 423.5 50 412.5 L 43 397.5 L 43 380.5 Q 46.1 369.1 53.5 362 L 74 342.5 Q 90.5 322.5 100 295.5 L 105 274.5 L 106.5 253 Z " /><path fill="rgb(255,193,7)" stroke="rgb(255,193,7)" stroke-width="1" opacity="1" d="M 240.5 43 L 272.5 43 L 277.5 45 L 295.5 48 L 307.5 52 Q 344.4 66.1 368 93.5 Q 391.9 119.6 402 159.5 L 404 177.5 L 405 178.5 L 405 260.5 L 406 261.5 L 406 270.5 L 409 286.5 L 414 302.5 Q 420.9 320.1 431 334.5 L 464 370.5 L 469 383.5 L 469 395.5 Q 465.5 411 454.5 419 Q 448.1 424.1 438.5 426 L 172.5 427 L 171.5 426 L 74.5 426 Q 58.3 422.2 50 410.5 L 44 396.5 L 44 381.5 Q 47.4 368.4 56.5 361 L 73 345.5 Q 96.1 320.1 105 280.5 L 106 268.5 L 107 267.5 L 107 192.5 L 108 191.5 L 108 175.5 L 113 150.5 Q 127.4 104.9 160.5 78 Q 176.8 64.3 197.5 55 L 217.5 48 L 240.5 43 Z " /></svg>