<svg width="512" height="512" version="1.1" xmlns="http://www.w3.org/2000/svg" desc="Created with imagetracer.js version 1.2.6" ><path fill="rgb(0,0,0)" stroke="rgb(0,0,0)" stroke-width="1" opacity="0" d="M 0 0 L 179 0.5 Q 162.6 3.6 154 14.5 Q 147.2 22.2 144 33.5 L 143 50.5 Q 146.4 71.1 160.5 81 L 173 89.5 Q 175.5 93 174 100.5 Q 172.2 107.7 166.5 111 Q 155.7 116.2 148.5 125 L 142.5 128 L 92.5 128 L 77.5 132 Q 64.9 137.9 57 148.5 L 50 161.5 L 11 255.5 L 5 270.5 L 5 274.5 L 8.5 277 L 64 299 L 64 508.5 L 67 511.5 L 0 512 L 0 0 Z " /><path fill="rgb(0,0,0)" stroke="rgb(0,0,0)" stroke-width="1" opacity="0" d="M 198.5 0 L 314 0.5 Q 298.3 3.3 290 13.5 Q 277.5 25 278 49.5 Q 281.4 70.6 295.5 81 L 307 87 Q 310.3 90.9 309 100.5 Q 307.2 107.7 301.5 111 L 278.5 128 L 233.5 128 L 206 107.5 L 203 101.5 L 203 89.5 L 201 80.5 Q 197.3 70.2 189.5 64 L 178.5 58 L 175 54.5 L 172 48.5 L 172 41.5 Q 173.8 34.3 179.5 31 L 189.5 28 Q 198 29.5 202 35.5 L 204 39.5 L 205 49.5 L 210.5 57 Q 214.5 60 222.5 59 L 230 54.5 L 233 49.5 L 233 35.5 Q 228.6 17.4 215.5 8 L 204.5 2 L 198.5 1 L 198.5 0 Z " /><path fill="rgb(0,0,0)" stroke="rgb(0,0,0)" stroke-width="1" opacity="0" d="M 333.5 0 L 512 0 L 512 512 L 446 511.5 L 448 508.5 L 448 299 L 506 276 L 507 269.5 L 461 158.5 Q 456.1 147.4 447.5 140 L 432.5 131 L 419.5 128 L 368.5 128 L 341 107.5 L 338 101.5 L 338 88.5 L 335 77.5 L 324.5 64 L 311 55.5 Q 306 51.5 307 41.5 Q 309.3 34.8 314.5 31 L 324.5 28 Q 333 29.5 337 35.5 L 340 43.5 L 340 49.5 L 344.5 56 Q 348.7 60.3 358.5 59 L 366 53.5 Q 369 49.5 369 42.5 Q 366.3 40.8 368 34.5 L 362 20.5 L 350.5 8 L 339.5 2 L 333.5 1 L 333.5 0 Z " /><path fill="rgb(217,134,130)" stroke="rgb(217,134,130)" stroke-width="1" opacity="0.984313725490196" d="M 179.5 0 L 196.5 0 L 206.5 3 Q 217.2 7.8 224 16.5 L 231 28.5 L 233 35.5 L 233 49.5 L 228.5 56 Q 224.7 60.2 215.5 59 L 208 54.5 L 205 49.5 L 204 39.5 L 197.5 31 Q 193.5 28 186.5 28 Q 178.2 30.2 174 36.5 Q 171 40.5 172 48.5 L 178.5 58 Q 188.2 61.3 194 68.5 Q 204.6 79.4 203 102.5 L 209.5 111 Q 221.9 117.1 230.5 127 L 233 127.5 L 231.5 129 L 219.5 130 L 209.5 134 Q 198.7 139.7 192 149.5 L 173 191.5 L 141 271 L 124.5 264 L 118 258.5 Q 107.8 249.7 109 229.5 L 136 161.5 L 128 143.5 L 127 128 L 142.5 128 L 147.5 126 L 172 105.5 Q 175.3 100.8 174 91.5 L 170.5 86 Q 158.6 81.9 152 72.5 L 145 59.5 L 143 50.5 L 143 39.5 Q 146.5 18 161.5 8 Q 168.5 2 179.5 0 Z " /><path fill="rgb(217,134,130)" stroke="rgb(217,134,130)" stroke-width="1" opacity="0.984313725490196" d="M 314.5 0 Q 330 -2 339.5 2 Q 351.8 6.8 359 16.5 L 366 28.5 L 369 45.5 Q 367.8 53.3 362.5 57 Q 358.5 60 350.5 59 Q 343.6 57.4 341 51.5 L 339 39.5 L 332.5 31 Q 328.5 28 321.5 28 Q 313.2 30.2 309 36.5 Q 306.1 40.1 307 47.5 Q 308.6 54.4 313.5 58 Q 323 61.5 329 68.5 L 336 80.5 L 338 88.5 L 338 101.5 L 343.5 110 L 349.5 113 Q 357.4 122.1 368.5 128 L 385 128 L 383 145.5 L 377.5 157 L 370.5 157 L 356.5 154 Q 342.9 147.6 333.5 137 L 313.5 137 Q 304.8 146.8 292.5 153 L 283.5 156 L 269.5 157 Q 261.6 146.2 262 128 L 278.5 128 L 297.5 113 L 304 110 L 309 100.5 L 309 91.5 L 306.5 87 Q 294.3 82.2 287 72.5 L 279 55.5 L 278 40.5 L 282 25.5 L 291 12 L 299.5 6 L 314.5 0 Z " /><path fill="rgb(217,134,130)" stroke="rgb(217,134,130)" stroke-width="1" opacity="0.984313725490196" d="M 56.5 188 Q 62.1 188.5 64 192.5 L 65 195.5 L 65 299 L 60.5 297 Q 59 299.5 57.5 296 L 50.5 293 L 49 293.5 L 49 194.5 L 53.5 189 L 56.5 188 Z " /><path fill="rgb(217,134,130)" stroke="rgb(217,134,130)" stroke-width="1" opacity="0.984313725490196" d="M 151.5 280 L 199 299 L 199 512 L 68.5 512 L 65 509.5 L 64 507.5 L 64 505.5 L 64 492.5 L 64.5 492 L 116.5 492 L 117.5 491 L 129.5 490 L 138.5 486 L 151 474.5 L 156 465.5 L 159 452.5 L 159 299.5 L 156 287.5 L 151.5 280 Z " /><path fill="rgb(243,211,158)" stroke="rgb(243,211,158)" stroke-width="1" opacity="0.8156862745098039" d="M 234.5 128 L 261.5 128 L 262 129.5 L 260.5 129 L 234.5 129 L 234.5 128 Z " /><path fill="rgb(243,211,158)" stroke="rgb(243,211,158)" stroke-width="1" opacity="0.8156862745098039" d="M 385.5 128 L 420 128.5 L 385.5 129 L 385.5 128 Z " /><path fill="rgb(243,211,158)" stroke="rgb(243,211,158)" stroke-width="1" opacity="0.8156862745098039" d="M 422.5 129 L 426 129.5 L 422.5 130 L 422.5 129 Z " /><path fill="rgb(243,211,158)" stroke="rgb(243,211,158)" stroke-width="1" opacity="0.8156862745098039" d="M 427.5 130 Q 443.2 133.8 452 144.5 Q 458 150.5 461 159.5 L 460 159.5 Q 456.4 148.6 448.5 142 Q 440.4 134.1 427.5 131 L 427.5 130 Z " /><path fill="rgb(243,211,158)" stroke="rgb(243,211,158)" stroke-width="1" opacity="0.8156862745098039" d="M 461.5 161 L 466 171.5 L 465 171.5 L 461.5 161 Z " /><path fill="rgb(243,211,158)" stroke="rgb(243,211,158)" stroke-width="1" opacity="0.8156862745098039" d="M 466.5 173 L 468 176.5 L 467 176.5 L 466.5 173 Z " /><path fill="rgb(243,211,158)" stroke="rgb(243,211,158)" stroke-width="1" opacity="0.8156862745098039" d="M 468.5 178 L 471 183.5 L 470 183.5 L 468.5 178 Z " /><path fill="rgb(243,211,158)" stroke="rgb(243,211,158)" stroke-width="1" opacity="0.8156862745098039" d="M 471.5 185 L 473 188.5 L 472 188.5 L 471.5 185 Z " /><path fill="rgb(243,211,158)" stroke="rgb(243,211,158)" stroke-width="1" opacity="0.8156862745098039" d="M 473.5 190 L 476 195.5 L 475 195.5 L 473.5 190 Z " /><path fill="rgb(243,211,158)" stroke="rgb(243,211,158)" stroke-width="1" opacity="0.8156862745098039" d="M 476.5 197 L 478 200.5 L 477 200.5 L 476.5 197 Z " /><path fill="rgb(243,211,158)" stroke="rgb(243,211,158)" stroke-width="1" opacity="0.8156862745098039" d="M 478.5 202 L 480 205.5 L 479 205.5 L 478.5 202 Z " /><path fill="rgb(243,211,158)" stroke="rgb(243,211,158)" stroke-width="1" opacity="0.8156862745098039" d="M 480.5 207 L 483 212.5 L 482 212.5 L 480.5 207 Z " /><path fill="rgb(243,211,158)" stroke="rgb(243,211,158)" stroke-width="1" opacity="0.8156862745098039" d="M 483.5 214 L 485 217.5 L 484 217.5 L 483.5 214 Z " /><path fill="rgb(243,211,158)" stroke="rgb(243,211,158)" stroke-width="1" opacity="0.8156862745098039" d="M 485.5 219 L 488 224.5 L 487 224.5 L 485.5 219 Z " /><path fill="rgb(243,211,158)" stroke="rgb(243,211,158)" stroke-width="1" opacity="0.8156862745098039" d="M 488.5 226 L 490 229.5 L 489 229.5 L 488.5 226 Z " /><path fill="rgb(243,211,158)" stroke="rgb(243,211,158)" stroke-width="1" opacity="0.8156862745098039" d="M 490.5 231 L 493 236.5 L 492 236.5 L 490.5 231 Z " /><path fill="rgb(243,211,158)" stroke="rgb(243,211,158)" stroke-width="1" opacity="0.8156862745098039" d="M 493.5 238 L 495 241.5 L 494 241.5 L 493.5 238 Z " /><path fill="rgb(243,211,158)" stroke="rgb(243,211,158)" stroke-width="1" opacity="0.8156862745098039" d="M 495.5 243 L 497 246.5 L 496 246.5 L 495.5 243 Z " /><path fill="rgb(243,211,158)" stroke="rgb(243,211,158)" stroke-width="1" opacity="0.8156862745098039" d="M 497.5 248 L 500 253.5 L 499 253.5 L 497.5 248 Z " /><path fill="rgb(243,211,158)" stroke="rgb(243,211,158)" stroke-width="1" opacity="0.8156862745098039" d="M 500.5 255 L 502 258.5 L 501 258.5 L 500.5 255 Z " /><path fill="rgb(243,211,158)" stroke="rgb(243,211,158)" stroke-width="1" opacity="0.8156862745098039" d="M 502.5 260 L 505 265.5 L 504 265.5 L 502.5 260 Z " /><path fill="rgb(243,211,158)" stroke="rgb(243,211,158)" stroke-width="1" opacity="0.8156862745098039" d="M 505.5 267 L 507 272.5 L 506 272.5 L 505.5 267 Z " /><path fill="rgb(243,211,158)" stroke="rgb(243,211,158)" stroke-width="1" opacity="0.8156862745098039" d="M 140.5 271 L 142.5 275 L 146 276.5 L 144.5 277 L 140 273.5 L 140.5 271 Z " /><path fill="rgb(243,211,158)" stroke="rgb(243,211,158)" stroke-width="1" opacity="0.8156862745098039" d="M 505.5 274 L 506 276 L 500.5 278 L 500.5 277 L 505.5 274 Z " /><path fill="rgb(243,211,158)" stroke="rgb(243,211,158)" stroke-width="1" opacity="0.8156862745098039" d="M 497.5 278 L 499 278.5 L 495.5 280 L 495.5 279 L 497.5 278 Z " /><path fill="rgb(243,211,158)" stroke="rgb(243,211,158)" stroke-width="1" opacity="0.8156862745098039" d="M 492.5 280 L 494 280.5 L 490.5 282 L 490.5 281 L 492.5 280 Z " /><path fill="rgb(243,211,158)" stroke="rgb(243,211,158)" stroke-width="1" opacity="0.8156862745098039" d="M 485.5 283 L 487 283.5 L 483.5 285 L 483.5 284 L 485.5 283 Z " /><path fill="rgb(243,211,158)" stroke="rgb(243,211,158)" stroke-width="1" opacity="0.8156862745098039" d="M 480.5 285 L 482 285.5 L 478.5 287 L 478.5 286 L 480.5 285 Z " /><path fill="rgb(243,211,158)" stroke="rgb(243,211,158)" stroke-width="1" opacity="0.8156862745098039" d="M 473.5 288 L 475 288.5 L 471.5 290 L 471.5 289 L 473.5 288 Z " /><path fill="rgb(243,211,158)" stroke="rgb(243,211,158)" stroke-width="1" opacity="0.8156862745098039" d="M 468.5 290 L 470 290.5 L 466.5 292 L 466.5 291 L 468.5 290 Z " /><path fill="rgb(243,211,158)" stroke="rgb(243,211,158)" stroke-width="1" opacity="0.8156862745098039" d="M 463.5 292 L 465 292.5 L 462.5 294 L 463.5 292 Z " /><path fill="rgb(243,211,158)" stroke="rgb(243,211,158)" stroke-width="1" opacity="0.8156862745098039" d="M 447.5 299 L 448 508.5 L 445.5 512 L 444 511.5 L 447 508.5 L 447.5 299 Z " /><path fill="rgb(244,216,165)" stroke="rgb(244,216,165)" stroke-width="1" opacity="0.996078431372549" d="M 202.5 139 L 200.5 142 L 202.5 139 Z " /><path fill="rgb(244,216,165)" stroke="rgb(244,216,165)" stroke-width="1" opacity="1" d="M 226.5 129 L 260.5 129 L 261 131.5 L 262 132.5 L 263 144.5 L 269 158.5 Q 275.1 169.4 284.5 177 Q 294.4 185.1 308.5 189 L 313.5 190 L 333.5 190 Q 357.1 185.1 370 169.5 L 381 152.5 L 385 138.5 L 385 130.5 L 386.5 129 L 413.5 129 L 415 130.5 L 419 137.5 L 448 208.5 L 448 260.5 L 429.5 269 L 421 275 L 422 272.5 L 422 234.5 L 419.5 232 L 359.5 232 L 357 233 L 356 236.5 L 356 267.5 L 358 278.5 Q 361.5 287.5 368.5 293 L 382.5 300 L 395.5 300 L 408.5 294 L 409 295.5 L 407 299.5 Q 408.8 305.7 406 307.5 L 406 458.5 Q 402.1 474.6 390.5 483 Q 383.7 488.7 373.5 491 L 200 491 L 200 194.5 L 195.5 189 L 190.5 188 L 185 192.5 L 184 195.5 L 184 292 Q 161.3 284.5 141 273.5 L 147 255.5 L 187 159.5 Q 191.3 148.8 199.5 142 Q 209.3 131.8 226.5 129 Z " /><path fill="rgb(243,217,103)" stroke="rgb(243,217,103)" stroke-width="1" opacity="0.9921568627450981" d="M 452.5 189 Q 460.5 187.5 462 192.5 L 463 194.5 L 463 293 L 448 298 L 448 262.5 L 449.5 261 L 459 255.5 Q 463.5 251 462 240.5 L 448 208.5 L 448 193.5 L 450 190 L 452.5 189 Z " /><path fill="rgb(243,217,103)" stroke="rgb(243,217,103)" stroke-width="1" opacity="0.9921568627450981" d="M 359.5 232 L 419.5 232 L 421 233.5 L 422 235.5 L 422 270.5 L 418 283.5 L 408.5 294 Q 400.5 301 384.5 300 Q 371.3 297.2 364 288.5 Q 358.7 282.8 357 273.5 L 357 234.5 L 359.5 232 Z " /><path fill="rgb(241,203,134)" stroke="rgb(241,203,134)" stroke-width="1" opacity="0.9921568627450981" d="M 414.5 129 L 421.5 129 L 432.5 132 Q 443.5 136.5 451 144.5 L 461 160.5 L 505 266.5 L 506 273.5 L 499.5 278 L 463 292 L 463 194.5 L 458.5 189 Q 452.4 188.3 450 190 L 448 193.5 L 447.5 208 L 419 137.5 L 414.5 129 Z " /><path fill="rgb(241,203,134)" stroke="rgb(241,203,134)" stroke-width="1" opacity="0.9921568627450981" d="M 313.5 137 L 333.5 137 Q 342.9 147.6 356.5 154 L 363.5 156 L 377.5 157 L 379 156.5 Q 372.9 167.9 363.5 176 Q 354.4 183.9 341.5 188 L 333.5 190 L 313.5 190 Q 288.3 184.7 275 167.5 L 268 156.5 L 269.5 157 L 283.5 156 L 292.5 153 Q 304.8 146.8 313.5 137 Z " /><path fill="rgb(241,203,134)" stroke="rgb(241,203,134)" stroke-width="1" opacity="0.9921568627450981" d="M 190.5 188 Q 196.9 188.1 199 192.5 L 200 194.5 L 200 299 L 184 293 L 184 195.5 L 188.5 189 L 190.5 188 Z " /><path fill="rgb(241,203,134)" stroke="rgb(241,203,134)" stroke-width="1" opacity="0.9921568627450981" d="M 448.5 209 L 462 240.5 L 462 249.5 L 457.5 257 L 448 262.5 L 448 297.5 L 449.5 298 L 449.5 299 L 447 299.5 L 447 508.5 L 443.5 512 L 200 512 L 200 491.5 L 200.5 491 L 373.5 491 Q 389.6 487.1 398 475.5 Q 403.7 468.7 406 458.5 L 406 307.5 L 409 293.5 Q 418.5 287.1 421 275 L 429.5 269 L 448 260.5 L 448.5 209 Z " /><path fill="rgb(241,203,134)" stroke="rgb(241,203,134)" stroke-width="1" opacity="0.9921568627450981" d="M 356.5 236 L 357 267.5 L 356 267.5 L 356.5 236 Z " /><path fill="rgb(227,152,156)" stroke="rgb(227,152,156)" stroke-width="1" opacity="0.9882352941176471" d="M 156.5 12 L 155.5 14 L 156.5 12 Z " /><path fill="rgb(227,152,156)" stroke="rgb(227,152,156)" stroke-width="1" opacity="0.9882352941176471" d="M 343.5 54 L 344.5 56 L 343.5 54 Z " /><path fill="rgb(227,152,156)" stroke="rgb(227,152,156)" stroke-width="1" opacity="0.9882352941176471" d="M 93.5 128 L 126.5 128 L 127 128.5 L 127 138.5 L 131 152.5 L 136 163.5 L 111 222.5 L 109 229.5 L 109 239.5 Q 111.4 253.6 120.5 261 L 140 271.5 Q 139.5 275.5 142.5 276 L 153 279.5 L 151 280.5 L 156 287.5 L 159 299.5 L 159 452.5 Q 156.5 454 158 459.5 L 153 471.5 L 141.5 484 L 129.5 490 L 117.5 491 L 116.5 492 L 64 492 L 65 195.5 L 60.5 189 L 56.5 188 L 50 192.5 L 49 194.5 L 49 293 L 5 274.5 L 5 270.5 L 51 159.5 Q 56.5 146 67.5 138 L 80.5 131 L 93.5 128 Z " /><path fill="rgb(227,152,156)" stroke="rgb(227,152,156)" stroke-width="1" opacity="0.9882352941176471" d="M 384.5 135 L 385 137.5 L 384 137.5 L 384.5 135 Z " /><path fill="rgb(227,152,156)" stroke="rgb(227,152,156)" stroke-width="1" opacity="0.9882352941176471" d="M 199.5 299 L 200 511.5 L 199 511.5 L 199.5 299 Z " /></svg>