<svg width="512" height="512" version="1.1" xmlns="http://www.w3.org/2000/svg" desc="Created with imagetracer.js version 1.2.6" ><path fill="rgb(235,117,100)" stroke="rgb(235,117,100)" stroke-width="1" opacity="0.8784313725490196" d="M 22.5 211 L 21.5 213 L 22.5 211 Z " /><path fill="rgb(235,117,100)" stroke="rgb(235,117,100)" stroke-width="1" opacity="0.8784313725490196" d="M 489.5 211 L 490.5 213 L 489.5 211 Z " /><path fill="rgb(235,117,100)" stroke="rgb(235,117,100)" stroke-width="1" opacity="0.8784313725490196" d="M 18.5 214 L 17.5 216 L 18.5 214 Z " /><path fill="rgb(235,117,100)" stroke="rgb(235,117,100)" stroke-width="1" opacity="0.8784313725490196" d="M 493.5 214 L 494.5 216 L 493.5 214 Z " /><path fill="rgb(235,117,100)" stroke="rgb(235,117,100)" stroke-width="1" opacity="0.8784313725490196" d="M 499.5 220 L 500.5 222 L 499.5 220 Z " /><path fill="rgb(235,117,100)" stroke="rgb(235,117,100)" stroke-width="1" opacity="0.8784313725490196" d="M 2.5 246 L 3 248.5 L 2 248.5 L 2.5 246 Z " /><path fill="rgb(235,117,100)" stroke="rgb(235,117,100)" stroke-width="1" opacity="0.8784313725490196" d="M 509.5 246 L 510 250.5 L 509 250.5 L 509.5 246 Z " /><path fill="rgb(235,117,100)" stroke="rgb(235,117,100)" stroke-width="1" opacity="0.8784313725490196" d="M 2.5 253 L 3 256.5 L 2 256.5 L 2.5 253 Z " /><path fill="rgb(235,117,100)" stroke="rgb(235,117,100)" stroke-width="1" opacity="0.8784313725490196" d="M 509.5 253 L 510 256.5 L 509 256.5 L 509.5 253 Z " /><path fill="rgb(241,120,107)" stroke="rgb(241,120,107)" stroke-width="1" opacity="0.996078431372549" d="M 16.5 216 L 13.5 220 L 16.5 216 Z " /><path fill="rgb(241,120,107)" stroke="rgb(241,120,107)" stroke-width="1" opacity="0.996078431372549" d="M 495.5 216 L 498.5 220 L 495.5 216 Z " /><path fill="rgb(241,120,107)" stroke="rgb(241,120,107)" stroke-width="1" opacity="0.996078431372549" d="M 2.5 249 L 3 252.5 L 2 252.5 L 2.5 249 Z " /><path fill="rgb(0,0,0)" stroke="rgb(0,0,0)" stroke-width="1" opacity="0" d="M 0 0 L 218 0.5 L 191.5 2 L 190.5 3 L 182.5 3 L 181.5 4 L 152.5 7 L 90.5 20 L 63.5 28 L 55.5 32 L 38 47.5 L 30 63.5 L 28 74.5 L 28 83.5 L 51 195 Q 27.1 203.3 11 220.5 Q 4.4 228.4 2 240.5 L 2 262.5 L 4 268.5 Q 2.3 279.3 5 285.5 Q 8.8 295.2 16.5 301 L 30.5 307 L 45.5 307 L 52.5 304 L 53 305.5 L 41 363.5 L 41 508 L 78.5 508 L 80 506.5 L 94.5 482 L 417.5 482 L 419 483.5 L 432 508 L 471 508 L 471 482.5 L 472 481.5 L 472 367.5 L 459 304.5 L 460.5 305 Q 468.1 308.9 481.5 307 Q 495.9 303.9 503 293.5 Q 508.8 286.3 509 273.5 L 508 268.5 L 510 262.5 L 510 240.5 Q 506.5 223 494.5 214 Q 478.4 200.6 457 192.5 L 465 158.5 L 472 120.5 L 474 115.5 L 477 96.5 L 479 91.5 L 480 72.5 Q 476.4 50.6 462.5 39 L 444.5 28 L 401.5 16 L 367.5 9 L 335.5 5 L 334.5 4 L 290 0.5 L 512 0 L 512 512 L 0 512 L 0 0 Z " /><path fill="rgb(241,120,107)" stroke="rgb(241,120,107)" stroke-width="1" opacity="1" d="M 247.5 10 L 291.5 11 L 292.5 12 L 316.5 13 L 317.5 14 L 326.5 14 L 327.5 15 L 349.5 17 L 383.5 23 L 417.5 31 L 446.5 40 Q 460.4 46.1 469 57.5 Q 477.7 67.3 479 84.5 L 456 193 L 430.5 187 L 409.5 187 Q 379.8 192.3 365 212.5 Q 359.7 218.2 358 227.5 L 354.5 273 Q 346.5 268 335.5 266 L 176.5 266 Q 165.5 268 157.5 273 L 155 236.5 L 154 235.5 L 153 223.5 Q 146.8 208.7 134.5 200 Q 124 191.5 108.5 188 Q 103.8 189.3 102.5 187 L 81.5 187 L 62.5 191 L 52.5 195 L 29 81.5 Q 33.1 59.1 48.5 48 Q 57.3 40.8 69.5 37 L 94.5 30 L 98.5 30 L 102.5 28 L 140.5 20 L 172.5 16 L 173.5 15 L 180.5 15 L 181.5 14 L 201.5 13 L 202.5 12 L 246.5 11 L 247.5 10 Z " /><path fill="rgb(241,120,107)" stroke="rgb(241,120,107)" stroke-width="1" opacity="1" d="M 47.5 203 L 62.5 203 L 81.5 208 Q 98.6 215.4 109 229.5 Q 117.5 240.5 121 256.5 L 122 269.5 L 123 270.5 L 123 293 Q 102.7 301.5 89 317.5 L 83 330.5 L 84 332.5 L 82 333.5 L 82 294.5 L 79 280.5 Q 73.5 261 59.5 250 Q 53.7 244.9 44.5 243 L 30.5 243 Q 18.1 246.1 11 254.5 L 4.5 267 L 3 261.5 L 3 241.5 Q 6.8 223.3 19.5 214 L 31.5 207 L 47.5 203 Z " /><path fill="rgb(241,120,107)" stroke="rgb(241,120,107)" stroke-width="1" opacity="1" d="M 448.5 203 Q 486.3 201.3 501 222.5 Q 511.9 235.1 509 261.5 L 507.5 267 Q 504.7 256.8 497.5 251 L 485.5 244 Q 478.4 241.6 467.5 243 L 458.5 246 L 444 258.5 Q 434.5 270.5 431 288.5 Q 432.3 293.3 430 294.5 L 429.5 334 L 428 331.5 L 429 329.5 L 427 329.5 L 428 326.5 Q 422.8 314.3 412.5 307 L 389 293 L 389 269.5 L 392 252.5 L 399 235.5 L 409 222 L 422.5 212 L 430.5 208 L 448.5 203 Z " /><path fill="rgb(241,120,107)" stroke="rgb(241,120,107)" stroke-width="1" opacity="1" d="M 215.5 304 L 229 304.5 L 215.5 305 L 215.5 304 Z " /><path fill="rgb(241,120,107)" stroke="rgb(241,120,107)" stroke-width="1" opacity="1" d="M 283.5 304 L 297 304.5 L 283.5 305 L 283.5 304 Z " /><path fill="rgb(241,120,107)" stroke="rgb(241,120,107)" stroke-width="1" opacity="1" d="M 196.5 305 L 204 305.5 L 196.5 306 L 196.5 305 Z " /><path fill="rgb(241,120,107)" stroke="rgb(241,120,107)" stroke-width="1" opacity="1" d="M 308.5 305 L 316 305.5 L 308.5 306 L 308.5 305 Z " /><path fill="rgb(241,120,107)" stroke="rgb(241,120,107)" stroke-width="1" opacity="1" d="M 182.5 306 L 189 306.5 L 182.5 307 L 182.5 306 Z " /><path fill="rgb(241,120,107)" stroke="rgb(241,120,107)" stroke-width="1" opacity="1" d="M 324.5 306 L 331 306.5 L 324.5 307 L 324.5 306 Z " /><path fill="rgb(241,120,107)" stroke="rgb(241,120,107)" stroke-width="1" opacity="1" d="M 170.5 307 L 175 307.5 L 170.5 308 L 170.5 307 Z " /><path fill="rgb(241,120,107)" stroke="rgb(241,120,107)" stroke-width="1" opacity="1" d="M 337.5 307 L 342 307.5 L 337.5 308 L 337.5 307 Z " /><path fill="rgb(241,120,107)" stroke="rgb(241,120,107)" stroke-width="1" opacity="1" d="M 159.5 308 L 164 308.5 L 159.5 309 L 159.5 308 Z " /><path fill="rgb(241,120,107)" stroke="rgb(241,120,107)" stroke-width="1" opacity="1" d="M 348.5 308 L 353 308.5 L 348.5 309 L 348.5 308 Z " /><path fill="rgb(241,120,107)" stroke="rgb(241,120,107)" stroke-width="1" opacity="1" d="M 150.5 309 L 154 309.5 L 150.5 310 L 150.5 309 Z " /><path fill="rgb(241,120,107)" stroke="rgb(241,120,107)" stroke-width="1" opacity="1" d="M 358.5 309 L 362 309.5 L 358.5 310 L 358.5 309 Z " /><path fill="rgb(241,120,107)" stroke="rgb(241,120,107)" stroke-width="1" opacity="1" d="M 141.5 310 L 145 310.5 L 141.5 311 L 141.5 310 Z " /><path fill="rgb(241,120,107)" stroke="rgb(241,120,107)" stroke-width="1" opacity="1" d="M 367.5 310 L 371 310.5 L 367.5 311 L 367.5 310 Z " /><path fill="rgb(241,120,107)" stroke="rgb(241,120,107)" stroke-width="1" opacity="1" d="M 133.5 311 L 137 311.5 L 133.5 312 L 133.5 311 Z " /><path fill="rgb(241,120,107)" stroke="rgb(241,120,107)" stroke-width="1" opacity="1" d="M 376.5 311 L 379 311.5 L 376.5 312 L 376.5 311 Z " /><path fill="rgb(241,120,107)" stroke="rgb(241,120,107)" stroke-width="1" opacity="1" d="M 126.5 312 L 129 312.5 L 126.5 313 L 126.5 312 Z " /><path fill="rgb(241,120,107)" stroke="rgb(241,120,107)" stroke-width="1" opacity="1" d="M 383.5 312 L 387 312.5 L 383.5 313 L 383.5 312 Z " /><path fill="rgb(241,120,107)" stroke="rgb(241,120,107)" stroke-width="1" opacity="1" d="M 118.5 313 L 121 313.5 L 118.5 314 L 118.5 313 Z " /><path fill="rgb(241,120,107)" stroke="rgb(241,120,107)" stroke-width="1" opacity="1" d="M 391.5 313 L 394 313.5 L 391.5 314 L 391.5 313 Z " /><path fill="rgb(241,120,107)" stroke="rgb(241,120,107)" stroke-width="1" opacity="1" d="M 112.5 314 L 115 314.5 L 112.5 315 L 112.5 314 Z " /><path fill="rgb(241,120,107)" stroke="rgb(241,120,107)" stroke-width="1" opacity="1" d="M 214.5 314 L 297.5 314 L 298.5 315 L 316.5 315 L 317.5 316 L 353.5 318 L 354.5 319 L 371.5 320 L 372.5 321 L 379.5 321 L 380.5 322 L 412.5 326 L 424 333.5 L 430 344.5 L 430 387.5 Q 428.6 395.1 423.5 399 L 416.5 403 L 95.5 403 L 86 396.5 L 82 387.5 L 82 344.5 Q 84.5 336 90.5 331 L 99.5 326 L 131.5 322 L 132.5 321 L 149.5 320 L 158.5 318 L 168.5 318 L 169.5 317 L 180.5 317 L 181.5 316 L 213.5 315 L 214.5 314 Z " /><path fill="rgb(241,120,107)" stroke="rgb(241,120,107)" stroke-width="1" opacity="1" d="M 397.5 314 L 401 314.5 L 397.5 315 L 397.5 314 Z " /><path fill="rgb(241,120,107)" stroke="rgb(241,120,107)" stroke-width="1" opacity="1" d="M 105.5 315 L 108 315.5 L 105.5 316 L 105.5 315 Z " /><path fill="rgb(241,120,107)" stroke="rgb(241,120,107)" stroke-width="1" opacity="1" d="M 404.5 315 L 407 315.5 L 404.5 316 L 404.5 315 Z " /><path fill="rgb(241,120,107)" stroke="rgb(241,120,107)" stroke-width="1" opacity="1" d="M 90.5 321 L 88.5 324 L 90.5 321 Z " /><path fill="rgb(241,120,107)" stroke="rgb(241,120,107)" stroke-width="1" opacity="1" d="M 421.5 321 L 424.5 325 L 421.5 321 Z " /><path fill="rgb(213,88,72)" stroke="rgb(213,88,72)" stroke-width="1" opacity="0.45098039215686275" d="M 51.5 194 L 50.5 196 L 49 195.5 L 51.5 194 Z " /><path fill="rgb(213,88,72)" stroke="rgb(213,88,72)" stroke-width="1" opacity="0.45098039215686275" d="M 459.5 194 L 463 195.5 L 461.5 196 L 459.5 194 Z " /><path fill="rgb(213,88,72)" stroke="rgb(213,88,72)" stroke-width="1" opacity="0.45098039215686275" d="M 46.5 196 L 48 196.5 Q 31.7 203.2 19.5 214 L 22.5 210 L 46.5 196 Z " /><path fill="rgb(213,88,72)" stroke="rgb(213,88,72)" stroke-width="1" opacity="0.45098039215686275" d="M 464.5 196 L 477 202.5 L 475.5 202 L 464.5 197 L 464.5 196 Z " /><path fill="rgb(213,88,72)" stroke="rgb(213,88,72)" stroke-width="1" opacity="0.45098039215686275" d="M 478.5 203 L 493 213.5 L 489.5 211 L 479.5 205 L 478.5 203 Z " /><path fill="rgb(213,88,72)" stroke="rgb(213,88,72)" stroke-width="1" opacity="0.45098039215686275" d="M 17.5 214 L 11.5 221 L 17.5 214 Z " /><path fill="rgb(213,88,72)" stroke="rgb(213,88,72)" stroke-width="1" opacity="0.45098039215686275" d="M 495.5 215 L 499.5 220 L 495.5 215 Z " /><path fill="rgb(249,137,128)" stroke="rgb(249,137,128)" stroke-width="1" opacity="0.5882352941176471" d="M 218.5 0 L 230 0.5 L 218.5 1 L 218.5 0 Z " /><path fill="rgb(249,137,128)" stroke="rgb(249,137,128)" stroke-width="1" opacity="0.5882352941176471" d="M 278.5 0 L 290 0.5 L 278.5 1 L 278.5 0 Z " /><path fill="rgb(249,137,128)" stroke="rgb(249,137,128)" stroke-width="1" opacity="0.5882352941176471" d="M 203.5 1 L 211 1.5 L 203.5 2 L 203.5 1 Z " /><path fill="rgb(249,137,128)" stroke="rgb(249,137,128)" stroke-width="1" opacity="0.5882352941176471" d="M 297.5 1 L 305 1.5 L 297.5 2 L 297.5 1 Z " /><path fill="rgb(249,137,128)" stroke="rgb(249,137,128)" stroke-width="1" opacity="0.5882352941176471" d="M 191.5 2 L 198 2.5 L 191.5 3 L 191.5 2 Z " /><path fill="rgb(249,137,128)" stroke="rgb(249,137,128)" stroke-width="1" opacity="0.5882352941176471" d="M 310.5 2 L 317 2.5 L 310.5 3 L 310.5 2 Z " /><path fill="rgb(249,137,128)" stroke="rgb(249,137,128)" stroke-width="1" opacity="0.5882352941176471" d="M 182.5 3 L 187 3.5 L 182.5 4 L 182.5 3 Z " /><path fill="rgb(249,137,128)" stroke="rgb(249,137,128)" stroke-width="1" opacity="0.5882352941176471" d="M 321.5 3 L 326 3.5 L 321.5 4 L 321.5 3 Z " /><path fill="rgb(249,137,128)" stroke="rgb(249,137,128)" stroke-width="1" opacity="0.5882352941176471" d="M 174.5 4 L 179 4.5 L 174.5 5 L 174.5 4 Z " /><path fill="rgb(249,137,128)" stroke="rgb(249,137,128)" stroke-width="1" opacity="0.5882352941176471" d="M 330.5 4 L 335 4.5 L 330.5 5 L 330.5 4 Z " /><path fill="rgb(249,137,128)" stroke="rgb(249,137,128)" stroke-width="1" opacity="0.5882352941176471" d="M 166.5 5 L 170 5.5 L 166.5 6 L 166.5 5 Z " /><path fill="rgb(249,137,128)" stroke="rgb(249,137,128)" stroke-width="1" opacity="0.5882352941176471" d="M 338.5 5 L 342 5.5 L 338.5 6 L 338.5 5 Z " /><path fill="rgb(249,137,128)" stroke="rgb(249,137,128)" stroke-width="1" opacity="0.5882352941176471" d="M 159.5 6 L 163 6.5 L 159.5 7 L 159.5 6 Z " /><path fill="rgb(249,137,128)" stroke="rgb(249,137,128)" stroke-width="1" opacity="0.5882352941176471" d="M 345.5 6 L 349 6.5 L 345.5 7 L 345.5 6 Z " /><path fill="rgb(249,137,128)" stroke="rgb(249,137,128)" stroke-width="1" opacity="0.5882352941176471" d="M 152.5 7 L 156 7.5 L 152.5 8 L 152.5 7 Z " /><path fill="rgb(249,137,128)" stroke="rgb(249,137,128)" stroke-width="1" opacity="0.5882352941176471" d="M 352.5 7 L 356 7.5 L 352.5 8 L 352.5 7 Z " /><path fill="rgb(249,137,128)" stroke="rgb(249,137,128)" stroke-width="1" opacity="0.5882352941176471" d="M 146.5 8 L 150 8.5 L 146.5 9 L 146.5 8 Z " /><path fill="rgb(249,137,128)" stroke="rgb(249,137,128)" stroke-width="1" opacity="0.5882352941176471" d="M 358.5 8 L 362 8.5 L 358.5 9 L 358.5 8 Z " /><path fill="rgb(249,137,128)" stroke="rgb(249,137,128)" stroke-width="1" opacity="0.5882352941176471" d="M 141.5 9 L 144 9.5 L 141.5 10 L 141.5 9 Z " /><path fill="rgb(249,137,128)" stroke="rgb(249,137,128)" stroke-width="1" opacity="0.5882352941176471" d="M 364.5 9 L 368 9.5 L 364.5 10 L 364.5 9 Z " /><path fill="rgb(249,137,128)" stroke="rgb(249,137,128)" stroke-width="1" opacity="0.5882352941176471" d="M 135.5 10 L 138 10.5 L 135.5 11 L 135.5 10 Z " /><path fill="rgb(249,137,128)" stroke="rgb(249,137,128)" stroke-width="1" opacity="0.5882352941176471" d="M 370.5 10 L 373 10.5 L 370.5 11 L 370.5 10 Z " /><path fill="rgb(249,137,128)" stroke="rgb(249,137,128)" stroke-width="1" opacity="0.5882352941176471" d="M 130.5 11 L 133 11.5 L 130.5 12 L 130.5 11 Z " /><path fill="rgb(249,137,128)" stroke="rgb(249,137,128)" stroke-width="1" opacity="0.5882352941176471" d="M 375.5 11 L 378 11.5 L 375.5 12 L 375.5 11 Z " /><path fill="rgb(249,137,128)" stroke="rgb(249,137,128)" stroke-width="1" opacity="0.5882352941176471" d="M 125.5 12 L 128 12.5 L 125.5 13 L 125.5 12 Z " /><path fill="rgb(249,137,128)" stroke="rgb(249,137,128)" stroke-width="1" opacity="0.5882352941176471" d="M 380.5 12 L 383 12.5 L 380.5 13 L 380.5 12 Z " /><path fill="rgb(249,137,128)" stroke="rgb(249,137,128)" stroke-width="1" opacity="0.5882352941176471" d="M 120.5 13 L 123 13.5 L 120.5 14 L 120.5 13 Z " /><path fill="rgb(249,137,128)" stroke="rgb(249,137,128)" stroke-width="1" opacity="0.5882352941176471" d="M 385.5 13 L 388 13.5 L 385.5 14 L 385.5 13 Z " /><path fill="rgb(249,137,128)" stroke="rgb(249,137,128)" stroke-width="1" opacity="0.5882352941176471" d="M 115.5 14 L 118 14.5 L 115.5 15 L 115.5 14 Z " /><path fill="rgb(249,137,128)" stroke="rgb(249,137,128)" stroke-width="1" opacity="0.5882352941176471" d="M 390.5 14 L 393 14.5 L 390.5 15 L 390.5 14 Z " /><path fill="rgb(249,137,128)" stroke="rgb(249,137,128)" stroke-width="1" opacity="0.5882352941176471" d="M 111.5 15 L 114 15.5 L 111.5 16 L 111.5 15 Z " /><path fill="rgb(249,137,128)" stroke="rgb(249,137,128)" stroke-width="1" opacity="0.5882352941176471" d="M 107.5 16 L 110 16.5 L 107.5 17 L 107.5 16 Z " /><path fill="rgb(249,137,128)" stroke="rgb(249,137,128)" stroke-width="1" opacity="0.5882352941176471" d="M 399.5 16 L 402 16.5 L 399.5 17 L 399.5 16 Z " /><path fill="rgb(249,137,128)" stroke="rgb(249,137,128)" stroke-width="1" opacity="0.5882352941176471" d="M 102.5 17 L 105 17.5 L 102.5 18 L 102.5 17 Z " /><path fill="rgb(249,137,128)" stroke="rgb(249,137,128)" stroke-width="1" opacity="0.5882352941176471" d="M 403.5 17 L 406 17.5 L 403.5 18 L 403.5 17 Z " /><path fill="rgb(249,137,128)" stroke="rgb(249,137,128)" stroke-width="1" opacity="0.5882352941176471" d="M 98.5 18 L 101 18.5 L 98.5 19 L 98.5 18 Z " /><path fill="rgb(249,137,128)" stroke="rgb(249,137,128)" stroke-width="1" opacity="0.5882352941176471" d="M 407.5 18 L 410 18.5 L 407.5 19 L 407.5 18 Z " /><path fill="rgb(249,137,128)" stroke="rgb(249,137,128)" stroke-width="1" opacity="0.5882352941176471" d="M 94.5 19 L 97 19.5 L 94.5 20 L 94.5 19 Z " /><path fill="rgb(249,137,128)" stroke="rgb(249,137,128)" stroke-width="1" opacity="0.5882352941176471" d="M 411.5 19 L 414 19.5 L 411.5 20 L 411.5 19 Z " /><path fill="rgb(249,137,128)" stroke="rgb(249,137,128)" stroke-width="1" opacity="0.5882352941176471" d="M 90.5 20 L 93 20.5 L 90.5 21 L 90.5 20 Z " /><path fill="rgb(249,137,128)" stroke="rgb(249,137,128)" stroke-width="1" opacity="0.5882352941176471" d="M 415.5 20 L 418 20.5 L 415.5 21 L 415.5 20 Z " /><path fill="rgb(249,137,128)" stroke="rgb(249,137,128)" stroke-width="1" opacity="0.5882352941176471" d="M 83.5 22 L 86 22.5 L 83.5 23 L 83.5 22 Z " /><path fill="rgb(249,137,128)" stroke="rgb(249,137,128)" stroke-width="1" opacity="0.5882352941176471" d="M 426.5 23 L 429 23.5 L 426.5 24 L 426.5 23 Z " /><path fill="rgb(249,137,128)" stroke="rgb(249,137,128)" stroke-width="1" opacity="0.5882352941176471" d="M 76.5 24 L 79 24.5 L 76.5 25 L 76.5 24 Z " /><path fill="rgb(249,137,128)" stroke="rgb(249,137,128)" stroke-width="1" opacity="0.5882352941176471" d="M 69.5 26 L 72 26.5 L 69.5 27 L 69.5 26 Z " /><path fill="rgb(249,137,128)" stroke="rgb(249,137,128)" stroke-width="1" opacity="0.5882352941176471" d="M 443.5 28 L 447 29.5 L 445.5 30 L 443.5 28 Z " /><path fill="rgb(249,137,128)" stroke="rgb(249,137,128)" stroke-width="1" opacity="0.5882352941176471" d="M 61.5 29 L 63 29.5 L 54.5 34 L 55.5 32 L 61.5 29 Z " /><path fill="rgb(249,137,128)" stroke="rgb(249,137,128)" stroke-width="1" opacity="0.5882352941176471" d="M 452.5 32 L 463 39.5 L 461.5 40 L 453.5 34 L 452.5 32 Z " /><path fill="rgb(249,137,128)" stroke="rgb(249,137,128)" stroke-width="1" opacity="0.5882352941176471" d="M 52.5 34 L 50.5 37 L 39 47.5 L 35.5 53 L 36 51.5 L 38 47.5 L 49.5 36 L 52.5 34 Z " /><path fill="rgb(249,137,128)" stroke="rgb(249,137,128)" stroke-width="1" opacity="0.5882352941176471" d="M 464.5 41 L 465.5 43 L 464.5 41 Z " /><path fill="rgb(249,137,128)" stroke="rgb(249,137,128)" stroke-width="1" opacity="0.5882352941176471" d="M 466.5 44 L 469.5 48 L 466.5 44 Z " /><path fill="rgb(249,137,128)" stroke="rgb(249,137,128)" stroke-width="1" opacity="0.5882352941176471" d="M 470.5 49 L 471.5 51 L 470.5 49 Z " /><path fill="rgb(249,137,128)" stroke="rgb(249,137,128)" stroke-width="1" opacity="0.5882352941176471" d="M 472.5 52 L 476 58.5 L 475 58.5 L 472.5 52 Z " /><path fill="rgb(249,137,128)" stroke="rgb(249,137,128)" stroke-width="1" opacity="0.5882352941176471" d="M 32.5 58 L 33 59.5 L 31.5 62 L 31 60.5 L 32.5 58 Z " /><path fill="rgb(249,137,128)" stroke="rgb(249,137,128)" stroke-width="1" opacity="0.5882352941176471" d="M 30.5 63 L 31 65.5 L 30 65.5 L 30.5 63 Z " /><path fill="rgb(249,137,128)" stroke="rgb(249,137,128)" stroke-width="1" opacity="0.5882352941176471" d="M 478.5 66 L 479 68.5 L 478 68.5 L 478.5 66 Z " /><path fill="rgb(249,137,128)" stroke="rgb(249,137,128)" stroke-width="1" opacity="0.5882352941176471" d="M 29.5 67 L 30 69.5 L 29 69.5 L 29.5 67 Z " /><path fill="rgb(249,137,128)" stroke="rgb(249,137,128)" stroke-width="1" opacity="0.5882352941176471" d="M 479.5 72 L 480 84.5 L 479 84.5 L 479.5 72 Z " /><path fill="rgb(249,137,128)" stroke="rgb(249,137,128)" stroke-width="1" opacity="0.5882352941176471" d="M 28.5 74 L 29 83.5 L 28 83.5 L 28.5 74 Z " /><path fill="rgb(249,137,128)" stroke="rgb(249,137,128)" stroke-width="1" opacity="0.5882352941176471" d="M 29.5 86 L 30 89.5 L 29 89.5 L 29.5 86 Z " /><path fill="rgb(249,137,128)" stroke="rgb(249,137,128)" stroke-width="1" opacity="0.5882352941176471" d="M 478.5 88 L 479 90.5 L 478 90.5 L 478.5 88 Z " /><path fill="rgb(249,137,128)" stroke="rgb(249,137,128)" stroke-width="1" opacity="0.5882352941176471" d="M 30.5 92 L 31 94.5 L 30 94.5 L 30.5 92 Z " /><path fill="rgb(249,137,128)" stroke="rgb(249,137,128)" stroke-width="1" opacity="0.5882352941176471" d="M 477.5 93 L 478 95.5 L 477 95.5 L 477.5 93 Z " /><path fill="rgb(249,137,128)" stroke="rgb(249,137,128)" stroke-width="1" opacity="0.5882352941176471" d="M 31.5 97 L 32 99.5 L 31 99.5 L 31.5 97 Z " /><path fill="rgb(249,137,128)" stroke="rgb(249,137,128)" stroke-width="1" opacity="0.5882352941176471" d="M 476.5 98 L 477 100.5 L 476 100.5 L 476.5 98 Z " /><path fill="rgb(249,137,128)" stroke="rgb(249,137,128)" stroke-width="1" opacity="0.5882352941176471" d="M 475.5 102 L 476 104.5 L 475 104.5 L 475.5 102 Z " /><path fill="rgb(249,137,128)" stroke="rgb(249,137,128)" stroke-width="1" opacity="0.5882352941176471" d="M 33.5 106 L 34 109.5 L 33 109.5 L 33.5 106 Z " /><path fill="rgb(249,137,128)" stroke="rgb(249,137,128)" stroke-width="1" opacity="0.5882352941176471" d="M 474.5 107 L 475 110.5 L 474 110.5 L 474.5 107 Z " /><path fill="rgb(249,137,128)" stroke="rgb(249,137,128)" stroke-width="1" opacity="0.5882352941176471" d="M 34.5 111 L 35 113.5 L 34 113.5 L 34.5 111 Z " /><path fill="rgb(249,137,128)" stroke="rgb(249,137,128)" stroke-width="1" opacity="0.5882352941176471" d="M 473.5 112 L 474 115.5 L 473 115.5 L 473.5 112 Z " /><path fill="rgb(249,137,128)" stroke="rgb(249,137,128)" stroke-width="1" opacity="0.5882352941176471" d="M 35.5 116 L 36 118.5 L 35 118.5 L 35.5 116 Z " /><path fill="rgb(249,137,128)" stroke="rgb(249,137,128)" stroke-width="1" opacity="0.5882352941176471" d="M 472.5 117 L 473 119.5 L 472 119.5 L 472.5 117 Z " /><path fill="rgb(249,137,128)" stroke="rgb(249,137,128)" stroke-width="1" opacity="0.5882352941176471" d="M 36.5 121 L 37 123.5 L 36 123.5 L 36.5 121 Z " /><path fill="rgb(249,137,128)" stroke="rgb(249,137,128)" stroke-width="1" opacity="0.5882352941176471" d="M 471.5 122 L 472 124.5 L 471 124.5 L 471.5 122 Z " /><path fill="rgb(249,137,128)" stroke="rgb(249,137,128)" stroke-width="1" opacity="0.5882352941176471" d="M 37.5 125 L 38 127.5 L 37 127.5 L 37.5 125 Z " /><path fill="rgb(249,137,128)" stroke="rgb(249,137,128)" stroke-width="1" opacity="0.5882352941176471" d="M 470.5 126 L 471 128.5 L 470 128.5 L 470.5 126 Z " /><path fill="rgb(249,137,128)" stroke="rgb(249,137,128)" stroke-width="1" opacity="0.5882352941176471" d="M 38.5 130 L 39 133.5 L 38 133.5 L 38.5 130 Z " /><path fill="rgb(249,137,128)" stroke="rgb(249,137,128)" stroke-width="1" opacity="0.5882352941176471" d="M 469.5 131 L 470 134.5 L 469 134.5 L 469.5 131 Z " /><path fill="rgb(249,137,128)" stroke="rgb(249,137,128)" stroke-width="1" opacity="0.5882352941176471" d="M 39.5 135 L 40 138.5 L 39 138.5 L 39.5 135 Z " /><path fill="rgb(249,137,128)" stroke="rgb(249,137,128)" stroke-width="1" opacity="0.5882352941176471" d="M 468.5 136 L 469 138.5 L 468 138.5 L 468.5 136 Z " /><path fill="rgb(249,137,128)" stroke="rgb(249,137,128)" stroke-width="1" opacity="0.5882352941176471" d="M 40.5 140 L 41 142.5 L 40 142.5 L 40.5 140 Z " /><path fill="rgb(249,137,128)" stroke="rgb(249,137,128)" stroke-width="1" opacity="0.5882352941176471" d="M 467.5 141 L 468 143.5 L 467 143.5 L 467.5 141 Z " /><path fill="rgb(249,137,128)" stroke="rgb(249,137,128)" stroke-width="1" opacity="0.5882352941176471" d="M 41.5 145 L 42 147.5 L 41 147.5 L 41.5 145 Z " /><path fill="rgb(249,137,128)" stroke="rgb(249,137,128)" stroke-width="1" opacity="0.5882352941176471" d="M 466.5 145 L 467 148.5 L 466 148.5 L 466.5 145 Z " /><path fill="rgb(249,137,128)" stroke="rgb(249,137,128)" stroke-width="1" opacity="0.5882352941176471" d="M 42.5 149 L 43 152.5 L 42 152.5 L 42.5 149 Z " /><path fill="rgb(249,137,128)" stroke="rgb(249,137,128)" stroke-width="1" opacity="0.5882352941176471" d="M 465.5 150 L 466 153.5 L 465 153.5 L 465.5 150 Z " /><path fill="rgb(249,137,128)" stroke="rgb(249,137,128)" stroke-width="1" opacity="0.5882352941176471" d="M 43.5 154 L 44 157.5 L 43 157.5 L 43.5 154 Z " /><path fill="rgb(249,137,128)" stroke="rgb(249,137,128)" stroke-width="1" opacity="0.5882352941176471" d="M 464.5 155 L 465 157.5 L 464 157.5 L 464.5 155 Z " /><path fill="rgb(249,137,128)" stroke="rgb(249,137,128)" stroke-width="1" opacity="0.5882352941176471" d="M 44.5 159 L 45 162.5 L 44 162.5 L 44.5 159 Z " /><path fill="rgb(249,137,128)" stroke="rgb(249,137,128)" stroke-width="1" opacity="0.5882352941176471" d="M 463.5 160 L 464 162.5 L 463 162.5 L 463.5 160 Z " /><path fill="rgb(249,137,128)" stroke="rgb(249,137,128)" stroke-width="1" opacity="0.5882352941176471" d="M 45.5 164 L 46 166.5 L 45 166.5 L 45.5 164 Z " /><path fill="rgb(249,137,128)" stroke="rgb(249,137,128)" stroke-width="1" opacity="0.5882352941176471" d="M 462.5 165 L 463 167.5 L 462 167.5 L 462.5 165 Z " /><path fill="rgb(249,137,128)" stroke="rgb(249,137,128)" stroke-width="1" opacity="0.5882352941176471" d="M 46.5 169 L 47 171.5 L 46 171.5 L 46.5 169 Z " /><path fill="rgb(249,137,128)" stroke="rgb(249,137,128)" stroke-width="1" opacity="0.5882352941176471" d="M 461.5 169 L 462 172.5 L 461 172.5 L 461.5 169 Z " /><path fill="rgb(249,137,128)" stroke="rgb(249,137,128)" stroke-width="1" opacity="0.5882352941176471" d="M 47.5 173 L 48 175.5 L 47 175.5 L 47.5 173 Z " /><path fill="rgb(249,137,128)" stroke="rgb(249,137,128)" stroke-width="1" opacity="0.5882352941176471" d="M 460.5 174 L 461 176.5 L 460 176.5 L 460.5 174 Z " /><path fill="rgb(249,137,128)" stroke="rgb(249,137,128)" stroke-width="1" opacity="0.5882352941176471" d="M 48.5 178 L 49 180.5 L 48 180.5 L 48.5 178 Z " /><path fill="rgb(249,137,128)" stroke="rgb(249,137,128)" stroke-width="1" opacity="0.5882352941176471" d="M 459.5 179 L 460 181.5 L 459 181.5 L 459.5 179 Z " /><path fill="rgb(249,137,128)" stroke="rgb(249,137,128)" stroke-width="1" opacity="0.5882352941176471" d="M 49.5 183 L 50 185.5 L 49 185.5 L 49.5 183 Z " /><path fill="rgb(249,137,128)" stroke="rgb(249,137,128)" stroke-width="1" opacity="0.5882352941176471" d="M 458.5 184 L 459 186.5 L 458 186.5 L 458.5 184 Z " /><path fill="rgb(249,137,128)" stroke="rgb(249,137,128)" stroke-width="1" opacity="0.5882352941176471" d="M 50.5 188 L 51 190.5 L 50 190.5 L 50.5 188 Z " /><path fill="rgb(249,137,128)" stroke="rgb(249,137,128)" stroke-width="1" opacity="0.5882352941176471" d="M 457.5 189 L 458 191.5 L 457 191.5 L 457.5 189 Z " /><path fill="rgb(249,137,128)" stroke="rgb(249,137,128)" stroke-width="1" opacity="0.5882352941176471" d="M 11.5 221 L 9 224.5 L 5.5 232 L 5 230.5 L 11.5 221 Z " /><path fill="rgb(249,137,128)" stroke="rgb(249,137,128)" stroke-width="1" opacity="0.5882352941176471" d="M 501.5 222 L 506 229.5 L 505 229.5 L 501.5 222 Z " /><path fill="rgb(249,137,128)" stroke="rgb(249,137,128)" stroke-width="1" opacity="0.5882352941176471" d="M 3.5 236 L 4 238.5 L 3 238.5 L 3.5 236 Z " /><path fill="rgb(249,137,128)" stroke="rgb(249,137,128)" stroke-width="1" opacity="0.5882352941176471" d="M 508.5 236 L 509 238.5 L 508 238.5 L 508.5 236 Z " /><path fill="rgb(249,137,128)" stroke="rgb(249,137,128)" stroke-width="1" opacity="0.5882352941176471" d="M 2.5 240 L 3 245.5 L 2 245.5 L 2.5 240 Z " /><path fill="rgb(249,137,128)" stroke="rgb(249,137,128)" stroke-width="1" opacity="0.5882352941176471" d="M 509.5 241 L 510 245.5 L 509 245.5 L 509.5 241 Z " /><path fill="rgb(249,137,128)" stroke="rgb(249,137,128)" stroke-width="1" opacity="0.5882352941176471" d="M 2.5 257 L 3 261.5 L 2 261.5 L 2.5 257 Z " /><path fill="rgb(249,137,128)" stroke="rgb(249,137,128)" stroke-width="1" opacity="0.5882352941176471" d="M 509.5 257 L 510 262.5 L 509 262.5 L 509.5 257 Z " /><path fill="rgb(249,137,128)" stroke="rgb(249,137,128)" stroke-width="1" opacity="0.5882352941176471" d="M 3.5 264 L 4 266.5 L 3 266.5 L 3.5 264 Z " /><path fill="rgb(249,137,128)" stroke="rgb(249,137,128)" stroke-width="1" opacity="0.5882352941176471" d="M 508.5 264 L 509 267.5 L 508 267.5 L 508.5 264 Z " /><path fill="rgb(251,145,136)" stroke="rgb(251,145,136)" stroke-width="1" opacity="0.996078431372549" d="M 230.5 0 L 296.5 1 L 297.5 2 L 329.5 4 L 330.5 5 L 337.5 5 L 338.5 6 L 369.5 10 L 394.5 15 L 442.5 28 Q 456.9 33.1 466 43.5 Q 478.7 55.3 479 79.5 L 478 79.5 Q 474.2 57.3 458.5 47 L 438.5 37 L 401.5 27 L 373.5 21 L 343.5 17 L 342.5 16 L 317.5 14 L 316.5 13 L 306.5 13 L 305.5 12 L 247.5 10 L 246.5 11 L 217.5 11 L 216.5 12 L 202.5 12 L 191.5 14 L 181.5 14 L 180.5 15 L 152.5 18 L 115.5 25 L 61.5 40 Q 48.5 46 40 56.5 Q 31.7 65.7 29.5 81 L 29 70.5 Q 33.7 48.2 49.5 37 L 65.5 28 L 118.5 14 L 170.5 5 L 197.5 3 L 198.5 2 L 210.5 2 L 211.5 1 L 229.5 1 L 230.5 0 Z " /><path fill="rgb(251,145,136)" stroke="rgb(251,145,136)" stroke-width="1" opacity="0.996078431372549" d="M 15.5 250 L 11.5 255 L 15.5 250 Z " /><path fill="rgb(251,145,136)" stroke="rgb(251,145,136)" stroke-width="1" opacity="0.996078431372549" d="M 497.5 251 L 500.5 255 L 497.5 251 Z " /><path fill="rgb(251,145,136)" stroke="rgb(251,145,136)" stroke-width="1" opacity="0.996078431372549" d="M 81.5 294 L 82 296.5 L 81 296.5 L 81.5 294 Z " /><path fill="rgb(251,145,136)" stroke="rgb(251,145,136)" stroke-width="1" opacity="0.996078431372549" d="M 430.5 294 L 431 296.5 L 430 296.5 L 430.5 294 Z " /><path fill="rgb(251,145,136)" stroke="rgb(251,145,136)" stroke-width="1" opacity="0.996078431372549" d="M 229.5 304 L 307.5 305 L 308.5 306 L 323.5 306 L 324.5 307 L 336.5 307 L 337.5 308 L 347.5 308 L 348.5 309 L 375.5 311 L 376.5 312 L 390.5 313 L 413.5 317 Q 421.6 319.9 426 326.5 L 430 334.5 L 430 343.5 L 429 343.5 Q 427.3 335.2 421.5 331 L 412.5 326 L 407.5 325 L 401.5 325 L 379.5 321 L 372.5 321 L 371.5 320 L 354.5 319 L 353.5 318 L 331.5 317 L 330.5 316 L 298.5 315 L 297.5 314 L 214.5 314 L 213.5 315 L 196.5 315 L 195.5 316 L 181.5 316 L 180.5 317 L 158.5 318 L 157.5 319 L 140.5 320 L 139.5 321 L 132.5 321 L 131.5 322 L 104.5 325 Q 94 327 88 333.5 L 82.5 344 L 82 334.5 L 86 326.5 L 92.5 320 L 102.5 316 L 114.5 315 L 121.5 313 L 128.5 313 L 129.5 312 L 136.5 312 L 137.5 311 L 144.5 311 L 145.5 310 L 174.5 308 L 175.5 307 L 188.5 307 L 189.5 306 L 203.5 306 L 204.5 305 L 228.5 305 L 229.5 304 Z " /><path fill="rgb(212,89,71)" stroke="rgb(212,89,71)" stroke-width="1" opacity="1" d="M 81.5 187 L 102.5 187 L 118.5 191 Q 136.3 198.3 147 212.5 Q 152.3 218.2 154 227.5 L 157.5 273 Q 165.5 268 176.5 266 L 335.5 266 Q 346.5 268 354.5 273 L 357 236.5 L 358 235.5 L 359 223.5 Q 365.2 208.7 377.5 200 Q 388 191.5 403.5 188 Q 408.2 189.3 409.5 187 L 430.5 187 L 449.5 191 L 463.5 196 Q 477.4 201.6 488 210.5 L 486.5 210 Q 472.7 201.3 448.5 203 L 430.5 208 L 422.5 212 L 409 222 L 399 235.5 L 392 252.5 L 389 269.5 L 389 293 Q 409.3 301.5 423 317.5 L 429 330.5 L 428 330.5 L 421.5 321 L 414.5 317 L 400.5 314 L 371.5 311 L 370.5 310 L 362.5 310 L 361.5 309 L 353.5 309 L 352.5 308 L 331.5 307 L 330.5 306 L 297.5 305 L 296.5 304 L 215.5 304 L 214.5 305 L 196.5 305 L 195.5 306 L 159.5 308 L 158.5 309 L 150.5 309 L 149.5 310 L 118.5 313 L 97.5 317 L 88 323.5 L 83.5 331 L 83 328.5 Q 88.5 315 99.5 307 L 123 293 L 122 262.5 L 117 243.5 Q 109.6 226.4 95.5 216 L 76.5 206 L 62.5 203 L 47.5 203 L 31.5 207 L 24.5 211 L 25.5 209 Q 38 200 53.5 194 L 81.5 187 Z " /><path fill="rgb(251,193,120)" stroke="rgb(251,193,120)" stroke-width="1" opacity="0.5647058823529412" d="M 508.5 273 L 509 276.5 L 508 276.5 L 508.5 273 Z " /><path fill="rgb(251,193,120)" stroke="rgb(251,193,120)" stroke-width="1" opacity="0.5647058823529412" d="M 4.5 278 Q 6.6 291.9 15.5 299 L 19 301.5 L 17.5 301 L 10 294.5 Q 3.8 288.4 4.5 278 Z " /><path fill="rgb(251,193,120)" stroke="rgb(251,193,120)" stroke-width="1" opacity="0.5647058823529412" d="M 507.5 279 L 508 282.5 L 507 282.5 L 507.5 279 Z " /><path fill="rgb(251,193,120)" stroke="rgb(251,193,120)" stroke-width="1" opacity="0.5647058823529412" d="M 506.5 284 L 507 285.5 Q 503.5 295.5 495.5 301 Q 491.2 305.2 483.5 306 L 483.5 305 Q 495.3 302.8 501 294.5 L 506.5 284 Z " /><path fill="rgb(251,193,120)" stroke="rgb(251,193,120)" stroke-width="1" opacity="0.5647058823529412" d="M 20.5 302 L 29 305.5 L 26.5 306 L 21.5 304 L 20.5 302 Z " /><path fill="rgb(251,193,120)" stroke="rgb(251,193,120)" stroke-width="1" opacity="0.5647058823529412" d="M 52.5 303 Q 54.8 302.3 54 304.5 L 51.5 305 L 50 304.5 L 52.5 303 Z " /><path fill="rgb(251,193,120)" stroke="rgb(251,193,120)" stroke-width="1" opacity="0.5647058823529412" d="M 458.5 303 L 462 304.5 L 460 305 L 461 314.5 L 460 314.5 L 459 305.5 L 459.5 304 L 458.5 303 Z " /><path fill="rgb(251,193,120)" stroke="rgb(251,193,120)" stroke-width="1" opacity="0.5647058823529412" d="M 46.5 305 L 49 305.5 Q 46.3 307.8 40.5 307 L 40.5 306 Q 45.3 307.3 46.5 305 Z " /><path fill="rgb(251,193,120)" stroke="rgb(251,193,120)" stroke-width="1" opacity="0.5647058823529412" d="M 463.5 305 L 472 306.5 L 466.5 307 L 463.5 306 L 463.5 305 Z " /><path fill="rgb(251,193,120)" stroke="rgb(251,193,120)" stroke-width="1" opacity="0.5647058823529412" d="M 30.5 306 L 35 306.5 L 30.5 307 L 30.5 306 Z " /><path fill="rgb(251,193,120)" stroke="rgb(251,193,120)" stroke-width="1" opacity="0.5647058823529412" d="M 52.5 306 L 53 309.5 L 52 309.5 L 52.5 306 Z " /><path fill="rgb(251,193,120)" stroke="rgb(251,193,120)" stroke-width="1" opacity="0.5647058823529412" d="M 477.5 306 L 482 306.5 L 477.5 307 L 477.5 306 Z " /><path fill="rgb(251,193,120)" stroke="rgb(251,193,120)" stroke-width="1" opacity="0.5647058823529412" d="M 51.5 311 L 52 314.5 L 51 314.5 L 51.5 311 Z " /><path fill="rgb(251,193,120)" stroke="rgb(251,193,120)" stroke-width="1" opacity="0.5647058823529412" d="M 50.5 316 L 51 319.5 L 50 319.5 L 50.5 316 Z " /><path fill="rgb(251,193,120)" stroke="rgb(251,193,120)" stroke-width="1" opacity="0.5647058823529412" d="M 461.5 316 L 462 319.5 L 461 319.5 L 461.5 316 Z " /><path fill="rgb(251,193,120)" stroke="rgb(251,193,120)" stroke-width="1" opacity="0.5647058823529412" d="M 49.5 321 L 50 325.5 L 48.5 331 L 48 326.5 L 49.5 321 Z " /><path fill="rgb(251,193,120)" stroke="rgb(251,193,120)" stroke-width="1" opacity="0.5647058823529412" d="M 462.5 321 L 463 324.5 L 462 324.5 L 462.5 321 Z " /><path fill="rgb(251,193,120)" stroke="rgb(251,193,120)" stroke-width="1" opacity="0.5647058823529412" d="M 463.5 326 L 464 329.5 L 463 329.5 L 463.5 326 Z " /><path fill="rgb(251,193,120)" stroke="rgb(251,193,120)" stroke-width="1" opacity="0.5647058823529412" d="M 464.5 331 L 465 334.5 L 464 334.5 L 464.5 331 Z " /><path fill="rgb(251,193,120)" stroke="rgb(251,193,120)" stroke-width="1" opacity="0.5647058823529412" d="M 47.5 332 L 48 335.5 L 47 335.5 L 47.5 332 Z " /><path fill="rgb(251,193,120)" stroke="rgb(251,193,120)" stroke-width="1" opacity="0.5647058823529412" d="M 465.5 336 L 467 345.5 L 466 345.5 L 465.5 336 Z " /><path fill="rgb(251,193,120)" stroke="rgb(251,193,120)" stroke-width="1" opacity="0.5647058823529412" d="M 46.5 337 L 47 340.5 L 46 340.5 L 46.5 337 Z " /><path fill="rgb(251,193,120)" stroke="rgb(251,193,120)" stroke-width="1" opacity="0.5647058823529412" d="M 45.5 342 L 46 345.5 L 45 345.5 L 45.5 342 Z " /><path fill="rgb(251,193,120)" stroke="rgb(251,193,120)" stroke-width="1" opacity="0.5647058823529412" d="M 44.5 347 L 45 350.5 L 44 350.5 L 44.5 347 Z " /><path fill="rgb(251,193,120)" stroke="rgb(251,193,120)" stroke-width="1" opacity="0.5647058823529412" d="M 467.5 347 L 468 350.5 L 467 350.5 L 467.5 347 Z " /><path fill="rgb(251,193,120)" stroke="rgb(251,193,120)" stroke-width="1" opacity="0.5647058823529412" d="M 43.5 352 L 44 356.5 L 42.5 362 L 42 357.5 L 43.5 352 Z " /><path fill="rgb(251,193,120)" stroke="rgb(251,193,120)" stroke-width="1" opacity="0.5647058823529412" d="M 468.5 352 L 469 355.5 L 468 355.5 L 468.5 352 Z " /><path fill="rgb(251,193,120)" stroke="rgb(251,193,120)" stroke-width="1" opacity="0.5647058823529412" d="M 469.5 357 L 470 360.5 L 469 360.5 L 469.5 357 Z " /><path fill="rgb(251,193,120)" stroke="rgb(251,193,120)" stroke-width="1" opacity="0.5647058823529412" d="M 470.5 362 L 471 365.5 L 470 365.5 L 470.5 362 Z " /><path fill="rgb(251,193,120)" stroke="rgb(251,193,120)" stroke-width="1" opacity="0.5647058823529412" d="M 41.5 363 L 42 366.5 L 41 366.5 L 41.5 363 Z " /><path fill="rgb(251,193,120)" stroke="rgb(251,193,120)" stroke-width="1" opacity="0.5647058823529412" d="M 471.5 367 L 472 481.5 L 471 482.5 L 470.5 508 L 470 481.5 L 471 480.5 L 471.5 367 Z " /><path fill="rgb(251,193,120)" stroke="rgb(251,193,120)" stroke-width="1" opacity="0.5647058823529412" d="M 93 481 L 417.5 481 L 420 483.5 L 433 507.5 L 432 507.5 L 417.5 482 L 94.5 482 L 93 483.5 L 78.5 508 L 79 506.5 L 93 481 Z " /><path fill="rgb(252,198,124)" stroke="rgb(252,198,124)" stroke-width="1" opacity="0.996078431372549" d="M 31.5 243 L 34 243.5 L 31.5 244 L 31.5 243 Z " /><path fill="rgb(252,198,124)" stroke="rgb(252,198,124)" stroke-width="1" opacity="0.996078431372549" d="M 41.5 243 L 44 243.5 L 41.5 244 L 41.5 243 Z " /><path fill="rgb(252,198,124)" stroke="rgb(252,198,124)" stroke-width="1" opacity="0.996078431372549" d="M 468.5 243 L 471 243.5 L 468.5 244 L 468.5 243 Z " /><path fill="rgb(252,198,124)" stroke="rgb(252,198,124)" stroke-width="1" opacity="0.996078431372549" d="M 478.5 243 L 481 243.5 L 478.5 244 L 478.5 243 Z " /><path fill="rgb(252,198,124)" stroke="rgb(252,198,124)" stroke-width="1" opacity="0.996078431372549" d="M 56.5 248 L 57.5 250 L 56.5 248 Z " /><path fill="rgb(252,198,124)" stroke="rgb(252,198,124)" stroke-width="1" opacity="0.996078431372549" d="M 455.5 248 L 454.5 250 L 455.5 248 Z " /><path fill="rgb(252,198,124)" stroke="rgb(252,198,124)" stroke-width="1" opacity="0.996078431372549" d="M 17.5 249 L 16.5 251 L 17.5 249 Z " /><path fill="rgb(252,198,124)" stroke="rgb(252,198,124)" stroke-width="1" opacity="0.996078431372549" d="M 494.5 249 L 495.5 251 L 494.5 249 Z " /><path fill="rgb(252,198,124)" stroke="rgb(252,198,124)" stroke-width="1" opacity="0.996078431372549" d="M 60.5 251 L 66.5 258 L 60.5 251 Z " /><path fill="rgb(252,198,124)" stroke="rgb(252,198,124)" stroke-width="1" opacity="0.996078431372549" d="M 451.5 251 L 445.5 258 L 451.5 251 Z " /><path fill="rgb(252,198,124)" stroke="rgb(252,198,124)" stroke-width="1" opacity="0.996078431372549" d="M 10.5 256 L 9.5 258 L 10.5 256 Z " /><path fill="rgb(252,198,124)" stroke="rgb(252,198,124)" stroke-width="1" opacity="0.996078431372549" d="M 501.5 256 L 502.5 258 L 501.5 256 Z " /><path fill="rgb(252,198,124)" stroke="rgb(252,198,124)" stroke-width="1" opacity="0.996078431372549" d="M 68.5 260 L 69.5 262 L 68.5 260 Z " /><path fill="rgb(252,198,124)" stroke="rgb(252,198,124)" stroke-width="1" opacity="0.996078431372549" d="M 443.5 260 L 442.5 262 L 443.5 260 Z " /><path fill="rgb(252,198,124)" stroke="rgb(252,198,124)" stroke-width="1" opacity="0.996078431372549" d="M 81.5 297 L 82 300.5 L 81 300.5 L 81.5 297 Z " /><path fill="rgb(252,198,124)" stroke="rgb(252,198,124)" stroke-width="1" opacity="0.996078431372549" d="M 430.5 297 L 431 300.5 L 430 300.5 L 430.5 297 Z " /><path fill="rgb(252,198,124)" stroke="rgb(252,198,124)" stroke-width="1" opacity="0.996078431372549" d="M 89.5 399 L 90.5 401 L 89.5 399 Z " /><path fill="rgb(252,198,124)" stroke="rgb(252,198,124)" stroke-width="1" opacity="0.996078431372549" d="M 422.5 399 L 421.5 401 L 422.5 399 Z " /><path fill="rgb(252,198,124)" stroke="rgb(252,198,124)" stroke-width="1" opacity="0.996078431372549" d="M 98.5 403 L 414 403.5 L 98.5 404 L 98.5 403 Z " /><path fill="rgb(253,199,124)" stroke="rgb(253,199,124)" stroke-width="1" opacity="1" d="M 34.5 243 L 49.5 245 Q 61.1 249.9 68 259.5 L 77 276.5 L 81 292.5 L 81 300.5 L 82 301.5 L 82 389.5 Q 84.6 396.9 90.5 401 L 98.5 404 L 413.5 404 Q 422.8 402.3 427 395.5 L 430 389.5 L 430 301.5 L 431 300.5 L 431 292.5 L 434 279.5 L 440 265.5 L 453.5 250 L 465.5 244 L 477.5 243 Q 478.8 245.3 483.5 244 L 492.5 248 L 501 255.5 Q 508.3 263.3 508 278.5 Q 505.7 292.2 496.5 299 L 488.5 304 L 475.5 307 L 472.5 306 L 466.5 306 L 458 303 L 471 367.5 L 471 480.5 L 470 481.5 L 470 508 L 434.5 508 L 432 505.5 L 417.5 481 L 93.5 481 L 93 482.5 L 77.5 508 L 41.5 508 L 41 507.5 L 41 367.5 L 54 303 L 49.5 305 L 38.5 307 L 35.5 306 L 29.5 306 L 23.5 304 L 11 294.5 Q 3.7 286.8 4 271.5 Q 6.8 258.3 15.5 251 L 25.5 245 L 34.5 243 Z " /></svg>