<svg width="512" height="512" version="1.1" xmlns="http://www.w3.org/2000/svg" desc="Created with imagetracer.js version 1.2.6" ><path fill="rgb(0,0,0)" stroke="rgb(0,0,0)" stroke-width="1" opacity="0" d="M 0 0 L 153 0.5 L 144 5.5 L 138 16.5 L 138 170.5 Q 139.1 177.9 144 181.5 L 84.5 182 Q 77.1 184.1 73 189.5 L 69 197.5 L 69 336.5 L 75.5 347 L 85.5 352 L 120 352.5 L 0.5 503 L 0 0 Z " /><path fill="rgb(0,0,0)" stroke="rgb(0,0,0)" stroke-width="1" opacity="0" d="M 271.5 0 L 512 0 L 512 139.5 L 511 139.5 L 509 124.5 Q 504.5 108.5 497 95.5 Q 485.8 76.7 469.5 63 Q 450.1 45.9 420.5 39 L 409.5 37 L 344.5 37 Q 336.4 39.9 332 46.5 L 329 54.5 L 329 170.5 Q 330.1 177.9 335 181.5 L 280.5 182 L 281 180.5 L 285 172.5 L 285 15.5 Q 282.5 7.5 276.5 3 L 271.5 1 L 271.5 0 Z " /><path fill="rgb(0,0,0)" stroke="rgb(0,0,0)" stroke-width="1" opacity="0" d="M 511.5 174 L 512 512 L 477 511.5 Q 484.3 509.3 488 503.5 L 491 497.5 L 491 362.5 Q 488.9 354.2 482.5 350 L 475.5 347 L 429 346.5 Q 434.3 342.8 436 335.5 L 436 197.5 L 431 188 L 496.5 188 Q 504.9 185.9 509 179.5 L 511.5 174 Z " /><path fill="rgb(0,0,0)" stroke="rgb(0,0,0)" stroke-width="1" opacity="0" d="M 0.5 510 L 1.5 512 Q -1.3 512.7 0.5 510 Z " /><path fill="rgb(254,195,41)" stroke="rgb(254,195,41)" stroke-width="1" opacity="0.9882352941176471" d="M 375.5 37 L 409.5 37 L 428.5 41 Q 453.8 48.7 471 64.5 Q 470.3 66.8 472.5 66 Q 497.7 87.6 507 124 L 509 124.5 L 508 126.5 L 512 144.5 L 512 172.5 Q 509.9 180.9 503.5 185 L 496.5 188 L 464.5 188 L 464.5 187 L 469.5 186 L 477 179.5 L 481 171.5 L 481 145.5 L 476 120.5 L 465 95.5 Q 454 76.5 437.5 63 Q 424.5 52 407.5 45 L 387.5 39 L 375.5 38 L 375.5 37 Z " /><path fill="rgb(254,195,41)" stroke="rgb(254,195,41)" stroke-width="1" opacity="0.9882352941176471" d="M 164.5 298 L 169.5 298 L 174 302.5 L 330 499.5 L 334 506.5 L 331.5 511 L 329.5 512 L 300.5 512 L 302 509.5 L 303 505.5 L 161 326.5 L 152 314.5 L 152 312.5 L 164.5 298 Z " /><path fill="rgb(254,195,41)" stroke="rgb(254,195,41)" stroke-width="1" opacity="0.9882352941176471" d="M 122.5 350 L 121.5 352 L 122.5 350 Z " /><path fill="rgb(232,88,56)" stroke="rgb(232,88,56)" stroke-width="1" opacity="0.8549019607843137" d="M 84.5 182 L 146 182.5 L 84.5 183 Q 76.4 185.9 72 192.5 L 69.5 201 L 69 197.5 Q 71.1 190.1 76.5 186 L 84.5 182 Z " /><path fill="rgb(232,88,56)" stroke="rgb(232,88,56)" stroke-width="1" opacity="0.8549019607843137" d="M 277.5 182 L 337 182.5 L 277.5 183 L 277.5 182 Z " /><path fill="rgb(232,88,56)" stroke="rgb(232,88,56)" stroke-width="1" opacity="0.8549019607843137" d="M 430.5 188 Q 435.6 191.9 436 200.5 L 435 200.5 L 434 194.5 L 430 189.5 L 430.5 188 Z " /><path fill="rgb(232,88,56)" stroke="rgb(232,88,56)" stroke-width="1" opacity="0.8549019607843137" d="M 69.5 332 Q 70.2 343.8 78.5 348 L 85.5 351 L 121 351.5 L 85.5 352 L 74 345.5 Q 68.5 341 69.5 332 Z " /><path fill="rgb(232,88,56)" stroke="rgb(232,88,56)" stroke-width="1" opacity="0.8549019607843137" d="M 435.5 332 L 436 335.5 L 435 335.5 L 435.5 332 Z " /><path fill="rgb(232,88,56)" stroke="rgb(232,88,56)" stroke-width="1" opacity="0.8549019607843137" d="M 433.5 340 L 433 341.5 L 427.5 348 L 432 342.5 L 433.5 340 Z " /><path fill="rgb(247,86,50)" stroke="rgb(247,86,50)" stroke-width="1" opacity="1" d="M 146.5 182 L 336.5 183 L 337.5 182 L 418.5 182 L 418.5 183 L 391 183.5 Q 397.6 185.4 401 190.5 L 405 200.5 L 405 333.5 Q 403.1 342.1 397.5 347 L 390 350.5 L 418 351.5 L 387.5 352 L 386.5 351 L 212.5 351 L 208 346.5 L 169.5 298 L 164.5 298 L 159 303.5 L 121.5 351 L 85.5 351 Q 77.2 348.9 73 342.5 L 69 331.5 L 69 201.5 Q 70.6 190.6 78.5 186 L 84.5 183 L 145.5 183 L 146.5 182 Z " /><path fill="rgb(247,86,50)" stroke="rgb(247,86,50)" stroke-width="1" opacity="1" d="M 427.5 186 L 428.5 188 L 427.5 186 Z " /><path fill="rgb(227,54,41)" stroke="rgb(227,54,41)" stroke-width="1" opacity="0.996078431372549" d="M 391.5 183 L 420.5 183 L 430 188 Q 434.4 192.9 436 201.5 L 436 331.5 L 434 339.5 L 426.5 348 L 420.5 351 L 390.5 351 L 390.5 350 Q 397.1 349.1 400 344.5 L 405 333.5 L 405 200.5 Q 403.2 190.8 396.5 186 L 391.5 184 L 391.5 183 Z " /><path fill="rgb(93,182,149)" stroke="rgb(93,182,149)" stroke-width="1" opacity="0.996078431372549" d="M 153.5 0 L 270.5 0 Q 277.3 2.3 281 7.5 L 285 15.5 L 285 172.5 L 279.5 182 L 144.5 182 L 141 178.5 L 138 170.5 L 138 16.5 Q 140.3 8.8 145.5 4 L 153.5 0 Z " /><path fill="rgb(93,182,149)" stroke="rgb(93,182,149)" stroke-width="1" opacity="0.996078431372549" d="M 428.5 347 L 475.5 347 Q 483.9 349.2 488 355.5 L 491 362.5 L 491 497.5 Q 488.4 504.9 482.5 509 L 476.5 512 L 331.5 512 L 334 508.5 Q 334.8 503.2 332 501.5 L 213 352.5 L 417.5 352 L 428.5 347 Z " /><path fill="rgb(254,212,79)" stroke="rgb(254,212,79)" stroke-width="1" opacity="0.9921568627450981" d="M 344.5 37 L 375 37.5 L 345.5 38 L 335 44.5 L 330 55.5 L 330 169.5 Q 331.3 177.7 337 181.5 L 335.5 182 L 332 178.5 L 329 170.5 L 329 54.5 Q 331 44.5 338.5 40 L 344.5 37 Z " /><path fill="rgb(254,212,79)" stroke="rgb(254,212,79)" stroke-width="1" opacity="0.9921568627450981" d="M 481.5 75 L 484.5 79 L 481.5 75 Z " /><path fill="rgb(254,212,79)" stroke="rgb(254,212,79)" stroke-width="1" opacity="0.9921568627450981" d="M 486.5 81 L 488.5 84 L 486.5 81 Z " /><path fill="rgb(254,212,79)" stroke="rgb(254,212,79)" stroke-width="1" opacity="0.9921568627450981" d="M 489.5 85 L 490.5 87 L 489.5 85 Z " /><path fill="rgb(254,212,79)" stroke="rgb(254,212,79)" stroke-width="1" opacity="0.9921568627450981" d="M 491.5 88 L 492.5 90 L 491.5 88 Z " /><path fill="rgb(254,212,79)" stroke="rgb(254,212,79)" stroke-width="1" opacity="0.9921568627450981" d="M 493.5 91 L 494.5 93 L 493.5 91 Z " /><path fill="rgb(254,212,79)" stroke="rgb(254,212,79)" stroke-width="1" opacity="0.9921568627450981" d="M 495.5 94 L 503 108.5 L 502 108.5 L 495.5 94 Z " /><path fill="rgb(254,212,79)" stroke="rgb(254,212,79)" stroke-width="1" opacity="0.9921568627450981" d="M 503.5 110 L 505 113.5 L 504 113.5 L 503.5 110 Z " /><path fill="rgb(254,212,79)" stroke="rgb(254,212,79)" stroke-width="1" opacity="0.9921568627450981" d="M 507.5 121 L 508 123.5 L 507 123.5 L 507.5 121 Z " /><path fill="rgb(254,212,79)" stroke="rgb(254,212,79)" stroke-width="1" opacity="0.9921568627450981" d="M 509.5 128 L 510 131.5 L 509 131.5 L 509.5 128 Z " /><path fill="rgb(254,212,79)" stroke="rgb(254,212,79)" stroke-width="1" opacity="0.9921568627450981" d="M 510.5 133 L 511 136.5 L 510 136.5 L 510.5 133 Z " /><path fill="rgb(254,212,79)" stroke="rgb(254,212,79)" stroke-width="1" opacity="0.9921568627450981" d="M 511.5 140 L 512 143.5 L 511 143.5 L 511.5 140 Z " /><path fill="rgb(254,212,79)" stroke="rgb(254,212,79)" stroke-width="1" opacity="0.9921568627450981" d="M 429.5 187 L 464 187.5 L 429.5 188 L 429.5 187 Z " /><path fill="rgb(254,212,79)" stroke="rgb(254,212,79)" stroke-width="1" opacity="0.9921568627450981" d="M 151.5 314 L 149.5 317 L 151.5 314 Z " /><path fill="rgb(254,212,79)" stroke="rgb(254,212,79)" stroke-width="1" opacity="0.9921568627450981" d="M 147.5 319 L 146.5 321 L 147.5 319 Z " /><path fill="rgb(254,212,79)" stroke="rgb(254,212,79)" stroke-width="1" opacity="0.9921568627450981" d="M 143.5 324 L 142.5 326 L 143.5 324 Z " /><path fill="rgb(254,212,79)" stroke="rgb(254,212,79)" stroke-width="1" opacity="0.9921568627450981" d="M 139.5 329 L 138.5 331 L 139.5 329 Z " /><path fill="rgb(254,212,79)" stroke="rgb(254,212,79)" stroke-width="1" opacity="0.9921568627450981" d="M 135.5 334 L 134.5 336 L 135.5 334 Z " /><path fill="rgb(254,212,79)" stroke="rgb(254,212,79)" stroke-width="1" opacity="0.9921568627450981" d="M 131.5 339 L 130.5 341 L 131.5 339 Z " /><path fill="rgb(254,212,79)" stroke="rgb(254,212,79)" stroke-width="1" opacity="0.9921568627450981" d="M 128.5 343 L 126.5 346 L 128.5 343 Z " /><path fill="rgb(254,212,79)" stroke="rgb(254,212,79)" stroke-width="1" opacity="0.9921568627450981" d="M 124.5 348 L 123.5 350 L 124.5 348 Z " /><path fill="rgb(254,212,79)" stroke="rgb(254,212,79)" stroke-width="1" opacity="0.9921568627450981" d="M 212.5 351 L 387 351.5 L 212.5 352 L 212.5 351 Z " /><path fill="rgb(254,212,79)" stroke="rgb(254,212,79)" stroke-width="1" opacity="0.9921568627450981" d="M 120.5 352 L 122 352.5 L 3 501.5 Q 0.2 503.2 1 508.5 L 6 511.5 L 2.5 512 Q -1.5 510.5 0 503.5 L 120.5 352 Z " /><path fill="rgb(254,212,79)" stroke="rgb(254,212,79)" stroke-width="1" opacity="0.9921568627450981" d="M 214.5 354 L 215.5 356 L 214.5 354 Z " /><path fill="rgb(254,212,79)" stroke="rgb(254,212,79)" stroke-width="1" opacity="0.9921568627450981" d="M 218.5 359 L 219.5 361 L 218.5 359 Z " /><path fill="rgb(254,212,79)" stroke="rgb(254,212,79)" stroke-width="1" opacity="0.9921568627450981" d="M 233.5 378 L 234.5 380 L 233.5 378 Z " /><path fill="rgb(254,212,79)" stroke="rgb(254,212,79)" stroke-width="1" opacity="0.9921568627450981" d="M 237.5 383 L 238.5 385 L 237.5 383 Z " /><path fill="rgb(254,212,79)" stroke="rgb(254,212,79)" stroke-width="1" opacity="0.9921568627450981" d="M 241.5 388 L 242.5 390 L 241.5 388 Z " /><path fill="rgb(254,212,79)" stroke="rgb(254,212,79)" stroke-width="1" opacity="0.9921568627450981" d="M 260.5 412 L 261.5 414 L 260.5 412 Z " /><path fill="rgb(254,212,79)" stroke="rgb(254,212,79)" stroke-width="1" opacity="0.9921568627450981" d="M 264.5 417 L 265.5 419 L 264.5 417 Z " /><path fill="rgb(254,212,79)" stroke="rgb(254,212,79)" stroke-width="1" opacity="0.9921568627450981" d="M 268.5 422 L 269.5 424 L 268.5 422 Z " /><path fill="rgb(254,212,79)" stroke="rgb(254,212,79)" stroke-width="1" opacity="0.9921568627450981" d="M 283.5 441 L 284.5 443 L 283.5 441 Z " /><path fill="rgb(254,212,79)" stroke="rgb(254,212,79)" stroke-width="1" opacity="0.9921568627450981" d="M 287.5 446 L 288.5 448 L 287.5 446 Z " /><path fill="rgb(254,212,79)" stroke="rgb(254,212,79)" stroke-width="1" opacity="0.9921568627450981" d="M 291.5 451 L 292.5 453 L 291.5 451 Z " /><path fill="rgb(254,212,79)" stroke="rgb(254,212,79)" stroke-width="1" opacity="0.9921568627450981" d="M 306.5 470 L 307.5 472 L 306.5 470 Z " /><path fill="rgb(254,212,79)" stroke="rgb(254,212,79)" stroke-width="1" opacity="0.9921568627450981" d="M 310.5 475 L 311.5 477 L 310.5 475 Z " /><path fill="rgb(254,212,79)" stroke="rgb(254,212,79)" stroke-width="1" opacity="0.9921568627450981" d="M 314.5 480 L 315.5 482 L 314.5 480 Z " /><path fill="rgb(254,212,79)" stroke="rgb(254,212,79)" stroke-width="1" opacity="0.9921568627450981" d="M 318.5 485 L 319.5 487 L 318.5 485 Z " /><path fill="rgb(255,213,79)" stroke="rgb(255,213,79)" stroke-width="1" opacity="1" d="M 345.5 38 L 382.5 38 L 407.5 45 Q 436 57 454 79.5 Q 468.2 96.8 476 120.5 L 481 145.5 L 481 171.5 Q 478.5 179.5 472.5 184 L 467.5 187 L 428.5 187 L 419.5 182 L 337.5 182 L 333 177.5 L 330 169.5 L 330 55.5 Q 331.7 47.7 336.5 43 L 345.5 38 Z " /><path fill="rgb(255,213,79)" stroke="rgb(255,213,79)" stroke-width="1" opacity="1" d="M 151.5 315 L 154 316.5 L 300 500.5 L 303 507.5 L 299.5 512 L 6.5 512 L 1 508.5 Q 0.2 503.2 3 501.5 L 151.5 315 Z " /><path fill="rgb(255,213,79)" stroke="rgb(255,213,79)" stroke-width="1" opacity="1" d="M 223.5 365 L 224.5 367 L 223.5 365 Z " /><path fill="rgb(255,213,79)" stroke="rgb(255,213,79)" stroke-width="1" opacity="1" d="M 246.5 394 L 247.5 396 L 246.5 394 Z " /><path fill="rgb(255,213,79)" stroke="rgb(255,213,79)" stroke-width="1" opacity="1" d="M 273.5 428 L 274.5 430 L 273.5 428 Z " /><path fill="rgb(255,213,79)" stroke="rgb(255,213,79)" stroke-width="1" opacity="1" d="M 296.5 457 L 297.5 459 L 296.5 457 Z " /><path fill="rgb(255,213,79)" stroke="rgb(255,213,79)" stroke-width="1" opacity="1" d="M 323.5 491 L 324.5 493 L 323.5 491 Z " /></svg>