<svg width="512" height="512" version="1.1" xmlns="http://www.w3.org/2000/svg" desc="Created with imagetracer.js version 1.2.6" ><path fill="rgb(0,0,0)" stroke="rgb(0,0,0)" stroke-width="1" opacity="0" d="M 0 0 L 38 0.5 Q 18.4 4.4 9 18.5 Q 2.6 26.1 0.5 38 L 0 0 Z " /><path fill="rgb(0,0,0)" stroke="rgb(0,0,0)" stroke-width="1" opacity="0" d="M 266.5 0 L 512 0 L 512 245.5 L 511 245.5 L 507 232.5 L 493.5 217 Q 485.5 210.5 473.5 208 L 304 208 L 304 38.5 Q 299.6 18.9 285.5 9 Q 278.6 2.4 266.5 1 L 266.5 0 Z M 336 32 L 336 64 L 424 64 L 433 67 L 437 72 L 440 81 L 440 120 L 428 108 L 404 132 L 456 183 L 508 132 L 485 108 L 473 120 L 472 71 Q 470 58 463 51 Q 453 36 434 32 L 336 32 Z " /><path fill="rgb(0,0,0)" stroke="rgb(0,0,0)" stroke-width="1" opacity="0" d="M 0.5 266 Q 4.4 285.6 18.5 295 Q 26.5 301.5 38.5 304 L 208 304 L 208 473.5 Q 212.4 493.1 226.5 503 Q 234.1 509.4 246 511.5 L 0 512 L 0.5 266 Z M 56 329 L 4 381 L 28 404 L 40 392 L 40 442 Q 43 453 49 462 Q 59 476 79 480 L 176 480 L 176 480 L 176 448 L 89 448 L 80 445 L 75 441 L 72 432 L 72 393 L 85 404 L 108 381 L 56 329 Z " /><path fill="rgb(0,0,0)" stroke="rgb(0,0,0)" stroke-width="1" opacity="0" d="M 511.5 474 L 512 512 L 474 511.5 Q 493.6 507.6 503 493.5 Q 509.4 485.9 511.5 474 Z " /><path fill="rgb(186,221,226)" stroke="rgb(186,221,226)" stroke-width="1" opacity="0.996078431372549" d="M 152 0 L 265.5 0 Q 278.8 2.8 287 10.5 Q 286.3 12.8 288.5 12 Q 295.4 16 297 24 Q 299.7 22.9 299 25.5 L 304 39.5 L 304 208 L 248.5 208 Q 230.1 211.6 220 223.5 L 211 237.5 L 208 248.5 L 208 304 L 152 304 L 152 232 L 193 232 L 193 200 L 152 200 L 152 168 L 241 168 L 241 136 L 152 136 L 152 104 L 241 104 L 241 72 L 152 72 L 152 0 Z " /><path fill="rgb(124,159,165)" stroke="rgb(124,159,165)" stroke-width="1" opacity="1" d="M 151 72 L 239 72 L 239 104 L 151 104 L 151 72 Z " /><path fill="rgb(124,159,165)" stroke="rgb(124,159,165)" stroke-width="1" opacity="1" d="M 151 136 L 239 136 L 239 168 L 151 168 L 151 136 Z " /><path fill="rgb(124,159,165)" stroke="rgb(124,159,165)" stroke-width="1" opacity="1" d="M 151 200 L 191 200 L 191 232 L 151 232 L 151 200 Z " /><path fill="rgb(203,230,234)" stroke="rgb(203,230,234)" stroke-width="1" opacity="1" d="M 38.5 0 L 152 0 L 152 72 L 65 72 L 65 104 L 152 104 L 152 136 L 65 136 L 65 168 L 152 168 L 152 200 L 65 200 L 65 232 L 152 232 L 152 304 L 38.5 304 Q 18.9 299.6 9 285.5 Q 2.5 277.5 0 265.5 L 0 38.5 Q 4.4 18.9 18.5 9 Q 26.4 2.4 38.5 0 Z " /><path fill="rgb(144,175,180)" stroke="rgb(144,175,180)" stroke-width="1" opacity="1" d="M 65 72 L 151 72 L 151 104 L 65 104 L 65 72 Z " /><path fill="rgb(144,175,180)" stroke="rgb(144,175,180)" stroke-width="1" opacity="1" d="M 239 72 L 241 72.5 L 241 104 L 239 103.5 L 239 72 Z " /><path fill="rgb(144,175,180)" stroke="rgb(144,175,180)" stroke-width="1" opacity="1" d="M 65 136 L 151 136 L 151 168 L 65 168 L 65 136 Z " /><path fill="rgb(144,175,180)" stroke="rgb(144,175,180)" stroke-width="1" opacity="1" d="M 239 136 L 241 136.5 L 241 168 L 239 167.5 L 239 136 Z " /><path fill="rgb(144,175,180)" stroke="rgb(144,175,180)" stroke-width="1" opacity="1" d="M 65 200 L 151 200 L 151 232 L 65 232 L 65 200 Z " /><path fill="rgb(144,175,180)" stroke="rgb(144,175,180)" stroke-width="1" opacity="1" d="M 191 200 L 193 200.5 L 193 232 L 191 231.5 L 191 200 Z " /><path fill="rgb(144,175,180)" stroke="rgb(144,175,180)" stroke-width="1" opacity="1" d="M 223.5 220 L 220.5 224 L 223.5 220 Z " /><path fill="rgb(28,214,239)" stroke="rgb(28,214,239)" stroke-width="1" opacity="0.9764705882352941" d="M 336 32 L 433.5 32 Q 453.1 36.4 463 50.5 Q 469.6 58.4 472 70.5 L 472.5 120 L 484.5 108 L 508 131.5 L 455.5 183 L 404 131.5 L 427.5 108 L 440 119.5 L 440 80.5 L 437 71.5 L 432.5 67 L 423.5 64 L 336 64 L 336 32 Z " /><path fill="rgb(28,214,239)" stroke="rgb(28,214,239)" stroke-width="1" opacity="0.9764705882352941" d="M 55.5 329 L 108 380.5 L 84.5 404 L 72 392.5 L 72 431.5 L 75 440.5 L 79.5 445 L 88.5 448 L 176 448 L 176 479.5 L 175.5 480 L 78.5 480 Q 58.9 475.6 49 461.5 Q 42.5 453.5 40 441.5 L 39.5 392 L 27.5 404 L 4 380.5 L 55.5 329 Z " /><path fill="rgb(246,98,69)" stroke="rgb(246,98,69)" stroke-width="1" opacity="0.996078431372549" d="M 250.5 208 L 360 208 L 360 287.5 L 360.5 288 L 375.5 288 L 376 288.5 L 376 433 L 360.5 433 L 360 433.5 L 360 512 L 252.5 512 L 234.5 507 L 219 494.5 L 213 485.5 L 208 467.5 L 208 250.5 Q 211.6 228.6 226.5 218 L 238.5 211 L 250.5 208 Z " /><path fill="rgb(246,98,69)" stroke="rgb(246,98,69)" stroke-width="1" opacity="0.996078431372549" d="M 408 312 L 439.5 312 L 440 312.5 L 440 409 L 408.5 409 L 408 408.5 L 408 312 Z " /><path fill="rgb(244,56,56)" stroke="rgb(244,56,56)" stroke-width="1" opacity="0.6509803921568628" d="M 470.5 208 L 474 208.5 L 470.5 209 L 470.5 208 Z " /><path fill="rgb(244,56,56)" stroke="rgb(244,56,56)" stroke-width="1" opacity="0.6509803921568628" d="M 475.5 209 L 478 209.5 L 475.5 210 L 475.5 209 Z " /><path fill="rgb(244,56,56)" stroke="rgb(244,56,56)" stroke-width="1" opacity="0.6509803921568628" d="M 484.5 212 L 489 214.5 L 487.5 214 Q 483.7 213.7 484.5 212 Z " /><path fill="rgb(244,56,56)" stroke="rgb(244,56,56)" stroke-width="1" opacity="0.6509803921568628" d="M 490.5 215 L 503 226.5 L 508 235.5 L 507 235.5 Q 502.5 224.5 493.5 218 L 490.5 215 Z " /><path fill="rgb(244,56,56)" stroke="rgb(244,56,56)" stroke-width="1" opacity="0.6509803921568628" d="M 510.5 242 L 511 244.5 L 510 244.5 L 510.5 242 Z " /><path fill="rgb(244,56,56)" stroke="rgb(244,56,56)" stroke-width="1" opacity="0.6509803921568628" d="M 511.5 246 L 512 249.5 L 511 249.5 L 511.5 246 Z " /><path fill="rgb(244,56,56)" stroke="rgb(244,56,56)" stroke-width="1" opacity="0.6509803921568628" d="M 208.5 468 Q 211 490.5 225.5 501 Q 235.1 509.9 252 511.5 L 246.5 512 Q 226.9 507.6 217 493.5 L 210 480.5 L 208 473.5 L 208.5 468 Z " /><path fill="rgb(244,56,56)" stroke="rgb(244,56,56)" stroke-width="1" opacity="0.6509803921568628" d="M 511.5 470 L 512 473.5 L 511 473.5 L 511.5 470 Z " /><path fill="rgb(244,56,56)" stroke="rgb(244,56,56)" stroke-width="1" opacity="0.6509803921568628" d="M 510.5 475 L 511 477.5 L 510 477.5 L 510.5 475 Z " /><path fill="rgb(244,56,56)" stroke="rgb(244,56,56)" stroke-width="1" opacity="0.6509803921568628" d="M 507.5 484 L 508 485.5 Q 502.6 496.1 493.5 503 L 490.5 505 L 492.5 502 L 502 493.5 L 507.5 484 Z " /><path fill="rgb(244,56,56)" stroke="rgb(244,56,56)" stroke-width="1" opacity="0.6509803921568628" d="M 488.5 505 L 487.5 507 L 484.5 508 L 484.5 507 L 488.5 505 Z " /><path fill="rgb(244,56,56)" stroke="rgb(244,56,56)" stroke-width="1" opacity="0.6509803921568628" d="M 475.5 510 L 478 510.5 L 475.5 511 L 475.5 510 Z " /><path fill="rgb(244,56,56)" stroke="rgb(244,56,56)" stroke-width="1" opacity="0.6509803921568628" d="M 470.5 511 L 474 511.5 L 470.5 512 L 470.5 511 Z " /><path fill="rgb(242,51,51)" stroke="rgb(242,51,51)" stroke-width="1" opacity="1" d="M 360 208 L 469.5 208 Q 491.4 211.6 502 226.5 L 509 238.5 L 512 250.5 L 512 469.5 Q 508.2 491.2 493.5 502 L 481.5 509 L 469.5 512 L 360 512 L 360 433.5 L 360.5 433 L 375.5 433 L 376 432.5 L 376 288 L 360.5 288 L 360 287.5 L 360 208 Z M 408 312 L 408 409 L 409 409 L 440 409 L 440 313 L 440 312 L 408 312 Z " /></svg>