<svg width="512" height="512" version="1.1" xmlns="http://www.w3.org/2000/svg" desc="Created with imagetracer.js version 1.2.6" ><path fill="rgb(0,0,0)" stroke="rgb(0,0,0)" stroke-width="1" opacity="0" d="M 0 0 L 512 0 L 512 300.5 L 511 300.5 L 511 293.5 L 510 292.5 L 510 285.5 L 509 284.5 L 509 277.5 L 508 276.5 L 508 269.5 L 505 252.5 L 505 244.5 L 504 243.5 L 504 236.5 L 503 235.5 L 503 228.5 L 502 227.5 L 502 220.5 L 501 219.5 L 501 212.5 L 500 211.5 L 500 204.5 L 497 187.5 L 497 179.5 L 496 178.5 L 496 171.5 L 495 170.5 L 495 163.5 L 494 162.5 L 494 155.5 L 493 154.5 L 493 147.5 L 492 146.5 L 492 139.5 L 491 138.5 L 491 131.5 L 488 114.5 L 488 107.5 L 483.5 102 L 478.5 101 L 477.5 102 L 469.5 102 L 468.5 103 L 461.5 103 L 460.5 104 L 453.5 104 L 452.5 105 L 416.5 109 Q 406.5 112.5 401 120.5 L 397 129.5 L 397 144 L 380.5 146 L 329.5 117 L 326.5 116 L 309.5 116 L 298.5 118 L 288.5 118 L 287.5 119 L 277.5 119 L 276.5 120 L 266.5 120 L 265.5 121 L 238.5 123 Q 228.5 126 222.5 133 L 177.5 120 L 168.5 120 Q 160.2 121.7 156 127.5 L 143 153 L 118.5 152 L 114 151 L 115 145.5 L 115 129.5 Q 111.9 118.6 103.5 113 L 90.5 108 L 83.5 108 L 82.5 107 L 75.5 107 L 74.5 106 L 67.5 106 L 66.5 105 L 59.5 105 L 58.5 104 L 31.5 101 L 25 105.5 L 0.5 301 L 0 0 Z " /><path fill="rgb(0,0,0)" stroke="rgb(0,0,0)" stroke-width="1" opacity="0" d="M 388.5 296 L 415.5 296 L 416 299.5 L 421 313.5 L 427.5 320 Q 435.3 327.2 452.5 325 L 453.5 324 L 460.5 324 L 461.5 323 L 468.5 323 L 469.5 322 L 476.5 322 L 493.5 319 L 501.5 319 L 506.5 318 L 511.5 314 L 512 512 L 0 512 L 0 314.5 L 3.5 317 L 10.5 319 L 18.5 319 L 19.5 320 L 26.5 320 L 27.5 321 L 34.5 321 L 35.5 322 L 42.5 322 L 59.5 325 L 73.5 325 Q 85.1 322.1 91 313.5 L 95.5 304 L 119.5 305 L 124 306 L 118 315.5 L 116 324.5 L 119 334.5 L 124.5 340 Q 129.3 344.2 139.5 343 L 147 340 L 146 349.5 Q 147.7 357.8 153.5 362 Q 158.2 365.8 166.5 366 L 171.5 365 L 176.5 362 L 177 363.5 L 176 364.5 L 176 373.5 L 182.5 384 Q 187.5 389.5 199.5 388 L 206.5 384 L 207 385.5 L 206 386.5 L 206 396.5 Q 208.1 404.4 214.5 408 L 222.5 411 L 227.5 411 L 241.5 404 L 242.5 405 L 251.5 405 Q 259.3 402.8 264 397.5 L 276 382 L 286.5 386 L 295.5 386 L 302.5 383 L 313 372.5 L 320.5 363 L 329.5 367 L 339.5 367 Q 350.6 363.7 356 354.5 L 364.5 344 Q 370.1 350.4 384.5 348 Q 393.9 344.4 399 336.5 Q 403.5 332 402 321.5 Q 399.4 314.1 393.5 310 L 383 301.5 L 386.5 297 L 388.5 296 Z " /><path fill="rgb(236,85,117)" stroke="rgb(236,85,117)" stroke-width="1" opacity="0.9882352941176471" d="M 31.5 101 L 95.5 109 Q 105.5 112.5 111 120.5 Q 117.5 128.5 115 145.5 L 112 157.5 L 112 165.5 L 111 166.5 L 111 173.5 L 110 174.5 L 110 181.5 L 109 182.5 L 109 189.5 L 108 190.5 L 108 197.5 L 107 198.5 L 107 205.5 L 104 222.5 L 104 230.5 L 103 231.5 L 98 278.5 Q 95.8 279.7 97 284.5 L 91.5 291 Q 83.7 299.7 65.5 298 L 64.5 297 L 57.5 297 L 40.5 294 L 8.5 291 L 2 286.5 L 4 276.5 L 4 269.5 L 5 268.5 L 5 261.5 L 6 260.5 L 6 253.5 L 7 252.5 L 7 245.5 L 8 244.5 L 8 236.5 L 9 235.5 L 14 188.5 L 15 187.5 L 15 180.5 L 16 179.5 L 16 171.5 L 17 170.5 L 23 115.5 L 24 114.5 L 24 107.5 L 28.5 102 L 31.5 101 Z M 46 262 L 39 265 L 33 273 Q 31 282 35 286 Q 38 291 46 292 L 55 290 Q 60 287 62 280 Q 63 273 60 270 Q 56 262 46 262 Z " /><path fill="rgb(236,85,117)" stroke="rgb(236,85,117)" stroke-width="1" opacity="0.9882352941176471" d="M 96.5 287 L 97 289.5 L 96 289.5 L 96.5 287 Z " /><path fill="rgb(236,85,117)" stroke="rgb(236,85,117)" stroke-width="1" opacity="0.9882352941176471" d="M 95.5 295 L 96 297.5 L 95 297.5 L 95.5 295 Z " /><path fill="rgb(236,85,117)" stroke="rgb(236,85,117)" stroke-width="1" opacity="0.9882352941176471" d="M 263.5 397 L 262.5 399 L 263.5 397 Z " /><path fill="rgb(216,133,75)" stroke="rgb(216,133,75)" stroke-width="1" opacity="0.9058823529411765" d="M 408.5 264 L 413 264 L 413 271.5 L 414 272.5 L 416 296 L 388.5 296 L 381.5 301 L 361 282.5 L 379.5 268 L 407.5 265 L 408.5 264 Z " /><path fill="rgb(240,159,93)" stroke="rgb(240,159,93)" stroke-width="1" opacity="0.9921568627450981" d="M 310.5 116 Q 322 114.5 329.5 117 L 380.5 146 L 383.5 146 L 384.5 145 L 396.5 144 L 398 145.5 Q 396.7 150.3 399 151.5 L 399 158.5 L 400 159.5 L 400 166.5 L 401 167.5 L 402 183.5 L 403 184.5 L 403 191.5 L 404 192.5 L 404 199.5 L 405 200.5 L 405 207.5 L 406 208.5 L 412 264 L 379.5 268 L 361 282.5 L 364.5 287 L 298.5 229 L 295.5 227 L 288.5 227 L 277.5 224 L 265.5 218 L 252 208 L 250.5 205 L 231 230.5 L 221.5 240 L 206.5 248 L 192.5 249 L 191.5 250 L 176.5 247 L 168 240.5 Q 165.3 238.2 166 232.5 L 217 142.5 L 226.5 129 L 235.5 124 L 245.5 122 L 255.5 122 L 256.5 121 L 309.5 117 L 310.5 116 Z " /><path fill="rgb(240,159,93)" stroke="rgb(240,159,93)" stroke-width="1" opacity="0.9921568627450981" d="M 112.5 157 L 113 159.5 L 112 159.5 L 112.5 157 Z " /><path fill="rgb(240,159,93)" stroke="rgb(240,159,93)" stroke-width="1" opacity="0.9921568627450981" d="M 104.5 222 L 105 224.5 L 104 224.5 L 104.5 222 Z " /><path fill="rgb(240,159,93)" stroke="rgb(240,159,93)" stroke-width="1" opacity="0.9921568627450981" d="M 368.5 289 L 371.5 293 L 368.5 289 Z " /><path fill="rgb(240,159,93)" stroke="rgb(240,159,93)" stroke-width="1" opacity="0.9921568627450981" d="M 375.5 295 L 378.5 299 L 375.5 295 Z " /><path fill="rgb(240,159,93)" stroke="rgb(240,159,93)" stroke-width="1" opacity="0.9921568627450981" d="M 136.5 298 L 145.5 298 L 156 304.5 Q 160.7 309.3 160 319.5 L 159 322.5 L 166.5 316 Q 171.2 312.2 181.5 314 L 190 319 L 194 326.5 L 195 334.5 L 194 338.5 L 200.5 333 Q 205.1 330.1 213.5 331 Q 221.2 332.9 225 338.5 Q 229.7 343.3 228 354.5 L 227 357.5 L 230.5 355 L 234.5 353 L 241.5 352 Q 251.5 353.5 256 360.5 L 259 367.5 L 259 372.5 L 260.5 374 L 270.5 375 L 278.5 372 L 290 360.5 L 297 351.5 L 290 344.5 L 290 338.5 L 294.5 334 L 299.5 334 L 322.5 353 L 333 344.5 L 342 333.5 L 331 323.5 Q 329.5 314.5 335.5 313 L 342.5 314 L 366.5 334 Q 375.9 330.4 381 322.5 Q 385.2 318.2 385 309.5 L 382 301.5 L 385.5 304 L 397 313.5 L 399 316.5 Q 403.5 320 402 329.5 L 400 334.5 L 390.5 345 Q 385 350 372.5 348 L 364.5 344 L 346.5 364 Q 341 368.5 329.5 367 L 320.5 363 L 303.5 382 Q 298.5 387.5 286.5 386 L 276.5 382 L 258.5 402 Q 253.3 406.4 242.5 405 L 239.5 404 Q 234.9 411.4 222.5 411 Q 213.3 409.3 209 402.5 Q 204.3 397.7 206 386.5 L 207 384.5 L 204.5 386 Q 199.8 389.3 190.5 388 L 180 381.5 Q 174.7 376.8 176 365.5 L 177 362.5 L 175.5 363 L 171.5 365 L 164.5 366 L 156.5 364 L 150 358.5 Q 145.3 353.7 146 343.5 L 147 340 Q 142.3 344.1 131.5 343 Q 123.2 340.9 119 334.5 L 117 330.5 L 116 322.5 Q 119.9 308.4 130.5 301 L 136.5 298 Z " /><path fill="rgb(87,152,234)" stroke="rgb(87,152,234)" stroke-width="1" opacity="0.9882352941176471" d="M 478.5 101 Q 484.9 101.1 487 105.5 L 489 115.5 L 489 122.5 L 490 123.5 L 490 130.5 L 491 131.5 L 491 138.5 L 492 139.5 L 492 146.5 L 493 147.5 L 493 154.5 L 494 155.5 L 494 162.5 L 495 163.5 L 495 170.5 L 496 171.5 L 496 178.5 L 497 179.5 L 497 187.5 L 498 188.5 L 498 195.5 L 499 196.5 L 499 203.5 L 500 204.5 L 500 211.5 L 501 212.5 L 501 219.5 L 502 220.5 L 502 227.5 L 505 244.5 L 505 252.5 L 506 253.5 L 511 300.5 L 512 301.5 L 512 313.5 L 508.5 317 L 501.5 319 L 493.5 319 L 492.5 320 L 485.5 320 L 484.5 321 L 477.5 321 L 476.5 322 L 469.5 322 L 452.5 325 L 438.5 325 Q 426.9 322.1 421 313.5 L 416 299.5 L 413 263.5 L 412 262.5 L 412 255.5 L 411 254.5 L 411 247.5 L 410 246.5 L 410 239.5 L 409 238.5 L 409 231.5 L 408 230.5 L 408 223.5 L 405 206.5 L 405 198.5 L 404 197.5 L 399 150.5 L 397 143.5 L 397 129.5 Q 400.1 118.6 408.5 113 L 421.5 108 L 428.5 108 L 429.5 107 L 436.5 107 L 437.5 106 L 444.5 106 L 445.5 105 L 452.5 105 L 469.5 102 L 477.5 102 L 478.5 101 Z M 460 263 L 456 265 L 450 273 Q 448 282 452 286 L 460 291 Q 469 293 473 289 L 478 282 Q 480 273 476 269 Q 472 261 460 263 Z " /><path fill="rgb(248,195,152)" stroke="rgb(248,195,152)" stroke-width="1" opacity="0.996078431372549" d="M 168.5 120 L 177.5 120 L 214.5 131 L 221.5 132 L 223 133.5 L 170 223.5 L 166 232.5 L 166 236.5 L 172.5 245 L 183.5 249 Q 189.7 247.2 191.5 250 L 192.5 249 L 201.5 249 L 211.5 246 Q 223.4 240.4 231 230.5 L 250.5 205 L 252 208 L 265.5 218 L 277.5 224 L 288.5 227 L 295.5 227 L 298.5 229 L 382 301.5 Q 385.2 305.8 385 313.5 Q 381.6 325.1 372.5 331 L 365.5 334 L 342.5 314 L 335.5 313 Q 329.5 314.5 331 323.5 L 342 333.5 L 326.5 351 L 321.5 353 L 301.5 335 L 294.5 334 Q 288.5 335.5 290 344.5 L 297 351.5 L 296 352.5 L 278.5 372 L 270.5 375 L 264.5 375 L 259 372.5 Q 259.1 360.4 251.5 356 Q 247.2 352.3 239.5 352 L 230.5 355 L 226.5 359 L 227 357.5 Q 229.3 352.8 228 344.5 Q 225.8 337.8 220.5 334 Q 216 329.9 206.5 331 Q 197.3 332.8 193.5 340 L 194 338.5 L 195 330.5 L 190 319 L 181.5 314 L 170.5 314 Q 162.7 317.2 158.5 324 L 159 322.5 L 160 313.5 Q 158.5 306 153.5 302 Q 148.5 296.5 136.5 298 Q 128.8 300.8 124.5 307 L 119.5 305 L 95 304 L 99 265.5 L 100 264.5 L 100 257.5 L 101 256.5 L 101 249.5 L 102 248.5 L 102 241.5 L 103 240.5 L 103 233.5 L 104 232.5 L 104 225.5 L 105 224.5 L 107 200.5 L 108 199.5 L 108 192.5 L 109 191.5 L 109 184.5 L 110 183.5 L 110 176.5 L 111 175.5 L 111 168.5 L 112 167.5 L 112 160.5 L 113 159.5 L 113 152.5 L 114.5 151 L 143 153 L 154 130.5 L 159.5 124 L 168.5 120 Z " /><path fill="rgb(248,195,152)" stroke="rgb(248,195,152)" stroke-width="1" opacity="0.996078431372549" d="M 45.5 262 Q 56.3 262.3 60 269.5 Q 62.7 272.8 62 279.5 Q 60.2 286.7 54.5 290 L 45.5 292 Q 38.1 290.9 35 285.5 Q 31.5 281.5 33 272.5 L 38.5 265 L 45.5 262 Z " /><path fill="rgb(248,195,152)" stroke="rgb(248,195,152)" stroke-width="1" opacity="0.996078431372549" d="M 459.5 263 Q 472.4 261.1 476 268.5 Q 479.5 272.5 478 281.5 L 472.5 289 Q 468.5 292.5 459.5 291 L 452 285.5 Q 448.5 281.5 450 272.5 L 455.5 265 L 459.5 263 Z " /><path fill="rgb(248,195,152)" stroke="rgb(248,195,152)" stroke-width="1" opacity="0.996078431372549" d="M 393.5 310 L 394.5 312 L 393.5 310 Z " /><path fill="rgb(248,195,152)" stroke="rgb(248,195,152)" stroke-width="1" opacity="0.996078431372549" d="M 397.5 337 L 396.5 339 L 397.5 337 Z " /><path fill="rgb(248,195,152)" stroke="rgb(248,195,152)" stroke-width="1" opacity="0.996078431372549" d="M 312.5 372 L 310.5 375 L 312.5 372 Z " /><path fill="rgb(248,195,152)" stroke="rgb(248,195,152)" stroke-width="1" opacity="0.996078431372549" d="M 269.5 390 L 267.5 393 L 269.5 390 Z " /><path fill="rgb(204,58,96)" stroke="rgb(204,58,96)" stroke-width="1" opacity="0.9803921568627451" d="M 96.5 285 L 97 286.5 L 94 303.5 L 94 305.5 Q 92 315.5 84.5 320 L 73.5 325 L 60.5 325 L 59.5 324 L 51.5 324 L 35.5 321 L 27.5 321 L 26.5 320 L 5.5 318 L 1 314.5 Q -1.7 310.7 0 302.5 L 1 301.5 L 2.5 287 L 8.5 291 L 40.5 294 L 41.5 295 L 48.5 295 L 65.5 298 L 77.5 298 Q 88 295.5 94 288.5 L 96.5 285 Z " /></svg>