<svg width="512" height="512" version="1.1" xmlns="http://www.w3.org/2000/svg" desc="Created with imagetracer.js version 1.2.6" ><path fill="rgb(109,169,251)" stroke="rgb(109,169,251)" stroke-width="1" opacity="0.984313725490196" d="M 108.5 69 L 109.5 71 L 108.5 69 Z " /><path fill="rgb(109,169,251)" stroke="rgb(109,169,251)" stroke-width="1" opacity="0.984313725490196" d="M 465.5 109 L 475.5 109 L 491 119.5 Q 494.6 121.4 494 127.5 L 493 127.5 Q 492.6 119.4 486.5 117 L 478 112 L 480 122.5 L 477 129.5 L 466.5 143 L 448 129.5 Q 452.8 118.3 461.5 111 L 465.5 109 Z " /><path fill="rgb(109,169,251)" stroke="rgb(109,169,251)" stroke-width="1" opacity="0.984313725490196" d="M 493.5 133 L 494 135.5 L 483 152.5 L 483.5 154 L 482 151.5 Q 490 144.5 493.5 133 Z " /><path fill="rgb(109,169,251)" stroke="rgb(109,169,251)" stroke-width="1" opacity="0.984313725490196" d="M 400.5 186 L 399.5 188 L 400.5 186 Z " /><path fill="rgb(109,169,251)" stroke="rgb(109,169,251)" stroke-width="1" opacity="0.984313725490196" d="M 388.5 203 L 387.5 205 L 388.5 203 Z " /><path fill="rgb(109,169,251)" stroke="rgb(109,169,251)" stroke-width="1" opacity="0.984313725490196" d="M 374 232 L 376.5 232 L 394 244 L 391 251.5 L 303.5 374 L 284 361.5 L 343 279.5 L 346 272.5 L 374 232 Z " /><path fill="rgb(109,169,251)" stroke="rgb(109,169,251)" stroke-width="1" opacity="0.984313725490196" d="M 408.5 256 L 409 257.5 L 345.5 347 L 345 345.5 L 408.5 256 Z " /><path fill="rgb(0,0,0)" stroke="rgb(0,0,0)" stroke-width="1" opacity="0" d="M 0 0 L 512 0 L 512 173.5 L 508.5 171 L 483 152.5 L 493 138.5 L 495 130.5 Q 492.7 129.3 494 124.5 L 489.5 118 L 475.5 109 L 465.5 109 L 456 116.5 L 449 128 L 442 126 L 438 133.5 L 375 221.5 L 371 229.5 L 374 231 L 374 233.5 L 345.5 274 L 345 59.5 L 341.5 54 L 338.5 52 L 262 52 L 262 37.5 L 259.5 33 L 257.5 32 L 201 32 Q 199.8 16.4 189.5 9 L 178.5 4 L 166.5 4 Q 154.9 6.9 149 15.5 L 145 23.5 L 144 32 L 86.5 32 L 84 34.5 L 83 36.5 L 83 52 L 6.5 52 L 1 56.5 L 0.5 58 L 0 0 Z " /><path fill="rgb(0,0,0)" stroke="rgb(0,0,0)" stroke-width="1" opacity="0" d="M 478.5 169 L 494 180.5 L 456 233.5 L 455 239.5 L 459.5 245 Q 467.8 246.3 470 241.5 L 511.5 182 L 512 512 L 0.5 512 L 0 511.5 L 0 502.5 L 2 503.5 Q 1.3 505.8 3.5 505 L 7.5 508 L 337.5 508 L 344 502.5 L 345 500.5 L 345 347.5 L 409.5 257 L 413.5 260 L 478.5 169 Z " /><path fill="rgb(167,122,57)" stroke="rgb(167,122,57)" stroke-width="1" opacity="0.996078431372549" d="M 302 52 L 338.5 52 L 344 57.5 L 345 59.5 L 345 275.5 L 318.5 313 L 318 79 L 302 79 L 302 52 Z " /><path fill="rgb(167,122,57)" stroke="rgb(167,122,57)" stroke-width="1" opacity="0.996078431372549" d="M 344.5 347 L 345 500.5 L 339.5 507 L 337.5 508 L 302 508 L 302 481 L 317.5 481 L 318 480.5 L 318 384.5 L 344.5 347 Z " /><path fill="rgb(227,241,249)" stroke="rgb(227,241,249)" stroke-width="1" opacity="0.9882352941176471" d="M 109.5 59 L 108.5 61 L 109.5 59 Z " /><path fill="rgb(227,241,249)" stroke="rgb(227,241,249)" stroke-width="1" opacity="0.9882352941176471" d="M 235.5 59 L 236.5 61 L 235.5 59 Z " /><path fill="rgb(227,241,249)" stroke="rgb(227,241,249)" stroke-width="1" opacity="0.9882352941176471" d="M 236.5 68 L 235.5 70 L 236.5 68 Z " /><path fill="rgb(227,241,249)" stroke="rgb(227,241,249)" stroke-width="1" opacity="0.9882352941176471" d="M 27.5 79 L 83 79.5 L 27.5 80 L 27.5 79 Z " /><path fill="rgb(227,241,249)" stroke="rgb(227,241,249)" stroke-width="1" opacity="0.9882352941176471" d="M 262.5 79 L 302 79.5 L 262.5 80 L 262.5 79 Z " /><path fill="rgb(227,241,249)" stroke="rgb(227,241,249)" stroke-width="1" opacity="0.9882352941176471" d="M 65.5 123 L 87 123.5 L 65.5 124 L 65.5 123 Z " /><path fill="rgb(227,241,249)" stroke="rgb(227,241,249)" stroke-width="1" opacity="0.9882352941176471" d="M 107.5 123 L 280 123.5 L 107.5 124 L 107.5 123 Z " /><path fill="rgb(227,241,249)" stroke="rgb(227,241,249)" stroke-width="1" opacity="0.9882352941176471" d="M 102.5 125 L 101.5 127 L 102.5 125 Z " /><path fill="rgb(227,241,249)" stroke="rgb(227,241,249)" stroke-width="1" opacity="0.9882352941176471" d="M 100.5 128 L 101 133.5 L 100 133.5 L 100.5 128 Z " /><path fill="rgb(227,241,249)" stroke="rgb(227,241,249)" stroke-width="1" opacity="0.9882352941176471" d="M 58.5 129 L 59 131.5 L 58 131.5 L 58.5 129 Z " /><path fill="rgb(227,241,249)" stroke="rgb(227,241,249)" stroke-width="1" opacity="0.9882352941176471" d="M 93.5 129 L 94 132.5 L 93 132.5 L 93.5 129 Z " /><path fill="rgb(227,241,249)" stroke="rgb(227,241,249)" stroke-width="1" opacity="0.9882352941176471" d="M 59.5 134 L 62.5 138 L 59.5 134 Z " /><path fill="rgb(227,241,249)" stroke="rgb(227,241,249)" stroke-width="1" opacity="0.9882352941176471" d="M 285.5 134 L 282.5 138 L 281 137.5 L 285.5 134 Z " /><path fill="rgb(227,241,249)" stroke="rgb(227,241,249)" stroke-width="1" opacity="0.9882352941176471" d="M 90.5 136 L 89.5 138 L 90.5 136 Z " /><path fill="rgb(227,241,249)" stroke="rgb(227,241,249)" stroke-width="1" opacity="0.9882352941176471" d="M 88.5 164 L 93 167.5 L 89.5 165 L 88.5 164 Z " /><path fill="rgb(227,241,249)" stroke="rgb(227,241,249)" stroke-width="1" opacity="0.9882352941176471" d="M 61.5 165 L 59.5 168 L 61.5 165 Z " /><path fill="rgb(227,241,249)" stroke="rgb(227,241,249)" stroke-width="1" opacity="0.9882352941176471" d="M 283.5 165 L 284.5 167 L 283.5 165 Z " /><path fill="rgb(227,241,249)" stroke="rgb(227,241,249)" stroke-width="1" opacity="0.9882352941176471" d="M 100.5 169 L 101 172.5 L 100 172.5 L 100.5 169 Z " /><path fill="rgb(227,241,249)" stroke="rgb(227,241,249)" stroke-width="1" opacity="0.9882352941176471" d="M 285.5 174 L 284.5 176 L 285.5 174 Z " /><path fill="rgb(227,241,249)" stroke="rgb(227,241,249)" stroke-width="1" opacity="0.9882352941176471" d="M 65.5 178 L 88 178.5 L 65.5 179 L 65.5 178 Z " /><path fill="rgb(227,241,249)" stroke="rgb(227,241,249)" stroke-width="1" opacity="0.9882352941176471" d="M 106.5 178 L 280 178.5 L 106.5 179 L 106.5 178 Z " /><path fill="rgb(227,241,249)" stroke="rgb(227,241,249)" stroke-width="1" opacity="0.9882352941176471" d="M 61.5 205 L 59.5 208 L 61.5 205 Z " /><path fill="rgb(227,241,249)" stroke="rgb(227,241,249)" stroke-width="1" opacity="0.9882352941176471" d="M 90.5 205 L 92.5 208 L 90.5 205 Z " /><path fill="rgb(227,241,249)" stroke="rgb(227,241,249)" stroke-width="1" opacity="0.9882352941176471" d="M 283.5 205 L 284.5 207 L 283.5 205 Z " /><path fill="rgb(227,241,249)" stroke="rgb(227,241,249)" stroke-width="1" opacity="0.9882352941176471" d="M 100.5 209 L 101 213.5 L 100 213.5 L 100.5 209 Z " /><path fill="rgb(227,241,249)" stroke="rgb(227,241,249)" stroke-width="1" opacity="0.9882352941176471" d="M 93.5 210 L 94 212.5 L 93 212.5 L 93.5 210 Z " /><path fill="rgb(227,241,249)" stroke="rgb(227,241,249)" stroke-width="1" opacity="0.9882352941176471" d="M 101.5 215 L 103.5 218 L 101.5 215 Z " /><path fill="rgb(227,241,249)" stroke="rgb(227,241,249)" stroke-width="1" opacity="0.9882352941176471" d="M 64.5 218 L 88 218.5 L 64.5 219 L 64.5 218 Z " /><path fill="rgb(227,241,249)" stroke="rgb(227,241,249)" stroke-width="1" opacity="0.9882352941176471" d="M 106.5 218 L 281 218.5 L 106.5 219 L 106.5 218 Z " /><path fill="rgb(227,241,249)" stroke="rgb(227,241,249)" stroke-width="1" opacity="0.9882352941176471" d="M 63.5 244 L 89 244.5 L 63.5 245 L 63.5 244 Z " /><path fill="rgb(227,241,249)" stroke="rgb(227,241,249)" stroke-width="1" opacity="0.9882352941176471" d="M 105.5 244 L 282 244.5 L 105.5 245 L 105.5 244 Z " /><path fill="rgb(227,241,249)" stroke="rgb(227,241,249)" stroke-width="1" opacity="0.9882352941176471" d="M 61.5 245 L 60.5 247 L 61.5 245 Z " /><path fill="rgb(227,241,249)" stroke="rgb(227,241,249)" stroke-width="1" opacity="0.9882352941176471" d="M 90.5 245 L 91.5 247 L 90.5 245 Z " /><path fill="rgb(227,241,249)" stroke="rgb(227,241,249)" stroke-width="1" opacity="0.9882352941176471" d="M 103.5 245 L 101.5 248 L 103.5 245 Z " /><path fill="rgb(227,241,249)" stroke="rgb(227,241,249)" stroke-width="1" opacity="0.9882352941176471" d="M 100.5 249 L 101 253.5 L 100 253.5 L 100.5 249 Z " /><path fill="rgb(227,241,249)" stroke="rgb(227,241,249)" stroke-width="1" opacity="0.9882352941176471" d="M 58.5 250 L 59 252.5 L 58 252.5 L 58.5 250 Z " /><path fill="rgb(227,241,249)" stroke="rgb(227,241,249)" stroke-width="1" opacity="0.9882352941176471" d="M 93.5 250 L 94 252.5 L 93 252.5 L 93.5 250 Z " /><path fill="rgb(227,241,249)" stroke="rgb(227,241,249)" stroke-width="1" opacity="0.9882352941176471" d="M 59.5 255 L 61.5 258 L 59.5 255 Z " /><path fill="rgb(227,241,249)" stroke="rgb(227,241,249)" stroke-width="1" opacity="0.9882352941176471" d="M 92.5 255 L 90.5 258 L 92.5 255 Z " /><path fill="rgb(227,241,249)" stroke="rgb(227,241,249)" stroke-width="1" opacity="0.9882352941176471" d="M 101.5 255 L 103.5 258 L 101.5 255 Z " /><path fill="rgb(227,241,249)" stroke="rgb(227,241,249)" stroke-width="1" opacity="0.9882352941176471" d="M 284.5 256 L 283.5 258 L 284.5 256 Z " /><path fill="rgb(227,241,249)" stroke="rgb(227,241,249)" stroke-width="1" opacity="0.9882352941176471" d="M 209.5 333 L 153.5 390 L 135 372.5 L 152.5 389 L 209.5 333 Z " /><path fill="rgb(227,241,249)" stroke="rgb(227,241,249)" stroke-width="1" opacity="0.9882352941176471" d="M 219.5 342 L 157.5 405 L 219.5 342 Z " /><path fill="rgb(227,241,249)" stroke="rgb(227,241,249)" stroke-width="1" opacity="0.9882352941176471" d="M 125.5 381 L 148.5 405 L 125.5 381 Z " /><path fill="rgb(190,137,62)" stroke="rgb(190,137,62)" stroke-width="1" opacity="0.9882352941176471" d="M 4.5 53 L 3.5 55 L 4.5 53 Z " /><path fill="rgb(190,137,62)" stroke="rgb(190,137,62)" stroke-width="1" opacity="0.9882352941176471" d="M 486 156 L 512 174.5 L 511 183.5 L 467.5 244 L 459.5 245 Q 455.1 242.9 455 236.5 L 494 180.5 L 478 168.5 L 486 156 Z " /><path fill="rgb(233,246,255)" stroke="rgb(233,246,255)" stroke-width="1" opacity="1" d="M 168.5 24 L 167.5 26 L 168.5 24 Z " /><path fill="rgb(233,246,255)" stroke="rgb(233,246,255)" stroke-width="1" opacity="1" d="M 108.5 68 L 109.5 70 L 108.5 68 Z " /><path fill="rgb(233,246,255)" stroke="rgb(233,246,255)" stroke-width="1" opacity="1" d="M 27.5 80 L 28 479.5 L 27 479.5 L 27.5 80 Z " /><path fill="rgb(233,246,255)" stroke="rgb(233,246,255)" stroke-width="1" opacity="1" d="M 301.5 80 L 302 335.5 L 301 335.5 L 301.5 80 Z " /><path fill="rgb(233,246,255)" stroke="rgb(233,246,255)" stroke-width="1" opacity="1" d="M 61.5 124 L 59.5 127 L 61.5 124 Z " /><path fill="rgb(233,246,255)" stroke="rgb(233,246,255)" stroke-width="1" opacity="1" d="M 90.5 124 L 92.5 127 L 90.5 124 Z " /><path fill="rgb(233,246,255)" stroke="rgb(233,246,255)" stroke-width="1" opacity="1" d="M 101.5 135 L 103.5 138 L 101.5 135 Z " /><path fill="rgb(233,246,255)" stroke="rgb(233,246,255)" stroke-width="1" opacity="1" d="M 65.5 138 L 87 138.5 L 65.5 139 L 65.5 138 Z " /><path fill="rgb(233,246,255)" stroke="rgb(233,246,255)" stroke-width="1" opacity="1" d="M 107.5 138 L 279 138.5 L 107.5 139 L 107.5 138 Z " /><path fill="rgb(233,246,255)" stroke="rgb(233,246,255)" stroke-width="1" opacity="1" d="M 92.5 175 L 90.5 178 L 92.5 175 Z " /><path fill="rgb(233,246,255)" stroke="rgb(233,246,255)" stroke-width="1" opacity="1" d="M 60.5 176 L 61.5 178 L 60.5 176 Z " /><path fill="rgb(233,246,255)" stroke="rgb(233,246,255)" stroke-width="1" opacity="1" d="M 286.5 210 L 287 212.5 L 286 212.5 L 286.5 210 Z " /><path fill="rgb(233,246,255)" stroke="rgb(233,246,255)" stroke-width="1" opacity="1" d="M 59.5 215 L 61.5 218 L 59.5 215 Z " /><path fill="rgb(233,246,255)" stroke="rgb(233,246,255)" stroke-width="1" opacity="1" d="M 301.5 395 L 302 479.5 L 301 479.5 L 301.5 395 Z " /><path fill="rgb(233,246,255)" stroke="rgb(233,246,255)" stroke-width="1" opacity="1" d="M 112.5 423 L 117.5 429 L 112.5 423 Z " /><path fill="rgb(233,246,255)" stroke="rgb(233,246,255)" stroke-width="1" opacity="1" d="M 231.5 424 L 228.5 428 L 231.5 424 Z " /><path fill="rgb(211,221,229)" stroke="rgb(211,221,229)" stroke-width="1" opacity="1" d="M 179.5 28 L 180 31.5 L 179 31.5 L 179.5 28 Z " /><path fill="rgb(211,221,229)" stroke="rgb(211,221,229)" stroke-width="1" opacity="1" d="M 112.5 57 L 233 57.5 L 112.5 58 L 112.5 57 Z " /><path fill="rgb(211,221,229)" stroke="rgb(211,221,229)" stroke-width="1" opacity="1" d="M 317.5 79 L 318 313.5 L 317 313.5 L 317.5 79 Z " /><path fill="rgb(211,221,229)" stroke="rgb(211,221,229)" stroke-width="1" opacity="1" d="M 251.5 95 L 256 95.5 L 251.5 96 L 251.5 95 Z " /><path fill="rgb(211,221,229)" stroke="rgb(211,221,229)" stroke-width="1" opacity="1" d="M 124.5 303 L 123.5 305 L 124.5 303 Z " /><path fill="rgb(211,221,229)" stroke="rgb(211,221,229)" stroke-width="1" opacity="1" d="M 224.5 306 L 227.5 310 L 224.5 306 Z " /><path fill="rgb(211,221,229)" stroke="rgb(211,221,229)" stroke-width="1" opacity="1" d="M 119.5 307 L 111.5 316 L 119.5 307 Z " /><path fill="rgb(211,221,229)" stroke="rgb(211,221,229)" stroke-width="1" opacity="1" d="M 231.5 313 L 234.5 317 L 231.5 313 Z " /><path fill="rgb(211,221,229)" stroke="rgb(211,221,229)" stroke-width="1" opacity="1" d="M 108.5 319 L 107.5 321 L 108.5 319 Z " /><path fill="rgb(211,221,229)" stroke="rgb(211,221,229)" stroke-width="1" opacity="1" d="M 219.5 332 L 220.5 334 L 219.5 332 Z " /><path fill="rgb(211,221,229)" stroke="rgb(211,221,229)" stroke-width="1" opacity="1" d="M 93.5 350 L 94 352.5 L 93 352.5 L 93.5 350 Z " /><path fill="rgb(211,221,229)" stroke="rgb(211,221,229)" stroke-width="1" opacity="1" d="M 92.5 356 L 93 358.5 L 92 358.5 L 92.5 356 Z " /><path fill="rgb(211,221,229)" stroke="rgb(211,221,229)" stroke-width="1" opacity="1" d="M 91.5 366 L 92 371.5 L 91 371.5 L 91.5 366 Z " /><path fill="rgb(211,221,229)" stroke="rgb(211,221,229)" stroke-width="1" opacity="1" d="M 128.5 369 L 132 369.5 L 128.5 370 L 128.5 369 Z " /><path fill="rgb(211,221,229)" stroke="rgb(211,221,229)" stroke-width="1" opacity="1" d="M 124.5 372 L 124 373.5 L 123.5 375 L 123 373.5 L 124.5 372 Z " /><path fill="rgb(211,221,229)" stroke="rgb(211,221,229)" stroke-width="1" opacity="1" d="M 92.5 379 L 93 381.5 L 92 381.5 L 92.5 379 Z " /><path fill="rgb(211,221,229)" stroke="rgb(211,221,229)" stroke-width="1" opacity="1" d="M 317.5 385 L 318 481 L 27 480.5 L 317 480 L 317.5 385 Z " /><path fill="rgb(211,221,229)" stroke="rgb(211,221,229)" stroke-width="1" opacity="1" d="M 151.5 406 L 155 406.5 L 151.5 407 L 151.5 406 Z " /><path fill="rgb(211,221,229)" stroke="rgb(211,221,229)" stroke-width="1" opacity="1" d="M 104.5 412 L 105.5 414 L 104.5 412 Z " /><path fill="rgb(211,221,229)" stroke="rgb(211,221,229)" stroke-width="1" opacity="1" d="M 106.5 415 L 107.5 417 L 106.5 415 Z " /><path fill="rgb(211,221,229)" stroke="rgb(211,221,229)" stroke-width="1" opacity="1" d="M 235.5 419 L 234.5 421 L 235.5 419 Z " /><path fill="rgb(211,221,229)" stroke="rgb(211,221,229)" stroke-width="1" opacity="1" d="M 110.5 420 L 113.5 424 L 110.5 420 Z " /><path fill="rgb(211,221,229)" stroke="rgb(211,221,229)" stroke-width="1" opacity="1" d="M 118.5 428 L 120.5 431 L 118.5 428 Z " /><path fill="rgb(211,221,229)" stroke="rgb(211,221,229)" stroke-width="1" opacity="1" d="M 224.5 430 L 223.5 432 L 224.5 430 Z " /><path fill="rgb(211,221,229)" stroke="rgb(211,221,229)" stroke-width="1" opacity="1" d="M 124.5 433 L 125.5 435 L 124.5 433 Z " /><path fill="rgb(211,221,229)" stroke="rgb(211,221,229)" stroke-width="1" opacity="1" d="M 127.5 435 L 128.5 437 L 127.5 435 Z " /><path fill="rgb(211,221,229)" stroke="rgb(211,221,229)" stroke-width="1" opacity="1" d="M 159.5 448 L 162 448.5 L 159.5 449 L 159.5 448 Z " /><path fill="rgb(211,221,229)" stroke="rgb(211,221,229)" stroke-width="1" opacity="1" d="M 167.5 449 L 178 449.5 L 167.5 450 L 167.5 449 Z " /><path fill="rgb(211,221,230)" stroke="rgb(211,221,230)" stroke-width="1" opacity="1" d="M 165.5 28 L 166 30.5 L 165 30.5 L 165.5 28 Z " /><path fill="rgb(211,221,230)" stroke="rgb(211,221,230)" stroke-width="1" opacity="1" d="M 177.5 34 L 176.5 36 L 177.5 34 Z " /><path fill="rgb(211,221,230)" stroke="rgb(211,221,230)" stroke-width="1" opacity="1" d="M 113.5 71 L 232 71.5 L 113.5 72 L 113.5 71 Z " /><path fill="rgb(211,221,230)" stroke="rgb(211,221,230)" stroke-width="1" opacity="1" d="M 83.5 79 L 84 89.5 L 83 89.5 L 83.5 79 Z " /><path fill="rgb(211,221,230)" stroke="rgb(211,221,230)" stroke-width="1" opacity="1" d="M 261.5 79 L 262 88.5 L 261 88.5 L 261.5 79 Z " /><path fill="rgb(211,221,230)" stroke="rgb(211,221,230)" stroke-width="1" opacity="1" d="M 302 79 L 316.5 79 L 317 79.5 L 317 313.5 L 318 314.5 L 315 317.5 L 301.5 337 L 302 335.5 L 302 79 Z " /><path fill="rgb(211,221,230)" stroke="rgb(211,221,230)" stroke-width="1" opacity="1" d="M 89.5 95 L 251 95.5 L 89.5 96 L 89.5 95 Z " /><path fill="rgb(211,221,230)" stroke="rgb(211,221,230)" stroke-width="1" opacity="1" d="M 63.5 124 L 88.5 124 L 92 126.5 L 93 133.5 L 92 136 L 88.5 138 L 63.5 138 L 59 133.5 L 59 128.5 L 61.5 125 L 63.5 124 Z " /><path fill="rgb(211,221,230)" stroke="rgb(211,221,230)" stroke-width="1" opacity="1" d="M 105.5 124 L 281.5 124 L 285 126.5 L 286 133.5 L 280.5 138 L 105.5 138 L 101 134.5 Q 99.2 126.7 103.5 125 L 105.5 124 Z " /><path fill="rgb(211,221,230)" stroke="rgb(211,221,230)" stroke-width="1" opacity="1" d="M 64.5 164 L 87.5 164 L 93 168.5 Q 94 175 90.5 177 L 88.5 178 L 63.5 178 L 60 175.5 L 59 168.5 L 64.5 164 Z " /><path fill="rgb(211,221,230)" stroke="rgb(211,221,230)" stroke-width="1" opacity="1" d="M 105.5 164 L 280.5 164 L 285 167.5 L 286 173.5 L 284 177 L 281.5 178 L 105.5 178 L 101 174.5 Q 99.8 167.3 103.5 165 L 105.5 164 Z " /><path fill="rgb(211,221,230)" stroke="rgb(211,221,230)" stroke-width="1" opacity="1" d="M 64.5 204 L 87.5 204 L 93 208.5 Q 94.1 216.1 89.5 218 L 63.5 218 L 60 215.5 L 59 208.5 L 64.5 204 Z " /><path fill="rgb(211,221,230)" stroke="rgb(211,221,230)" stroke-width="1" opacity="1" d="M 106.5 204 L 280.5 204 L 285 207.5 L 286 213.5 L 283.5 217 L 281.5 218 L 104.5 218 Q 99.5 216.5 101 208.5 L 102 206 L 106.5 204 Z " /><path fill="rgb(211,221,230)" stroke="rgb(211,221,230)" stroke-width="1" opacity="1" d="M 62.5 245 L 89.5 245 L 93 248.5 Q 94.5 256.5 89.5 258 L 86.5 259 L 65.5 259 L 59 254.5 Q 57.5 246.5 62.5 245 Z " /><path fill="rgb(211,221,230)" stroke="rgb(211,221,230)" stroke-width="1" opacity="1" d="M 104.5 245 L 282.5 245 L 285 247.5 L 286 253.5 L 282.5 258 L 279.5 259 L 107.5 259 L 101 254.5 Q 99.5 246.5 104.5 245 Z " /><path fill="rgb(211,221,230)" stroke="rgb(211,221,230)" stroke-width="1" opacity="1" d="M 295.5 345 L 294.5 347 L 295.5 345 Z " /><path fill="rgb(211,221,230)" stroke="rgb(211,221,230)" stroke-width="1" opacity="1" d="M 316.5 386 L 317 480 L 302.5 480 L 302 479.5 L 302 394.5 L 316.5 386 Z " /><path fill="rgb(97,141,199)" stroke="rgb(97,141,199)" stroke-width="1" opacity="0.984313725490196" d="M 166.5 4 Q 187.5 2.5 195 14.5 L 199 21.5 L 201 32 L 257.5 32 L 261 34.5 Q 263.8 40.8 262 51.5 L 261 52.5 L 261 91.5 L 257.5 95 L 88.5 95 L 85 92.5 L 84 90.5 L 83 36.5 L 86.5 32 L 143.5 32 L 144 28.5 Q 146.3 15.3 155.5 9 L 166.5 4 Z M 173 22 L 168 24 L 165 28 Q 164 35 170 37 L 177 36 L 180 32 L 178 24 L 173 22 Z M 113 57 L 111 58 L 106 65 L 108 70 L 112 72 L 234 72 Q 240 71 238 62 L 233 57 L 113 57 Z " /><path fill="rgb(97,141,199)" stroke="rgb(97,141,199)" stroke-width="1" opacity="0.984313725490196" d="M 477.5 111 L 492 122.5 L 494 132.5 L 491 139.5 L 482 152.5 L 486 155.5 L 486 157.5 L 474 175.5 L 414.5 259 L 408.5 256 L 316.5 386 L 316.5 384 L 303.5 375 L 301.5 375 L 280.5 387 L 280 385.5 L 284 362 L 303.5 374 L 391 251.5 L 394 244 L 371 229.5 L 371 227.5 L 380 214.5 L 443.5 126 L 448 128 L 449.5 131 L 466.5 143 L 477 129.5 L 480 122.5 L 480 118.5 L 477.5 111 Z " /><path fill="rgb(97,141,199)" stroke="rgb(97,141,199)" stroke-width="1" opacity="0.984313725490196" d="M 330.5 296 L 329.5 298 L 330.5 296 Z " /><path fill="rgb(97,141,199)" stroke="rgb(97,141,199)" stroke-width="1" opacity="0.984313725490196" d="M 314.5 386 L 313.5 388 L 311.5 389 L 312.5 387 L 314.5 386 Z " /><path fill="rgb(97,141,199)" stroke="rgb(97,141,199)" stroke-width="1" opacity="0.984313725490196" d="M 279.5 390 L 280 392.5 L 279 392.5 L 279.5 390 Z " /><path fill="rgb(97,141,199)" stroke="rgb(97,141,199)" stroke-width="1" opacity="0.984313725490196" d="M 303.5 392 L 302.5 394 L 303.5 392 Z " /><path fill="rgb(97,141,199)" stroke="rgb(97,141,199)" stroke-width="1" opacity="0.984313725490196" d="M 278.5 396 L 279 398.5 L 278 398.5 L 278.5 396 Z " /><path fill="rgb(97,141,199)" stroke="rgb(97,141,199)" stroke-width="1" opacity="0.984313725490196" d="M 294.5 397 L 293.5 399 L 291.5 400 L 292.5 398 L 294.5 397 Z " /><path fill="rgb(97,141,199)" stroke="rgb(97,141,199)" stroke-width="1" opacity="0.984313725490196" d="M 277.5 402 L 279 406.5 L 277 405.5 L 277.5 402 Z " /><path fill="rgb(97,141,199)" stroke="rgb(97,141,199)" stroke-width="1" opacity="0.984313725490196" d="M 283.5 403 L 282.5 405 L 283.5 403 Z " /><path fill="rgb(186,135,63)" stroke="rgb(186,135,63)" stroke-width="1" opacity="1" d="M 7.5 52 L 84 52 L 84 79 L 27.5 79 L 27 79.5 L 27 481 L 301.5 481 L 302 481.5 L 302 508 L 8.5 508 L 4 506 Q 5.1 503.3 2.5 504 L 0 499.5 L 0 59.5 L 2 55 L 7.5 52 Z " /><path fill="rgb(186,135,63)" stroke="rgb(186,135,63)" stroke-width="1" opacity="1" d="M 261 52 L 302 52 L 302 79 L 261 79 L 261 52 Z " /><path fill="rgb(186,135,63)" stroke="rgb(186,135,63)" stroke-width="1" opacity="1" d="M 341.5 54 L 342.5 56 L 341.5 54 Z " /><path fill="rgb(234,246,255)" stroke="rgb(234,246,255)" stroke-width="1" opacity="1" d="M 171.5 23 Q 177.1 23.5 179 27.5 Q 179.9 34.4 175.5 36 Q 167.5 37.5 166 32.5 Q 164.8 25.3 169.5 24 L 171.5 23 Z " /><path fill="rgb(234,246,255)" stroke="rgb(234,246,255)" stroke-width="1" opacity="1" d="M 111.5 58 L 232.5 58 L 237 61.5 L 238 65.5 L 233.5 71 L 111.5 71 L 108 67.5 L 107 63.5 L 111.5 58 Z " /><path fill="rgb(234,246,255)" stroke="rgb(234,246,255)" stroke-width="1" opacity="1" d="M 28 80 L 82.5 80 L 83 80.5 L 83 90.5 L 86.5 95 L 88.5 96 L 256.5 96 L 261 92.5 L 262 80 L 300.5 80 L 301 80.5 L 301 336.5 L 284 360.5 L 277 400.5 L 277 406.5 L 276 407.5 L 277.5 408 L 300.5 395 L 301 480 L 28 480 L 28 80 Z M 65 123 L 62 124 L 58 130 L 60 137 L 66 139 L 87 139 L 90 138 L 94 133 L 93 127 L 88 123 L 65 123 Z M 107 123 L 104 124 L 100 129 L 101 136 L 104 138 L 108 139 L 279 139 L 283 138 L 287 132 L 286 128 L 281 123 L 107 123 Z M 63 164 L 58 170 L 60 177 L 65 179 L 88 179 L 91 178 L 94 173 L 93 168 L 90 164 L 63 164 Z M 105 164 L 102 165 L 100 169 L 101 176 L 106 179 L 281 179 L 285 177 L 287 172 L 286 168 L 283 164 L 105 164 Z M 63 204 L 58 211 L 59 216 L 64 219 L 89 219 L 91 218 L 94 213 L 93 208 L 90 204 L 63 204 Z M 105 204 L 100 210 L 101 216 L 106 219 L 282 219 L 285 217 L 287 213 L 286 208 L 283 204 L 105 204 Z M 64 244 L 62 245 L 58 250 L 59 256 L 64 259 L 90 259 L 94 254 L 93 248 L 89 244 L 64 244 Z M 106 244 L 100 249 Q 99 258 105 259 L 282 259 L 284 258 L 287 253 L 286 248 L 282 244 L 106 244 Z M 171 287 L 170 288 L 155 289 L 142 293 L 123 304 Q 110 314 102 328 L 93 350 L 92 362 L 91 363 L 92 383 L 96 398 Q 102 413 112 424 Q 122 435 137 442 L 150 447 L 167 450 L 187 449 L 202 445 Q 217 439 229 428 Q 241 416 248 400 L 252 387 L 253 374 L 254 373 L 253 356 L 251 347 Q 246 329 236 318 Q 224 302 206 294 L 186 288 L 174 288 L 171 287 Z " /><path fill="rgb(234,246,255)" stroke="rgb(234,246,255)" stroke-width="1" opacity="1" d="M 213.5 331 L 216.5 331 L 220 333 Q 221.6 335.1 221 340.5 L 155.5 406 L 150.5 406 L 124 379.5 L 123 376.5 L 126.5 371 L 131.5 370 L 153.5 390 L 213.5 331 Z " /><path fill="rgb(68,187,98)" stroke="rgb(68,187,98)" stroke-width="1" opacity="1" d="M 163.5 288 L 182.5 288 L 199.5 292 L 212.5 298 L 230 311 L 243 328.5 L 249 341.5 L 253 358.5 L 253 378.5 Q 247.2 412.2 225.5 430 Q 212.5 441.5 193.5 447 L 184.5 449 L 162.5 449 Q 131.3 443.7 114 424.5 Q 104.2 414.3 98 400.5 L 93 384.5 L 92 359.5 L 94 348.5 L 100 332.5 Q 108.5 316 122.5 305 L 141.5 294 L 163.5 288 Z M 212 331 L 154 389 L 132 369 L 127 370 Q 122 372 123 380 L 152 407 L 157 406 L 222 340 L 221 334 Q 219 330 212 331 Z " /><path fill="rgb(68,187,98)" stroke="rgb(68,187,98)" stroke-width="1" opacity="1" d="M 301.5 375 L 303.5 375 L 317 384.5 L 277.5 407 L 278 405.5 L 280 387.5 L 281.5 386 L 301.5 375 Z " /></svg>