<svg width="512" height="512" version="1.1" xmlns="http://www.w3.org/2000/svg" desc="Created with imagetracer.js version 1.2.6" ><path fill="rgb(254,208,100)" stroke="rgb(254,208,100)" stroke-width="1" opacity="0.9882352941176471" d="M 382.5 0 L 405 0.5 Q 389.3 3.3 381 13.5 Q 373.2 21.7 371 35.5 L 371 101.5 L 372 102.5 L 372 237 L 369.5 238 L 359.5 238 L 342.5 241 L 321.5 248 Q 292.4 260.4 273 282.5 L 271.5 285 L 244.5 285 L 244 283.5 Q 255.4 266.9 270.5 254 L 299.5 234 Q 314.4 225.4 333.5 221 L 343 213.5 L 347 204.5 L 347 34.5 Q 350.3 17.8 361.5 9 Q 369.6 2.1 382.5 0 Z " /><path fill="rgb(254,208,100)" stroke="rgb(254,208,100)" stroke-width="1" opacity="0.9882352941176471" d="M 233 301 L 259 301.5 Q 243 323.8 239 357 L 217.5 357 Q 216.3 356.8 217 350.5 L 221 331.5 L 233 301 Z " /><path fill="rgb(254,208,100)" stroke="rgb(254,208,100)" stroke-width="1" opacity="0.9882352941176471" d="M 65.5 357 L 216 357.5 L 65.5 358 L 65.5 357 Z " /><path fill="rgb(0,0,0)" stroke="rgb(0,0,0)" stroke-width="1" opacity="0" d="M 0 0 L 89 0.5 Q 77.1 3.1 71 11.5 Q 65.6 18.1 64 28.5 L 64 357 L 2.5 357 L 0.5 359 L 0 0 Z " /><path fill="rgb(0,0,0)" stroke="rgb(0,0,0)" stroke-width="1" opacity="0" d="M 421.5 0 L 511.5 0 L 512 0.5 L 512 357.5 L 511 357.5 L 511 351.5 L 507 334.5 L 496 308.5 Q 483.2 285.3 463.5 269 Q 446.8 254.7 424.5 246 L 399.5 239 L 372 237 L 372 102 L 447.5 102 L 452 98.5 L 453 95.5 L 453 37.5 L 451 27.5 L 448 20.5 L 438.5 9 L 426.5 2 L 421.5 1 L 421.5 0 Z " /><path fill="rgb(0,0,0)" stroke="rgb(0,0,0)" stroke-width="1" opacity="0" d="M 0.5 383 Q 5.2 406.3 21.5 418 L 37.5 427 L 50.5 430 L 249 430 Q 261.3 459.4 284.5 479 Q 301.1 493.9 323.5 503 L 346.5 510 L 359 511.5 L 0 512 L 0.5 383 Z " /><path fill="rgb(0,0,0)" stroke="rgb(0,0,0)" stroke-width="1" opacity="0" d="M 511.5 391 L 512 512 L 391 511.5 L 411.5 508 Q 429.7 502.7 444.5 494 Q 464.4 482.4 479 465.5 Q 493.7 448.7 503 426.5 L 510 403.5 L 511.5 391 Z " /><path fill="rgb(254,223,124)" stroke="rgb(254,223,124)" stroke-width="1" opacity="0.996078431372549" d="M 89.5 0 L 92 0.5 L 89.5 1 L 89.5 0 Z " /><path fill="rgb(254,223,124)" stroke="rgb(254,223,124)" stroke-width="1" opacity="0.996078431372549" d="M 379.5 0 L 382 0.5 L 379.5 1 L 379.5 0 Z " /><path fill="rgb(254,223,124)" stroke="rgb(254,223,124)" stroke-width="1" opacity="0.996078431372549" d="M 86.5 1 L 85.5 3 L 86.5 1 Z " /><path fill="rgb(254,223,124)" stroke="rgb(254,223,124)" stroke-width="1" opacity="0.996078431372549" d="M 366.5 5 L 365.5 7 L 366.5 5 Z " /><path fill="rgb(254,223,124)" stroke="rgb(254,223,124)" stroke-width="1" opacity="0.996078431372549" d="M 363.5 7 L 362.5 9 L 363.5 7 Z " /><path fill="rgb(254,223,124)" stroke="rgb(254,223,124)" stroke-width="1" opacity="0.996078431372549" d="M 73.5 9 L 75 9.5 L 72.5 11 L 73.5 9 Z " /><path fill="rgb(254,223,124)" stroke="rgb(254,223,124)" stroke-width="1" opacity="0.996078431372549" d="M 359.5 10 L 357.5 13 L 359.5 10 Z " /><path fill="rgb(254,223,124)" stroke="rgb(254,223,124)" stroke-width="1" opacity="0.996078431372549" d="M 355.5 15 L 353.5 18 L 355.5 15 Z " /><path fill="rgb(254,223,124)" stroke="rgb(254,223,124)" stroke-width="1" opacity="0.996078431372549" d="M 65.5 23 L 66 25.5 L 65 25.5 L 65.5 23 Z " /><path fill="rgb(254,223,124)" stroke="rgb(254,223,124)" stroke-width="1" opacity="0.996078431372549" d="M 64.5 28 L 65 30.5 L 64 30.5 L 64.5 28 Z " /><path fill="rgb(254,223,124)" stroke="rgb(254,223,124)" stroke-width="1" opacity="0.996078431372549" d="M 347.5 31 L 348 33.5 L 347 33.5 L 347.5 31 Z " /><path fill="rgb(254,223,124)" stroke="rgb(254,223,124)" stroke-width="1" opacity="0.996078431372549" d="M 64.5 33 L 65 356.5 L 64 356.5 L 64.5 33 Z " /><path fill="rgb(254,223,124)" stroke="rgb(254,223,124)" stroke-width="1" opacity="0.996078431372549" d="M 346.5 38 L 347 204.5 L 346 204.5 L 346.5 38 Z " /><path fill="rgb(254,223,124)" stroke="rgb(254,223,124)" stroke-width="1" opacity="0.996078431372549" d="M 113.5 67 L 114.5 69 L 113.5 67 Z " /><path fill="rgb(254,223,124)" stroke="rgb(254,223,124)" stroke-width="1" opacity="0.996078431372549" d="M 328.5 67 L 327.5 69 L 328.5 67 Z " /><path fill="rgb(254,223,124)" stroke="rgb(254,223,124)" stroke-width="1" opacity="0.996078431372549" d="M 113.5 144 L 114.5 146 L 113.5 144 Z " /><path fill="rgb(254,223,124)" stroke="rgb(254,223,124)" stroke-width="1" opacity="0.996078431372549" d="M 328.5 144 L 327.5 146 L 328.5 144 Z " /><path fill="rgb(254,223,124)" stroke="rgb(254,223,124)" stroke-width="1" opacity="0.996078431372549" d="M 344.5 209 L 345 210.5 L 343 211.5 L 344.5 209 Z " /><path fill="rgb(254,223,124)" stroke="rgb(254,223,124)" stroke-width="1" opacity="0.996078431372549" d="M 342.5 213 L 337.5 219 L 342.5 213 Z " /><path fill="rgb(254,223,124)" stroke="rgb(254,223,124)" stroke-width="1" opacity="0.996078431372549" d="M 329.5 220 L 330.5 222 L 328 221.5 L 329.5 220 Z " /><path fill="rgb(254,223,124)" stroke="rgb(254,223,124)" stroke-width="1" opacity="0.996078431372549" d="M 113.5 221 L 114.5 223 L 113.5 221 Z " /><path fill="rgb(254,223,124)" stroke="rgb(254,223,124)" stroke-width="1" opacity="0.996078431372549" d="M 298.5 234 L 297.5 236 L 295.5 237 L 296.5 235 L 298.5 234 Z " /><path fill="rgb(254,223,124)" stroke="rgb(254,223,124)" stroke-width="1" opacity="0.996078431372549" d="M 291.5 238 L 290.5 240 L 291.5 238 Z " /><path fill="rgb(254,223,124)" stroke="rgb(254,223,124)" stroke-width="1" opacity="0.996078431372549" d="M 288.5 240 L 287.5 242 L 288.5 240 Z " /><path fill="rgb(254,223,124)" stroke="rgb(254,223,124)" stroke-width="1" opacity="0.996078431372549" d="M 285.5 242 L 284.5 244 L 285.5 242 Z " /><path fill="rgb(254,223,124)" stroke="rgb(254,223,124)" stroke-width="1" opacity="0.996078431372549" d="M 282.5 244 L 281.5 246 L 282.5 244 Z " /><path fill="rgb(254,223,124)" stroke="rgb(254,223,124)" stroke-width="1" opacity="0.996078431372549" d="M 279.5 246 L 277.5 249 L 279.5 246 Z " /><path fill="rgb(254,223,124)" stroke="rgb(254,223,124)" stroke-width="1" opacity="0.996078431372549" d="M 274.5 250 L 271.5 254 L 274.5 250 Z " /><path fill="rgb(254,223,124)" stroke="rgb(254,223,124)" stroke-width="1" opacity="0.996078431372549" d="M 268.5 255 L 255.5 269 L 268.5 255 Z " /><path fill="rgb(254,223,124)" stroke="rgb(254,223,124)" stroke-width="1" opacity="0.996078431372549" d="M 253.5 271 L 250.5 275 L 253.5 271 Z " /><path fill="rgb(254,223,124)" stroke="rgb(254,223,124)" stroke-width="1" opacity="0.996078431372549" d="M 248.5 277 L 246.5 280 L 248.5 277 Z " /><path fill="rgb(254,223,124)" stroke="rgb(254,223,124)" stroke-width="1" opacity="0.996078431372549" d="M 245.5 281 L 244.5 283 L 245.5 281 Z " /><path fill="rgb(254,223,124)" stroke="rgb(254,223,124)" stroke-width="1" opacity="0.996078431372549" d="M 113.5 298 L 114.5 300 L 113.5 298 Z " /><path fill="rgb(254,223,124)" stroke="rgb(254,223,124)" stroke-width="1" opacity="0.996078431372549" d="M 218.5 341 L 219 343.5 L 218 343.5 L 218.5 341 Z " /><path fill="rgb(254,223,124)" stroke="rgb(254,223,124)" stroke-width="1" opacity="0.996078431372549" d="M 217.5 347 L 218 349.5 L 217 349.5 L 217.5 347 Z " /><path fill="rgb(254,223,124)" stroke="rgb(254,223,124)" stroke-width="1" opacity="0.996078431372549" d="M 216.5 353 L 217 356.5 L 216 356.5 L 216.5 353 Z " /><path fill="rgb(255,224,125)" stroke="rgb(255,224,125)" stroke-width="1" opacity="1" d="M 92.5 0 L 379 0.5 Q 365 3.5 357 12.5 L 348 27.5 L 346 38.5 L 346 206.5 Q 343.1 214.6 336.5 219 L 329.5 222 L 330 220.5 L 331 215.5 L 326.5 209 L 324.5 208 L 117.5 208 L 112 212.5 L 111 216.5 L 114.5 223 L 116.5 224 L 320 224.5 Q 280.3 239.3 255 268.5 L 242.5 285 L 117.5 285 L 112 289.5 L 111 293.5 L 114.5 300 L 116.5 301 L 233 301.5 Q 219.3 324.5 216 357 L 65 357 L 65 33.5 L 64 31.5 L 67 18.5 L 73.5 10 L 75 9.5 L 74.5 8 L 77 8 L 77 6 Q 80.7 7.5 80 4.5 L 84.5 2 Q 86 4.5 87.5 1 L 92.5 0 Z M 117 54 L 112 59 L 111 63 L 113 68 L 117 70 L 326 70 L 328 69 L 331 63 L 329 56 L 326 54 L 117 54 Z M 117 131 L 112 136 L 111 140 L 113 145 L 117 147 L 326 147 L 328 146 L 331 140 L 329 133 L 326 131 L 117 131 Z " /><path fill="rgb(218,239,242)" stroke="rgb(218,239,242)" stroke-width="1" opacity="1" d="M 371.5 272 L 395.5 274 L 414.5 280 Q 439.2 290.8 455 310.5 Q 467.7 325.8 474 347.5 L 477 362.5 L 477 387.5 L 474 402.5 L 466 422.5 Q 456.3 440.3 441.5 453 Q 426.7 466.2 405.5 473 L 386.5 477 L 363.5 477 L 363.5 476 Q 403.5 468 425 441.5 L 429 435 L 435 430.5 L 435 426.5 L 439 420.5 L 445 405.5 L 448 393.5 L 448 387.5 L 450.5 382 L 452.5 382 L 457 377.5 Q 458.1 369.9 453.5 368 L 449 367 L 446 347.5 L 432.5 316 L 425 314.5 L 429 313.5 L 411.5 295 Q 400.5 286 386.5 280 L 378.5 277 L 361 273.5 L 370.5 273 L 371.5 272 Z " /><path fill="rgb(218,239,242)" stroke="rgb(218,239,242)" stroke-width="1" opacity="1" d="M 314.5 292 L 313.5 294 L 314.5 292 Z " /><path fill="rgb(218,239,242)" stroke="rgb(218,239,242)" stroke-width="1" opacity="1" d="M 373.5 292 L 376 292.5 L 373.5 293 L 373.5 292 Z " /><path fill="rgb(218,239,242)" stroke="rgb(218,239,242)" stroke-width="1" opacity="1" d="M 369.5 294 L 368.5 296 L 369.5 294 Z " /><path fill="rgb(218,239,242)" stroke="rgb(218,239,242)" stroke-width="1" opacity="1" d="M 310.5 295 L 307.5 299 L 310.5 295 Z " /><path fill="rgb(218,239,242)" stroke="rgb(218,239,242)" stroke-width="1" opacity="1" d="M 298.5 307 L 295.5 311 L 298.5 307 Z " /><path fill="rgb(218,239,242)" stroke="rgb(218,239,242)" stroke-width="1" opacity="1" d="M 381.5 308 L 379.5 311 L 381.5 308 Z " /><path fill="rgb(218,239,242)" stroke="rgb(218,239,242)" stroke-width="1" opacity="1" d="M 293.5 313 L 292.5 315 L 293.5 313 Z " /><path fill="rgb(218,239,242)" stroke="rgb(218,239,242)" stroke-width="1" opacity="1" d="M 320.5 314 L 325 314.5 L 320.5 315 L 320.5 314 Z " /><path fill="rgb(218,239,242)" stroke="rgb(218,239,242)" stroke-width="1" opacity="1" d="M 326.5 315 L 327.5 317 L 326.5 315 Z " /><path fill="rgb(218,239,242)" stroke="rgb(218,239,242)" stroke-width="1" opacity="1" d="M 330.5 319 L 331.5 321 L 330.5 319 Z " /><path fill="rgb(218,239,242)" stroke="rgb(218,239,242)" stroke-width="1" opacity="1" d="M 314.5 320 L 315 323.5 L 314 323.5 L 314.5 320 Z " /><path fill="rgb(218,239,242)" stroke="rgb(218,239,242)" stroke-width="1" opacity="1" d="M 418.5 320 L 418 321.5 L 417.5 323 L 417 321.5 L 418.5 320 Z " /><path fill="rgb(218,239,242)" stroke="rgb(218,239,242)" stroke-width="1" opacity="1" d="M 315.5 326 L 320.5 332 L 315.5 326 Z " /><path fill="rgb(218,239,242)" stroke="rgb(218,239,242)" stroke-width="1" opacity="1" d="M 379.5 327 L 381.5 330 L 379.5 327 Z " /><path fill="rgb(218,239,242)" stroke="rgb(218,239,242)" stroke-width="1" opacity="1" d="M 433.5 327 L 429.5 332 L 433.5 327 Z " /><path fill="rgb(218,239,242)" stroke="rgb(218,239,242)" stroke-width="1" opacity="1" d="M 331.5 329 L 329.5 332 L 331.5 329 Z " /><path fill="rgb(218,239,242)" stroke="rgb(218,239,242)" stroke-width="1" opacity="1" d="M 418.5 329 L 420.5 332 L 418.5 329 Z " /><path fill="rgb(218,239,242)" stroke="rgb(218,239,242)" stroke-width="1" opacity="1" d="M 322.5 332 L 327 332.5 L 322.5 333 L 322.5 332 Z " /><path fill="rgb(218,239,242)" stroke="rgb(218,239,242)" stroke-width="1" opacity="1" d="M 422.5 332 L 428 332.5 L 422.5 333 L 422.5 332 Z " /><path fill="rgb(218,239,242)" stroke="rgb(218,239,242)" stroke-width="1" opacity="1" d="M 273.5 362 L 274 365.5 L 273 365.5 L 273.5 362 Z " /><path fill="rgb(218,239,242)" stroke="rgb(218,239,242)" stroke-width="1" opacity="1" d="M 399.5 367 L 400.5 369 L 399.5 367 Z " /><path fill="rgb(218,239,242)" stroke="rgb(218,239,242)" stroke-width="1" opacity="1" d="M 295.5 368 L 294.5 370 L 295.5 368 Z " /><path fill="rgb(218,239,242)" stroke="rgb(218,239,242)" stroke-width="1" opacity="1" d="M 438.5 378 L 439.5 380 L 438.5 378 Z " /><path fill="rgb(218,239,242)" stroke="rgb(218,239,242)" stroke-width="1" opacity="1" d="M 310.5 379 L 308.5 382 L 310.5 379 Z " /><path fill="rgb(218,239,242)" stroke="rgb(218,239,242)" stroke-width="1" opacity="1" d="M 368.5 379 L 370.5 382 L 368.5 379 Z " /><path fill="rgb(218,239,242)" stroke="rgb(218,239,242)" stroke-width="1" opacity="1" d="M 402.5 379 L 400.5 382 L 402.5 379 Z " /><path fill="rgb(218,239,242)" stroke="rgb(218,239,242)" stroke-width="1" opacity="1" d="M 273.5 384 L 274 386.5 L 273 386.5 L 273.5 384 Z " /><path fill="rgb(218,239,242)" stroke="rgb(218,239,242)" stroke-width="1" opacity="1" d="M 321.5 417 L 323 417.5 L 320.5 419 L 321.5 417 Z " /><path fill="rgb(218,239,242)" stroke="rgb(218,239,242)" stroke-width="1" opacity="1" d="M 421.5 417 L 423 417.5 L 420.5 419 L 421.5 417 Z " /><path fill="rgb(218,239,242)" stroke="rgb(218,239,242)" stroke-width="1" opacity="1" d="M 329.5 418 L 331.5 421 L 329.5 418 Z " /><path fill="rgb(218,239,242)" stroke="rgb(218,239,242)" stroke-width="1" opacity="1" d="M 433.5 422 L 434.5 424 L 433.5 422 Z " /><path fill="rgb(218,239,242)" stroke="rgb(218,239,242)" stroke-width="1" opacity="1" d="M 314.5 425 L 315 428.5 L 314 428.5 L 314.5 425 Z " /><path fill="rgb(218,239,242)" stroke="rgb(218,239,242)" stroke-width="1" opacity="1" d="M 331.5 429 L 327.5 434 L 331.5 429 Z " /><path fill="rgb(218,239,242)" stroke="rgb(218,239,242)" stroke-width="1" opacity="1" d="M 418.5 429 L 422.5 434 L 418.5 429 Z " /><path fill="rgb(218,239,242)" stroke="rgb(218,239,242)" stroke-width="1" opacity="1" d="M 315.5 431 L 318.5 435 L 315.5 431 Z " /><path fill="rgb(218,239,242)" stroke="rgb(218,239,242)" stroke-width="1" opacity="1" d="M 293.5 436 L 294.5 438 L 293.5 436 Z " /><path fill="rgb(218,239,242)" stroke="rgb(218,239,242)" stroke-width="1" opacity="1" d="M 297.5 441 L 307.5 452 L 297.5 441 Z " /><path fill="rgb(218,239,242)" stroke="rgb(218,239,242)" stroke-width="1" opacity="1" d="M 367.5 451 L 369 453.5 L 367 452.5 L 367.5 451 Z " /><path fill="rgb(218,239,242)" stroke="rgb(218,239,242)" stroke-width="1" opacity="1" d="M 381.5 453 L 379.5 456 L 381.5 453 Z " /><path fill="rgb(218,239,242)" stroke="rgb(218,239,242)" stroke-width="1" opacity="1" d="M 311.5 454 L 313.5 457 L 311.5 454 Z " /><path fill="rgb(218,239,242)" stroke="rgb(218,239,242)" stroke-width="1" opacity="1" d="M 370.5 455 L 373 456.5 L 371.5 457 L 370.5 455 Z " /><path fill="rgb(218,239,242)" stroke="rgb(218,239,242)" stroke-width="1" opacity="1" d="M 315.5 457 L 316.5 459 L 315.5 457 Z " /><path fill="rgb(218,239,242)" stroke="rgb(218,239,242)" stroke-width="1" opacity="1" d="M 357.5 475 L 360 475.5 L 357.5 476 L 357.5 475 Z " /><path fill="rgb(243,250,254)" stroke="rgb(243,250,254)" stroke-width="1" opacity="1" d="M 364.5 274 L 367 274.5 L 364.5 275 L 364.5 274 Z " /><path fill="rgb(243,250,254)" stroke="rgb(243,250,254)" stroke-width="1" opacity="1" d="M 396.5 285 L 400 287.5 L 398.5 287 L 396.5 285 Z " /><path fill="rgb(243,250,254)" stroke="rgb(243,250,254)" stroke-width="1" opacity="1" d="M 401.5 288 L 402.5 290 L 401.5 288 Z " /><path fill="rgb(243,250,254)" stroke="rgb(243,250,254)" stroke-width="1" opacity="1" d="M 404.5 290 L 405.5 292 L 404.5 290 Z " /><path fill="rgb(243,250,254)" stroke="rgb(243,250,254)" stroke-width="1" opacity="1" d="M 407.5 292 L 409.5 295 L 407.5 292 Z " /><path fill="rgb(243,250,254)" stroke="rgb(243,250,254)" stroke-width="1" opacity="1" d="M 380.5 294 L 381.5 296 L 380.5 294 Z " /><path fill="rgb(243,250,254)" stroke="rgb(243,250,254)" stroke-width="1" opacity="1" d="M 411.5 295 L 416.5 301 L 411.5 295 Z " /><path fill="rgb(243,250,254)" stroke="rgb(243,250,254)" stroke-width="1" opacity="1" d="M 306.5 299 L 299.5 307 L 306.5 299 Z " /><path fill="rgb(243,250,254)" stroke="rgb(243,250,254)" stroke-width="1" opacity="1" d="M 421.5 305 L 426.5 311 L 421.5 305 Z " /><path fill="rgb(243,250,254)" stroke="rgb(243,250,254)" stroke-width="1" opacity="1" d="M 427.5 312 L 428.5 314 L 427.5 312 Z " /><path fill="rgb(243,250,254)" stroke="rgb(243,250,254)" stroke-width="1" opacity="1" d="M 317.5 315 L 315.5 318 L 317.5 315 Z " /><path fill="rgb(243,250,254)" stroke="rgb(243,250,254)" stroke-width="1" opacity="1" d="M 421.5 316 L 418.5 320 L 421.5 316 Z " /><path fill="rgb(243,250,254)" stroke="rgb(243,250,254)" stroke-width="1" opacity="1" d="M 435.5 324 L 436.5 326 L 435.5 324 Z " /><path fill="rgb(243,250,254)" stroke="rgb(243,250,254)" stroke-width="1" opacity="1" d="M 447.5 356 L 448 358.5 L 447 358.5 L 447.5 356 Z " /><path fill="rgb(243,250,254)" stroke="rgb(243,250,254)" stroke-width="1" opacity="1" d="M 448.5 362 L 449 366.5 L 448 366.5 L 448.5 362 Z " /><path fill="rgb(243,250,254)" stroke="rgb(243,250,254)" stroke-width="1" opacity="1" d="M 309.5 368 L 310.5 370 L 309.5 368 Z " /><path fill="rgb(243,250,254)" stroke="rgb(243,250,254)" stroke-width="1" opacity="1" d="M 440.5 368 L 439.5 370 L 440.5 368 Z " /><path fill="rgb(243,250,254)" stroke="rgb(243,250,254)" stroke-width="1" opacity="1" d="M 448.5 383 L 449 386.5 L 448 386.5 L 448.5 383 Z " /><path fill="rgb(243,250,254)" stroke="rgb(243,250,254)" stroke-width="1" opacity="1" d="M 447.5 391 L 448 393.5 L 447 393.5 L 447.5 391 Z " /><path fill="rgb(243,250,254)" stroke="rgb(243,250,254)" stroke-width="1" opacity="1" d="M 446.5 396 L 447 398.5 L 446 398.5 L 446.5 396 Z " /><path fill="rgb(243,250,254)" stroke="rgb(243,250,254)" stroke-width="1" opacity="1" d="M 319.5 418 L 316.5 422 L 319.5 418 Z " /><path fill="rgb(243,250,254)" stroke="rgb(243,250,254)" stroke-width="1" opacity="1" d="M 438.5 419 L 439 420.5 L 437 421.5 L 438.5 419 Z " /><path fill="rgb(243,250,254)" stroke="rgb(243,250,254)" stroke-width="1" opacity="1" d="M 428.5 435 L 429 436.5 L 425 439.5 L 428.5 435 Z " /><path fill="rgb(243,250,254)" stroke="rgb(243,250,254)" stroke-width="1" opacity="1" d="M 295.5 438 L 296.5 440 L 295.5 438 Z " /><path fill="rgb(243,250,254)" stroke="rgb(243,250,254)" stroke-width="1" opacity="1" d="M 380.5 439 L 381.5 441 L 380.5 439 Z " /><path fill="rgb(243,250,254)" stroke="rgb(243,250,254)" stroke-width="1" opacity="1" d="M 424.5 441 L 413.5 453 L 424.5 441 Z " /><path fill="rgb(243,250,254)" stroke="rgb(243,250,254)" stroke-width="1" opacity="1" d="M 411.5 453 L 408.5 457 L 411.5 453 Z " /><path fill="rgb(243,250,254)" stroke="rgb(243,250,254)" stroke-width="1" opacity="1" d="M 406.5 457 L 405.5 459 L 406.5 457 Z " /><path fill="rgb(243,250,254)" stroke="rgb(243,250,254)" stroke-width="1" opacity="1" d="M 403.5 459 L 402.5 461 L 403.5 459 Z " /><path fill="rgb(243,250,254)" stroke="rgb(243,250,254)" stroke-width="1" opacity="1" d="M 400.5 461 L 399.5 463 L 400.5 461 Z " /><path fill="rgb(243,250,254)" stroke="rgb(243,250,254)" stroke-width="1" opacity="1" d="M 362.5 475 L 365 475.5 L 362.5 476 L 362.5 475 Z " /><path fill="rgb(244,251,255)" stroke="rgb(244,251,255)" stroke-width="1" opacity="1" d="M 358.5 274 L 368.5 275 L 387.5 281 L 400.5 288 L 418 301 Q 416.9 303.7 419.5 303 L 428 313.5 Q 421.2 314.7 418 319.5 L 417 327.5 L 420.5 332 L 427.5 333 L 435 326.5 L 435.5 325 L 444 342.5 L 447 353.5 L 448 367 Q 441.5 365.8 439 369.5 L 437 374.5 L 438 378.5 L 441.5 382 L 448 383 Q 446.7 408.4 435.5 425 L 428.5 417 Q 418.8 415.3 417 421.5 L 417 428.5 L 423.5 435 L 428 436.5 L 412.5 453 Q 392.8 470.8 360.5 476 Q 319 468 297 440.5 Q 283.8 425.2 277 403.5 L 274 390.5 L 273 367.5 L 274 366.5 L 274 359.5 L 276 349.5 L 285 326.5 Q 295.4 307.9 311.5 295 Q 330 279.5 358.5 274 Z M 374 292 L 371 293 L 367 298 Q 364 309 372 312 Q 381 314 383 308 Q 385 299 382 296 Q 380 291 374 292 Z M 320 314 L 318 315 L 314 321 L 315 327 L 323 333 L 330 332 Q 334 330 333 322 L 327 315 L 320 314 Z M 372 326 L 367 331 L 367 379 L 373 383 L 399 383 L 401 382 Q 405 380 404 372 L 400 367 L 383 367 L 383 332 L 382 330 Q 380 325 372 326 Z M 298 367 L 296 368 L 292 374 L 294 381 L 298 383 Q 309 385 312 379 L 311 370 Q 308 365 298 367 Z M 322 417 L 320 418 L 314 426 L 315 432 L 322 436 L 327 435 L 333 428 L 332 421 Q 330 415 322 417 Z M 375 437 L 370 439 L 367 443 Q 365 453 369 456 L 372 457 Q 381 459 383 453 Q 385 444 382 441 L 375 437 Z " /><path fill="rgb(156,90,105)" stroke="rgb(156,90,105)" stroke-width="1" opacity="0.9921568627450981" d="M 118.5 54 L 323.5 54 L 329 57.5 L 330 64.5 L 326.5 69 L 324.5 70 L 117.5 70 L 113 66.5 L 112 59.5 L 114.5 56 L 118.5 54 Z " /><path fill="rgb(156,90,105)" stroke="rgb(156,90,105)" stroke-width="1" opacity="0.9921568627450981" d="M 118.5 131 L 323.5 131 L 329 134.5 L 330 141.5 L 326.5 146 L 324.5 147 L 117.5 147 L 113 143.5 L 112 136.5 L 114.5 133 L 118.5 131 Z " /><path fill="rgb(156,90,105)" stroke="rgb(156,90,105)" stroke-width="1" opacity="0.9921568627450981" d="M 118.5 208 L 323.5 208 L 329 211.5 L 330 218.5 L 326.5 223 L 324.5 224 L 117.5 224 L 113 220.5 L 112 213.5 L 114.5 210 L 118.5 208 Z " /><path fill="rgb(156,90,105)" stroke="rgb(156,90,105)" stroke-width="1" opacity="0.9921568627450981" d="M 372.5 237 L 399.5 239 L 429.5 248 Q 460.6 261.9 481 286.5 Q 498 306.5 507 334.5 L 512 359.5 L 512 390.5 L 508 411.5 Q 502.7 429.7 494 444.5 Q 482.6 463.6 466.5 478 Q 445.3 497.3 414.5 507 L 390.5 512 L 359.5 512 L 338.5 508 L 314.5 499 Q 288.8 486.2 271 465.5 Q 257.9 450.6 249 431.5 L 249 427.5 L 243 412.5 L 239 394.5 L 238 364.5 L 239 363.5 L 241 345.5 L 247 325.5 L 259 301 L 117.5 301 L 113 297.5 L 112 290.5 L 114 287 L 119.5 285 L 271.5 285 Q 291.7 261.2 322.5 248 L 349.5 240 L 364.5 239 L 372.5 237 Z M 368 272 L 367 273 L 354 274 L 335 280 Q 319 287 307 298 Q 291 312 281 333 L 275 350 L 273 360 L 273 368 L 272 369 L 273 391 L 279 413 L 287 429 L 302 448 L 319 461 L 336 470 L 362 477 L 389 477 L 400 475 Q 423 469 440 455 Q 459 439 470 415 L 475 400 L 477 390 L 477 379 L 478 378 L 476 355 L 471 338 Q 464 320 452 307 Q 437 290 416 280 L 405 276 L 391 273 L 368 272 Z " /><path fill="rgb(156,90,105)" stroke="rgb(156,90,105)" stroke-width="1" opacity="0.9921568627450981" d="M 372.5 293 Q 380.1 291.9 382 296.5 L 383 304.5 L 378.5 311 L 373.5 312 L 369 310 Q 366 306.8 367 298.5 L 370.5 294 L 372.5 293 Z " /><path fill="rgb(156,90,105)" stroke="rgb(156,90,105)" stroke-width="1" opacity="0.9921568627450981" d="M 319.5 315 L 325.5 315 L 330 318.5 L 333 325.5 L 328.5 332 L 321.5 332 L 315 325.5 Q 313.8 318.3 317.5 316 L 319.5 315 Z " /><path fill="rgb(156,90,105)" stroke="rgb(156,90,105)" stroke-width="1" opacity="0.9921568627450981" d="M 424.5 315 Q 431.8 313.8 434 317.5 L 435 324.5 L 428.5 332 Q 419.8 333.8 418 328.5 L 417 323.5 L 422.5 316 L 424.5 315 Z " /><path fill="rgb(156,90,105)" stroke="rgb(156,90,105)" stroke-width="1" opacity="0.9921568627450981" d="M 373.5 326 Q 379.9 326.1 382 330.5 L 383 332.5 L 383 367 L 398.5 367 L 402 369 L 404 376.5 L 399.5 382 L 396.5 383 L 374.5 383 L 368 378.5 L 367 376.5 L 367 332.5 L 369 328 L 373.5 326 Z " /><path fill="rgb(156,90,105)" stroke="rgb(156,90,105)" stroke-width="1" opacity="0.9921568627450981" d="M 298.5 367 Q 308.3 365.3 311 370.5 L 312 376.5 L 307.5 382 L 300.5 383 L 294 379.5 L 293 372.5 L 296.5 368 L 298.5 367 Z " /><path fill="rgb(156,90,105)" stroke="rgb(156,90,105)" stroke-width="1" opacity="0.9921568627450981" d="M 443.5 367 Q 453.3 365.3 456 370.5 L 457 377.5 Q 454.4 383.4 445.5 383 L 440 381 L 438 377.5 L 438 372.5 L 441.5 368 L 443.5 367 Z " /><path fill="rgb(156,90,105)" stroke="rgb(156,90,105)" stroke-width="1" opacity="0.9921568627450981" d="M 323.5 417 Q 329.9 417.1 332 421.5 L 333 425.5 Q 331.6 431.6 326.5 434 L 319.5 435 Q 313.5 433.5 315 424.5 L 319.5 419 L 323.5 417 Z " /><path fill="rgb(156,90,105)" stroke="rgb(156,90,105)" stroke-width="1" opacity="0.9921568627450981" d="M 423.5 417 L 426.5 417 L 433 421.5 Q 436.2 423.8 435 430.5 Q 433.5 436.5 424.5 435 L 418 428.5 L 417 423.5 L 419 419 L 423.5 417 Z " /><path fill="rgb(156,90,105)" stroke="rgb(156,90,105)" stroke-width="1" opacity="0.9921568627450981" d="M 372.5 438 Q 379 437 381 440.5 Q 384 443.5 383 450.5 L 378.5 456 L 373.5 457 L 369 455 Q 366 451.8 367 443.5 L 370.5 439 L 372.5 438 Z " /><path fill="rgb(232,172,75)" stroke="rgb(232,172,75)" stroke-width="1" opacity="0.9882352941176471" d="M 405.5 0 Q 418.6 -1.6 426.5 2 Q 436.6 5.9 443 13.5 L 449 22.5 L 453 38.5 L 453 95.5 L 449.5 101 L 447.5 102 L 371 102 L 371 35.5 Q 374.1 18.1 385.5 9 Q 393.1 2.1 405.5 0 Z " /><path fill="rgb(232,172,75)" stroke="rgb(232,172,75)" stroke-width="1" opacity="0.9882352941176471" d="M 359.5 238 L 365 238.5 L 359.5 239 L 359.5 238 Z " /><path fill="rgb(232,172,75)" stroke="rgb(232,172,75)" stroke-width="1" opacity="0.9882352941176471" d="M 352.5 239 L 355 239.5 L 352.5 240 L 352.5 239 Z " /><path fill="rgb(232,172,75)" stroke="rgb(232,172,75)" stroke-width="1" opacity="0.9882352941176471" d="M 342.5 241 L 345 241.5 L 342.5 242 L 342.5 241 Z " /><path fill="rgb(232,172,75)" stroke="rgb(232,172,75)" stroke-width="1" opacity="0.9882352941176471" d="M 305.5 256 L 304.5 258 L 305.5 256 Z " /><path fill="rgb(232,172,75)" stroke="rgb(232,172,75)" stroke-width="1" opacity="0.9882352941176471" d="M 297.5 261 L 295.5 264 L 297.5 261 Z " /><path fill="rgb(232,172,75)" stroke="rgb(232,172,75)" stroke-width="1" opacity="0.9882352941176471" d="M 293.5 264 L 292.5 266 L 293.5 264 Z " /><path fill="rgb(232,172,75)" stroke="rgb(232,172,75)" stroke-width="1" opacity="0.9882352941176471" d="M 289.5 267 L 286.5 271 L 289.5 267 Z " /><path fill="rgb(232,172,75)" stroke="rgb(232,172,75)" stroke-width="1" opacity="0.9882352941176471" d="M 283.5 272 L 273.5 283 L 283.5 272 Z " /><path fill="rgb(232,172,75)" stroke="rgb(232,172,75)" stroke-width="1" opacity="0.9882352941176471" d="M 367.5 272 L 371 272.5 L 367.5 273 L 367.5 272 Z " /><path fill="rgb(232,172,75)" stroke="rgb(232,172,75)" stroke-width="1" opacity="0.9882352941176471" d="M 380.5 272 L 383 272.5 L 380.5 273 L 380.5 272 Z " /><path fill="rgb(232,172,75)" stroke="rgb(232,172,75)" stroke-width="1" opacity="0.9882352941176471" d="M 324.5 285 L 323.5 287 L 324.5 285 Z " /><path fill="rgb(232,172,75)" stroke="rgb(232,172,75)" stroke-width="1" opacity="0.9882352941176471" d="M 319.5 288 L 318.5 290 L 319.5 288 Z " /><path fill="rgb(232,172,75)" stroke="rgb(232,172,75)" stroke-width="1" opacity="0.9882352941176471" d="M 316.5 290 L 315.5 292 L 316.5 290 Z " /><path fill="rgb(232,172,75)" stroke="rgb(232,172,75)" stroke-width="1" opacity="0.9882352941176471" d="M 433.5 290 L 434.5 292 L 433.5 290 Z " /><path fill="rgb(232,172,75)" stroke="rgb(232,172,75)" stroke-width="1" opacity="0.9882352941176471" d="M 312.5 293 L 311.5 295 L 312.5 293 Z " /><path fill="rgb(232,172,75)" stroke="rgb(232,172,75)" stroke-width="1" opacity="0.9882352941176471" d="M 437.5 293 L 438.5 295 L 437.5 293 Z " /><path fill="rgb(232,172,75)" stroke="rgb(232,172,75)" stroke-width="1" opacity="0.9882352941176471" d="M 306.5 298 L 298.5 307 L 306.5 298 Z " /><path fill="rgb(232,172,75)" stroke="rgb(232,172,75)" stroke-width="1" opacity="0.9882352941176471" d="M 443.5 298 L 451.5 307 L 443.5 298 Z " /><path fill="rgb(232,172,75)" stroke="rgb(232,172,75)" stroke-width="1" opacity="0.9882352941176471" d="M 257.5 304 L 256.5 306 L 257.5 304 Z " /><path fill="rgb(232,172,75)" stroke="rgb(232,172,75)" stroke-width="1" opacity="0.9882352941176471" d="M 294.5 311 L 293.5 313 L 294.5 311 Z " /><path fill="rgb(232,172,75)" stroke="rgb(232,172,75)" stroke-width="1" opacity="0.9882352941176471" d="M 455.5 311 L 456.5 313 L 455.5 311 Z " /><path fill="rgb(232,172,75)" stroke="rgb(232,172,75)" stroke-width="1" opacity="0.9882352941176471" d="M 289.5 318 L 288.5 320 L 289.5 318 Z " /><path fill="rgb(232,172,75)" stroke="rgb(232,172,75)" stroke-width="1" opacity="0.9882352941176471" d="M 286.5 323 L 285.5 325 L 286.5 323 Z " /><path fill="rgb(232,172,75)" stroke="rgb(232,172,75)" stroke-width="1" opacity="0.9882352941176471" d="M 241.5 342 L 242 344.5 L 241 344.5 L 241.5 342 Z " /><path fill="rgb(232,172,75)" stroke="rgb(232,172,75)" stroke-width="1" opacity="0.9882352941176471" d="M 240.5 347 L 241 349.5 L 240 349.5 L 240.5 347 Z " /><path fill="rgb(232,172,75)" stroke="rgb(232,172,75)" stroke-width="1" opacity="0.9882352941176471" d="M 239.5 352 L 240 355.5 L 239 355.5 L 239.5 352 Z " /><path fill="rgb(232,172,75)" stroke="rgb(232,172,75)" stroke-width="1" opacity="0.9882352941176471" d="M 2.5 357 L 215.5 358 L 216.5 357 L 239 357 L 239 363.5 L 238 364.5 L 238 384.5 L 239 385.5 L 239 394.5 L 241 404.5 L 249 430 L 50.5 430 Q 25 425.5 12 408.5 Q 3.2 398.3 0 382.5 L 0 359.5 L 2.5 357 Z " /><path fill="rgb(232,172,75)" stroke="rgb(232,172,75)" stroke-width="1" opacity="0.9882352941176471" d="M 273.5 359 L 274 361.5 L 273 361.5 L 273.5 359 Z " /><path fill="rgb(232,172,75)" stroke="rgb(232,172,75)" stroke-width="1" opacity="0.9882352941176471" d="M 272.5 368 L 273 380.5 L 272 380.5 L 272.5 368 Z " /><path fill="rgb(232,172,75)" stroke="rgb(232,172,75)" stroke-width="1" opacity="0.9882352941176471" d="M 477.5 371 L 478 377.5 L 477 377.5 L 477.5 371 Z " /><path fill="rgb(232,172,75)" stroke="rgb(232,172,75)" stroke-width="1" opacity="0.9882352941176471" d="M 273.5 387 L 274 390.5 L 273 390.5 L 273.5 387 Z " /><path fill="rgb(232,172,75)" stroke="rgb(232,172,75)" stroke-width="1" opacity="0.9882352941176471" d="M 287.5 428 L 288.5 430 L 287.5 428 Z " /><path fill="rgb(232,172,75)" stroke="rgb(232,172,75)" stroke-width="1" opacity="0.9882352941176471" d="M 289.5 431 L 290.5 433 L 289.5 431 Z " /><path fill="rgb(232,172,75)" stroke="rgb(232,172,75)" stroke-width="1" opacity="0.9882352941176471" d="M 291.5 434 L 292.5 436 L 291.5 434 Z " /><path fill="rgb(232,172,75)" stroke="rgb(232,172,75)" stroke-width="1" opacity="0.9882352941176471" d="M 294.5 438 L 296.5 441 L 294.5 438 Z " /><path fill="rgb(232,172,75)" stroke="rgb(232,172,75)" stroke-width="1" opacity="0.9882352941176471" d="M 454.5 439 L 453.5 441 L 454.5 439 Z " /><path fill="rgb(232,172,75)" stroke="rgb(232,172,75)" stroke-width="1" opacity="0.9882352941176471" d="M 308.5 452 L 310.5 455 L 308.5 452 Z " /><path fill="rgb(232,172,75)" stroke="rgb(232,172,75)" stroke-width="1" opacity="0.9882352941176471" d="M 440.5 453 L 439.5 455 L 440.5 453 Z " /><path fill="rgb(232,172,75)" stroke="rgb(232,172,75)" stroke-width="1" opacity="0.9882352941176471" d="M 317.5 459 L 318.5 461 L 317.5 459 Z " /><path fill="rgb(232,172,75)" stroke="rgb(232,172,75)" stroke-width="1" opacity="0.9882352941176471" d="M 432.5 459 L 431.5 461 L 432.5 459 Z " /></svg>