<svg width="512" height="512" version="1.1" xmlns="http://www.w3.org/2000/svg" desc="Created with imagetracer.js version 1.2.6" ><path fill="rgb(177,142,72)" stroke="rgb(177,142,72)" stroke-width="1" opacity="1" d="M 34.5 44 L 37 44.5 L 34.5 45 L 34.5 44 Z " /><path fill="rgb(177,142,72)" stroke="rgb(177,142,72)" stroke-width="1" opacity="1" d="M 121.5 44 L 127 44.5 L 121.5 45 L 121.5 44 Z " /><path fill="rgb(177,142,72)" stroke="rgb(177,142,72)" stroke-width="1" opacity="1" d="M 201.5 44 L 205 44.5 L 201.5 45 L 201.5 44 Z " /><path fill="rgb(177,142,72)" stroke="rgb(177,142,72)" stroke-width="1" opacity="1" d="M 263.5 44 L 267 44.5 L 263.5 45 L 263.5 44 Z " /><path fill="rgb(177,142,72)" stroke="rgb(177,142,72)" stroke-width="1" opacity="1" d="M 307.5 44 L 311 44.5 L 307.5 45 L 307.5 44 Z " /><path fill="rgb(177,142,72)" stroke="rgb(177,142,72)" stroke-width="1" opacity="1" d="M 197.5 46 L 196.5 48 L 197.5 46 Z " /><path fill="rgb(177,142,72)" stroke="rgb(177,142,72)" stroke-width="1" opacity="1" d="M 208.5 46 L 209.5 48 L 208.5 46 Z " /><path fill="rgb(177,142,72)" stroke="rgb(177,142,72)" stroke-width="1" opacity="1" d="M 270.5 46 L 271.5 48 L 270.5 46 Z " /><path fill="rgb(177,142,72)" stroke="rgb(177,142,72)" stroke-width="1" opacity="1" d="M 303.5 46 L 302.5 48 L 303.5 46 Z " /><path fill="rgb(177,142,72)" stroke="rgb(177,142,72)" stroke-width="1" opacity="1" d="M 314.5 46 L 315.5 48 L 314.5 46 Z " /><path fill="rgb(177,142,72)" stroke="rgb(177,142,72)" stroke-width="1" opacity="1" d="M 107.5 49 L 106.5 51 L 107.5 49 Z " /><path fill="rgb(177,142,72)" stroke="rgb(177,142,72)" stroke-width="1" opacity="1" d="M 300.5 51 L 301 98 L 299 97.5 L 300 96.5 L 300.5 51 Z " /><path fill="rgb(177,142,72)" stroke="rgb(177,142,72)" stroke-width="1" opacity="1" d="M 317.5 52 L 318 133.5 L 317 133.5 L 317.5 52 Z " /><path fill="rgb(177,142,72)" stroke="rgb(177,142,72)" stroke-width="1" opacity="1" d="M 99.5 57 L 98.5 59 L 99.5 57 Z " /><path fill="rgb(177,142,72)" stroke="rgb(177,142,72)" stroke-width="1" opacity="1" d="M 122.5 61 L 125 61.5 L 122.5 62 L 122.5 61 Z " /><path fill="rgb(177,142,72)" stroke="rgb(177,142,72)" stroke-width="1" opacity="1" d="M 117.5 63 L 116.5 65 L 117.5 63 Z " /><path fill="rgb(177,142,72)" stroke="rgb(177,142,72)" stroke-width="1" opacity="1" d="M 113.5 67 L 112.5 69 L 113.5 67 Z " /><path fill="rgb(177,142,72)" stroke="rgb(177,142,72)" stroke-width="1" opacity="1" d="M 158.5 87 L 159 97.5 L 158 97.5 L 158.5 87 Z " /><path fill="rgb(177,142,72)" stroke="rgb(177,142,72)" stroke-width="1" opacity="1" d="M 141.5 89 L 142 95.5 L 141 95.5 L 141.5 89 Z " /><path fill="rgb(177,142,72)" stroke="rgb(177,142,72)" stroke-width="1" opacity="1" d="M 88.5 91 L 89 94.5 L 88 94.5 L 88.5 91 Z " /><path fill="rgb(177,142,72)" stroke="rgb(177,142,72)" stroke-width="1" opacity="1" d="M 146.5 129 L 141.5 135 L 146.5 129 Z " /><path fill="rgb(177,142,72)" stroke="rgb(177,142,72)" stroke-width="1" opacity="1" d="M 101.5 130 L 104.5 134 L 101.5 130 Z " /><path fill="rgb(177,142,72)" stroke="rgb(177,142,72)" stroke-width="1" opacity="1" d="M 77.5 137 L 75.5 140 L 77.5 137 Z " /><path fill="rgb(177,142,72)" stroke="rgb(177,142,72)" stroke-width="1" opacity="1" d="M 183.5 137 L 181.5 140 L 183.5 137 Z " /><path fill="rgb(177,142,72)" stroke="rgb(177,142,72)" stroke-width="1" opacity="1" d="M 236.5 137 L 234.5 140 L 236.5 137 Z " /><path fill="rgb(177,142,72)" stroke="rgb(177,142,72)" stroke-width="1" opacity="1" d="M 339.5 256 L 348.5 256 L 355.5 258 L 365 265.5 Q 370.9 272.1 371 284.5 L 369 292.5 L 362.5 302 L 352.5 308 L 340.5 309 L 339 310.5 L 298 389.5 L 292.5 395 Q 290.5 398 284.5 397 Q 279.3 395.3 281 386.5 L 282 381.5 L 289 367.5 L 325 300.5 Q 319.8 295.7 318 287.5 L 318 277.5 Q 320.4 266.4 328.5 261 L 339.5 256 Z " /><path fill="rgb(68,130,194)" stroke="rgb(68,130,194)" stroke-width="1" opacity="0.984313725490196" d="M 434.5 12 Q 451.7 10.8 457 21.5 L 504 71.5 Q 508.8 76.2 509 85.5 L 508 90.5 L 503 100.5 L 444 211 L 349 160.5 L 419 28.5 L 424 19.5 L 428.5 15 L 434.5 12 Z " /><path fill="rgb(236,225,188)" stroke="rgb(236,225,188)" stroke-width="1" opacity="0.9333333333333333" d="M 208.5 45 L 210.5 48 L 208.5 45 Z " /><path fill="rgb(236,225,188)" stroke="rgb(236,225,188)" stroke-width="1" opacity="0.9333333333333333" d="M 259.5 45 L 257.5 48 L 259.5 45 Z " /><path fill="rgb(236,225,188)" stroke="rgb(236,225,188)" stroke-width="1" opacity="0.9333333333333333" d="M 106.5 49 L 105.5 51 L 106.5 49 Z " /><path fill="rgb(236,225,188)" stroke="rgb(236,225,188)" stroke-width="1" opacity="0.9333333333333333" d="M 44.5 52 L 45 122.5 L 44 122.5 L 44.5 52 Z " /><path fill="rgb(236,225,188)" stroke="rgb(236,225,188)" stroke-width="1" opacity="0.9333333333333333" d="M 133.5 117 L 130.5 121 L 133.5 117 Z " /><path fill="rgb(236,225,188)" stroke="rgb(236,225,188)" stroke-width="1" opacity="0.9333333333333333" d="M 114.5 118 L 115.5 120 L 114.5 118 Z " /><path fill="rgb(236,225,188)" stroke="rgb(236,225,188)" stroke-width="1" opacity="0.9333333333333333" d="M 76.5 125 L 77.5 127 L 76.5 125 Z " /><path fill="rgb(236,225,188)" stroke="rgb(236,225,188)" stroke-width="1" opacity="0.9333333333333333" d="M 146.5 130 L 143.5 134 L 146.5 130 Z " /><path fill="rgb(236,225,188)" stroke="rgb(236,225,188)" stroke-width="1" opacity="0.9333333333333333" d="M 167.5 131 L 168 133.5 L 167 133.5 L 167.5 131 Z " /><path fill="rgb(236,225,188)" stroke="rgb(236,225,188)" stroke-width="1" opacity="0.9333333333333333" d="M 272.5 137 L 270.5 140 L 272.5 137 Z " /><path fill="rgb(236,225,188)" stroke="rgb(236,225,188)" stroke-width="1" opacity="0.9333333333333333" d="M 28.5 138 L 29.5 140 L 28.5 138 Z " /><path fill="rgb(236,225,188)" stroke="rgb(236,225,188)" stroke-width="1" opacity="0.9333333333333333" d="M 77.5 138 L 76.5 140 L 77.5 138 Z " /><path fill="rgb(236,225,188)" stroke="rgb(236,225,188)" stroke-width="1" opacity="0.9333333333333333" d="M 34.5 141 L 72 141.5 L 34.5 142 L 34.5 141 Z " /><path fill="rgb(236,225,188)" stroke="rgb(236,225,188)" stroke-width="1" opacity="0.9333333333333333" d="M 121.5 141 L 126 141.5 L 121.5 142 L 121.5 141 Z " /><path fill="rgb(236,225,188)" stroke="rgb(236,225,188)" stroke-width="1" opacity="0.9333333333333333" d="M 175.5 141 L 178 141.5 L 175.5 142 L 175.5 141 Z " /><path fill="rgb(236,225,188)" stroke="rgb(236,225,188)" stroke-width="1" opacity="0.9333333333333333" d="M 228.5 141 L 231 141.5 L 228.5 142 L 228.5 141 Z " /><path fill="rgb(236,225,188)" stroke="rgb(236,225,188)" stroke-width="1" opacity="0.9333333333333333" d="M 263.5 141 L 266 141.5 L 263.5 142 L 263.5 141 Z " /><path fill="rgb(236,225,188)" stroke="rgb(236,225,188)" stroke-width="1" opacity="0.9333333333333333" d="M 307.5 141 L 310 141.5 L 307.5 142 L 307.5 141 Z " /><path fill="rgb(236,225,188)" stroke="rgb(236,225,188)" stroke-width="1" opacity="0.9333333333333333" d="M 33.5 185 L 153 185.5 L 33.5 186 L 33.5 185 Z " /><path fill="rgb(236,225,188)" stroke="rgb(236,225,188)" stroke-width="1" opacity="0.9333333333333333" d="M 192.5 185 L 279 185.5 L 192.5 186 L 192.5 185 Z " /><path fill="rgb(236,225,188)" stroke="rgb(236,225,188)" stroke-width="1" opacity="0.9333333333333333" d="M 30.5 186 L 28.5 189 L 30.5 186 Z " /><path fill="rgb(236,225,188)" stroke="rgb(236,225,188)" stroke-width="1" opacity="0.9333333333333333" d="M 189.5 186 L 186.5 190 L 189.5 186 Z " /><path fill="rgb(236,225,188)" stroke="rgb(236,225,188)" stroke-width="1" opacity="0.9333333333333333" d="M 282.5 187 L 283.5 189 L 282.5 187 Z " /><path fill="rgb(236,225,188)" stroke="rgb(236,225,188)" stroke-width="1" opacity="0.9333333333333333" d="M 26.5 192 L 27 196.5 L 26 196.5 L 26.5 192 Z " /><path fill="rgb(236,225,188)" stroke="rgb(236,225,188)" stroke-width="1" opacity="0.9333333333333333" d="M 185.5 192 L 186 196.5 L 185 196.5 L 185.5 192 Z " /><path fill="rgb(236,225,188)" stroke="rgb(236,225,188)" stroke-width="1" opacity="0.9333333333333333" d="M 285.5 192 L 286 195.5 L 285 195.5 L 285.5 192 Z " /><path fill="rgb(236,225,188)" stroke="rgb(236,225,188)" stroke-width="1" opacity="0.9333333333333333" d="M 313.5 207 L 312.5 209 L 313.5 207 Z " /><path fill="rgb(236,225,188)" stroke="rgb(236,225,188)" stroke-width="1" opacity="0.9333333333333333" d="M 308.5 212 L 304.5 217 L 308.5 212 Z " /><path fill="rgb(236,225,188)" stroke="rgb(236,225,188)" stroke-width="1" opacity="0.9333333333333333" d="M 33.5 229 L 152 229.5 L 33.5 230 L 33.5 229 Z " /><path fill="rgb(236,225,188)" stroke="rgb(236,225,188)" stroke-width="1" opacity="0.9333333333333333" d="M 192.5 229 L 231 229.5 L 192.5 230 L 192.5 229 Z " /><path fill="rgb(236,225,188)" stroke="rgb(236,225,188)" stroke-width="1" opacity="0.9333333333333333" d="M 154.5 230 L 155.5 232 L 154.5 230 Z " /><path fill="rgb(236,225,188)" stroke="rgb(236,225,188)" stroke-width="1" opacity="0.9333333333333333" d="M 29.5 231 L 28.5 233 L 29.5 231 Z " /><path fill="rgb(236,225,188)" stroke="rgb(236,225,188)" stroke-width="1" opacity="0.9333333333333333" d="M 188.5 231 L 186.5 234 L 188.5 231 Z " /><path fill="rgb(236,225,188)" stroke="rgb(236,225,188)" stroke-width="1" opacity="0.9333333333333333" d="M 26.5 236 L 27 240.5 L 26 240.5 L 26.5 236 Z " /><path fill="rgb(236,225,188)" stroke="rgb(236,225,188)" stroke-width="1" opacity="0.9333333333333333" d="M 236.5 242 L 235.5 244 L 236.5 242 Z " /><path fill="rgb(236,225,188)" stroke="rgb(236,225,188)" stroke-width="1" opacity="0.9333333333333333" d="M 157.5 243 L 155.5 246 L 157.5 243 Z " /><path fill="rgb(236,225,188)" stroke="rgb(236,225,188)" stroke-width="1" opacity="0.9333333333333333" d="M 35.5 247 L 150 247.5 L 35.5 248 L 35.5 247 Z " /><path fill="rgb(236,225,188)" stroke="rgb(236,225,188)" stroke-width="1" opacity="0.9333333333333333" d="M 194.5 247 L 228 247.5 L 194.5 248 L 194.5 247 Z " /><path fill="rgb(236,225,188)" stroke="rgb(236,225,188)" stroke-width="1" opacity="0.9333333333333333" d="M 34.5 273 L 152 273.5 L 34.5 274 L 34.5 273 Z " /><path fill="rgb(236,225,188)" stroke="rgb(236,225,188)" stroke-width="1" opacity="0.9333333333333333" d="M 193.5 273 L 232 273.5 L 193.5 274 L 193.5 273 Z " /><path fill="rgb(236,225,188)" stroke="rgb(236,225,188)" stroke-width="1" opacity="0.9333333333333333" d="M 29.5 275 L 28.5 277 L 29.5 275 Z " /><path fill="rgb(236,225,188)" stroke="rgb(236,225,188)" stroke-width="1" opacity="0.9333333333333333" d="M 155.5 275 L 157.5 278 L 155.5 275 Z " /><path fill="rgb(236,225,188)" stroke="rgb(236,225,188)" stroke-width="1" opacity="0.9333333333333333" d="M 188.5 275 L 187.5 277 L 188.5 275 Z " /><path fill="rgb(236,225,188)" stroke="rgb(236,225,188)" stroke-width="1" opacity="0.9333333333333333" d="M 235.5 275 L 237.5 278 L 235.5 275 Z " /><path fill="rgb(236,225,188)" stroke="rgb(236,225,188)" stroke-width="1" opacity="0.9333333333333333" d="M 26.5 280 L 27 284.5 L 26 284.5 L 26.5 280 Z " /><path fill="rgb(236,225,188)" stroke="rgb(236,225,188)" stroke-width="1" opacity="0.9333333333333333" d="M 185.5 280 L 186 284.5 L 185 284.5 L 185.5 280 Z " /><path fill="rgb(236,225,188)" stroke="rgb(236,225,188)" stroke-width="1" opacity="0.9333333333333333" d="M 157.5 287 L 155.5 290 L 157.5 287 Z " /><path fill="rgb(236,225,188)" stroke="rgb(236,225,188)" stroke-width="1" opacity="0.9333333333333333" d="M 237.5 287 L 235.5 290 L 237.5 287 Z " /><path fill="rgb(236,225,188)" stroke="rgb(236,225,188)" stroke-width="1" opacity="0.9333333333333333" d="M 187.5 288 L 188.5 290 L 187.5 288 Z " /><path fill="rgb(236,225,188)" stroke="rgb(236,225,188)" stroke-width="1" opacity="0.9333333333333333" d="M 34.5 291 L 151 291.5 L 34.5 292 L 34.5 291 Z " /><path fill="rgb(236,225,188)" stroke="rgb(236,225,188)" stroke-width="1" opacity="0.9333333333333333" d="M 193.5 291 L 231 291.5 L 193.5 292 L 193.5 291 Z " /><path fill="rgb(236,225,188)" stroke="rgb(236,225,188)" stroke-width="1" opacity="0.9333333333333333" d="M 35.5 317 L 150 317.5 L 35.5 318 L 35.5 317 Z " /><path fill="rgb(236,225,188)" stroke="rgb(236,225,188)" stroke-width="1" opacity="0.9333333333333333" d="M 194.5 317 L 246 317.5 L 194.5 318 L 194.5 317 Z " /><path fill="rgb(236,225,188)" stroke="rgb(236,225,188)" stroke-width="1" opacity="0.9333333333333333" d="M 155.5 319 L 157.5 322 L 155.5 319 Z " /><path fill="rgb(236,225,188)" stroke="rgb(236,225,188)" stroke-width="1" opacity="0.9333333333333333" d="M 251.5 319 L 253.5 322 L 251.5 319 Z " /><path fill="rgb(236,225,188)" stroke="rgb(236,225,188)" stroke-width="1" opacity="0.9333333333333333" d="M 26.5 324 L 27 328.5 L 26 328.5 L 26.5 324 Z " /><path fill="rgb(236,225,188)" stroke="rgb(236,225,188)" stroke-width="1" opacity="0.9333333333333333" d="M 185.5 324 L 186 328.5 L 185 328.5 L 185.5 324 Z " /><path fill="rgb(236,225,188)" stroke="rgb(236,225,188)" stroke-width="1" opacity="0.9333333333333333" d="M 253.5 331 L 250.5 335 L 253.5 331 Z " /><path fill="rgb(236,225,188)" stroke="rgb(236,225,188)" stroke-width="1" opacity="0.9333333333333333" d="M 28.5 332 L 29.5 334 L 28.5 332 Z " /><path fill="rgb(236,225,188)" stroke="rgb(236,225,188)" stroke-width="1" opacity="0.9333333333333333" d="M 187.5 332 L 188.5 334 L 187.5 332 Z " /><path fill="rgb(236,225,188)" stroke="rgb(236,225,188)" stroke-width="1" opacity="0.9333333333333333" d="M 155.5 333 L 154.5 335 L 155.5 333 Z " /><path fill="rgb(236,225,188)" stroke="rgb(236,225,188)" stroke-width="1" opacity="0.9333333333333333" d="M 33.5 335 L 152 335.5 L 33.5 336 L 33.5 335 Z " /><path fill="rgb(236,225,188)" stroke="rgb(236,225,188)" stroke-width="1" opacity="0.9333333333333333" d="M 192.5 335 L 248 335.5 L 192.5 336 L 192.5 335 Z " /><path fill="rgb(236,225,188)" stroke="rgb(236,225,188)" stroke-width="1" opacity="0.9333333333333333" d="M 283.5 351 L 284 357.5 L 283 357.5 L 283.5 351 Z " /><path fill="rgb(236,225,188)" stroke="rgb(236,225,188)" stroke-width="1" opacity="0.9333333333333333" d="M 92.5 374 L 96 374.5 L 92.5 375 L 92.5 374 Z " /><path fill="rgb(236,225,188)" stroke="rgb(236,225,188)" stroke-width="1" opacity="0.9333333333333333" d="M 136.5 376 L 133.5 380 L 136.5 376 Z " /><path fill="rgb(236,225,188)" stroke="rgb(236,225,188)" stroke-width="1" opacity="0.9333333333333333" d="M 163.5 376 L 166.5 380 L 163.5 376 Z " /><path fill="rgb(236,225,188)" stroke="rgb(236,225,188)" stroke-width="1" opacity="0.9333333333333333" d="M 81.5 378 L 76.5 384 L 81.5 378 Z " /><path fill="rgb(236,225,188)" stroke="rgb(236,225,188)" stroke-width="1" opacity="0.9333333333333333" d="M 106.5 378 L 110.5 383 L 106.5 378 Z " /><path fill="rgb(236,225,188)" stroke="rgb(236,225,188)" stroke-width="1" opacity="0.9333333333333333" d="M 168.5 382 L 169.5 384 L 168.5 382 Z " /><path fill="rgb(236,225,188)" stroke="rgb(236,225,188)" stroke-width="1" opacity="0.9333333333333333" d="M 170.5 385 L 171.5 387 L 170.5 385 Z " /><path fill="rgb(236,225,188)" stroke="rgb(236,225,188)" stroke-width="1" opacity="0.9333333333333333" d="M 42.5 388 L 72 388.5 L 42.5 389 L 42.5 388 Z " /><path fill="rgb(236,225,188)" stroke="rgb(236,225,188)" stroke-width="1" opacity="0.9333333333333333" d="M 174.5 388 L 206 388.5 L 174.5 389 L 174.5 388 Z " /><path fill="rgb(236,225,188)" stroke="rgb(236,225,188)" stroke-width="1" opacity="0.9333333333333333" d="M 236.5 388 L 280 388.5 L 236.5 389 L 236.5 388 Z " /><path fill="rgb(236,225,188)" stroke="rgb(236,225,188)" stroke-width="1" opacity="0.9333333333333333" d="M 39.5 389 L 36.5 393 L 39.5 389 Z " /><path fill="rgb(236,225,188)" stroke="rgb(236,225,188)" stroke-width="1" opacity="0.9333333333333333" d="M 232.5 390 L 231.5 392 L 232.5 390 Z " /><path fill="rgb(236,225,188)" stroke="rgb(236,225,188)" stroke-width="1" opacity="0.9333333333333333" d="M 297.5 390 L 295.5 393 L 297.5 390 Z " /><path fill="rgb(236,225,188)" stroke="rgb(236,225,188)" stroke-width="1" opacity="0.9333333333333333" d="M 146.5 392 L 145.5 394 L 146.5 392 Z " /><path fill="rgb(236,225,188)" stroke="rgb(236,225,188)" stroke-width="1" opacity="0.9333333333333333" d="M 144.5 395 L 143.5 397 L 144.5 395 Z " /><path fill="rgb(236,225,188)" stroke="rgb(236,225,188)" stroke-width="1" opacity="0.9333333333333333" d="M 229.5 395 L 230 398.5 L 229 398.5 L 229.5 395 Z " /><path fill="rgb(236,225,188)" stroke="rgb(236,225,188)" stroke-width="1" opacity="0.9333333333333333" d="M 116.5 396 L 117.5 398 L 116.5 396 Z " /><path fill="rgb(236,225,188)" stroke="rgb(236,225,188)" stroke-width="1" opacity="0.9333333333333333" d="M 142.5 398 L 141.5 400 L 142.5 398 Z " /><path fill="rgb(236,225,188)" stroke="rgb(236,225,188)" stroke-width="1" opacity="0.9333333333333333" d="M 140.5 401 L 139.5 403 L 140.5 401 Z " /><path fill="rgb(236,225,188)" stroke="rgb(236,225,188)" stroke-width="1" opacity="0.9333333333333333" d="M 294.5 402 L 292.5 405 L 294.5 402 Z " /><path fill="rgb(236,225,188)" stroke="rgb(236,225,188)" stroke-width="1" opacity="0.9333333333333333" d="M 209.5 403 L 208.5 405 L 209.5 403 Z " /><path fill="rgb(236,225,188)" stroke="rgb(236,225,188)" stroke-width="1" opacity="0.9333333333333333" d="M 138.5 404 L 137.5 406 L 138.5 404 Z " /><path fill="rgb(236,225,188)" stroke="rgb(236,225,188)" stroke-width="1" opacity="0.9333333333333333" d="M 101.5 406 L 102.5 408 L 101.5 406 Z " /><path fill="rgb(236,225,188)" stroke="rgb(236,225,188)" stroke-width="1" opacity="0.9333333333333333" d="M 135.5 408 L 132.5 412 L 135.5 408 Z " /><path fill="rgb(236,225,188)" stroke="rgb(236,225,188)" stroke-width="1" opacity="0.9333333333333333" d="M 106.5 411 L 107.5 413 L 106.5 411 Z " /><path fill="rgb(236,225,188)" stroke="rgb(236,225,188)" stroke-width="1" opacity="0.9333333333333333" d="M 130.5 412 L 129.5 414 L 130.5 412 Z " /><path fill="rgb(236,225,188)" stroke="rgb(236,225,188)" stroke-width="1" opacity="0.9333333333333333" d="M 26.5 459 L 53 459.5 L 26.5 460 L 26.5 459 Z " /><path fill="rgb(165,106,67)" stroke="rgb(165,106,67)" stroke-width="1" opacity="1" d="M 31.5 45 Q 39.5 43.5 42 47.5 L 44 51.5 L 44 124 L 72.5 124 L 77 126 L 79 129.5 L 79 134.5 L 74.5 140 L 72.5 141 L 33.5 141 L 29 139 L 27 135.5 L 27 50.5 L 31.5 45 Z " /><path fill="rgb(165,106,67)" stroke="rgb(165,106,67)" stroke-width="1" opacity="1" d="M 116.5 45 Q 127.2 43.3 133.5 46 Q 142.5 50 148 57.5 Q 154.2 65.3 157 76.5 L 158 81.5 L 158 103.5 Q 154.4 125.4 139.5 136 Q 132.7 141.7 119.5 141 Q 105.8 137.8 99 127.5 Q 86.5 112.5 89 82.5 Q 92.3 61.8 105.5 51 L 116.5 45 Z M 123 61 L 118 63 Q 108 70 106 84 L 106 103 L 112 117 Q 115 122 122 124 L 129 123 Q 136 118 139 110 L 142 96 L 140 79 L 135 69 Q 132 62 123 61 Z " /><path fill="rgb(165,106,67)" stroke="rgb(165,106,67)" stroke-width="1" opacity="1" d="M 199.5 45 Q 209.3 43.3 211 49.5 L 238 130.5 L 238 134.5 L 233.5 140 L 227.5 141 L 222 136.5 L 218 123 L 188.5 123 L 188 125.5 L 184 136.5 L 180.5 140 L 174.5 141 L 169 136.5 L 168 130.5 L 195 49.5 L 199.5 45 Z M 202 81 L 195 105 L 195 106 L 212 106 L 204 84 Q 205 80 202 81 Z " /><path fill="rgb(165,106,67)" stroke="rgb(165,106,67)" stroke-width="1" opacity="1" d="M 261.5 45 Q 271.3 43.3 273 49.5 L 299 98 L 301 97.5 L 301 49.5 Q 302.8 43.3 312.5 45 L 317 49.5 L 317 135.5 L 313.5 140 L 307.5 141 L 302 137.5 L 275 88 L 273 88.5 L 273 135.5 L 270.5 139 L 263.5 141 L 257 136.5 L 256 132.5 L 256 52.5 L 259.5 46 L 261.5 45 Z " /><path fill="rgb(245,239,202)" stroke="rgb(245,239,202)" stroke-width="1" opacity="0.996078431372549" d="M 19.5 0 L 26 0.5 Q 11.3 1.8 5 11.5 Q 0.4 16.9 0.5 27 L 0 19.5 Q 2.5 11 8.5 6 L 19.5 0 Z " /><path fill="rgb(245,239,202)" stroke="rgb(245,239,202)" stroke-width="1" opacity="0.996078431372549" d="M 318.5 0 L 327.5 1 Q 335.6 3.9 340 10.5 L 345 23.5 L 345 168.5 L 344 168.5 L 344 23.5 Q 341.8 10.8 332.5 5 Q 328.5 0 318.5 1 L 318.5 0 Z " /><path fill="rgb(245,239,202)" stroke="rgb(245,239,202)" stroke-width="1" opacity="0.996078431372549" d="M 0.5 432 Q 1.1 447.9 11.5 454 Q 16.6 458.4 26 458.5 L 19.5 459 Q 10.3 456.2 5 449.5 L 0 439.5 L 0.5 432 Z " /><path fill="rgb(245,239,202)" stroke="rgb(245,239,202)" stroke-width="1" opacity="1" d="M 26.5 0 L 317.5 0 L 329.5 3 L 340 12.5 L 344 23.5 L 344 170.5 Q 329 193.5 309.5 212 Q 285.8 235.3 259 255.5 L 258 260.5 Q 272.6 280.9 279 309.5 L 282 325.5 L 282 332.5 L 283 333.5 L 283 374.5 L 282 375.5 L 281 388 L 236.5 388 L 231 391.5 L 229 398.5 L 233.5 405 L 235.5 406 L 290.5 406 L 295 402.5 L 296 394.5 L 295 393.5 L 298 390.5 Q 297.3 388.3 299.5 389 Q 318.6 371.1 343.5 359 L 344 436.5 Q 341.8 448.3 333.5 454 L 320.5 459 L 26.5 459 Q 25.3 456.8 20.5 458 L 11.5 454 L 5 447.5 L 1 438.5 Q 2.5 433 0 431.5 L 0 27.5 Q 2.5 26 1 20.5 L 5 11.5 L 11.5 5 L 17.5 2 L 26.5 0 Z M 33 44 L 31 45 L 26 51 L 26 135 L 28 139 L 35 142 L 72 142 L 77 140 L 80 135 Q 81 129 78 127 L 73 123 L 45 123 L 45 53 L 43 48 Q 41 43 33 44 Z M 118 44 L 107 49 L 96 61 L 92 69 L 88 84 L 88 102 Q 90 103 89 108 Q 92 119 98 128 Q 105 139 122 142 Q 136 141 144 134 L 154 120 L 159 103 L 159 83 L 158 78 Q 155 66 149 58 L 136 46 Q 129 43 118 44 Z M 200 44 L 196 46 L 194 50 L 167 132 L 168 137 L 176 142 L 184 139 L 189 126 L 190 124 L 217 124 L 221 137 L 229 142 L 237 139 L 239 135 L 239 131 L 211 48 Q 209 42 200 44 Z M 262 44 L 260 45 L 256 50 L 256 136 L 257 138 L 264 142 L 271 140 L 274 136 L 275 89 L 301 138 L 308 142 L 315 140 L 318 136 L 318 50 L 316 46 L 313 44 L 306 44 L 302 46 L 300 50 L 300 96 L 273 49 Q 271 42 262 44 Z M 34 185 L 31 186 L 26 193 L 27 199 L 33 203 L 154 203 L 157 201 L 159 198 L 158 190 L 153 185 L 34 185 Z M 193 185 L 190 186 L 185 193 Q 185 201 191 203 L 280 203 L 282 202 L 286 196 L 284 189 L 279 185 L 193 185 Z M 34 229 L 30 231 L 26 237 L 27 243 L 32 247 L 36 248 L 150 248 L 156 246 L 159 242 L 158 234 L 152 229 L 34 229 Z M 193 229 L 189 231 L 185 237 L 186 243 L 191 247 L 195 248 L 228 248 L 234 246 L 237 243 L 238 239 L 237 235 L 231 229 L 193 229 Z M 35 273 L 30 275 L 26 281 L 27 287 L 35 292 L 151 292 L 156 290 L 159 286 L 158 278 L 152 273 L 35 273 Z M 194 273 L 189 275 L 185 281 Q 184 286 187 289 L 194 292 L 231 292 L 236 290 L 239 286 L 238 278 L 232 273 L 194 273 Z M 36 317 L 32 318 L 26 325 Q 25 330 28 333 L 34 336 L 152 336 L 155 335 L 159 330 L 158 322 L 156 319 L 150 317 L 36 317 Z M 195 317 L 187 320 L 185 325 Q 184 330 187 333 L 193 336 L 248 336 L 251 335 L 255 330 L 254 322 L 252 319 L 246 317 L 195 317 Z M 145 372 L 137 376 L 123 396 Q 123 399 119 398 L 116 396 Q 115 387 111 383 L 107 378 L 96 374 Q 87 374 82 378 Q 76 380 75 387 L 74 388 L 43 388 L 40 389 L 35 395 L 35 400 L 41 406 L 78 406 L 88 400 L 90 396 Q 91 392 96 393 L 101 407 Q 106 414 116 416 L 124 416 L 133 412 L 147 392 Q 148 389 152 390 L 156 397 Q 160 403 169 406 L 207 406 L 209 405 L 212 401 L 211 393 L 206 388 L 172 388 L 167 380 Q 163 374 156 372 L 145 372 Z " /><path fill="rgb(245,239,202)" stroke="rgb(245,239,202)" stroke-width="1" opacity="1" d="M 122.5 62 Q 130.8 62.8 134 68.5 L 140 81.5 L 141 97.5 L 139 107.5 L 135 115.5 L 128.5 122 L 120.5 123 L 113 116.5 Q 105.6 106.9 106 89.5 L 110 73.5 L 117.5 64 L 122.5 62 Z " /><path fill="rgb(245,239,202)" stroke="rgb(245,239,202)" stroke-width="1" opacity="1" d="M 202 84 Q 205 82.8 204 86.5 L 211 105.5 L 195.5 106 L 196 104.5 L 202 84 Z " /><path fill="rgb(217,186,115)" stroke="rgb(217,186,115)" stroke-width="1" opacity="0.9921568627450981" d="M 118.5 44 L 121 44.5 L 118.5 45 L 118.5 44 Z " /><path fill="rgb(217,186,115)" stroke="rgb(217,186,115)" stroke-width="1" opacity="0.9921568627450981" d="M 30.5 45 L 27.5 49 L 30.5 45 Z " /><path fill="rgb(217,186,115)" stroke="rgb(217,186,115)" stroke-width="1" opacity="0.9921568627450981" d="M 141.5 50 L 147.5 57 L 141.5 50 Z " /><path fill="rgb(217,186,115)" stroke="rgb(217,186,115)" stroke-width="1" opacity="0.9921568627450981" d="M 26.5 51 L 27 133.5 L 26 133.5 L 26.5 51 Z " /><path fill="rgb(217,186,115)" stroke="rgb(217,186,115)" stroke-width="1" opacity="0.9921568627450981" d="M 104.5 51 L 100.5 56 L 104.5 51 Z " /><path fill="rgb(217,186,115)" stroke="rgb(217,186,115)" stroke-width="1" opacity="0.9921568627450981" d="M 130.5 64 L 133.5 68 L 130.5 64 Z " /><path fill="rgb(217,186,115)" stroke="rgb(217,186,115)" stroke-width="1" opacity="0.9921568627450981" d="M 115.5 65 L 114.5 67 L 115.5 65 Z " /><path fill="rgb(217,186,115)" stroke="rgb(217,186,115)" stroke-width="1" opacity="0.9921568627450981" d="M 140.5 83 L 141 85.5 L 140 85.5 L 140.5 83 Z " /><path fill="rgb(217,186,115)" stroke="rgb(217,186,115)" stroke-width="1" opacity="0.9921568627450981" d="M 106.5 84 L 107 86.5 L 106 86.5 L 106.5 84 Z " /><path fill="rgb(217,186,115)" stroke="rgb(217,186,115)" stroke-width="1" opacity="0.9921568627450981" d="M 158.5 84 L 159 86.5 L 158 86.5 L 158.5 84 Z " /><path fill="rgb(217,186,115)" stroke="rgb(217,186,115)" stroke-width="1" opacity="0.9921568627450981" d="M 88.5 85 L 89 90.5 L 88 90.5 L 88.5 85 Z " /><path fill="rgb(217,186,115)" stroke="rgb(217,186,115)" stroke-width="1" opacity="0.9921568627450981" d="M 273 88 L 275 88.5 L 274 89.5 L 273.5 135 L 273 88 Z " /><path fill="rgb(217,186,115)" stroke="rgb(217,186,115)" stroke-width="1" opacity="0.9921568627450981" d="M 88.5 95 L 89 99.5 L 88 99.5 L 88.5 95 Z " /><path fill="rgb(217,186,115)" stroke="rgb(217,186,115)" stroke-width="1" opacity="0.9921568627450981" d="M 158.5 98 L 159 101.5 L 158 101.5 L 158.5 98 Z " /><path fill="rgb(217,186,115)" stroke="rgb(217,186,115)" stroke-width="1" opacity="0.9921568627450981" d="M 116.5 120 L 117.5 122 L 116.5 120 Z " /><path fill="rgb(217,186,115)" stroke="rgb(217,186,115)" stroke-width="1" opacity="0.9921568627450981" d="M 44.5 123 L 72 123.5 L 44.5 124 L 44.5 123 Z " /><path fill="rgb(217,186,115)" stroke="rgb(217,186,115)" stroke-width="1" opacity="0.9921568627450981" d="M 122.5 123 L 126 123.5 L 122.5 124 L 122.5 123 Z " /><path fill="rgb(217,186,115)" stroke="rgb(217,186,115)" stroke-width="1" opacity="0.9921568627450981" d="M 189.5 123 L 216.5 123 L 218 124.5 L 216.5 124 L 189.5 124 L 188.5 125 L 189.5 123 Z " /><path fill="rgb(217,186,115)" stroke="rgb(217,186,115)" stroke-width="1" opacity="0.9921568627450981" d="M 148.5 127 L 147.5 129 L 148.5 127 Z " /><path fill="rgb(217,186,115)" stroke="rgb(217,186,115)" stroke-width="1" opacity="0.9921568627450981" d="M 99.5 128 L 100.5 130 L 99.5 128 Z " /><path fill="rgb(217,186,115)" stroke="rgb(217,186,115)" stroke-width="1" opacity="0.9921568627450981" d="M 79.5 131 L 80 133.5 L 79 133.5 L 79.5 131 Z " /><path fill="rgb(217,186,115)" stroke="rgb(217,186,115)" stroke-width="1" opacity="0.9921568627450981" d="M 105.5 134 L 106.5 136 L 105.5 134 Z " /><path fill="rgb(217,186,115)" stroke="rgb(217,186,115)" stroke-width="1" opacity="0.9921568627450981" d="M 221.5 136 L 222.5 138 L 221.5 136 Z " /><path fill="rgb(217,186,115)" stroke="rgb(217,186,115)" stroke-width="1" opacity="0.9921568627450981" d="M 257.5 137 L 259.5 140 L 257.5 137 Z " /><path fill="rgb(217,186,115)" stroke="rgb(217,186,115)" stroke-width="1" opacity="0.9921568627450981" d="M 302.5 138 L 303.5 140 L 302.5 138 Z " /><path fill="rgb(217,186,115)" stroke="rgb(217,186,115)" stroke-width="1" opacity="0.9921568627450981" d="M 361.5 167 L 362.5 169 L 361.5 167 Z " /><path fill="rgb(217,186,115)" stroke="rgb(217,186,115)" stroke-width="1" opacity="0.9921568627450981" d="M 376.5 175 L 377.5 177 L 376.5 175 Z " /><path fill="rgb(217,186,115)" stroke="rgb(217,186,115)" stroke-width="1" opacity="0.9921568627450981" d="M 391.5 183 L 392.5 185 L 391.5 183 Z " /><path fill="rgb(217,186,115)" stroke="rgb(217,186,115)" stroke-width="1" opacity="0.9921568627450981" d="M 31.5 186 L 153.5 186 L 157 188.5 L 159 195.5 L 154.5 202 L 152.5 203 L 33.5 203 L 28 199.5 L 27 190.5 L 31.5 186 Z " /><path fill="rgb(217,186,115)" stroke="rgb(217,186,115)" stroke-width="1" opacity="0.9921568627450981" d="M 190.5 186 L 280.5 186 L 285 190.5 Q 286.5 198.5 282.5 201 L 278.5 203 L 192.5 203 L 187 199.5 L 186 190.5 L 190.5 186 Z " /><path fill="rgb(217,186,115)" stroke="rgb(217,186,115)" stroke-width="1" opacity="0.9921568627450981" d="M 406.5 191 L 407.5 193 L 406.5 191 Z " /><path fill="rgb(217,186,115)" stroke="rgb(217,186,115)" stroke-width="1" opacity="0.9921568627450981" d="M 421.5 199 L 422.5 201 L 421.5 199 Z " /><path fill="rgb(217,186,115)" stroke="rgb(217,186,115)" stroke-width="1" opacity="0.9921568627450981" d="M 436.5 207 L 437.5 209 L 436.5 207 Z " /><path fill="rgb(217,186,115)" stroke="rgb(217,186,115)" stroke-width="1" opacity="0.9921568627450981" d="M 32.5 230 L 153.5 230 L 157 232 L 159 239.5 L 154.5 246 L 152.5 247 L 32.5 247 L 28 243.5 L 27 234.5 L 32.5 230 Z " /><path fill="rgb(217,186,115)" stroke="rgb(217,186,115)" stroke-width="1" opacity="0.9921568627450981" d="M 190.5 230 L 231.5 230 L 236 233.5 L 237 241.5 L 235 245 L 231.5 247 L 191.5 247 L 187 243.5 L 185 238.5 L 186 234.5 L 190.5 230 Z " /><path fill="rgb(217,186,115)" stroke="rgb(217,186,115)" stroke-width="1" opacity="0.9921568627450981" d="M 32.5 274 L 153.5 274 L 158 278.5 L 159 284.5 L 154.5 290 L 152.5 291 L 32.5 291 L 28 287.5 L 27 279.5 L 30.5 275 L 32.5 274 Z " /><path fill="rgb(217,186,115)" stroke="rgb(217,186,115)" stroke-width="1" opacity="0.9921568627450981" d="M 191.5 274 L 233.5 274 L 238 278.5 L 239 284.5 L 233.5 291 L 191.5 291 L 186 286.5 Q 184 277 189.5 275 L 191.5 274 Z " /><path fill="rgb(217,186,115)" stroke="rgb(217,186,115)" stroke-width="1" opacity="0.9921568627450981" d="M 365.5 298 L 364.5 300 L 365.5 298 Z " /><path fill="rgb(217,186,115)" stroke="rgb(217,186,115)" stroke-width="1" opacity="0.9921568627450981" d="M 361.5 302 L 360.5 304 L 361.5 302 Z " /><path fill="rgb(217,186,115)" stroke="rgb(217,186,115)" stroke-width="1" opacity="0.9921568627450981" d="M 32.5 318 L 152.5 318 L 158 322.5 L 159 328.5 L 157 333 L 153.5 335 L 32.5 335 L 28 331.5 L 27 323.5 L 30.5 319 L 32.5 318 Z " /><path fill="rgb(217,186,115)" stroke="rgb(217,186,115)" stroke-width="1" opacity="0.9921568627450981" d="M 191.5 318 L 248.5 318 L 254 322.5 L 255 328.5 L 249.5 335 L 191.5 335 L 186 330.5 Q 184.5 321.5 189.5 319 L 191.5 318 Z " /><path fill="rgb(217,186,115)" stroke="rgb(217,186,115)" stroke-width="1" opacity="0.9921568627450981" d="M 344.5 359 L 345 435.5 L 344 435.5 L 344.5 359 Z " /><path fill="rgb(217,186,115)" stroke="rgb(217,186,115)" stroke-width="1" opacity="0.9921568627450981" d="M 146.5 372 Q 162.9 371.1 168 381.5 L 172.5 388 L 174.5 389 L 206.5 389 L 210 391.5 L 212 398.5 L 207.5 405 L 205.5 406 L 170.5 406 Q 161.4 404.1 157 397.5 L 153 390 L 149.5 389 L 131.5 412 Q 126.5 416 117.5 416 Q 108 414.4 103 408.5 Q 98 402.3 97 393 L 93.5 392 L 91 393 Q 89.5 398.6 84.5 402 L 75.5 406 L 41.5 406 L 37 402.5 L 35 396.5 L 40.5 389 L 71.5 389 L 76 385.5 L 82.5 378 Q 87.6 373.6 98.5 375 Q 107.5 377.4 112 384.5 L 115 394.5 L 117.5 398 Q 123.3 398.8 124 394.5 Q 129.2 382.7 138.5 375 L 146.5 372 Z " /><path fill="rgb(217,186,115)" stroke="rgb(217,186,115)" stroke-width="1" opacity="0.9921568627450981" d="M 281.5 382 L 282 385.5 L 281 385.5 L 281.5 382 Z " /><path fill="rgb(217,186,115)" stroke="rgb(217,186,115)" stroke-width="1" opacity="0.9921568627450981" d="M 280.5 388 Q 279.8 395.2 284.5 397 L 289.5 397 L 294.5 393 Q 296.8 394.8 296 399.5 L 291.5 405 L 289.5 406 L 236.5 406 L 231 402.5 L 230 393.5 L 234.5 389 L 279.5 389 L 280.5 388 Z " /><path fill="rgb(217,186,115)" stroke="rgb(217,186,115)" stroke-width="1" opacity="0.9921568627450981" d="M 339.5 448 L 334.5 454 L 339.5 448 Z " /><path fill="rgb(217,186,115)" stroke="rgb(217,186,115)" stroke-width="1" opacity="0.9921568627450981" d="M 53.5 459 L 318 459.5 L 53.5 460 L 53.5 459 Z " /><path fill="rgb(242,213,91)" stroke="rgb(242,213,91)" stroke-width="1" opacity="0.9921568627450981" d="M 348.5 162 L 360.5 167 L 443 211 L 434 232.5 L 427 256.5 L 419 300.5 L 416 338.5 L 412.5 342 L 410.5 343 L 399.5 343 L 398 344.5 L 398 486.5 L 396 496.5 L 390.5 504 Q 388.3 503.3 389 505.5 L 386.5 508 L 376.5 512 L 75.5 512 L 73.5 512 L 63.5 508 L 60 504.5 Q 60.8 502.3 58.5 503 L 53 492.5 Q 54.3 487.7 52 486.5 L 52 484.5 L 52 460.5 L 52.5 460 L 317.5 460 L 323.5 458 L 325.5 458 Q 335.4 455.9 340 448.5 L 345 435.5 L 345 359 Q 318.8 370.5 298.5 389 L 300 386.5 L 340 309 Q 358.7 310 366 298.5 Q 371.7 291.7 371 278.5 Q 368.8 266.7 360.5 261 Q 354 254 338.5 256 L 332.5 258 L 325 263 L 318 275.5 L 318 288.5 Q 319.7 296.3 325 300.5 L 282.5 380 L 282 376.5 L 283 375.5 L 284 351.5 L 283 350.5 L 282 324.5 L 277 301.5 L 269 279.5 L 259 262.5 L 258 257.5 L 261.5 253 Q 290.1 232.6 314 207.5 Q 334.5 188 348.5 162 Z " /><path fill="rgb(0,0,0)" stroke="rgb(0,0,0)" stroke-width="1" opacity="0" d="M 0 0 L 19 0.5 Q 9.9 2.9 5 9.5 L 0.5 19 L 0 0 Z " /><path fill="rgb(0,0,0)" stroke="rgb(0,0,0)" stroke-width="1" opacity="0" d="M 325.5 0 L 512 0 L 512 512 L 378 511.5 Q 388.1 509.1 393 501.5 L 396 496.5 L 398 488.5 L 398 344.5 L 399.5 343 Q 412.5 345.5 416 338.5 L 418 308.5 L 419 307.5 L 419 300.5 L 420 299.5 L 423 275.5 L 434 232.5 L 444 209.5 L 503 100.5 L 508 90.5 L 509 83.5 L 508 78.5 L 504 71.5 L 450.5 15 Q 445.3 10.7 434.5 12 Q 427.8 14.3 424 19.5 L 345.5 167 L 345 23.5 L 342 13.5 L 333.5 4 L 325.5 1 L 325.5 0 Z " /><path fill="rgb(0,0,0)" stroke="rgb(0,0,0)" stroke-width="1" opacity="0" d="M 0.5 440 Q 2.9 449.1 9.5 454 L 19.5 459 Q 25 457.5 26.5 460 L 52 460 L 52 486.5 Q 54.3 487.7 53 492.5 Q 55.8 502.8 63.5 508 L 72 511.5 L 0 512 L 0.5 440 Z " /></svg>