<svg width="512" height="512" version="1.1" xmlns="http://www.w3.org/2000/svg" desc="Created with imagetracer.js version 1.2.6" ><path fill="rgb(179,144,136)" stroke="rgb(179,144,136)" stroke-width="1" opacity="0.996078431372549" d="M 320 128 L 512 128 L 512 208 L 320 208 L 320 128 Z " /><path fill="rgb(179,144,136)" stroke="rgb(179,144,136)" stroke-width="1" opacity="0.996078431372549" d="M 127 432 L 140 432 L 140 448 L 127 448 L 127 432 Z " /><path fill="rgb(235,145,118)" stroke="rgb(235,145,118)" stroke-width="1" opacity="0.996078431372549" d="M 364.5 344 L 466.5 344 L 471 347.5 L 472 349.5 L 472 386.5 L 468.5 391 L 466.5 392 L 364.5 392 L 360 387.5 L 360 348.5 L 364.5 344 Z " /><path fill="rgb(0,0,0)" stroke="rgb(0,0,0)" stroke-width="1" opacity="0" d="M 0 0 L 53 0.5 Q 29.8 4.8 17 19.5 L 15 22.5 Q 3.5 33.5 0.5 53 L 0 0 Z " /><path fill="rgb(0,0,0)" stroke="rgb(0,0,0)" stroke-width="1" opacity="0" d="M 267.5 0 L 512 0 L 512 103.5 L 511 103.5 Q 509.3 93.2 502.5 88 Q 496.8 82.2 487.5 80 L 320 80 L 320 52.5 L 318 44.5 Q 311.8 26.2 298.5 15 Q 290 7.5 278.5 3 L 267.5 1 L 267.5 0 Z " /><path fill="rgb(0,0,0)" stroke="rgb(0,0,0)" stroke-width="1" opacity="0" d="M 511.5 408 L 512 512 L 267 511.5 Q 291.8 506.8 305 490.5 Q 313.5 481 318 467.5 L 320 458.5 L 320 432 L 487.5 432 Q 497.8 429.3 504 422.5 Q 509.6 417.1 511.5 408 Z " /><path fill="rgb(0,0,0)" stroke="rgb(0,0,0)" stroke-width="1" opacity="0" d="M 0.5 459 Q 4.9 482.1 19.5 495 Q 28.8 503.7 41.5 509 L 53 511.5 L 0 512 L 0.5 459 Z " /><path fill="rgb(206,223,200)" stroke="rgb(206,223,200)" stroke-width="1" opacity="1" d="M 59.5 32 L 62 32.5 L 59.5 33 L 59.5 32 Z " /><path fill="rgb(206,223,200)" stroke="rgb(206,223,200)" stroke-width="1" opacity="1" d="M 259.5 32 L 262 32.5 L 259.5 33 L 259.5 32 Z " /><path fill="rgb(206,223,200)" stroke="rgb(206,223,200)" stroke-width="1" opacity="1" d="M 231.5 36 L 232 38.5 L 231 38.5 L 231.5 36 Z " /><path fill="rgb(206,223,200)" stroke="rgb(206,223,200)" stroke-width="1" opacity="1" d="M 276.5 39 L 280.5 44 L 276.5 39 Z " /><path fill="rgb(206,223,200)" stroke="rgb(206,223,200)" stroke-width="1" opacity="1" d="M 42.5 40 L 40.5 43 L 42.5 40 Z " /><path fill="rgb(206,223,200)" stroke="rgb(206,223,200)" stroke-width="1" opacity="1" d="M 93.5 50 L 94.5 52 L 93.5 50 Z " /><path fill="rgb(206,223,200)" stroke="rgb(206,223,200)" stroke-width="1" opacity="1" d="M 225.5 51 L 223.5 54 L 225.5 51 Z " /><path fill="rgb(206,223,200)" stroke="rgb(206,223,200)" stroke-width="1" opacity="1" d="M 221.5 55 L 219.5 58 L 221.5 55 Z " /><path fill="rgb(206,223,200)" stroke="rgb(206,223,200)" stroke-width="1" opacity="1" d="M 100.5 57 L 101.5 59 L 100.5 57 Z " /><path fill="rgb(206,223,200)" stroke="rgb(206,223,200)" stroke-width="1" opacity="1" d="M 287.5 58 L 288 60.5 L 287 60.5 L 287.5 58 Z " /><path fill="rgb(206,223,200)" stroke="rgb(206,223,200)" stroke-width="1" opacity="1" d="M 32.5 59 L 33 61.5 L 32 61.5 L 32.5 59 Z " /><path fill="rgb(206,223,200)" stroke="rgb(206,223,200)" stroke-width="1" opacity="1" d="M 148.5 160 L 154 160.5 L 148.5 161 L 148.5 160 Z " /><path fill="rgb(206,223,200)" stroke="rgb(206,223,200)" stroke-width="1" opacity="1" d="M 165.5 160 L 172 160.5 L 165.5 161 L 165.5 160 Z " /><path fill="rgb(206,223,200)" stroke="rgb(206,223,200)" stroke-width="1" opacity="1" d="M 142.5 161 L 145 161.5 L 142.5 162 L 142.5 161 Z " /><path fill="rgb(206,223,200)" stroke="rgb(206,223,200)" stroke-width="1" opacity="1" d="M 175.5 161 L 178 161.5 L 175.5 162 L 175.5 161 Z " /><path fill="rgb(206,223,200)" stroke="rgb(206,223,200)" stroke-width="1" opacity="1" d="M 180.5 162 L 183 162.5 L 180.5 163 L 180.5 162 Z " /><path fill="rgb(206,223,200)" stroke="rgb(206,223,200)" stroke-width="1" opacity="1" d="M 184.5 163 Q 217.1 171.9 235 195.5 Q 247 210 253 230.5 L 256 246.5 L 256 265.5 L 253 281.5 L 245 301.5 Q 235.5 319 220.5 331 Q 207.1 342.6 187.5 348 L 187.5 347 L 193 346 L 193 329.5 L 194.5 329 Q 211.1 321.1 222 307.5 Q 233 295 238 276.5 L 240 266.5 L 240 245.5 L 238 235.5 L 232 219.5 Q 223.7 203.9 210.5 193 Q 203.1 186.1 193 183 L 193 166.5 L 190.5 166 L 184.5 164 L 184.5 163 Z " /><path fill="rgb(206,223,200)" stroke="rgb(206,223,200)" stroke-width="1" opacity="1" d="M 110.5 173 L 109.5 175 L 110.5 173 Z " /><path fill="rgb(206,223,200)" stroke="rgb(206,223,200)" stroke-width="1" opacity="1" d="M 104.5 177 L 103.5 179 L 104.5 177 Z " /><path fill="rgb(206,223,200)" stroke="rgb(206,223,200)" stroke-width="1" opacity="1" d="M 100.5 180 L 99.5 182 L 100.5 180 Z " /><path fill="rgb(206,223,200)" stroke="rgb(206,223,200)" stroke-width="1" opacity="1" d="M 93.5 186 L 90.5 190 L 93.5 186 Z " /><path fill="rgb(206,223,200)" stroke="rgb(206,223,200)" stroke-width="1" opacity="1" d="M 85.5 195 L 84.5 197 L 85.5 195 Z " /><path fill="rgb(206,223,200)" stroke="rgb(206,223,200)" stroke-width="1" opacity="1" d="M 203.5 225 L 160.5 269 L 149.5 259 L 149 279.5 L 154.5 286 L 122 253.5 L 120 246.5 L 122 242 L 129.5 240 L 133.5 242 L 160.5 268 L 203.5 225 Z " /><path fill="rgb(206,223,200)" stroke="rgb(206,223,200)" stroke-width="1" opacity="1" d="M 212.5 225 L 214.5 228 L 212.5 225 Z " /><path fill="rgb(206,223,200)" stroke="rgb(206,223,200)" stroke-width="1" opacity="1" d="M 214.5 236 L 165.5 286 L 214.5 236 Z " /><path fill="rgb(206,223,200)" stroke="rgb(206,223,200)" stroke-width="1" opacity="1" d="M 65.5 237 L 66 239.5 L 65 239.5 L 65.5 237 Z " /><path fill="rgb(206,223,200)" stroke="rgb(206,223,200)" stroke-width="1" opacity="1" d="M 64.5 244 L 65 246.5 L 64 246.5 L 64.5 244 Z " /><path fill="rgb(206,223,200)" stroke="rgb(206,223,200)" stroke-width="1" opacity="1" d="M 64.5 265 L 65 267.5 L 64 267.5 L 64.5 265 Z " /><path fill="rgb(206,223,200)" stroke="rgb(206,223,200)" stroke-width="1" opacity="1" d="M 65.5 272 L 66 274.5 L 65 274.5 L 65.5 272 Z " /><path fill="rgb(206,223,200)" stroke="rgb(206,223,200)" stroke-width="1" opacity="1" d="M 81.5 311 L 82.5 313 L 81.5 311 Z " /><path fill="rgb(206,223,200)" stroke="rgb(206,223,200)" stroke-width="1" opacity="1" d="M 84.5 315 L 85.5 317 L 84.5 315 Z " /><path fill="rgb(206,223,200)" stroke="rgb(206,223,200)" stroke-width="1" opacity="1" d="M 90.5 322 L 93.5 326 L 90.5 322 Z " /><path fill="rgb(206,223,200)" stroke="rgb(206,223,200)" stroke-width="1" opacity="1" d="M 99.5 330 L 100.5 332 L 99.5 330 Z " /><path fill="rgb(206,223,200)" stroke="rgb(206,223,200)" stroke-width="1" opacity="1" d="M 103.5 333 L 104.5 335 L 103.5 333 Z " /><path fill="rgb(206,223,200)" stroke="rgb(206,223,200)" stroke-width="1" opacity="1" d="M 109.5 337 L 110.5 339 L 109.5 337 Z " /><path fill="rgb(206,223,200)" stroke="rgb(206,223,200)" stroke-width="1" opacity="1" d="M 137.5 349 L 140 349.5 L 137.5 350 L 137.5 349 Z " /><path fill="rgb(206,223,200)" stroke="rgb(206,223,200)" stroke-width="1" opacity="1" d="M 180.5 349 L 183 349.5 L 180.5 350 L 180.5 349 Z " /><path fill="rgb(206,223,200)" stroke="rgb(206,223,200)" stroke-width="1" opacity="1" d="M 142.5 350 L 145 350.5 L 142.5 351 L 142.5 350 Z " /><path fill="rgb(206,223,200)" stroke="rgb(206,223,200)" stroke-width="1" opacity="1" d="M 174.5 350 L 178 350.5 L 174.5 351 L 174.5 350 Z " /><path fill="rgb(206,223,200)" stroke="rgb(206,223,200)" stroke-width="1" opacity="1" d="M 148.5 351 L 154 351.5 L 148.5 352 L 148.5 351 Z " /><path fill="rgb(206,223,200)" stroke="rgb(206,223,200)" stroke-width="1" opacity="1" d="M 165.5 351 L 172 351.5 L 165.5 352 L 165.5 351 Z " /><path fill="rgb(206,223,200)" stroke="rgb(206,223,200)" stroke-width="1" opacity="1" d="M 76.5 432 L 78 432.5 L 75.5 434 L 76.5 432 Z " /><path fill="rgb(206,223,200)" stroke="rgb(206,223,200)" stroke-width="1" opacity="1" d="M 140 432 L 242.5 432 L 247 435.5 L 248 442.5 L 244.5 447 L 242.5 448 L 140 448 L 140 432 Z " /><path fill="rgb(206,223,200)" stroke="rgb(206,223,200)" stroke-width="1" opacity="1" d="M 75.5 446 L 78 447.5 L 76.5 448 L 75.5 446 Z " /><path fill="rgb(206,223,200)" stroke="rgb(206,223,200)" stroke-width="1" opacity="1" d="M 32.5 450 L 33 452.5 L 32 452.5 L 32.5 450 Z " /><path fill="rgb(206,223,200)" stroke="rgb(206,223,200)" stroke-width="1" opacity="1" d="M 287.5 451 L 288 453.5 L 287 453.5 L 287.5 451 Z " /><path fill="rgb(206,223,200)" stroke="rgb(206,223,200)" stroke-width="1" opacity="1" d="M 280.5 468 L 276.5 473 L 280.5 468 Z " /><path fill="rgb(206,223,200)" stroke="rgb(206,223,200)" stroke-width="1" opacity="1" d="M 40.5 469 L 42.5 472 L 40.5 469 Z " /><path fill="rgb(206,223,200)" stroke="rgb(206,223,200)" stroke-width="1" opacity="1" d="M 59.5 479 L 62 479.5 L 59.5 480 L 59.5 479 Z " /><path fill="rgb(206,223,200)" stroke="rgb(206,223,200)" stroke-width="1" opacity="1" d="M 259.5 479 L 262 479.5 L 259.5 480 L 259.5 479 Z " /><path fill="rgb(80,87,120)" stroke="rgb(80,87,120)" stroke-width="1" opacity="0.996078431372549" d="M 53.5 0 L 155 0 L 155 31.5 L 158 32.5 L 158 64 L 118.5 64 L 106.5 61 L 98 54.5 L 98 32 L 57.5 32 Q 44.8 35.3 38 44.5 L 32 57.5 L 32 454.5 Q 35.3 467.2 44.5 474 L 57.5 480 L 155 480 L 155 511.5 L 154.5 512 L 53.5 512 Q 33.7 508.3 22 496.5 L 23 491.5 L 23 489.5 L 22 483.5 L 23 479.5 L 22 477.5 L 23 476.5 L 23 468.5 L 22 464.5 L 23 463.5 L 23 48.5 L 22 44.5 L 23 43.5 L 23 35.5 L 22 33.5 L 23 29.5 L 22 27.5 L 23 22.5 L 23 20.5 Q 24.5 16.1 21.5 17 L 17.5 20 L 18.5 18 L 21.5 16 L 25 14 Q 23.9 11.3 26.5 12 Q 36.9 2.9 53.5 0 Z " /><path fill="rgb(80,87,120)" stroke="rgb(80,87,120)" stroke-width="1" opacity="0.996078431372549" d="M 17.5 492 L 18.5 494 L 17.5 492 Z " /><path fill="rgb(159,222,137)" stroke="rgb(159,222,137)" stroke-width="1" opacity="1" d="M 154.5 160 L 174.5 161 L 193 166 L 193 182.5 L 194.5 183 L 194.5 184 L 188.5 181 L 173.5 177 L 152.5 176 L 151.5 177 L 140.5 178 L 122.5 185 Q 109.5 192 100 202.5 Q 87.7 215.7 82 235.5 L 80 245.5 L 80 266.5 Q 85.7 297.8 105.5 315 Q 116.5 325 131.5 331 L 145.5 335 L 166.5 336 L 182.5 333 L 194.5 328 L 194.5 329 L 193 329.5 L 193 345.5 L 190.5 346 L 179.5 350 L 165.5 351 L 164.5 352 L 154.5 352 L 153.5 351 L 145.5 351 L 135.5 349 L 111.5 339 Q 96.6 330.4 86 317.5 Q 74.2 303.8 68 284.5 L 64 264.5 L 64 247.5 L 68 227.5 L 73 214.5 Q 82.6 195.1 98.5 182 Q 109.4 172.9 123.5 167 L 139.5 162 L 153.5 161 L 154.5 160 Z " /><path fill="rgb(159,222,137)" stroke="rgb(159,222,137)" stroke-width="1" opacity="1" d="M 196.5 184 L 202 187.5 L 200.5 187 Q 196.5 186.5 196.5 184 Z " /><path fill="rgb(159,222,137)" stroke="rgb(159,222,137)" stroke-width="1" opacity="1" d="M 203.5 188 L 204.5 190 L 203.5 188 Z " /><path fill="rgb(159,222,137)" stroke="rgb(159,222,137)" stroke-width="1" opacity="1" d="M 206.5 190 L 208.5 193 L 206.5 190 Z " /><path fill="rgb(159,222,137)" stroke="rgb(159,222,137)" stroke-width="1" opacity="1" d="M 210.5 193 L 221.5 205 L 210.5 193 Z " /><path fill="rgb(159,222,137)" stroke="rgb(159,222,137)" stroke-width="1" opacity="1" d="M 223.5 207 L 224.5 209 L 223.5 207 Z " /><path fill="rgb(159,222,137)" stroke="rgb(159,222,137)" stroke-width="1" opacity="1" d="M 230.5 218 L 233 222.5 L 232 222.5 L 230.5 218 Z " /><path fill="rgb(159,222,137)" stroke="rgb(159,222,137)" stroke-width="1" opacity="1" d="M 238.5 239 L 239 241.5 L 238 241.5 L 238.5 239 Z " /><path fill="rgb(159,222,137)" stroke="rgb(159,222,137)" stroke-width="1" opacity="1" d="M 239.5 245 L 240 249.5 L 239 249.5 L 239.5 245 Z " /><path fill="rgb(159,222,137)" stroke="rgb(159,222,137)" stroke-width="1" opacity="1" d="M 239.5 262 L 240 266.5 L 239 266.5 L 239.5 262 Z " /><path fill="rgb(159,222,137)" stroke="rgb(159,222,137)" stroke-width="1" opacity="1" d="M 238.5 270 L 239 272.5 L 238 272.5 L 238.5 270 Z " /><path fill="rgb(159,222,137)" stroke="rgb(159,222,137)" stroke-width="1" opacity="1" d="M 155.5 286 L 156.5 288 L 155.5 286 Z " /><path fill="rgb(159,222,137)" stroke="rgb(159,222,137)" stroke-width="1" opacity="1" d="M 164.5 286 L 163.5 288 L 164.5 286 Z " /><path fill="rgb(159,222,137)" stroke="rgb(159,222,137)" stroke-width="1" opacity="1" d="M 231.5 291 L 232 292.5 L 230 293.5 L 231.5 291 Z " /><path fill="rgb(159,222,137)" stroke="rgb(159,222,137)" stroke-width="1" opacity="1" d="M 228.5 297 L 227.5 299 L 228.5 297 Z " /><path fill="rgb(159,222,137)" stroke="rgb(159,222,137)" stroke-width="1" opacity="1" d="M 224.5 303 L 223.5 305 L 224.5 303 Z " /><path fill="rgb(159,222,137)" stroke="rgb(159,222,137)" stroke-width="1" opacity="1" d="M 221.5 307 L 210.5 319 L 221.5 307 Z " /><path fill="rgb(159,222,137)" stroke="rgb(159,222,137)" stroke-width="1" opacity="1" d="M 208.5 319 L 206.5 322 L 208.5 319 Z " /><path fill="rgb(159,222,137)" stroke="rgb(159,222,137)" stroke-width="1" opacity="1" d="M 204.5 322 L 203.5 324 L 204.5 322 Z " /><path fill="rgb(159,222,137)" stroke="rgb(159,222,137)" stroke-width="1" opacity="1" d="M 201.5 324 L 200.5 326 L 196.5 328 L 197.5 326 L 201.5 324 Z " /><path fill="rgb(126,206,103)" stroke="rgb(126,206,103)" stroke-width="1" opacity="1" d="M 152.5 176 L 173.5 177 L 195.5 184 Q 212 192.5 223 206.5 Q 231.3 216.7 236 230.5 L 239 242.5 L 240 261.5 L 236 281.5 L 229 296.5 Q 221.4 309.9 209.5 319 Q 198.3 328.3 182.5 333 L 166.5 336 L 152.5 336 L 137.5 333 L 122.5 327 Q 109.5 320 100 309.5 Q 87.7 296.3 82 276.5 L 80 266.5 L 80 245.5 Q 85.9 213.4 106.5 196 L 126.5 183 L 140.5 178 L 151.5 177 L 152.5 176 Z M 206 224 L 161 268 L 131 240 L 124 241 L 120 246 L 121 253 L 157 288 L 164 288 L 216 235 L 215 228 Q 213 223 206 224 Z " /><path fill="rgb(124,130,151)" stroke="rgb(124,130,151)" stroke-width="1" opacity="0.996078431372549" d="M 155 0 L 266.5 0 L 278.5 3 L 287 8.5 L 286 9.5 L 285.5 50 L 278.5 40 Q 272.7 34.3 263.5 32 L 217 32 L 217 58.5 L 215.5 59 L 210.5 62 L 200.5 64 L 158 64 L 158 32.5 L 155 31.5 L 155 0 Z " /><path fill="rgb(124,130,151)" stroke="rgb(124,130,151)" stroke-width="1" opacity="0.996078431372549" d="M 285.5 462 L 286 503 L 288 503.5 L 278.5 509 L 266.5 512 L 155 512 L 155 480.5 L 155.5 480 L 263.5 480 Q 273.8 477.3 280 470.5 L 285.5 462 Z " /><path fill="rgb(124,130,151)" stroke="rgb(124,130,151)" stroke-width="1" opacity="0.996078431372549" d="M 304.5 490 L 302.5 493 L 304.5 490 Z " /><path fill="rgb(132,138,157)" stroke="rgb(132,138,157)" stroke-width="1" opacity="1" d="M 286.5 7 L 302 18.5 L 304 21.5 Q 316.3 33.2 320 53.5 L 320 458.5 Q 315 482.5 299.5 496 L 291.5 502 L 289 502 L 288.5 504 L 286 503 L 286 462.5 L 285 461.5 L 288 453.5 L 288 58.5 L 285 50.5 L 286 49.5 L 286 9.5 L 287 8.5 L 286.5 7 Z " /><path fill="rgb(132,138,157)" stroke="rgb(132,138,157)" stroke-width="1" opacity="1" d="M 217 32 L 231.5 32 L 232 35.5 L 230 43.5 L 223 55 L 217.5 59 L 217 32 Z " /><path fill="rgb(132,138,157)" stroke="rgb(132,138,157)" stroke-width="1" opacity="1" d="M 271.5 35 L 272.5 37 L 271.5 35 Z " /><path fill="rgb(132,138,157)" stroke="rgb(132,138,157)" stroke-width="1" opacity="1" d="M 274.5 37 L 275.5 39 L 274.5 37 Z " /><path fill="rgb(132,138,157)" stroke="rgb(132,138,157)" stroke-width="1" opacity="1" d="M 278.5 40 L 279.5 42 L 278.5 40 Z " /><path fill="rgb(132,138,157)" stroke="rgb(132,138,157)" stroke-width="1" opacity="1" d="M 281.5 44 L 282.5 46 L 281.5 44 Z " /><path fill="rgb(132,138,157)" stroke="rgb(132,138,157)" stroke-width="1" opacity="1" d="M 283.5 47 L 284.5 49 L 283.5 47 Z " /><path fill="rgb(132,138,157)" stroke="rgb(132,138,157)" stroke-width="1" opacity="1" d="M 95.5 52 L 99.5 57 L 95.5 52 Z " /><path fill="rgb(132,138,157)" stroke="rgb(132,138,157)" stroke-width="1" opacity="1" d="M 201.5 63 L 205 63.5 L 201.5 64 L 201.5 63 Z " /><path fill="rgb(132,138,157)" stroke="rgb(132,138,157)" stroke-width="1" opacity="1" d="M 78.5 432 L 126.5 432 L 127 432.5 L 127 448 L 78.5 448 L 73 444.5 L 72 438.5 L 74.5 434 L 78.5 432 Z " /><path fill="rgb(132,138,157)" stroke="rgb(132,138,157)" stroke-width="1" opacity="1" d="M 284.5 463 L 283.5 465 L 284.5 463 Z " /><path fill="rgb(132,138,157)" stroke="rgb(132,138,157)" stroke-width="1" opacity="1" d="M 282.5 466 L 281.5 468 L 282.5 466 Z " /><path fill="rgb(132,138,157)" stroke="rgb(132,138,157)" stroke-width="1" opacity="1" d="M 279.5 470 L 278.5 472 L 279.5 470 Z " /><path fill="rgb(132,138,157)" stroke="rgb(132,138,157)" stroke-width="1" opacity="1" d="M 275.5 473 L 274.5 475 L 275.5 473 Z " /><path fill="rgb(132,138,157)" stroke="rgb(132,138,157)" stroke-width="1" opacity="1" d="M 272.5 475 L 271.5 477 L 272.5 475 Z " /><path fill="rgb(242,182,114)" stroke="rgb(242,182,114)" stroke-width="1" opacity="0.996078431372549" d="M 480.5 80 Q 496.9 80.1 504 89.5 Q 512 96.5 512 111.5 L 511 111.5 L 510 101.5 Q 506.8 93.2 500.5 88 L 490.5 82 L 480.5 81 L 480.5 80 Z " /><path fill="rgb(242,182,114)" stroke="rgb(242,182,114)" stroke-width="1" opacity="0.996078431372549" d="M 511.5 400 L 512 407.5 Q 509.3 417.8 502.5 424 Q 495.5 432 480.5 432 L 480.5 431 L 490.5 430 Q 498.8 426.8 504 420.5 Q 511.3 413.7 511.5 400 Z " /><path fill="rgb(71,79,114)" stroke="rgb(71,79,114)" stroke-width="1" opacity="1" d="M 19.5 17 L 21.5 17 Q 24.5 16.1 23 20.5 L 23 22.5 L 22 28.5 L 23 32.5 L 22 34.5 L 23 35.5 L 23 43.5 L 22 47.5 L 23 48.5 L 23 463.5 L 22 467.5 L 23 468.5 L 23 476.5 L 22 478.5 L 23 482.5 L 22 484.5 L 23 489.5 L 23 491.5 Q 23.8 495.3 21.5 496 L 20.5 494 L 19 494.5 Q 4.8 481.2 0 458.5 L 0 53.5 Q 4.2 31.2 18.5 19 L 20 18.5 L 19.5 17 Z " /><path fill="rgb(71,79,114)" stroke="rgb(71,79,114)" stroke-width="1" opacity="1" d="M 88.5 32 L 98 32 L 98 53.5 L 95 51.5 L 90 42.5 L 88.5 32 Z " /><path fill="rgb(242,182,114)" stroke="rgb(242,182,114)" stroke-width="1" opacity="1" d="M 320 80 L 479.5 80 L 490.5 82 Q 498.8 85.2 504 91.5 L 511 105.5 L 512 128 L 320.5 128 L 320 127.5 L 320 80 Z " /><path fill="rgb(242,182,114)" stroke="rgb(242,182,114)" stroke-width="1" opacity="1" d="M 320 208 L 512 208 L 512 399.5 L 510 410.5 Q 506.8 418.8 500.5 424 L 490.5 430 L 479.5 432 L 320 432 L 320 208 Z M 365 344 L 360 349 L 360 388 L 365 392 L 467 392 L 469 391 L 472 387 L 472 350 L 471 348 L 467 344 L 365 344 Z " /><path fill="rgb(215,241,254)" stroke="rgb(215,241,254)" stroke-width="1" opacity="0.996078431372549" d="M 256.5 32 L 259 32.5 L 256.5 33 L 256.5 32 Z " /><path fill="rgb(215,241,254)" stroke="rgb(215,241,254)" stroke-width="1" opacity="0.996078431372549" d="M 45.5 38 L 44.5 40 L 45.5 38 Z " /><path fill="rgb(215,241,254)" stroke="rgb(215,241,254)" stroke-width="1" opacity="0.996078431372549" d="M 39.5 44 L 38.5 46 L 39.5 44 Z " /><path fill="rgb(215,241,254)" stroke="rgb(215,241,254)" stroke-width="1" opacity="0.996078431372549" d="M 96.5 54 L 97.5 56 L 96.5 54 Z " /><path fill="rgb(215,241,254)" stroke="rgb(215,241,254)" stroke-width="1" opacity="0.996078431372549" d="M 223.5 54 L 222.5 56 L 223.5 54 Z " /><path fill="rgb(215,241,254)" stroke="rgb(215,241,254)" stroke-width="1" opacity="0.996078431372549" d="M 287.5 61 L 288 63.5 L 287 63.5 L 287.5 61 Z " /><path fill="rgb(215,241,254)" stroke="rgb(215,241,254)" stroke-width="1" opacity="0.996078431372549" d="M 208.5 172 L 209.5 174 L 208.5 172 Z " /><path fill="rgb(215,241,254)" stroke="rgb(215,241,254)" stroke-width="1" opacity="0.996078431372549" d="M 214.5 176 L 215.5 178 L 214.5 176 Z " /><path fill="rgb(215,241,254)" stroke="rgb(215,241,254)" stroke-width="1" opacity="0.996078431372549" d="M 102.5 178 L 101.5 180 L 102.5 178 Z " /><path fill="rgb(215,241,254)" stroke="rgb(215,241,254)" stroke-width="1" opacity="0.996078431372549" d="M 217.5 178 L 219.5 181 L 217.5 178 Z " /><path fill="rgb(215,241,254)" stroke="rgb(215,241,254)" stroke-width="1" opacity="0.996078431372549" d="M 98.5 181 L 94.5 186 L 98.5 181 Z " /><path fill="rgb(215,241,254)" stroke="rgb(215,241,254)" stroke-width="1" opacity="0.996078431372549" d="M 221.5 181 L 234.5 195 L 221.5 181 Z " /><path fill="rgb(215,241,254)" stroke="rgb(215,241,254)" stroke-width="1" opacity="0.996078431372549" d="M 89.5 190 L 85.5 195 L 89.5 190 Z " /><path fill="rgb(215,241,254)" stroke="rgb(215,241,254)" stroke-width="1" opacity="0.996078431372549" d="M 235.5 196 L 237.5 199 L 235.5 196 Z " /><path fill="rgb(215,241,254)" stroke="rgb(215,241,254)" stroke-width="1" opacity="0.996078431372549" d="M 83.5 197 L 82.5 199 L 83.5 197 Z " /><path fill="rgb(215,241,254)" stroke="rgb(215,241,254)" stroke-width="1" opacity="0.996078431372549" d="M 238.5 200 L 239.5 202 L 238.5 200 Z " /><path fill="rgb(215,241,254)" stroke="rgb(215,241,254)" stroke-width="1" opacity="0.996078431372549" d="M 240.5 203 L 241.5 205 L 240.5 203 Z " /><path fill="rgb(215,241,254)" stroke="rgb(215,241,254)" stroke-width="1" opacity="0.996078431372549" d="M 242.5 206 L 245 209.5 L 243 208.5 L 242.5 206 Z " /><path fill="rgb(215,241,254)" stroke="rgb(215,241,254)" stroke-width="1" opacity="0.996078431372549" d="M 207.5 224 Q 213.1 224.5 215 228.5 L 216 233.5 L 163.5 287 L 159.5 288 L 156.5 287 L 149 279.5 L 149.5 259 L 160.5 269 L 204.5 225 L 207.5 224 Z " /><path fill="rgb(215,241,254)" stroke="rgb(215,241,254)" stroke-width="1" opacity="0.996078431372549" d="M 254.5 236 L 255 238.5 L 254 238.5 L 254.5 236 Z " /><path fill="rgb(215,241,254)" stroke="rgb(215,241,254)" stroke-width="1" opacity="0.996078431372549" d="M 255.5 242 L 256 245.5 L 255 245.5 L 255.5 242 Z " /><path fill="rgb(215,241,254)" stroke="rgb(215,241,254)" stroke-width="1" opacity="0.996078431372549" d="M 255.5 266 L 256 269.5 L 255 269.5 L 255.5 266 Z " /><path fill="rgb(215,241,254)" stroke="rgb(215,241,254)" stroke-width="1" opacity="0.996078431372549" d="M 254.5 273 L 255 275.5 L 254 275.5 L 254.5 273 Z " /><path fill="rgb(215,241,254)" stroke="rgb(215,241,254)" stroke-width="1" opacity="0.996078431372549" d="M 244.5 302 L 244 303.5 L 242.5 306 L 243 304.5 L 244.5 302 Z " /><path fill="rgb(215,241,254)" stroke="rgb(215,241,254)" stroke-width="1" opacity="0.996078431372549" d="M 241.5 307 L 240.5 309 L 241.5 307 Z " /><path fill="rgb(215,241,254)" stroke="rgb(215,241,254)" stroke-width="1" opacity="0.996078431372549" d="M 239.5 310 L 238.5 312 L 239.5 310 Z " /><path fill="rgb(215,241,254)" stroke="rgb(215,241,254)" stroke-width="1" opacity="0.996078431372549" d="M 82.5 313 L 83.5 315 L 82.5 313 Z " /><path fill="rgb(215,241,254)" stroke="rgb(215,241,254)" stroke-width="1" opacity="0.996078431372549" d="M 237.5 313 L 235.5 316 L 237.5 313 Z " /><path fill="rgb(215,241,254)" stroke="rgb(215,241,254)" stroke-width="1" opacity="0.996078431372549" d="M 85.5 317 L 89.5 322 L 85.5 317 Z " /><path fill="rgb(215,241,254)" stroke="rgb(215,241,254)" stroke-width="1" opacity="0.996078431372549" d="M 234.5 317 L 221.5 331 L 234.5 317 Z " /><path fill="rgb(215,241,254)" stroke="rgb(215,241,254)" stroke-width="1" opacity="0.996078431372549" d="M 94.5 326 L 98.5 331 L 94.5 326 Z " /><path fill="rgb(215,241,254)" stroke="rgb(215,241,254)" stroke-width="1" opacity="0.996078431372549" d="M 219.5 331 L 217.5 334 L 219.5 331 Z " /><path fill="rgb(215,241,254)" stroke="rgb(215,241,254)" stroke-width="1" opacity="0.996078431372549" d="M 101.5 332 L 102.5 334 L 101.5 332 Z " /><path fill="rgb(215,241,254)" stroke="rgb(215,241,254)" stroke-width="1" opacity="0.996078431372549" d="M 215.5 334 L 214.5 336 L 215.5 334 Z " /><path fill="rgb(215,241,254)" stroke="rgb(215,241,254)" stroke-width="1" opacity="0.996078431372549" d="M 209.5 338 L 208.5 340 L 209.5 338 Z " /><path fill="rgb(215,241,254)" stroke="rgb(215,241,254)" stroke-width="1" opacity="0.996078431372549" d="M 74.5 433 L 73.5 435 L 74.5 433 Z " /><path fill="rgb(215,241,254)" stroke="rgb(215,241,254)" stroke-width="1" opacity="0.996078431372549" d="M 245.5 433 L 246.5 435 L 245.5 433 Z " /><path fill="rgb(215,241,254)" stroke="rgb(215,241,254)" stroke-width="1" opacity="0.996078431372549" d="M 73.5 445 L 74.5 447 L 73.5 445 Z " /><path fill="rgb(215,241,254)" stroke="rgb(215,241,254)" stroke-width="1" opacity="0.996078431372549" d="M 246.5 445 L 245.5 447 L 246.5 445 Z " /><path fill="rgb(215,241,254)" stroke="rgb(215,241,254)" stroke-width="1" opacity="0.996078431372549" d="M 287.5 448 L 288 450.5 L 287 450.5 L 287.5 448 Z " /><path fill="rgb(215,241,254)" stroke="rgb(215,241,254)" stroke-width="1" opacity="0.996078431372549" d="M 38.5 466 L 39.5 468 L 38.5 466 Z " /><path fill="rgb(215,241,254)" stroke="rgb(215,241,254)" stroke-width="1" opacity="0.996078431372549" d="M 44.5 472 L 45.5 474 L 44.5 472 Z " /><path fill="rgb(215,241,254)" stroke="rgb(215,241,254)" stroke-width="1" opacity="0.996078431372549" d="M 256.5 479 L 259 479.5 L 256.5 480 L 256.5 479 Z " /><path fill="rgb(215,241,255)" stroke="rgb(215,241,255)" stroke-width="1" opacity="1" d="M 64.5 32 L 87.5 32 L 88 32.5 L 88 39.5 Q 90.7 49.8 97.5 56 Q 103.3 61.7 112.5 64 L 207.5 64 Q 217.8 61.3 224 54.5 Q 232.3 47 232 32 L 263.5 33 Q 274.6 36.4 281 44.5 L 286 53.5 L 288 64.5 L 288 447.5 L 286 458.5 Q 282.5 467.5 275.5 473 L 266.5 478 L 255.5 480 L 64.5 480 L 53.5 478 Q 45.2 474.8 40 468.5 L 34 458.5 L 32 447.5 L 32 64.5 L 34 53.5 Q 37.2 45.2 43.5 40 L 53.5 34 L 64.5 32 Z M 147 160 Q 117 165 99 181 Q 71 202 64 243 L 64 270 L 67 284 Q 73 303 85 318 Q 106 345 147 352 L 174 352 L 188 349 Q 207 343 222 331 Q 249 310 256 270 L 256 243 L 253 229 Q 247 209 235 195 Q 219 175 194 165 L 174 160 L 147 160 Z M 77 432 L 75 433 L 72 437 L 73 446 L 77 448 L 244 448 L 246 447 L 248 444 L 247 435 L 244 432 L 77 432 Z " /></svg>