<svg width="512" height="512" version="1.1" xmlns="http://www.w3.org/2000/svg" desc="Created with imagetracer.js version 1.2.6" ><path fill="rgb(255,176,28)" stroke="rgb(255,176,28)" stroke-width="1" opacity="0.996078431372549" d="M 313.5 61 L 335.5 61 L 357.5 66 Q 383.6 75.9 400 95.5 Q 413.3 111.7 420 134.5 L 422 143.5 L 422 151.5 L 423 152.5 L 423 166.5 L 419 187.5 L 410 208.5 Q 400.6 224.6 386.5 236 Q 373.3 246.8 355.5 253 L 338.5 257 L 325.5 257 L 324.5 258 L 323.5 257 L 304.5 256 L 283.5 249 Q 266 240.5 253 227.5 Q 238.8 212.7 231 191.5 L 226 168.5 L 226 150.5 L 229 133.5 L 238 111.5 Q 246.7 96.2 259.5 85 Q 271 74.5 286.5 68 L 294.5 65 L 313.5 61 Z M 324 94 L 322 95 Q 318 97 319 102 Q 310 103 305 108 Q 296 115 293 128 L 294 143 L 301 155 L 314 163 L 324 165 L 331 165 L 337 168 Q 344 173 346 184 Q 346 194 341 200 Q 336 205 328 207 L 318 206 L 309 201 L 305 195 L 303 184 L 299 180 L 293 184 Q 292 197 298 204 Q 305 215 319 217 L 320 223 L 325 225 L 328 224 Q 331 222 330 217 L 343 212 Q 353 205 356 192 L 356 180 L 350 167 Q 345 160 337 156 L 330 154 L 321 154 L 312 150 Q 305 145 303 135 Q 303 126 307 121 Q 312 115 320 112 Q 331 111 337 115 L 342 121 Q 346 126 346 136 L 349 138 L 355 137 L 356 135 L 356 127 L 349 113 Q 342 104 330 102 L 329 97 L 324 94 Z " /><path fill="rgb(255,199,32)" stroke="rgb(255,199,32)" stroke-width="1" opacity="0.9764705882352941" d="M 310.5 32 L 337.5 32 Q 339.3 34.8 345.5 33 L 373.5 41 Q 403.8 53.7 423 77.5 Q 438.4 96.1 447 121.5 L 452 146.5 L 452 172.5 L 448 193.5 Q 443.5 209.5 436 222.5 Q 424.9 241.9 408.5 256 Q 391.3 271.3 367.5 280 L 343.5 286 L 315.5 287 L 314.5 286 L 305.5 286 L 291.5 283 L 269.5 275 Q 245.1 262.9 228 243.5 Q 210.8 224.2 202 196.5 L 197 170.5 L 197 147.5 L 201 125.5 Q 205.9 108.4 214 94.5 Q 225.6 75.1 242.5 61 Q 256.8 48.8 275.5 41 L 286.5 37 L 310.5 32 Z M 314 61 L 295 65 L 287 68 Q 271 75 260 85 Q 247 96 238 112 L 229 134 L 226 151 L 226 169 L 231 192 Q 239 213 253 228 Q 266 240 284 249 L 305 256 L 324 257 L 325 258 L 326 257 L 339 257 L 356 253 Q 373 247 387 236 Q 401 225 410 209 L 419 188 L 423 167 L 423 153 L 422 152 L 422 144 L 420 135 Q 413 112 400 96 Q 384 76 358 66 L 336 61 L 314 61 Z " /><path fill="rgb(255,199,32)" stroke="rgb(255,199,32)" stroke-width="1" opacity="0.9764705882352941" d="M 319.5 98 L 320 101.5 L 319 101.5 L 319.5 98 Z " /><path fill="rgb(255,199,32)" stroke="rgb(255,199,32)" stroke-width="1" opacity="0.9764705882352941" d="M 304.5 108 L 300.5 113 L 304.5 108 Z " /><path fill="rgb(255,199,32)" stroke="rgb(255,199,32)" stroke-width="1" opacity="0.9764705882352941" d="M 344.5 108 L 345.5 110 L 344.5 108 Z " /><path fill="rgb(255,199,32)" stroke="rgb(255,199,32)" stroke-width="1" opacity="0.9764705882352941" d="M 347.5 111 L 348.5 113 L 347.5 111 Z " /><path fill="rgb(255,199,32)" stroke="rgb(255,199,32)" stroke-width="1" opacity="0.9764705882352941" d="M 301.5 154 L 302.5 156 L 301.5 154 Z " /><path fill="rgb(255,199,32)" stroke="rgb(255,199,32)" stroke-width="1" opacity="0.9764705882352941" d="M 323.5 164 L 327 164.5 L 323.5 165 L 323.5 164 Z " /><path fill="rgb(255,199,32)" stroke="rgb(255,199,32)" stroke-width="1" opacity="0.9764705882352941" d="M 339.5 170 L 340.5 172 L 339.5 170 Z " /><path fill="rgb(255,199,32)" stroke="rgb(255,199,32)" stroke-width="1" opacity="0.9764705882352941" d="M 307.5 198 L 308.5 200 L 307.5 198 Z " /><path fill="rgb(255,199,32)" stroke="rgb(255,199,32)" stroke-width="1" opacity="0.9764705882352941" d="M 310.5 201 L 311.5 203 L 310.5 201 Z " /><path fill="rgb(255,199,32)" stroke="rgb(255,199,32)" stroke-width="1" opacity="0.9764705882352941" d="M 319.5 217 L 320 220.5 L 319 220.5 L 319.5 217 Z " /><path fill="rgb(255,199,32)" stroke="rgb(255,199,32)" stroke-width="1" opacity="0.9764705882352941" d="M 320.5 222 L 321.5 224 L 320.5 222 Z " /><path fill="rgb(255,199,32)" stroke="rgb(255,199,32)" stroke-width="1" opacity="0.9764705882352941" d="M 328.5 222 L 327.5 224 L 328.5 222 Z " /><path fill="rgb(0,0,0)" stroke="rgb(0,0,0)" stroke-width="1" opacity="0" d="M 0 0 L 512 0 L 512 512 L 0 512 L 0 0 Z M 311 32 L 294 35 L 276 41 Q 257 49 243 61 Q 226 75 214 95 Q 206 108 201 126 L 197 148 L 197 171 L 202 197 Q 211 224 228 244 Q 245 263 270 275 L 292 283 L 306 286 L 315 286 L 316 287 L 344 286 L 368 280 Q 391 271 409 256 Q 425 242 436 223 Q 443 209 448 194 L 452 173 L 452 147 L 447 122 Q 439 96 423 78 Q 404 54 374 41 L 356 35 L 339 32 L 311 32 Z M 211 264 L 89 297 L 87 291 L 80 285 L 71 285 L 56 289 Q 46 292 40 297 L 34 306 L 31 314 L 31 328 L 35 344 L 40 359 L 63 448 L 68 457 L 77 464 L 86 468 Q 90 467 92 469 L 102 468 L 123 462 Q 128 459 130 452 L 129 445 L 131 443 L 149 439 L 153 437 L 164 439 L 181 447 L 227 474 L 241 479 L 254 480 L 255 481 L 266 480 L 292 472 L 441 433 L 451 430 L 463 423 Q 476 413 481 394 L 481 375 L 480 371 Q 477 358 469 351 Q 458 339 440 335 Q 424 333 416 338 L 407 324 L 395 313 L 384 308 L 374 306 L 359 307 L 313 320 L 220 266 Q 217 263 211 264 Z " /><path fill="rgb(255,254,253)" stroke="rgb(255,254,253)" stroke-width="1" opacity="0.9882352941176471" d="M 322.5 95 Q 328 94 329 97.5 Q 327.1 102.9 330.5 102 Q 343.2 105.3 350 114.5 L 354 122.5 L 356 132.5 L 353.5 137 Q 348.3 138.3 347 135.5 L 345 124.5 L 337.5 115 Q 331.9 110.6 321.5 111 Q 312.1 113.1 307 119.5 Q 301.3 124.8 303 137.5 L 309.5 149 L 318.5 154 L 334.5 156 Q 344.5 159.5 350 167.5 L 355 178.5 L 356 186.5 L 354 196.5 L 345.5 209 Q 339.5 215.5 329 216 Q 330.5 221.4 327.5 223 L 323.5 224 L 321 223 L 320 216 L 313.5 215 L 302 208 L 295 196.5 L 294 183.5 Q 294.8 180.3 299.5 181 L 302 182 L 304 193.5 L 312.5 204 Q 318 209 330.5 207 Q 338.6 204.1 343 197.5 Q 347.8 192.3 346 180.5 Q 343.9 172.2 337.5 168 L 332.5 165 L 320.5 164 L 310.5 161 L 300 152.5 Q 291.8 144.2 294 125.5 Q 297.4 114.4 305.5 108 L 320 101.5 Q 319 96 322.5 95 Z " /><path fill="rgb(249,168,157)" stroke="rgb(249,168,157)" stroke-width="1" opacity="0.9529411764705882" d="M 365.5 306 L 372.5 306 L 386.5 309 Q 398.8 314.2 407 323.5 Q 413.1 329.8 415 339 L 373.5 349 L 369.5 351 L 351.5 355 L 350 356.5 L 350 362.5 L 346 374.5 Q 340.8 384.3 332.5 391 L 314.5 400 L 295.5 401 Q 283.3 398.7 274.5 393 L 196.5 347 L 191 345 L 190 338.5 L 191 336 L 195.5 335 L 283.5 386 Q 291.7 391.3 305.5 391 L 319.5 387 L 333 375.5 Q 338.8 369.4 339 359 L 341 358.5 L 339 358 Q 336.1 338.6 323.5 328 L 312 320.5 L 320.5 317 L 365.5 306 Z " /><path fill="rgb(249,197,183)" stroke="rgb(249,197,183)" stroke-width="1" opacity="0.9921568627450981" d="M 210.5 264 L 217.5 265 L 312 320.5 L 310.5 320 L 218.5 267 L 211.5 265 L 89.5 298 L 89.5 297 L 191.5 270 L 195.5 268 L 206.5 266 L 210.5 264 Z " /><path fill="rgb(249,197,183)" stroke="rgb(249,197,183)" stroke-width="1" opacity="0.9921568627450981" d="M 424.5 335 L 439.5 335 L 450.5 338 Q 464 343.5 472 354.5 Q 478.6 362.4 481 374.5 L 481 392.5 Q 476.6 412.6 462.5 423 L 452.5 429 L 440.5 433 L 399.5 443 L 272.5 478 L 259.5 480 L 259.5 479 L 264.5 479 L 294.5 470 L 443.5 431 Q 462.1 425.6 472 411.5 Q 477.7 403.7 480 392.5 L 480 375.5 Q 475.9 357.1 463.5 347 L 447.5 338 L 439.5 336 L 425.5 336 L 415.5 339 L 416.5 337 L 424.5 335 Z " /><path fill="rgb(249,197,183)" stroke="rgb(249,197,183)" stroke-width="1" opacity="0.9921568627450981" d="M 151.5 436 Q 162.5 436 169.5 440 L 229.5 474 L 245.5 479 L 253 479.5 L 245.5 480 Q 230.3 476.7 218.5 470 Q 194 453.5 166.5 440 L 152.5 437 L 129.5 444 L 129 442 Q 141.5 440.8 151.5 436 Z " /><path fill="rgb(249,197,183)" stroke="rgb(249,197,183)" stroke-width="1" opacity="0.9921568627450981" d="M 254.5 480 L 258 480.5 L 254.5 481 L 254.5 480 Z " /><path fill="rgb(59,86,106)" stroke="rgb(59,86,106)" stroke-width="1" opacity="0.984313725490196" d="M 70.5 285 Q 83.4 283.1 87 290.5 L 89 294.5 L 92 310.5 L 97 325.5 L 125 433.5 L 130 447.5 L 130 451.5 Q 128.2 458.7 122.5 462 L 101.5 468 L 91.5 469 Q 90.3 466.8 85.5 468 L 76.5 464 L 68 456.5 L 63 447.5 L 40 358.5 L 35 343.5 L 31 327.5 L 31 313.5 L 34 305.5 L 40 297 L 49.5 291 L 70.5 285 Z " /><path fill="rgb(249,197,184)" stroke="rgb(249,197,184)" stroke-width="1" opacity="1" d="M 323.5 94 L 326 94.5 L 323.5 95 L 323.5 94 Z " /><path fill="rgb(249,197,184)" stroke="rgb(249,197,184)" stroke-width="1" opacity="1" d="M 321.5 95 L 320.5 97 L 321.5 95 Z " /><path fill="rgb(249,197,184)" stroke="rgb(249,197,184)" stroke-width="1" opacity="1" d="M 327.5 95 L 328.5 97 L 327.5 95 Z " /><path fill="rgb(249,197,184)" stroke="rgb(249,197,184)" stroke-width="1" opacity="1" d="M 329.5 99 L 330 101.5 L 329 101.5 L 329.5 99 Z " /><path fill="rgb(249,197,184)" stroke="rgb(249,197,184)" stroke-width="1" opacity="1" d="M 341.5 106 L 342.5 108 L 341.5 106 Z " /><path fill="rgb(249,197,184)" stroke="rgb(249,197,184)" stroke-width="1" opacity="1" d="M 321.5 111 L 328 111.5 L 321.5 112 L 321.5 111 Z " /><path fill="rgb(249,197,184)" stroke="rgb(249,197,184)" stroke-width="1" opacity="1" d="M 299.5 114 L 298.5 116 L 299.5 114 Z " /><path fill="rgb(249,197,184)" stroke="rgb(249,197,184)" stroke-width="1" opacity="1" d="M 337.5 115 L 341.5 120 L 337.5 115 Z " /><path fill="rgb(249,197,184)" stroke="rgb(249,197,184)" stroke-width="1" opacity="1" d="M 310.5 116 L 307.5 120 L 310.5 116 Z " /><path fill="rgb(249,197,184)" stroke="rgb(249,197,184)" stroke-width="1" opacity="1" d="M 293.5 128 L 294 137.5 L 293 137.5 L 293.5 128 Z " /><path fill="rgb(249,197,184)" stroke="rgb(249,197,184)" stroke-width="1" opacity="1" d="M 355.5 128 L 356 131.5 L 355 131.5 L 355.5 128 Z " /><path fill="rgb(249,197,184)" stroke="rgb(249,197,184)" stroke-width="1" opacity="1" d="M 349.5 137 L 353 137.5 L 349.5 138 L 349.5 137 Z " /><path fill="rgb(249,197,184)" stroke="rgb(249,197,184)" stroke-width="1" opacity="1" d="M 308.5 147 L 309.5 149 L 308.5 147 Z " /><path fill="rgb(249,197,184)" stroke="rgb(249,197,184)" stroke-width="1" opacity="1" d="M 322.5 154 L 328 154.5 L 322.5 155 L 322.5 154 Z " /><path fill="rgb(249,197,184)" stroke="rgb(249,197,184)" stroke-width="1" opacity="1" d="M 305.5 157 L 306.5 159 L 305.5 157 Z " /><path fill="rgb(249,197,184)" stroke="rgb(249,197,184)" stroke-width="1" opacity="1" d="M 344.5 161 L 348.5 166 L 344.5 161 Z " /><path fill="rgb(249,197,184)" stroke="rgb(249,197,184)" stroke-width="1" opacity="1" d="M 317.5 163 L 320 163.5 L 317.5 164 L 317.5 163 Z " /><path fill="rgb(249,197,184)" stroke="rgb(249,197,184)" stroke-width="1" opacity="1" d="M 337.5 168 L 338.5 170 L 337.5 168 Z " /><path fill="rgb(249,197,184)" stroke="rgb(249,197,184)" stroke-width="1" opacity="1" d="M 341.5 172 L 342.5 174 L 341.5 172 Z " /><path fill="rgb(249,197,184)" stroke="rgb(249,197,184)" stroke-width="1" opacity="1" d="M 355.5 180 L 356 184.5 L 355 184.5 L 355.5 180 Z " /><path fill="rgb(249,197,184)" stroke="rgb(249,197,184)" stroke-width="1" opacity="1" d="M 295.5 181 L 294.5 183 L 295.5 181 Z " /><path fill="rgb(249,197,184)" stroke="rgb(249,197,184)" stroke-width="1" opacity="1" d="M 293.5 184 L 294 189.5 L 293 189.5 L 293.5 184 Z " /><path fill="rgb(249,197,184)" stroke="rgb(249,197,184)" stroke-width="1" opacity="1" d="M 355.5 187 L 356 190.5 L 355 190.5 L 355.5 187 Z " /><path fill="rgb(249,197,184)" stroke="rgb(249,197,184)" stroke-width="1" opacity="1" d="M 299.5 204 L 301.5 207 L 299.5 204 Z " /><path fill="rgb(249,197,184)" stroke="rgb(249,197,184)" stroke-width="1" opacity="1" d="M 349.5 204 L 348.5 206 L 349.5 204 Z " /><path fill="rgb(249,197,184)" stroke="rgb(249,197,184)" stroke-width="1" opacity="1" d="M 303.5 208 L 305.5 211 L 303.5 208 Z " /><path fill="rgb(249,197,184)" stroke="rgb(249,197,184)" stroke-width="1" opacity="1" d="M 344.5 209 L 343.5 211 L 344.5 209 Z " /><path fill="rgb(249,197,184)" stroke="rgb(249,197,184)" stroke-width="1" opacity="1" d="M 329 216 L 331 216.5 L 329.5 220 L 329 216 Z " /><path fill="rgb(249,197,184)" stroke="rgb(249,197,184)" stroke-width="1" opacity="1" d="M 211.5 265 L 218.5 267 L 291.5 310 L 316.5 323 L 327 331.5 Q 337 341.4 339 358 L 341 358.5 L 339 359 Q 336.9 376 324.5 384 L 311.5 390 L 299.5 391 L 283.5 386 L 203.5 339 L 193.5 335 L 191 336 L 190 342.5 L 191 345 L 284.5 398 L 295.5 401 L 309.5 401 Q 329.7 397.2 340 383.5 L 346 374.5 L 350 362.5 L 350 356.5 L 351.5 355 L 411.5 339 L 416.5 339 L 420.5 337 L 439.5 336 Q 458.8 339.8 469 352.5 L 478 367.5 L 480 375.5 L 480 392.5 Q 475.3 412.8 460.5 423 L 443.5 431 L 294.5 470 L 264.5 479 L 253.5 480 Q 251.8 477.2 245.5 479 L 229.5 474 L 169.5 440 Q 162.5 436 151.5 436 L 128.5 443 L 90 298.5 L 91.5 297 L 102.5 295 L 211.5 265 Z " /></svg>