<svg width="512" height="512" version="1.1" xmlns="http://www.w3.org/2000/svg" desc="Created with imagetracer.js version 1.2.6" ><path fill="rgb(237,238,238)" stroke="rgb(237,238,238)" stroke-width="1" opacity="0.996078431372549" d="M 125 0 L 211.5 0 Q 212.6 0.1 212 5.5 L 211 6.5 L 208 60.5 L 207 61.5 L 207 73.5 L 206 74.5 L 205 101.5 L 204 102.5 L 204 152.5 L 205 155.5 L 202 168.5 L 197 178.5 L 185.5 191 L 173.5 198 L 163.5 201 L 152.5 202 L 151.5 201 L 143.5 201 L 133.5 198 Q 121.7 192.8 114 183.5 Q 105.9 174.6 103 160.5 L 103 98.5 L 105 93.5 L 105 89.5 L 107 84.5 L 110 66.5 L 125 0 Z " /><path fill="rgb(237,238,238)" stroke="rgb(237,238,238)" stroke-width="1" opacity="0.996078431372549" d="M 300 0 L 386.5 0 L 387 2.5 L 409 99.5 L 409 160.5 Q 404.6 179.6 391.5 190 L 378.5 198 L 368.5 201 L 357.5 202 L 356.5 201 L 348.5 201 L 338.5 198 Q 325.9 192.6 318 182.5 Q 310.8 174.2 308 161.5 Q 309.3 156.7 307 155.5 L 307 136.5 L 308 135.5 L 308 102.5 L 307 101.5 L 307 90.5 L 306 89.5 L 306 76.5 L 305 75.5 L 305 63.5 L 304 62.5 L 304 49.5 L 303 48.5 L 303 35.5 L 302 34.5 L 302 22.5 L 301 21.5 L 301 8.5 L 300 7.5 L 300 0 Z " /><path fill="rgb(242,119,100)" stroke="rgb(242,119,100)" stroke-width="1" opacity="0.5254901960784314" d="M 37.5 0 L 37 1.5 L 25.5 33 L 25 31.5 L 35 3.5 L 37.5 0 Z " /><path fill="rgb(242,119,100)" stroke="rgb(242,119,100)" stroke-width="1" opacity="0.5254901960784314" d="M 474.5 0 L 477 3.5 L 487 32.5 L 486 32.5 L 474.5 0 Z " /><path fill="rgb(242,119,100)" stroke="rgb(242,119,100)" stroke-width="1" opacity="0.5254901960784314" d="M 211.5 10 L 212 15.5 L 211 15.5 L 211.5 10 Z " /><path fill="rgb(242,119,100)" stroke="rgb(242,119,100)" stroke-width="1" opacity="0.5254901960784314" d="M 210.5 24 L 211 28.5 L 210 28.5 L 210.5 24 Z " /><path fill="rgb(242,119,100)" stroke="rgb(242,119,100)" stroke-width="1" opacity="0.5254901960784314" d="M 24.5 34 L 25 35.5 L 21.5 44 L 21 42.5 L 24.5 34 Z " /><path fill="rgb(242,119,100)" stroke="rgb(242,119,100)" stroke-width="1" opacity="0.5254901960784314" d="M 487.5 34 L 491 43.5 L 490 43.5 L 487.5 34 Z " /><path fill="rgb(242,119,100)" stroke="rgb(242,119,100)" stroke-width="1" opacity="0.5254901960784314" d="M 209.5 38 L 210 42.5 L 209 42.5 L 209.5 38 Z " /><path fill="rgb(242,119,100)" stroke="rgb(242,119,100)" stroke-width="1" opacity="0.5254901960784314" d="M 20.5 45 L 21 46.5 L 1 102 L 102 102.5 L 0 103 L 0 99.5 L 20.5 45 Z " /><path fill="rgb(242,119,100)" stroke="rgb(242,119,100)" stroke-width="1" opacity="0.5254901960784314" d="M 491.5 45 L 512 99.5 L 512 103 L 410.5 103 L 410 103.5 L 410 135.5 L 409 135.5 L 409 103.5 L 410 102.5 L 409 100.5 L 410 100.5 L 410.5 102 L 511 102 L 493 52.5 L 491.5 45 Z " /><path fill="rgb(242,119,100)" stroke="rgb(242,119,100)" stroke-width="1" opacity="0.5254901960784314" d="M 208.5 51 L 209 56.5 L 208 56.5 L 208.5 51 Z " /><path fill="rgb(242,119,100)" stroke="rgb(242,119,100)" stroke-width="1" opacity="0.5254901960784314" d="M 207.5 65 L 208 70.5 L 207 70.5 L 207.5 65 Z " /><path fill="rgb(242,119,100)" stroke="rgb(242,119,100)" stroke-width="1" opacity="0.5254901960784314" d="M 206.5 79 L 207 83.5 L 206 83.5 L 206.5 79 Z " /><path fill="rgb(242,119,100)" stroke="rgb(242,119,100)" stroke-width="1" opacity="0.5254901960784314" d="M 205.5 93 L 206 97.5 L 205 97.5 L 205.5 93 Z " /><path fill="rgb(242,119,100)" stroke="rgb(242,119,100)" stroke-width="1" opacity="0.5254901960784314" d="M 205.5 102 L 307 102.5 L 205.5 103 L 205.5 102 Z " /><path fill="rgb(242,119,100)" stroke="rgb(242,119,100)" stroke-width="1" opacity="0.5254901960784314" d="M 0.5 155 L 1 160.5 L 0 160.5 L 0.5 155 Z " /><path fill="rgb(242,119,100)" stroke="rgb(242,119,100)" stroke-width="1" opacity="0.5254901960784314" d="M 511.5 155 L 512 160.5 L 511 160.5 L 511.5 155 Z " /><path fill="rgb(242,119,100)" stroke="rgb(242,119,100)" stroke-width="1" opacity="0.5254901960784314" d="M 1.5 162 L 2 164.5 L 1 164.5 L 1.5 162 Z " /><path fill="rgb(242,119,100)" stroke="rgb(242,119,100)" stroke-width="1" opacity="0.5254901960784314" d="M 510.5 162 L 511 164.5 L 510 164.5 L 510.5 162 Z " /><path fill="rgb(242,119,100)" stroke="rgb(242,119,100)" stroke-width="1" opacity="0.5254901960784314" d="M 3.5 169 L 8 177.5 L 6 176.5 L 3.5 169 Z " /><path fill="rgb(242,119,100)" stroke="rgb(242,119,100)" stroke-width="1" opacity="0.5254901960784314" d="M 508.5 169 L 509 170.5 L 504.5 178 L 505 176.5 L 508.5 169 Z " /><path fill="rgb(242,119,100)" stroke="rgb(242,119,100)" stroke-width="1" opacity="0.5254901960784314" d="M 8.5 179 L 18.5 190 L 29 196.5 L 27.5 196 Q 16.5 191.5 10 182.5 L 8.5 179 Z " /><path fill="rgb(242,119,100)" stroke="rgb(242,119,100)" stroke-width="1" opacity="0.5254901960784314" d="M 503.5 179 L 502 181.5 L 493.5 191 L 483.5 197 L 484.5 195 L 489.5 193 L 500 183.5 L 503.5 179 Z " /><path fill="rgb(191,97,86)" stroke="rgb(191,97,86)" stroke-width="1" opacity="0.996078431372549" d="M 38.5 0 L 123.5 0 L 124 3.5 L 122 8.5 L 119 26.5 L 102 102 L 1.5 102 L 1 99.5 L 36 3.5 L 38.5 0 Z " /><path fill="rgb(191,97,86)" stroke="rgb(191,97,86)" stroke-width="1" opacity="0.996078431372549" d="M 213 0 L 298.5 0 L 299 2.5 L 300 3.5 L 300 16.5 L 301 17.5 L 301 30.5 L 302 31.5 L 303 57.5 L 304 58.5 L 306 98.5 L 307 102 L 205.5 102 L 205 98.5 L 206 97.5 L 206 84.5 L 207 83.5 L 207 71.5 L 208 70.5 L 208 57.5 L 209 56.5 L 210 29.5 L 211 28.5 L 211 16.5 L 212 15.5 L 212 2.5 L 213 0 Z " /><path fill="rgb(191,97,86)" stroke="rgb(191,97,86)" stroke-width="1" opacity="0.996078431372549" d="M 388 0 L 473.5 0 L 475 1.5 L 511 102 L 410.5 102 L 410 100.5 L 406 86.5 L 405 77.5 L 399 54.5 L 388 0 Z " /><path fill="rgb(191,97,86)" stroke="rgb(191,97,86)" stroke-width="1" opacity="0.996078431372549" d="M 0 103 L 102 103 L 102 158.5 L 99 169.5 L 88 187 L 78.5 194 L 64.5 200 Q 55.8 202.8 42.5 201 Q 22.7 196.8 12 183.5 Q 4 175 1 161.5 Q 2.5 156 0 154.5 L 0 103 Z " /><path fill="rgb(191,97,86)" stroke="rgb(191,97,86)" stroke-width="1" opacity="0.996078431372549" d="M 205 103 L 307 103 L 307 156.5 L 303 171.5 Q 297.4 183.4 287.5 191 Q 278.7 198.2 265.5 201 L 246.5 201 Q 225.6 196.4 215 181.5 L 209 171.5 L 205 156.5 L 205 103 Z " /><path fill="rgb(191,97,86)" stroke="rgb(191,97,86)" stroke-width="1" opacity="0.996078431372549" d="M 410 103 L 512 103 L 512 154.5 L 510 165.5 L 504 178.5 L 493.5 190 Q 485.7 196.7 474.5 200 L 469.5 201 L 451.5 201 L 433.5 194 L 424 187 L 413 169.5 L 410 158.5 L 410 103 Z " /><path fill="rgb(191,97,86)" stroke="rgb(191,97,86)" stroke-width="1" opacity="0.996078431372549" d="M 65 228 L 245 228 L 245 390 L 65 390 L 65 228 Z M 81 244 L 81 375 L 229 375 L 229 244 L 81 244 Z " /><path fill="rgb(191,97,86)" stroke="rgb(191,97,86)" stroke-width="1" opacity="0.996078431372549" d="M 284 228 L 446 228 L 446 467 L 284 467 L 284 228 Z M 300 244 L 300 451 L 430 451 L 430 244 L 300 244 Z " /><path fill="rgb(191,97,86)" stroke="rgb(191,97,86)" stroke-width="1" opacity="0.996078431372549" d="M 317.5 334 Q 328.4 333.6 332 340.5 Q 334.6 343.4 334 349.5 L 329.5 358 Q 325.7 362.7 315.5 361 L 309 356.5 L 306 349.5 L 306 345.5 Q 307.5 339 312.5 336 L 317.5 334 Z " /><path fill="rgb(216,209,210)" stroke="rgb(216,209,210)" stroke-width="1" opacity="0.8431372549019608" d="M 211.5 6 L 212 9.5 L 211 9.5 L 211.5 6 Z " /><path fill="rgb(216,209,210)" stroke="rgb(216,209,210)" stroke-width="1" opacity="0.8431372549019608" d="M 300.5 8 L 301 12.5 L 300 12.5 L 300.5 8 Z " /><path fill="rgb(216,209,210)" stroke="rgb(216,209,210)" stroke-width="1" opacity="0.8431372549019608" d="M 210.5 19 L 211 23.5 L 210 23.5 L 210.5 19 Z " /><path fill="rgb(216,209,210)" stroke="rgb(216,209,210)" stroke-width="1" opacity="0.8431372549019608" d="M 301.5 22 L 302 26.5 L 301 26.5 L 301.5 22 Z " /><path fill="rgb(216,209,210)" stroke="rgb(216,209,210)" stroke-width="1" opacity="0.8431372549019608" d="M 209.5 33 L 210 36.5 L 209 36.5 L 209.5 33 Z " /><path fill="rgb(216,209,210)" stroke="rgb(216,209,210)" stroke-width="1" opacity="0.8431372549019608" d="M 302.5 35 L 303 40.5 L 302 40.5 L 302.5 35 Z " /><path fill="rgb(216,209,210)" stroke="rgb(216,209,210)" stroke-width="1" opacity="0.8431372549019608" d="M 208.5 47 L 209 50.5 L 208 50.5 L 208.5 47 Z " /><path fill="rgb(216,209,210)" stroke="rgb(216,209,210)" stroke-width="1" opacity="0.8431372549019608" d="M 303.5 49 L 304 53.5 L 303 53.5 L 303.5 49 Z " /><path fill="rgb(216,209,210)" stroke="rgb(216,209,210)" stroke-width="1" opacity="0.8431372549019608" d="M 207.5 61 L 208 64.5 L 207 64.5 L 207.5 61 Z " /><path fill="rgb(216,209,210)" stroke="rgb(216,209,210)" stroke-width="1" opacity="0.8431372549019608" d="M 304.5 63 L 305 67.5 L 304 67.5 L 304.5 63 Z " /><path fill="rgb(216,209,210)" stroke="rgb(216,209,210)" stroke-width="1" opacity="0.8431372549019608" d="M 206.5 74 L 207 77.5 L 206 77.5 L 206.5 74 Z " /><path fill="rgb(216,209,210)" stroke="rgb(216,209,210)" stroke-width="1" opacity="0.8431372549019608" d="M 305.5 76 L 306 81.5 L 305 81.5 L 305.5 76 Z " /><path fill="rgb(216,209,210)" stroke="rgb(216,209,210)" stroke-width="1" opacity="0.8431372549019608" d="M 205.5 88 L 206 91.5 L 205 91.5 L 205.5 88 Z " /><path fill="rgb(216,209,210)" stroke="rgb(216,209,210)" stroke-width="1" opacity="0.8431372549019608" d="M 306.5 90 L 307 94.5 L 306 94.5 L 306.5 90 Z " /><path fill="rgb(216,209,210)" stroke="rgb(216,209,210)" stroke-width="1" opacity="0.8431372549019608" d="M 102.5 101 L 103 136.5 L 102 136.5 L 102.5 101 Z " /><path fill="rgb(216,209,210)" stroke="rgb(216,209,210)" stroke-width="1" opacity="0.8431372549019608" d="M 204.5 102 L 205 136.5 L 204 136.5 L 204.5 102 Z " /><path fill="rgb(216,209,210)" stroke="rgb(216,209,210)" stroke-width="1" opacity="0.8431372549019608" d="M 307.5 102 L 308 135.5 L 307 135.5 L 307.5 102 Z " /><path fill="rgb(216,209,210)" stroke="rgb(216,209,210)" stroke-width="1" opacity="0.8431372549019608" d="M 0.5 467 L 512 467.5 L 0.5 468 L 0.5 467 Z " /><path fill="rgb(0,0,0)" stroke="rgb(0,0,0)" stroke-width="1" opacity="0" d="M 0 0 L 37 0.5 L 0.5 99 L 0 0 Z " /><path fill="rgb(0,0,0)" stroke="rgb(0,0,0)" stroke-width="1" opacity="0" d="M 475.5 0 L 512 0 L 512 98.5 L 511 98.5 L 475.5 0 Z " /><path fill="rgb(0,0,0)" stroke="rgb(0,0,0)" stroke-width="1" opacity="0" d="M 0.5 161 Q 4.7 180.8 18.5 191 L 33 199.5 L 33 466.5 L 32.5 467 L 0 467 L 0.5 161 Z " /><path fill="rgb(0,0,0)" stroke="rgb(0,0,0)" stroke-width="1" opacity="0" d="M 511.5 161 L 512 467 L 478.5 467 L 478 466.5 L 478 199 Q 493.2 194.5 502 182.5 Q 509.2 174.2 511.5 161 Z " /><path fill="rgb(224,172,91)" stroke="rgb(224,172,91)" stroke-width="1" opacity="0.996078431372549" d="M 299.5 0 L 300 2.5 L 299 2.5 L 299.5 0 Z " /><path fill="rgb(224,172,91)" stroke="rgb(224,172,91)" stroke-width="1" opacity="0.996078431372549" d="M 300.5 13 L 301 16.5 L 300 16.5 L 300.5 13 Z " /><path fill="rgb(224,172,91)" stroke="rgb(224,172,91)" stroke-width="1" opacity="0.996078431372549" d="M 301.5 27 L 302 30.5 L 301 30.5 L 301.5 27 Z " /><path fill="rgb(224,172,91)" stroke="rgb(224,172,91)" stroke-width="1" opacity="0.996078431372549" d="M 302.5 41 L 303 44.5 L 302 44.5 L 302.5 41 Z " /><path fill="rgb(224,172,91)" stroke="rgb(224,172,91)" stroke-width="1" opacity="0.996078431372549" d="M 303.5 54 L 304 57.5 L 303 57.5 L 303.5 54 Z " /><path fill="rgb(224,172,91)" stroke="rgb(224,172,91)" stroke-width="1" opacity="0.996078431372549" d="M 304.5 68 L 305 71.5 L 304 71.5 L 304.5 68 Z " /><path fill="rgb(224,172,91)" stroke="rgb(224,172,91)" stroke-width="1" opacity="0.996078431372549" d="M 305.5 82 L 306 85.5 L 305 85.5 L 305.5 82 Z " /><path fill="rgb(224,172,91)" stroke="rgb(224,172,91)" stroke-width="1" opacity="0.996078431372549" d="M 306.5 95 L 307 98.5 L 306 98.5 L 306.5 95 Z " /><path fill="rgb(224,172,91)" stroke="rgb(224,172,91)" stroke-width="1" opacity="0.996078431372549" d="M 409.5 136 L 410 153.5 L 409 153.5 L 409.5 136 Z " /><path fill="rgb(224,172,91)" stroke="rgb(224,172,91)" stroke-width="1" opacity="0.996078431372549" d="M 205.5 157 L 206 160.5 L 205 160.5 L 205.5 157 Z " /><path fill="rgb(224,172,91)" stroke="rgb(224,172,91)" stroke-width="1" opacity="0.996078431372549" d="M 306.5 157 L 307 160.5 L 306 160.5 L 306.5 157 Z " /><path fill="rgb(224,172,91)" stroke="rgb(224,172,91)" stroke-width="1" opacity="0.996078431372549" d="M 213.5 179 L 214.5 181 L 213.5 179 Z " /><path fill="rgb(224,172,91)" stroke="rgb(224,172,91)" stroke-width="1" opacity="0.996078431372549" d="M 298.5 179 L 297.5 181 L 298.5 179 Z " /><path fill="rgb(224,172,91)" stroke="rgb(224,172,91)" stroke-width="1" opacity="0.996078431372549" d="M 90.5 183 L 88.5 186 L 90.5 183 Z " /><path fill="rgb(224,172,91)" stroke="rgb(224,172,91)" stroke-width="1" opacity="0.996078431372549" d="M 421.5 183 L 423.5 186 L 421.5 183 Z " /><path fill="rgb(224,172,91)" stroke="rgb(224,172,91)" stroke-width="1" opacity="0.996078431372549" d="M 217.5 184 L 221.5 189 L 217.5 184 Z " /><path fill="rgb(224,172,91)" stroke="rgb(224,172,91)" stroke-width="1" opacity="0.996078431372549" d="M 294.5 184 L 290.5 189 L 294.5 184 Z " /><path fill="rgb(224,172,91)" stroke="rgb(224,172,91)" stroke-width="1" opacity="0.996078431372549" d="M 86.5 187 L 84.5 190 L 86.5 187 Z " /><path fill="rgb(224,172,91)" stroke="rgb(224,172,91)" stroke-width="1" opacity="0.996078431372549" d="M 425.5 187 L 427.5 190 L 425.5 187 Z " /><path fill="rgb(224,172,91)" stroke="rgb(224,172,91)" stroke-width="1" opacity="0.996078431372549" d="M 225.5 191 L 226.5 193 L 225.5 191 Z " /><path fill="rgb(224,172,91)" stroke="rgb(224,172,91)" stroke-width="1" opacity="0.996078431372549" d="M 286.5 191 L 285.5 193 L 286.5 191 Z " /><path fill="rgb(224,172,91)" stroke="rgb(224,172,91)" stroke-width="1" opacity="0.996078431372549" d="M 80.5 192 L 79.5 194 L 80.5 192 Z " /><path fill="rgb(224,172,91)" stroke="rgb(224,172,91)" stroke-width="1" opacity="0.996078431372549" d="M 431.5 192 L 432.5 194 L 431.5 192 Z " /><path fill="rgb(224,172,91)" stroke="rgb(224,172,91)" stroke-width="1" opacity="0.996078431372549" d="M 39.5 200 L 42 200.5 L 39.5 201 L 39.5 200 Z " /><path fill="rgb(224,172,91)" stroke="rgb(224,172,91)" stroke-width="1" opacity="0.996078431372549" d="M 470.5 200 L 473 200.5 L 470.5 201 L 470.5 200 Z " /><path fill="rgb(224,172,91)" stroke="rgb(224,172,91)" stroke-width="1" opacity="0.996078431372549" d="M 45.5 201 L 57 201.5 L 45.5 202 L 45.5 201 Z " /><path fill="rgb(224,172,91)" stroke="rgb(224,172,91)" stroke-width="1" opacity="0.996078431372549" d="M 250.5 201 L 262 201.5 L 250.5 202 L 250.5 201 Z " /><path fill="rgb(224,172,91)" stroke="rgb(224,172,91)" stroke-width="1" opacity="0.996078431372549" d="M 455.5 201 L 467 201.5 L 455.5 202 L 455.5 201 Z " /><path fill="rgb(224,172,91)" stroke="rgb(224,172,91)" stroke-width="1" opacity="0.996078431372549" d="M 245.5 228 L 246 391 L 65 390.5 L 245 390 L 245.5 228 Z " /><path fill="rgb(224,172,91)" stroke="rgb(224,172,91)" stroke-width="1" opacity="0.996078431372549" d="M 283.5 228 L 284 466.5 L 283 466.5 L 283.5 228 Z " /><path fill="rgb(254,209,92)" stroke="rgb(254,209,92)" stroke-width="1" opacity="0.996078431372549" d="M 102.5 151 L 103 157.5 L 102 157.5 L 102.5 151 Z " /><path fill="rgb(254,209,92)" stroke="rgb(254,209,92)" stroke-width="1" opacity="0.996078431372549" d="M 409.5 154 L 410 157.5 L 409 157.5 L 409.5 154 Z " /><path fill="rgb(254,209,92)" stroke="rgb(254,209,92)" stroke-width="1" opacity="0.996078431372549" d="M 204.5 156 L 205 158.5 L 204 158.5 L 204.5 156 Z " /><path fill="rgb(254,209,92)" stroke="rgb(254,209,92)" stroke-width="1" opacity="0.996078431372549" d="M 307.5 156 L 308 158.5 L 307 158.5 L 307.5 156 Z " /><path fill="rgb(254,209,92)" stroke="rgb(254,209,92)" stroke-width="1" opacity="0.996078431372549" d="M 108.5 175 L 111 178.5 L 109 177.5 L 108.5 175 Z " /><path fill="rgb(254,209,92)" stroke="rgb(254,209,92)" stroke-width="1" opacity="0.996078431372549" d="M 403.5 175 L 403 176.5 L 401.5 179 L 402 177.5 L 403.5 175 Z " /><path fill="rgb(254,209,92)" stroke="rgb(254,209,92)" stroke-width="1" opacity="0.996078431372549" d="M 196.5 179 L 194.5 182 L 196.5 179 Z " /><path fill="rgb(254,209,92)" stroke="rgb(254,209,92)" stroke-width="1" opacity="0.996078431372549" d="M 315.5 179 L 317.5 182 L 315.5 179 Z " /><path fill="rgb(254,209,92)" stroke="rgb(254,209,92)" stroke-width="1" opacity="0.996078431372549" d="M 111.5 180 L 113.5 183 L 111.5 180 Z " /><path fill="rgb(254,209,92)" stroke="rgb(254,209,92)" stroke-width="1" opacity="0.996078431372549" d="M 400.5 180 L 398.5 183 L 400.5 180 Z " /><path fill="rgb(254,209,92)" stroke="rgb(254,209,92)" stroke-width="1" opacity="0.996078431372549" d="M 92.5 181 L 91.5 183 L 92.5 181 Z " /><path fill="rgb(254,209,92)" stroke="rgb(254,209,92)" stroke-width="1" opacity="0.996078431372549" d="M 419.5 181 L 420.5 183 L 419.5 181 Z " /><path fill="rgb(254,209,92)" stroke="rgb(254,209,92)" stroke-width="1" opacity="0.996078431372549" d="M 215.5 182 L 216.5 184 L 215.5 182 Z " /><path fill="rgb(254,209,92)" stroke="rgb(254,209,92)" stroke-width="1" opacity="0.996078431372549" d="M 296.5 182 L 295.5 184 L 296.5 182 Z " /><path fill="rgb(254,209,92)" stroke="rgb(254,209,92)" stroke-width="1" opacity="0.996078431372549" d="M 192.5 184 L 187.5 190 L 192.5 184 Z " /><path fill="rgb(254,209,92)" stroke="rgb(254,209,92)" stroke-width="1" opacity="0.996078431372549" d="M 319.5 184 L 324.5 190 L 319.5 184 Z " /><path fill="rgb(254,209,92)" stroke="rgb(254,209,92)" stroke-width="1" opacity="0.996078431372549" d="M 115.5 185 L 118.5 189 L 115.5 185 Z " /><path fill="rgb(254,209,92)" stroke="rgb(254,209,92)" stroke-width="1" opacity="0.996078431372549" d="M 396.5 185 L 393.5 189 L 396.5 185 Z " /><path fill="rgb(254,209,92)" stroke="rgb(254,209,92)" stroke-width="1" opacity="0.996078431372549" d="M 88.5 186 L 87.5 188 L 88.5 186 Z " /><path fill="rgb(254,209,92)" stroke="rgb(254,209,92)" stroke-width="1" opacity="0.996078431372549" d="M 423.5 186 L 424.5 188 L 423.5 186 Z " /><path fill="rgb(254,209,92)" stroke="rgb(254,209,92)" stroke-width="1" opacity="0.996078431372549" d="M 222.5 189 L 223.5 191 L 222.5 189 Z " /><path fill="rgb(254,209,92)" stroke="rgb(254,209,92)" stroke-width="1" opacity="0.996078431372549" d="M 289.5 189 L 288.5 191 L 289.5 189 Z " /><path fill="rgb(254,209,92)" stroke="rgb(254,209,92)" stroke-width="1" opacity="0.996078431372549" d="M 83.5 190 L 82.5 192 L 83.5 190 Z " /><path fill="rgb(254,209,92)" stroke="rgb(254,209,92)" stroke-width="1" opacity="0.996078431372549" d="M 121.5 190 L 123.5 193 L 121.5 190 Z " /><path fill="rgb(254,209,92)" stroke="rgb(254,209,92)" stroke-width="1" opacity="0.996078431372549" d="M 390.5 190 L 388.5 193 L 390.5 190 Z " /><path fill="rgb(254,209,92)" stroke="rgb(254,209,92)" stroke-width="1" opacity="0.996078431372549" d="M 428.5 190 L 429.5 192 L 428.5 190 Z " /><path fill="rgb(254,209,92)" stroke="rgb(254,209,92)" stroke-width="1" opacity="0.996078431372549" d="M 184.5 191 L 182.5 194 L 184.5 191 Z " /><path fill="rgb(254,209,92)" stroke="rgb(254,209,92)" stroke-width="1" opacity="0.996078431372549" d="M 327.5 191 L 329.5 194 L 327.5 191 Z " /><path fill="rgb(254,209,92)" stroke="rgb(254,209,92)" stroke-width="1" opacity="0.996078431372549" d="M 125.5 193 L 129 195.5 L 127.5 195 L 125.5 193 Z " /><path fill="rgb(254,209,92)" stroke="rgb(254,209,92)" stroke-width="1" opacity="0.996078431372549" d="M 386.5 193 L 385.5 195 L 383.5 196 L 384.5 194 L 386.5 193 Z " /><path fill="rgb(254,209,92)" stroke="rgb(254,209,92)" stroke-width="1" opacity="0.996078431372549" d="M 33.5 199 L 34 466.5 L 33 466.5 L 33.5 199 Z " /><path fill="rgb(254,209,92)" stroke="rgb(254,209,92)" stroke-width="1" opacity="0.996078431372549" d="M 477.5 199 L 478 466.5 L 477 466.5 L 477.5 199 Z " /><path fill="rgb(254,209,92)" stroke="rgb(254,209,92)" stroke-width="1" opacity="0.996078431372549" d="M 146.5 201 L 152 201.5 L 146.5 202 L 146.5 201 Z " /><path fill="rgb(254,209,92)" stroke="rgb(254,209,92)" stroke-width="1" opacity="0.996078431372549" d="M 155.5 201 L 161 201.5 L 155.5 202 L 155.5 201 Z " /><path fill="rgb(254,209,92)" stroke="rgb(254,209,92)" stroke-width="1" opacity="0.996078431372549" d="M 351.5 201 L 357 201.5 L 351.5 202 L 351.5 201 Z " /><path fill="rgb(254,209,92)" stroke="rgb(254,209,92)" stroke-width="1" opacity="0.996078431372549" d="M 360.5 201 L 366 201.5 L 360.5 202 L 360.5 201 Z " /><path fill="rgb(255,209,92)" stroke="rgb(255,209,92)" stroke-width="1" opacity="1" d="M 102.5 158 Q 105.7 178.3 118.5 189 Q 126.3 196.2 137.5 200 L 146.5 202 L 160.5 202 Q 182 198.5 193 184.5 Q 202.1 175.1 204.5 159 Q 208.9 180.1 223.5 191 Q 231.4 198.1 243.5 201 L 262.5 202 L 277.5 198 Q 289.2 192.2 297 182.5 Q 304.9 173.4 307.5 159 Q 311 179.5 324.5 190 Q 331.7 196.8 342.5 200 L 351.5 202 L 365.5 202 Q 385.9 198.4 397 185.5 Q 407.4 175.9 409.5 158 L 413 171.5 L 424.5 188 Q 433 195.5 444.5 200 L 453.5 202 L 467.5 202 L 477 200 L 477 466.5 L 476.5 467 L 446 467 L 446 228 L 283 228 L 283 467 L 34 467 L 34.5 199 L 44.5 202 L 58.5 202 Q 77.9 198.4 89 186.5 L 99 171.5 L 102.5 158 Z M 65 228 L 65 391 L 246 391 L 246 228 L 65 228 Z " /><path fill="rgb(206,214,224)" stroke="rgb(206,214,224)" stroke-width="1" opacity="1" d="M 102.5 137 L 103 150.5 L 102 150.5 L 102.5 137 Z " /><path fill="rgb(206,214,224)" stroke="rgb(206,214,224)" stroke-width="1" opacity="1" d="M 204.5 137 L 205 152.5 L 204 152.5 L 204.5 137 Z " /><path fill="rgb(206,214,224)" stroke="rgb(206,214,224)" stroke-width="1" opacity="1" d="M 0 468 L 511.5 468 L 512 468.5 L 512 512 L 0.5 512 L 0 511.5 L 0 468 Z " /><path fill="rgb(135,213,246)" stroke="rgb(135,213,246)" stroke-width="1" opacity="1" d="M 81 244 L 229 244.5 L 82 245 L 82 374 L 228.5 374 L 228.5 375 L 81 375 L 81 244 Z " /><path fill="rgb(135,213,246)" stroke="rgb(135,213,246)" stroke-width="1" opacity="1" d="M 300.5 244 L 430 244 L 430 450.5 L 429 450.5 L 429 245 L 300.5 245 L 300.5 244 Z " /><path fill="rgb(135,213,246)" stroke="rgb(135,213,246)" stroke-width="1" opacity="1" d="M 150.5 263 Q 158.5 261.5 161 265.5 L 162 269.5 L 161 272.5 L 105.5 328 Q 96.8 329.8 95 324.5 L 96 317.5 L 150.5 263 Z " /><path fill="rgb(135,213,246)" stroke="rgb(135,213,246)" stroke-width="1" opacity="1" d="M 165.5 293 L 169.5 294 L 173 297.5 L 172 304.5 L 137.5 339 L 129.5 340 Q 124.9 338.1 126 330.5 L 160.5 295 L 165.5 293 Z " /><path fill="rgb(135,213,246)" stroke="rgb(135,213,246)" stroke-width="1" opacity="1" d="M 314.5 334 L 317 334.5 Q 311 335.5 308.5 340 L 312.5 335 L 314.5 334 Z " /><path fill="rgb(135,213,246)" stroke="rgb(135,213,246)" stroke-width="1" opacity="1" d="M 323.5 334 Q 329.9 334.7 332 339.5 L 327.5 336 L 323.5 335 L 323.5 334 Z " /><path fill="rgb(135,213,246)" stroke="rgb(135,213,246)" stroke-width="1" opacity="1" d="M 306.5 350 L 309 355.5 L 307 354.5 L 306.5 350 Z " /><path fill="rgb(135,213,246)" stroke="rgb(135,213,246)" stroke-width="1" opacity="1" d="M 333.5 350 L 334 352.5 L 331.5 356 L 332 354.5 L 333.5 350 Z " /><path fill="rgb(135,213,246)" stroke="rgb(135,213,246)" stroke-width="1" opacity="1" d="M 309.5 357 L 315 360.5 L 313.5 361 L 309.5 357 Z " /><path fill="rgb(135,213,246)" stroke="rgb(135,213,246)" stroke-width="1" opacity="1" d="M 330.5 357 L 329.5 359 L 325.5 361 L 325.5 360 L 330.5 357 Z " /><path fill="rgb(135,213,246)" stroke="rgb(135,213,246)" stroke-width="1" opacity="1" d="M 316.5 361 L 324 361.5 L 316.5 362 L 316.5 361 Z " /><path fill="rgb(138,215,248)" stroke="rgb(138,215,248)" stroke-width="1" opacity="1" d="M 82 245 L 229 245 L 229 374 L 82 374 L 82 245 Z M 151 263 L 96 318 L 95 325 Q 97 330 106 328 L 161 273 L 162 270 L 161 266 Q 158 262 151 263 Z M 166 293 L 161 295 L 126 331 Q 125 338 130 340 L 138 339 L 172 305 L 173 298 L 170 294 L 166 293 Z " /><path fill="rgb(138,215,248)" stroke="rgb(138,215,248)" stroke-width="1" opacity="1" d="M 300 245 L 429 245 L 429 451 L 300 451 L 300 245 Z M 320 333 L 313 335 L 306 344 Q 304 354 309 358 L 317 362 Q 326 363 330 359 L 334 353 Q 336 344 332 340 L 328 335 L 320 333 Z " /></svg>